G04 #@! TF.GenerationSoftware,KiCad,Pcbnew,6.0.5+dfsg-1~bpo11+1*
G04 #@! TF.CreationDate,2023-01-13T16:16:14+00:00*
G04 #@! TF.ProjectId,nascontrol-remote,6e617363-6f6e-4747-926f-6c2d72656d6f,rev?*
G04 #@! TF.SameCoordinates,Original*
G04 #@! TF.FileFunction,Copper,L2,Bot*
G04 #@! TF.FilePolarity,Positive*
%FSLAX46Y46*%
G04 Gerber Fmt 4.6, Leading zero omitted, Abs format (unit mm)*
G04 Created by KiCad (PCBNEW 6.0.5+dfsg-1~bpo11+1) date 2023-01-13 16:16:14*
%MOMM*%
%LPD*%
G01*
G04 APERTURE LIST*
G04 #@! TA.AperFunction,ComponentPad*
%ADD10C,6.400000*%
G04 #@! TD*
G04 #@! TA.AperFunction,ComponentPad*
%ADD11R,1.500000X1.600000*%
G04 #@! TD*
G04 #@! TA.AperFunction,ComponentPad*
%ADD12C,1.600000*%
G04 #@! TD*
G04 #@! TA.AperFunction,ComponentPad*
%ADD13C,3.000000*%
G04 #@! TD*
G04 #@! TA.AperFunction,ComponentPad*
%ADD14R,1.500000X1.500000*%
G04 #@! TD*
G04 #@! TA.AperFunction,ComponentPad*
%ADD15C,1.500000*%
G04 #@! TD*
G04 #@! TA.AperFunction,ComponentPad*
%ADD16C,2.300000*%
G04 #@! TD*
G04 #@! TA.AperFunction,ComponentPad*
%ADD17R,1.700000X1.700000*%
G04 #@! TD*
G04 #@! TA.AperFunction,ComponentPad*
%ADD18O,1.700000X1.700000*%
G04 #@! TD*
G04 #@! TA.AperFunction,ViaPad*
%ADD19C,0.800000*%
G04 #@! TD*
G04 #@! TA.AperFunction,Conductor*
%ADD20C,0.500000*%
G04 #@! TD*
G04 #@! TA.AperFunction,Conductor*
%ADD21C,1.000000*%
G04 #@! TD*
G04 #@! TA.AperFunction,Conductor*
%ADD22C,0.250000*%
G04 #@! TD*
G04 #@! TA.AperFunction,Conductor*
%ADD23C,0.200000*%
G04 #@! TD*
G04 APERTURE END LIST*
D10*
X104000000Y-146000000D03*
D11*
X113360000Y-128500000D03*
D12*
X113360000Y-131000000D03*
X113360000Y-133000000D03*
X113360000Y-135500000D03*
D13*
X110650000Y-125430000D03*
X110650000Y-138570000D03*
D14*
X108225000Y-84560000D03*
D15*
X110005000Y-83544000D03*
X108225000Y-82528000D03*
X110005000Y-81512000D03*
X108225000Y-80496000D03*
X110005000Y-79480000D03*
X108225000Y-78464000D03*
X110005000Y-77448000D03*
X114825000Y-87860000D03*
X114825000Y-85570000D03*
X114825000Y-76430000D03*
X114825000Y-74140000D03*
D16*
X109115000Y-89130000D03*
X109115000Y-72870000D03*
D17*
X142725000Y-114925000D03*
D18*
X145265000Y-114925000D03*
X142725000Y-117465000D03*
X145265000Y-117465000D03*
X142725000Y-120005000D03*
X145265000Y-120005000D03*
X142725000Y-122545000D03*
X145265000Y-122545000D03*
X142725000Y-125085000D03*
X145265000Y-125085000D03*
D17*
X137000000Y-64000000D03*
D18*
X139540000Y-64000000D03*
X137000000Y-66540000D03*
X139540000Y-66540000D03*
X137000000Y-69080000D03*
X139540000Y-69080000D03*
X137000000Y-71620000D03*
X139540000Y-71620000D03*
X137000000Y-74160000D03*
X139540000Y-74160000D03*
D17*
X120925000Y-121275000D03*
D18*
X120925000Y-118735000D03*
X123465000Y-121275000D03*
X123465000Y-118735000D03*
X126005000Y-121275000D03*
X126005000Y-118735000D03*
X128545000Y-121275000D03*
X128545000Y-118735000D03*
X131085000Y-121275000D03*
X131085000Y-118735000D03*
D17*
X137000000Y-83000000D03*
D18*
X139540000Y-83000000D03*
X137000000Y-85540000D03*
X139540000Y-85540000D03*
X137000000Y-88080000D03*
X139540000Y-88080000D03*
X137000000Y-90620000D03*
X139540000Y-90620000D03*
X137000000Y-93160000D03*
X139540000Y-93160000D03*
D11*
X113360000Y-102500000D03*
D12*
X113360000Y-105000000D03*
X113360000Y-107000000D03*
X113360000Y-109500000D03*
D13*
X110650000Y-99430000D03*
X110650000Y-112570000D03*
D19*
X119500000Y-70000000D03*
X118500000Y-83000000D03*
X119000000Y-100000000D03*
X123500000Y-89500000D03*
X123500000Y-82500000D03*
X108500000Y-94500000D03*
X105500000Y-79500000D03*
X112050000Y-90200000D03*
X118000000Y-62000000D03*
X112050000Y-81300000D03*
X114400000Y-83250000D03*
X119000000Y-101500000D03*
X123000000Y-69000000D03*
X101500000Y-75000000D03*
X101500000Y-85000000D03*
X111000000Y-94000000D03*
X109500000Y-92500000D03*
X114500000Y-65500000D03*
X115150000Y-80650000D03*
X113650000Y-92850000D03*
X124000000Y-68500000D03*
X124500000Y-96500000D03*
X109500000Y-62500000D03*
X103500000Y-69500000D03*
X120000000Y-90500000D03*
X119750000Y-85600000D03*
X111050000Y-85900000D03*
X133300000Y-100800000D03*
X133300000Y-86800000D03*
X122800000Y-106000000D03*
X133300000Y-80600000D03*
X115200000Y-132000000D03*
X116900000Y-132000000D03*
X116900000Y-106000000D03*
X115200000Y-106000000D03*
X137700000Y-103600000D03*
X133500000Y-71200000D03*
X133000000Y-63700000D03*
X122800000Y-132000000D03*
X121000000Y-70000000D03*
X123500000Y-76000000D03*
X134161166Y-97938834D03*
X136600000Y-98000000D03*
D20*
X113471366Y-79480000D02*
X110005000Y-79480000D01*
X118500000Y-83000000D02*
X118500000Y-99500000D01*
X118500000Y-99500000D02*
X119000000Y-100000000D01*
X119500000Y-73451366D02*
X113471366Y-79480000D01*
X119500000Y-70000000D02*
X119500000Y-73451366D01*
X133300000Y-86800000D02*
X133300000Y-100800000D01*
X120925000Y-107875000D02*
X122800000Y-106000000D01*
X113360000Y-102500000D02*
X119300000Y-102500000D01*
X119300000Y-102500000D02*
X122800000Y-106000000D01*
X133300000Y-80600000D02*
X133300000Y-86800000D01*
X120925000Y-118735000D02*
X120925000Y-107875000D01*
D21*
X109115000Y-72870000D02*
X107965000Y-71720000D01*
X104280000Y-71720000D02*
X103310479Y-72689521D01*
X103310479Y-72689521D02*
X103310479Y-89310479D01*
X107965000Y-71720000D02*
X104280000Y-71720000D01*
X104280000Y-90280000D02*
X107965000Y-90280000D01*
X103310479Y-89310479D02*
X104280000Y-90280000D01*
X107965000Y-90280000D02*
X109115000Y-89130000D01*
D22*
X137700000Y-112440000D02*
X142725000Y-117465000D01*
X137700000Y-103600000D02*
X137700000Y-112440000D01*
D23*
X138390489Y-65149511D02*
X138390489Y-67209511D01*
X133500000Y-70900000D02*
X133500000Y-71200000D01*
X138390489Y-67209511D02*
X137669511Y-67930489D01*
X139540000Y-64000000D02*
X138390489Y-65149511D01*
X137669511Y-67930489D02*
X136469511Y-67930489D01*
X136469511Y-67930489D02*
X133500000Y-70900000D01*
X133000000Y-63700000D02*
X134160000Y-63700000D01*
X134160000Y-63700000D02*
X137000000Y-66540000D01*
D20*
X113360000Y-128500000D02*
X119300000Y-128500000D01*
X119300000Y-128500000D02*
X122800000Y-132000000D01*
X120925000Y-126875000D02*
X119300000Y-128500000D01*
X120925000Y-121275000D02*
X120925000Y-126875000D01*
D22*
X121000000Y-73500000D02*
X123500000Y-76000000D01*
X121000000Y-70000000D02*
X121000000Y-73500000D01*
X134161166Y-97938834D02*
X136561166Y-97938834D01*
G04 #@! TA.AperFunction,Conductor*
G36*
X149477648Y-60522352D02*
G01*
X149492000Y-60557000D01*
X149492000Y-149443000D01*
X149477648Y-149477648D01*
X149443000Y-149492000D01*
X100557000Y-149492000D01*
X100522352Y-149477648D01*
X100508000Y-149443000D01*
X100508000Y-138548918D01*
X108636917Y-138548918D01*
X108652682Y-138822320D01*
X108705405Y-139091053D01*
X108705943Y-139092625D01*
X108705944Y-139092628D01*
X108725671Y-139150244D01*
X108794112Y-139350144D01*
X108917160Y-139594799D01*
X109072274Y-139820490D01*
X109256582Y-140023043D01*
X109257856Y-140024109D01*
X109257860Y-140024112D01*
X109465395Y-140197637D01*
X109466675Y-140198707D01*
X109698664Y-140344234D01*
X109700173Y-140344915D01*
X109700178Y-140344918D01*
X109840459Y-140408257D01*
X109948257Y-140456930D01*
X109949843Y-140457400D01*
X109949849Y-140457402D01*
X110074080Y-140494200D01*
X110210836Y-140534709D01*
X110212485Y-140534961D01*
X110212488Y-140534962D01*
X110291878Y-140547110D01*
X110481540Y-140576132D01*
X110604557Y-140578065D01*
X110753691Y-140580408D01*
X110753695Y-140580408D01*
X110755362Y-140580434D01*
X110810313Y-140573784D01*
X111025578Y-140547735D01*
X111025585Y-140547734D01*
X111027235Y-140547534D01*
X111150128Y-140515294D01*
X111290516Y-140478464D01*
X111290521Y-140478462D01*
X111292127Y-140478041D01*
X111545136Y-140373241D01*
X111781582Y-140235073D01*
X111829326Y-140197637D01*
X111995776Y-140067124D01*
X111995780Y-140067120D01*
X111997089Y-140066094D01*
X112037773Y-140024112D01*
X112186510Y-139870627D01*
X112187669Y-139869431D01*
X112349795Y-139648723D01*
X112480468Y-139408054D01*
X112577269Y-139151877D01*
X112590839Y-139092628D01*
X112638035Y-138886559D01*
X112638036Y-138886553D01*
X112638407Y-138884933D01*
X112662751Y-138612161D01*
X112663193Y-138570000D01*
X112644567Y-138296778D01*
X112589032Y-138028612D01*
X112582432Y-138009974D01*
X112498175Y-137772039D01*
X112498172Y-137772031D01*
X112497617Y-137770465D01*
X112372013Y-137527112D01*
X112371053Y-137525747D01*
X112371050Y-137525741D01*
X112215511Y-137304432D01*
X112214545Y-137303057D01*
X112028125Y-137102445D01*
X111816205Y-136928990D01*
X111785753Y-136910329D01*
X111584136Y-136786778D01*
X111584130Y-136786775D01*
X111582704Y-136785901D01*
X111562635Y-136777091D01*
X111478242Y-136740045D01*
X111331945Y-136675825D01*
X111176929Y-136631668D01*
X111070175Y-136601258D01*
X111070170Y-136601257D01*
X111068566Y-136600800D01*
X111066914Y-136600565D01*
X111066910Y-136600564D01*
X110799105Y-136562449D01*
X110799097Y-136562448D01*
X110797443Y-136562213D01*
X110795766Y-136562204D01*
X110795763Y-136562204D01*
X110665412Y-136561522D01*
X110523591Y-136560780D01*
X110521938Y-136560998D01*
X110521932Y-136560998D01*
X110387835Y-136578652D01*
X110252078Y-136596525D01*
X109987928Y-136668788D01*
X109986398Y-136669440D01*
X109986391Y-136669443D01*
X109737565Y-136775577D01*
X109737562Y-136775579D01*
X109736030Y-136776232D01*
X109501043Y-136916868D01*
X109499748Y-136917906D01*
X109499743Y-136917909D01*
X109288622Y-137087049D01*
X109287318Y-137088094D01*
X109098808Y-137286742D01*
X108939002Y-137509136D01*
X108810857Y-137751161D01*
X108716743Y-138008337D01*
X108658404Y-138275907D01*
X108636917Y-138548918D01*
X100508000Y-138548918D01*
X100508000Y-125408918D01*
X108636917Y-125408918D01*
X108652682Y-125682320D01*
X108664641Y-125743275D01*
X108693743Y-125891609D01*
X108705405Y-125951053D01*
X108705943Y-125952625D01*
X108705944Y-125952628D01*
X108791545Y-126202645D01*
X108794112Y-126210144D01*
X108794866Y-126211643D01*
X108912985Y-126446497D01*
X108917160Y-126454799D01*
X109072274Y-126680490D01*
X109256582Y-126883043D01*
X109257856Y-126884109D01*
X109257860Y-126884112D01*
X109448246Y-127043298D01*
X109466675Y-127058707D01*
X109698664Y-127204234D01*
X109700173Y-127204915D01*
X109700178Y-127204918D01*
X109795944Y-127248158D01*
X109948257Y-127316930D01*
X109949843Y-127317400D01*
X109949849Y-127317402D01*
X110074080Y-127354200D01*
X110210836Y-127394709D01*
X110212485Y-127394961D01*
X110212488Y-127394962D01*
X110291878Y-127407110D01*
X110481540Y-127436132D01*
X110604557Y-127438065D01*
X110753691Y-127440408D01*
X110753695Y-127440408D01*
X110755362Y-127440434D01*
X110830528Y-127431338D01*
X111025578Y-127407735D01*
X111025585Y-127407734D01*
X111027235Y-127407534D01*
X111150128Y-127375294D01*
X111290516Y-127338464D01*
X111290521Y-127338462D01*
X111292127Y-127338041D01*
X111545136Y-127233241D01*
X111781582Y-127095073D01*
X111849742Y-127041629D01*
X111995776Y-126927124D01*
X111995780Y-126927120D01*
X111997089Y-126926094D01*
X112037773Y-126884112D01*
X112186510Y-126730627D01*
X112187669Y-126729431D01*
X112349795Y-126508723D01*
X112480468Y-126268054D01*
X112577269Y-126011877D01*
X112590839Y-125952628D01*
X112638035Y-125746559D01*
X112638036Y-125746553D01*
X112638407Y-125744933D01*
X112662751Y-125472161D01*
X112663193Y-125430000D01*
X112644567Y-125156778D01*
X112589032Y-124888612D01*
X112582432Y-124869974D01*
X112498175Y-124632039D01*
X112498172Y-124632031D01*
X112497617Y-124630465D01*
X112372013Y-124387112D01*
X112371053Y-124385747D01*
X112371050Y-124385741D01*
X112276909Y-124251792D01*
X112214545Y-124163057D01*
X112144845Y-124088051D01*
X112029258Y-123963664D01*
X112029256Y-123963662D01*
X112028125Y-123962445D01*
X111863046Y-123827329D01*
X111817498Y-123790048D01*
X111817495Y-123790046D01*
X111816205Y-123788990D01*
X111784788Y-123769738D01*
X111584136Y-123646778D01*
X111584130Y-123646775D01*
X111582704Y-123645901D01*
X111562635Y-123637091D01*
X111443415Y-123584757D01*
X111331945Y-123535825D01*
X111176929Y-123491668D01*
X111070175Y-123461258D01*
X111070170Y-123461257D01*
X111068566Y-123460800D01*
X111066914Y-123460565D01*
X111066910Y-123460564D01*
X110799105Y-123422449D01*
X110799097Y-123422448D01*
X110797443Y-123422213D01*
X110795766Y-123422204D01*
X110795763Y-123422204D01*
X110665412Y-123421522D01*
X110523591Y-123420780D01*
X110521938Y-123420998D01*
X110521932Y-123420998D01*
X110387835Y-123438652D01*
X110252078Y-123456525D01*
X109987928Y-123528788D01*
X109986398Y-123529440D01*
X109986391Y-123529443D01*
X109737565Y-123635577D01*
X109737562Y-123635579D01*
X109736030Y-123636232D01*
X109501043Y-123776868D01*
X109499748Y-123777906D01*
X109499743Y-123777909D01*
X109396563Y-123860572D01*
X109287318Y-123948094D01*
X109098808Y-124146742D01*
X108939002Y-124369136D01*
X108810857Y-124611161D01*
X108716743Y-124868337D01*
X108658404Y-125135907D01*
X108658273Y-125137570D01*
X108658273Y-125137571D01*
X108647325Y-125276679D01*
X108636917Y-125408918D01*
X100508000Y-125408918D01*
X100508000Y-112548918D01*
X108636917Y-112548918D01*
X108652682Y-112822320D01*
X108705405Y-113091053D01*
X108705943Y-113092625D01*
X108705944Y-113092628D01*
X108725671Y-113150244D01*
X108794112Y-113350144D01*
X108794866Y-113351643D01*
X108906325Y-113573255D01*
X108917160Y-113594799D01*
X108918107Y-113596176D01*
X108918107Y-113596177D01*
X108936651Y-113623158D01*
X109072274Y-113820490D01*
X109256582Y-114023043D01*
X109257856Y-114024109D01*
X109257860Y-114024112D01*
X109391123Y-114135536D01*
X109466675Y-114198707D01*
X109698664Y-114344234D01*
X109700173Y-114344915D01*
X109700178Y-114344918D01*
X109840459Y-114408257D01*
X109948257Y-114456930D01*
X109949843Y-114457400D01*
X109949849Y-114457402D01*
X110039165Y-114483858D01*
X110210836Y-114534709D01*
X110212485Y-114534961D01*
X110212488Y-114534962D01*
X110291878Y-114547110D01*
X110481540Y-114576132D01*
X110604557Y-114578065D01*
X110753691Y-114580408D01*
X110753695Y-114580408D01*
X110755362Y-114580434D01*
X110810313Y-114573784D01*
X111025578Y-114547735D01*
X111025585Y-114547734D01*
X111027235Y-114547534D01*
X111150128Y-114515294D01*
X111290516Y-114478464D01*
X111290521Y-114478462D01*
X111292127Y-114478041D01*
X111545136Y-114373241D01*
X111781582Y-114235073D01*
X111829326Y-114197637D01*
X111995776Y-114067124D01*
X111995780Y-114067120D01*
X111997089Y-114066094D01*
X112037773Y-114024112D01*
X112186510Y-113870627D01*
X112187669Y-113869431D01*
X112349795Y-113648723D01*
X112480468Y-113408054D01*
X112577269Y-113151877D01*
X112590839Y-113092628D01*
X112638035Y-112886559D01*
X112638036Y-112886553D01*
X112638407Y-112884933D01*
X112662751Y-112612161D01*
X112663193Y-112570000D01*
X112661140Y-112539889D01*
X112644680Y-112298433D01*
X112644680Y-112298430D01*
X112644567Y-112296778D01*
X112589032Y-112028612D01*
X112582432Y-112009974D01*
X112498175Y-111772039D01*
X112498172Y-111772031D01*
X112497617Y-111770465D01*
X112372013Y-111527112D01*
X112371053Y-111525747D01*
X112371050Y-111525741D01*
X112215511Y-111304432D01*
X112214545Y-111303057D01*
X112028125Y-111102445D01*
X111816205Y-110928990D01*
X111785753Y-110910329D01*
X111584136Y-110786778D01*
X111584130Y-110786775D01*
X111582704Y-110785901D01*
X111562635Y-110777091D01*
X111478242Y-110740045D01*
X111331945Y-110675825D01*
X111176929Y-110631668D01*
X111070175Y-110601258D01*
X111070170Y-110601257D01*
X111068566Y-110600800D01*
X111066914Y-110600565D01*
X111066910Y-110600564D01*
X110799105Y-110562449D01*
X110799097Y-110562448D01*
X110797443Y-110562213D01*
X110795766Y-110562204D01*
X110795763Y-110562204D01*
X110665412Y-110561522D01*
X110523591Y-110560780D01*
X110521938Y-110560998D01*
X110521932Y-110560998D01*
X110387835Y-110578652D01*
X110252078Y-110596525D01*
X109987928Y-110668788D01*
X109986398Y-110669440D01*
X109986391Y-110669443D01*
X109737565Y-110775577D01*
X109737562Y-110775579D01*
X109736030Y-110776232D01*
X109501043Y-110916868D01*
X109499748Y-110917906D01*
X109499743Y-110917909D01*
X109288622Y-111087049D01*
X109287318Y-111088094D01*
X109098808Y-111286742D01*
X108939002Y-111509136D01*
X108810857Y-111751161D01*
X108716743Y-112008337D01*
X108658404Y-112275907D01*
X108658273Y-112277570D01*
X108658273Y-112277571D01*
X108637628Y-112539889D01*
X108636917Y-112548918D01*
X100508000Y-112548918D01*
X100508000Y-99408918D01*
X108636917Y-99408918D01*
X108652682Y-99682320D01*
X108705405Y-99951053D01*
X108705943Y-99952625D01*
X108705944Y-99952628D01*
X108783063Y-100177872D01*
X108794112Y-100210144D01*
X108917160Y-100454799D01*
X109072274Y-100680490D01*
X109256582Y-100883043D01*
X109257856Y-100884109D01*
X109257860Y-100884112D01*
X109387334Y-100992368D01*
X109466675Y-101058707D01*
X109698664Y-101204234D01*
X109700173Y-101204915D01*
X109700178Y-101204918D01*
X109795944Y-101248158D01*
X109948257Y-101316930D01*
X109949843Y-101317400D01*
X109949849Y-101317402D01*
X110074080Y-101354200D01*
X110210836Y-101394709D01*
X110212485Y-101394961D01*
X110212488Y-101394962D01*
X110291878Y-101407110D01*
X110481540Y-101436132D01*
X110604557Y-101438065D01*
X110753691Y-101440408D01*
X110753695Y-101440408D01*
X110755362Y-101440434D01*
X110810313Y-101433784D01*
X111025578Y-101407735D01*
X111025585Y-101407734D01*
X111027235Y-101407534D01*
X111150128Y-101375294D01*
X111290516Y-101338464D01*
X111290521Y-101338462D01*
X111292127Y-101338041D01*
X111545136Y-101233241D01*
X111781582Y-101095073D01*
X111912567Y-100992368D01*
X111995776Y-100927124D01*
X111995780Y-100927120D01*
X111997089Y-100926094D01*
X112037773Y-100884112D01*
X112186510Y-100730627D01*
X112187669Y-100729431D01*
X112349795Y-100508723D01*
X112480468Y-100268054D01*
X112577269Y-100011877D01*
X112590839Y-99952628D01*
X112638035Y-99746559D01*
X112638036Y-99746553D01*
X112638407Y-99744933D01*
X112662751Y-99472161D01*
X112663193Y-99430000D01*
X112661643Y-99407261D01*
X112644680Y-99158433D01*
X112644680Y-99158430D01*
X112644567Y-99156778D01*
X112589032Y-98888612D01*
X112582203Y-98869327D01*
X112498175Y-98632039D01*
X112498172Y-98632031D01*
X112497617Y-98630465D01*
X112372013Y-98387112D01*
X112371053Y-98385747D01*
X112371050Y-98385741D01*
X112215511Y-98164432D01*
X112214545Y-98163057D01*
X112028125Y-97962445D01*
X111816205Y-97788990D01*
X111785753Y-97770329D01*
X111584136Y-97646778D01*
X111584130Y-97646775D01*
X111582704Y-97645901D01*
X111562635Y-97637091D01*
X111478242Y-97600045D01*
X111331945Y-97535825D01*
X111176929Y-97491668D01*
X111070175Y-97461258D01*
X111070170Y-97461257D01*
X111068566Y-97460800D01*
X111066914Y-97460565D01*
X111066910Y-97460564D01*
X110799105Y-97422449D01*
X110799097Y-97422448D01*
X110797443Y-97422213D01*
X110795766Y-97422204D01*
X110795763Y-97422204D01*
X110665412Y-97421522D01*
X110523591Y-97420780D01*
X110521938Y-97420998D01*
X110521932Y-97420998D01*
X110387834Y-97438653D01*
X110252078Y-97456525D01*
X109987928Y-97528788D01*
X109986398Y-97529440D01*
X109986391Y-97529443D01*
X109737565Y-97635577D01*
X109737562Y-97635579D01*
X109736030Y-97636232D01*
X109501043Y-97776868D01*
X109499748Y-97777906D01*
X109499743Y-97777909D01*
X109456413Y-97812623D01*
X109287318Y-97948094D01*
X109098808Y-98146742D01*
X108939002Y-98369136D01*
X108810857Y-98611161D01*
X108767937Y-98728444D01*
X108724988Y-98845808D01*
X108716743Y-98868337D01*
X108658404Y-99135907D01*
X108658273Y-99137570D01*
X108658273Y-99137571D01*
X108652661Y-99208882D01*
X108636917Y-99408918D01*
X100508000Y-99408918D01*
X100508000Y-96049000D01*
X100522352Y-96014352D01*
X100557000Y-96000000D01*
X116951000Y-96000000D01*
X116985648Y-96014352D01*
X117000000Y-96049000D01*
X117000000Y-101692500D01*
X116985648Y-101727148D01*
X116951000Y-101741500D01*
X114667500Y-101741500D01*
X114632852Y-101727148D01*
X114618500Y-101692500D01*
X114618500Y-101651866D01*
X114611745Y-101589684D01*
X114570766Y-101480371D01*
X114561842Y-101456567D01*
X114561841Y-101456565D01*
X114560615Y-101453295D01*
X114547563Y-101435879D01*
X114475355Y-101339533D01*
X114473261Y-101336739D01*
X114356705Y-101249385D01*
X114353435Y-101248159D01*
X114353433Y-101248158D01*
X114223190Y-101199332D01*
X114223187Y-101199331D01*
X114220316Y-101198255D01*
X114217266Y-101197924D01*
X114217263Y-101197923D01*
X114190067Y-101194969D01*
X114158134Y-101191500D01*
X112561866Y-101191500D01*
X112529933Y-101194969D01*
X112502737Y-101197923D01*
X112502734Y-101197924D01*
X112499684Y-101198255D01*
X112496813Y-101199331D01*
X112496810Y-101199332D01*
X112366567Y-101248158D01*
X112366565Y-101248159D01*
X112363295Y-101249385D01*
X112246739Y-101336739D01*
X112244645Y-101339533D01*
X112172438Y-101435879D01*
X112159385Y-101453295D01*
X112158159Y-101456565D01*
X112158158Y-101456567D01*
X112149235Y-101480371D01*
X112108255Y-101589684D01*
X112101500Y-101651866D01*
X112101500Y-103348134D01*
X112108255Y-103410316D01*
X112159385Y-103546705D01*
X112161480Y-103549501D01*
X112161481Y-103549502D01*
X112244645Y-103660467D01*
X112246739Y-103663261D01*
X112363295Y-103750615D01*
X112366565Y-103751841D01*
X112366567Y-103751842D01*
X112496810Y-103800668D01*
X112496813Y-103800669D01*
X112499684Y-103801745D01*
X112502734Y-103802076D01*
X112502737Y-103802077D01*
X112529933Y-103805031D01*
X112561866Y-103808500D01*
X112624931Y-103808500D01*
X112659579Y-103822852D01*
X112673931Y-103857500D01*
X112659579Y-103892148D01*
X112653036Y-103897638D01*
X112515700Y-103993802D01*
X112353802Y-104155700D01*
X112352572Y-104157457D01*
X112352570Y-104157459D01*
X112223703Y-104341500D01*
X112222477Y-104343251D01*
X112125716Y-104550757D01*
X112066457Y-104771913D01*
X112046502Y-105000000D01*
X112046688Y-105002126D01*
X112064909Y-105210390D01*
X112066457Y-105228087D01*
X112125716Y-105449243D01*
X112222477Y-105656749D01*
X112223703Y-105658499D01*
X112223703Y-105658500D01*
X112328127Y-105807632D01*
X112353802Y-105844300D01*
X112474854Y-105965352D01*
X112489206Y-106000000D01*
X112474854Y-106034648D01*
X112353802Y-106155700D01*
X112352572Y-106157457D01*
X112352570Y-106157459D01*
X112223703Y-106341500D01*
X112222477Y-106343251D01*
X112125716Y-106550757D01*
X112066457Y-106771913D01*
X112066271Y-106774040D01*
X112066270Y-106774045D01*
X112046688Y-106997874D01*
X112046502Y-107000000D01*
X112066457Y-107228087D01*
X112067012Y-107230157D01*
X112067012Y-107230159D01*
X112101575Y-107359147D01*
X112125716Y-107449243D01*
X112222477Y-107656749D01*
X112223703Y-107658499D01*
X112223703Y-107658500D01*
X112327765Y-107807115D01*
X112353802Y-107844300D01*
X112515700Y-108006198D01*
X112703251Y-108137523D01*
X112705185Y-108138425D01*
X112705187Y-108138426D01*
X112794202Y-108179934D01*
X112910757Y-108234284D01*
X112912822Y-108234837D01*
X112912824Y-108234838D01*
X113129841Y-108292988D01*
X113129843Y-108292988D01*
X113131913Y-108293543D01*
X113134040Y-108293729D01*
X113134045Y-108293730D01*
X113357874Y-108313312D01*
X113360000Y-108313498D01*
X113362126Y-108313312D01*
X113585955Y-108293730D01*
X113585960Y-108293729D01*
X113588087Y-108293543D01*
X113590157Y-108292988D01*
X113590159Y-108292988D01*
X113807176Y-108234838D01*
X113807178Y-108234837D01*
X113809243Y-108234284D01*
X113925798Y-108179934D01*
X114014813Y-108138426D01*
X114014815Y-108138425D01*
X114016749Y-108137523D01*
X114204300Y-108006198D01*
X114366198Y-107844300D01*
X114392236Y-107807115D01*
X114496297Y-107658500D01*
X114496297Y-107658499D01*
X114497523Y-107656749D01*
X114594284Y-107449243D01*
X114618425Y-107359147D01*
X114652988Y-107230159D01*
X114652988Y-107230157D01*
X114653543Y-107228087D01*
X114673498Y-107000000D01*
X114673312Y-106997874D01*
X114653730Y-106774045D01*
X114653729Y-106774040D01*
X114653543Y-106771913D01*
X114594284Y-106550757D01*
X114497523Y-106343251D01*
X114496297Y-106341500D01*
X114367430Y-106157459D01*
X114367428Y-106157457D01*
X114366198Y-106155700D01*
X114245146Y-106034648D01*
X114230794Y-106000000D01*
X114245146Y-105965352D01*
X114366198Y-105844300D01*
X114391874Y-105807632D01*
X114496297Y-105658500D01*
X114496297Y-105658499D01*
X114497523Y-105656749D01*
X114594284Y-105449243D01*
X114653543Y-105228087D01*
X114655092Y-105210390D01*
X114673312Y-105002126D01*
X114673498Y-105000000D01*
X114653543Y-104771913D01*
X114594284Y-104550757D01*
X114497523Y-104343251D01*
X114496297Y-104341500D01*
X114367430Y-104157459D01*
X114367428Y-104157457D01*
X114366198Y-104155700D01*
X114204300Y-103993802D01*
X114066964Y-103897638D01*
X114046813Y-103866009D01*
X114054931Y-103829395D01*
X114086560Y-103809244D01*
X114095069Y-103808500D01*
X114158134Y-103808500D01*
X114190067Y-103805031D01*
X114217263Y-103802077D01*
X114217266Y-103802076D01*
X114220316Y-103801745D01*
X114223187Y-103800669D01*
X114223190Y-103800668D01*
X114353433Y-103751842D01*
X114353435Y-103751841D01*
X114356705Y-103750615D01*
X114473261Y-103663261D01*
X114475355Y-103660467D01*
X114558519Y-103549502D01*
X114558520Y-103549501D01*
X114560615Y-103546705D01*
X114611745Y-103410316D01*
X114618500Y-103348134D01*
X114618500Y-103307500D01*
X114632852Y-103272852D01*
X114667500Y-103258500D01*
X118965523Y-103258500D01*
X119000171Y-103272852D01*
X121692671Y-105965352D01*
X121707023Y-106000000D01*
X121692671Y-106034648D01*
X120431966Y-107295353D01*
X120426361Y-107300170D01*
X120404182Y-107316492D01*
X120367944Y-107359147D01*
X120365249Y-107362070D01*
X120357340Y-107369979D01*
X120356459Y-107371093D01*
X120356456Y-107371096D01*
X120338878Y-107393315D01*
X120337825Y-107394600D01*
X120289667Y-107451285D01*
X120285778Y-107458901D01*
X120280571Y-107467011D01*
X120275266Y-107473716D01*
X120243784Y-107541076D01*
X120243057Y-107542565D01*
X120209231Y-107608808D01*
X120208555Y-107611572D01*
X120208554Y-107611574D01*
X120207200Y-107617108D01*
X120203994Y-107626213D01*
X120201584Y-107631368D01*
X120201582Y-107631374D01*
X120200378Y-107633950D01*
X120196039Y-107654813D01*
X120185246Y-107706702D01*
X120184877Y-107708337D01*
X120167192Y-107780610D01*
X120166500Y-107791764D01*
X120166500Y-107792507D01*
X120166476Y-107793281D01*
X120166347Y-107793277D01*
X120165473Y-107801764D01*
X120164360Y-107807115D01*
X120164437Y-107809963D01*
X120166482Y-107885556D01*
X120166500Y-107886881D01*
X120166500Y-117581130D01*
X120152148Y-117615778D01*
X120146920Y-117620315D01*
X120019965Y-117715635D01*
X119968845Y-117769129D01*
X119867017Y-117875685D01*
X119867014Y-117875689D01*
X119865629Y-117877138D01*
X119864501Y-117878791D01*
X119864499Y-117878794D01*
X119745382Y-118053414D01*
X119739743Y-118061680D01*
X119738898Y-118063501D01*
X119738896Y-118063504D01*
X119646536Y-118262477D01*
X119646534Y-118262482D01*
X119645688Y-118264305D01*
X119645150Y-118266245D01*
X119597678Y-118437423D01*
X119585989Y-118479570D01*
X119562251Y-118701695D01*
X119562366Y-118703691D01*
X119562366Y-118703694D01*
X119571876Y-118868627D01*
X119575110Y-118924715D01*
X119624222Y-119142639D01*
X119708266Y-119349616D01*
X119824987Y-119540088D01*
X119971250Y-119708938D01*
X120052235Y-119776173D01*
X120116828Y-119829799D01*
X120134319Y-119862974D01*
X120123229Y-119898800D01*
X120090054Y-119916291D01*
X120085528Y-119916500D01*
X120026866Y-119916500D01*
X119994933Y-119919969D01*
X119967737Y-119922923D01*
X119967734Y-119922924D01*
X119964684Y-119923255D01*
X119961813Y-119924331D01*
X119961810Y-119924332D01*
X119831567Y-119973158D01*
X119831565Y-119973159D01*
X119828295Y-119974385D01*
X119825499Y-119976480D01*
X119825498Y-119976481D01*
X119731887Y-120046639D01*
X119711739Y-120061739D01*
X119709645Y-120064533D01*
X119654115Y-120138627D01*
X119624385Y-120178295D01*
X119623159Y-120181565D01*
X119623158Y-120181567D01*
X119595392Y-120255635D01*
X119573255Y-120314684D01*
X119566500Y-120376866D01*
X119566500Y-122173134D01*
X119573255Y-122235316D01*
X119574331Y-122238187D01*
X119574332Y-122238190D01*
X119623158Y-122368433D01*
X119624385Y-122371705D01*
X119626480Y-122374501D01*
X119626481Y-122374502D01*
X119679114Y-122444730D01*
X119711739Y-122488261D01*
X119714533Y-122490355D01*
X119787446Y-122545000D01*
X119828295Y-122575615D01*
X119831565Y-122576841D01*
X119831567Y-122576842D01*
X119961810Y-122625668D01*
X119961813Y-122625669D01*
X119964684Y-122626745D01*
X119967734Y-122627076D01*
X119967737Y-122627077D01*
X119994933Y-122630031D01*
X120026866Y-122633500D01*
X120117500Y-122633500D01*
X120152148Y-122647852D01*
X120166500Y-122682500D01*
X120166500Y-126540523D01*
X120152148Y-126575171D01*
X119000171Y-127727148D01*
X118965523Y-127741500D01*
X114667500Y-127741500D01*
X114632852Y-127727148D01*
X114618500Y-127692500D01*
X114618500Y-127651866D01*
X114611745Y-127589684D01*
X114560615Y-127453295D01*
X114547563Y-127435879D01*
X114475355Y-127339533D01*
X114473261Y-127336739D01*
X114419153Y-127296187D01*
X114359502Y-127251481D01*
X114359501Y-127251480D01*
X114356705Y-127249385D01*
X114353435Y-127248159D01*
X114353433Y-127248158D01*
X114223190Y-127199332D01*
X114223187Y-127199331D01*
X114220316Y-127198255D01*
X114217266Y-127197924D01*
X114217263Y-127197923D01*
X114190067Y-127194969D01*
X114158134Y-127191500D01*
X112561866Y-127191500D01*
X112529933Y-127194969D01*
X112502737Y-127197923D01*
X112502734Y-127197924D01*
X112499684Y-127198255D01*
X112496813Y-127199331D01*
X112496810Y-127199332D01*
X112366567Y-127248158D01*
X112366565Y-127248159D01*
X112363295Y-127249385D01*
X112360499Y-127251480D01*
X112360498Y-127251481D01*
X112300847Y-127296187D01*
X112246739Y-127336739D01*
X112244645Y-127339533D01*
X112172438Y-127435879D01*
X112159385Y-127453295D01*
X112108255Y-127589684D01*
X112101500Y-127651866D01*
X112101500Y-129348134D01*
X112108255Y-129410316D01*
X112159385Y-129546705D01*
X112246739Y-129663261D01*
X112363295Y-129750615D01*
X112366565Y-129751841D01*
X112366567Y-129751842D01*
X112496810Y-129800668D01*
X112496813Y-129800669D01*
X112499684Y-129801745D01*
X112502734Y-129802076D01*
X112502737Y-129802077D01*
X112529933Y-129805031D01*
X112561866Y-129808500D01*
X112624931Y-129808500D01*
X112659579Y-129822852D01*
X112673931Y-129857500D01*
X112659579Y-129892148D01*
X112653036Y-129897638D01*
X112515700Y-129993802D01*
X112353802Y-130155700D01*
X112222477Y-130343251D01*
X112125716Y-130550757D01*
X112066457Y-130771913D01*
X112046502Y-131000000D01*
X112046688Y-131002126D01*
X112064909Y-131210390D01*
X112066457Y-131228087D01*
X112125716Y-131449243D01*
X112222477Y-131656749D01*
X112223703Y-131658499D01*
X112223703Y-131658500D01*
X112328127Y-131807632D01*
X112353802Y-131844300D01*
X112474854Y-131965352D01*
X112489206Y-132000000D01*
X112474854Y-132034648D01*
X112353802Y-132155700D01*
X112352572Y-132157457D01*
X112352570Y-132157459D01*
X112328126Y-132192369D01*
X112222477Y-132343251D01*
X112125716Y-132550757D01*
X112066457Y-132771913D01*
X112066271Y-132774040D01*
X112066270Y-132774045D01*
X112064685Y-132792162D01*
X112046502Y-133000000D01*
X112066457Y-133228087D01*
X112125716Y-133449243D01*
X112222477Y-133656749D01*
X112353802Y-133844300D01*
X112515700Y-134006198D01*
X112703251Y-134137523D01*
X112705185Y-134138425D01*
X112705187Y-134138426D01*
X112794202Y-134179934D01*
X112910757Y-134234284D01*
X112912822Y-134234837D01*
X112912824Y-134234838D01*
X113129841Y-134292988D01*
X113129843Y-134292988D01*
X113131913Y-134293543D01*
X113134040Y-134293729D01*
X113134045Y-134293730D01*
X113357874Y-134313312D01*
X113360000Y-134313498D01*
X113362126Y-134313312D01*
X113585955Y-134293730D01*
X113585960Y-134293729D01*
X113588087Y-134293543D01*
X113590157Y-134292988D01*
X113590159Y-134292988D01*
X113807176Y-134234838D01*
X113807178Y-134234837D01*
X113809243Y-134234284D01*
X113925798Y-134179934D01*
X114014813Y-134138426D01*
X114014815Y-134138425D01*
X114016749Y-134137523D01*
X114204300Y-134006198D01*
X114366198Y-133844300D01*
X114497523Y-133656749D01*
X114594284Y-133449243D01*
X114653543Y-133228087D01*
X114673498Y-133000000D01*
X114655315Y-132792162D01*
X114653730Y-132774045D01*
X114653729Y-132774040D01*
X114653543Y-132771913D01*
X114594284Y-132550757D01*
X114497523Y-132343251D01*
X114391874Y-132192369D01*
X114367430Y-132157459D01*
X114367428Y-132157457D01*
X114366198Y-132155700D01*
X114245146Y-132034648D01*
X114230794Y-132000000D01*
X114245146Y-131965352D01*
X114366198Y-131844300D01*
X114391874Y-131807632D01*
X114496297Y-131658500D01*
X114496297Y-131658499D01*
X114497523Y-131656749D01*
X114594284Y-131449243D01*
X114653543Y-131228087D01*
X114655092Y-131210390D01*
X114673312Y-131002126D01*
X114673498Y-131000000D01*
X114653543Y-130771913D01*
X114594284Y-130550757D01*
X114497523Y-130343251D01*
X114366198Y-130155700D01*
X114204300Y-129993802D01*
X114066964Y-129897638D01*
X114046813Y-129866009D01*
X114054931Y-129829395D01*
X114086560Y-129809244D01*
X114095069Y-129808500D01*
X114158134Y-129808500D01*
X114190067Y-129805031D01*
X114217263Y-129802077D01*
X114217266Y-129802076D01*
X114220316Y-129801745D01*
X114223187Y-129800669D01*
X114223190Y-129800668D01*
X114353433Y-129751842D01*
X114353435Y-129751841D01*
X114356705Y-129750615D01*
X114473261Y-129663261D01*
X114560615Y-129546705D01*
X114611745Y-129410316D01*
X114618500Y-129348134D01*
X114618500Y-129307500D01*
X114632852Y-129272852D01*
X114667500Y-129258500D01*
X118965523Y-129258500D01*
X119000171Y-129272852D01*
X121893630Y-132166311D01*
X121906455Y-132189929D01*
X121906458Y-132189928D01*
X121906463Y-132189945D01*
X121906464Y-132189947D01*
X121965473Y-132371556D01*
X122060960Y-132536944D01*
X122062681Y-132538856D01*
X122062683Y-132538858D01*
X122187031Y-132676961D01*
X122187035Y-132676964D01*
X122188747Y-132678866D01*
X122190816Y-132680369D01*
X122190818Y-132680371D01*
X122319749Y-132774045D01*
X122343248Y-132791118D01*
X122517712Y-132868794D01*
X122611113Y-132888647D01*
X122702004Y-132907967D01*
X122702007Y-132907967D01*
X122704513Y-132908500D01*
X122895487Y-132908500D01*
X122897993Y-132907967D01*
X122897996Y-132907967D01*
X122988887Y-132888647D01*
X123082288Y-132868794D01*
X123256752Y-132791118D01*
X123280251Y-132774045D01*
X123409182Y-132680371D01*
X123409184Y-132680369D01*
X123411253Y-132678866D01*
X123412965Y-132676964D01*
X123412969Y-132676961D01*
X123537317Y-132538858D01*
X123537319Y-132538856D01*
X123539040Y-132536944D01*
X123634527Y-132371556D01*
X123693542Y-132189928D01*
X123713504Y-132000000D01*
X123693542Y-131810072D01*
X123634527Y-131628444D01*
X123539040Y-131463056D01*
X123524742Y-131447176D01*
X123412969Y-131323039D01*
X123412965Y-131323036D01*
X123411253Y-131321134D01*
X123286038Y-131230159D01*
X123258828Y-131210390D01*
X123258826Y-131210389D01*
X123256752Y-131208882D01*
X123082288Y-131131206D01*
X122996920Y-131113060D01*
X122972461Y-131099780D01*
X120407329Y-128534648D01*
X120392977Y-128500000D01*
X120407329Y-128465352D01*
X121418034Y-127454647D01*
X121423639Y-127449830D01*
X121445818Y-127433508D01*
X121482057Y-127390852D01*
X121484751Y-127387930D01*
X121492660Y-127380021D01*
X121511131Y-127356674D01*
X121512175Y-127355400D01*
X121560333Y-127298715D01*
X121564222Y-127291099D01*
X121569430Y-127282988D01*
X121572966Y-127278519D01*
X121572967Y-127278518D01*
X121574734Y-127276284D01*
X121606216Y-127208924D01*
X121606943Y-127207435D01*
X121640769Y-127141192D01*
X121642800Y-127132892D01*
X121646006Y-127123787D01*
X121648416Y-127118632D01*
X121648418Y-127118626D01*
X121649622Y-127116050D01*
X121664759Y-127043275D01*
X121665123Y-127041663D01*
X121682808Y-126969390D01*
X121683500Y-126958236D01*
X121683500Y-126957493D01*
X121683524Y-126956719D01*
X121683653Y-126956723D01*
X121684527Y-126948236D01*
X121685060Y-126945675D01*
X121685060Y-126945673D01*
X121685640Y-126942885D01*
X121683518Y-126864444D01*
X121683500Y-126863119D01*
X121683500Y-122682500D01*
X121697852Y-122647852D01*
X121732500Y-122633500D01*
X121823134Y-122633500D01*
X121855067Y-122630031D01*
X121882263Y-122627077D01*
X121882266Y-122627076D01*
X121885316Y-122626745D01*
X121888187Y-122625669D01*
X121888190Y-122625668D01*
X122018433Y-122576842D01*
X122018435Y-122576841D01*
X122021705Y-122575615D01*
X122062555Y-122545000D01*
X122135467Y-122490355D01*
X122138261Y-122488261D01*
X122170886Y-122444730D01*
X122223519Y-122374502D01*
X122223520Y-122374501D01*
X122225615Y-122371705D01*
X122226842Y-122368433D01*
X122275668Y-122238190D01*
X122275669Y-122238187D01*
X122276745Y-122235316D01*
X122283500Y-122173134D01*
X122283500Y-122117423D01*
X122297852Y-122082775D01*
X122332500Y-122068423D01*
X122369537Y-122085341D01*
X122388864Y-122107652D01*
X122511250Y-122248938D01*
X122592235Y-122316173D01*
X122662493Y-122374502D01*
X122683126Y-122391632D01*
X122684856Y-122392643D01*
X122684859Y-122392645D01*
X122813353Y-122467730D01*
X122876000Y-122504338D01*
X123084692Y-122584030D01*
X123086665Y-122584431D01*
X123086667Y-122584432D01*
X123289348Y-122625668D01*
X123303597Y-122628567D01*
X123305602Y-122628641D01*
X123305606Y-122628641D01*
X123457048Y-122634194D01*
X123526837Y-122636753D01*
X123602370Y-122627077D01*
X123746419Y-122608624D01*
X123746421Y-122608624D01*
X123748416Y-122608368D01*
X123750343Y-122607790D01*
X123750347Y-122607789D01*
X123960459Y-122544752D01*
X123960464Y-122544750D01*
X123962384Y-122544174D01*
X124072242Y-122490355D01*
X124161188Y-122446781D01*
X124161190Y-122446780D01*
X124162994Y-122445896D01*
X124344860Y-122316173D01*
X124411049Y-122250215D01*
X124501672Y-122159909D01*
X124501677Y-122159903D01*
X124503096Y-122158489D01*
X124504268Y-122156857D01*
X124504273Y-122156852D01*
X124632281Y-121978709D01*
X124632285Y-121978703D01*
X124633453Y-121977077D01*
X124689629Y-121863413D01*
X124717846Y-121838711D01*
X124755266Y-121841196D01*
X124778956Y-121866688D01*
X124788266Y-121889616D01*
X124904987Y-122080088D01*
X125051250Y-122248938D01*
X125132235Y-122316173D01*
X125202493Y-122374502D01*
X125223126Y-122391632D01*
X125224856Y-122392643D01*
X125224859Y-122392645D01*
X125353353Y-122467730D01*
X125416000Y-122504338D01*
X125624692Y-122584030D01*
X125626665Y-122584431D01*
X125626667Y-122584432D01*
X125829348Y-122625668D01*
X125843597Y-122628567D01*
X125845602Y-122628641D01*
X125845606Y-122628641D01*
X125997048Y-122634194D01*
X126066837Y-122636753D01*
X126142370Y-122627077D01*
X126286419Y-122608624D01*
X126286421Y-122608624D01*
X126288416Y-122608368D01*
X126290343Y-122607790D01*
X126290347Y-122607789D01*
X126500459Y-122544752D01*
X126500464Y-122544750D01*
X126502384Y-122544174D01*
X126612242Y-122490355D01*
X126701188Y-122446781D01*
X126701190Y-122446780D01*
X126702994Y-122445896D01*
X126884860Y-122316173D01*
X126951049Y-122250215D01*
X127041672Y-122159909D01*
X127041677Y-122159903D01*
X127043096Y-122158489D01*
X127044268Y-122156857D01*
X127044273Y-122156852D01*
X127172281Y-121978709D01*
X127172285Y-121978703D01*
X127173453Y-121977077D01*
X127272430Y-121776811D01*
X127337370Y-121563069D01*
X127366529Y-121341590D01*
X127367139Y-121316639D01*
X127368124Y-121276316D01*
X127368124Y-121276313D01*
X127368156Y-121275000D01*
X127365418Y-121241695D01*
X129722251Y-121241695D01*
X129722366Y-121243691D01*
X129722366Y-121243694D01*
X129731876Y-121408627D01*
X129735110Y-121464715D01*
X129784222Y-121682639D01*
X129868266Y-121889616D01*
X129984987Y-122080088D01*
X130131250Y-122248938D01*
X130212235Y-122316173D01*
X130282493Y-122374502D01*
X130303126Y-122391632D01*
X130304856Y-122392643D01*
X130304859Y-122392645D01*
X130433353Y-122467730D01*
X130496000Y-122504338D01*
X130704692Y-122584030D01*
X130706665Y-122584431D01*
X130706667Y-122584432D01*
X130909348Y-122625668D01*
X130923597Y-122628567D01*
X130925602Y-122628641D01*
X130925606Y-122628641D01*
X131077048Y-122634194D01*
X131146837Y-122636753D01*
X131222370Y-122627077D01*
X131366419Y-122608624D01*
X131366421Y-122608624D01*
X131368416Y-122608368D01*
X131370343Y-122607790D01*
X131370347Y-122607789D01*
X131580459Y-122544752D01*
X131580464Y-122544750D01*
X131582384Y-122544174D01*
X131692242Y-122490355D01*
X131781188Y-122446781D01*
X131781190Y-122446780D01*
X131782994Y-122445896D01*
X131964860Y-122316173D01*
X132031049Y-122250215D01*
X132121672Y-122159909D01*
X132121677Y-122159903D01*
X132123096Y-122158489D01*
X132124268Y-122156857D01*
X132124273Y-122156852D01*
X132252281Y-121978709D01*
X132252285Y-121978703D01*
X132253453Y-121977077D01*
X132352430Y-121776811D01*
X132417370Y-121563069D01*
X132446529Y-121341590D01*
X132447139Y-121316639D01*
X132448124Y-121276316D01*
X132448124Y-121276313D01*
X132448156Y-121275000D01*
X132429852Y-121052361D01*
X132375431Y-120835702D01*
X132286354Y-120630840D01*
X132192353Y-120485536D01*
X132166106Y-120444964D01*
X132166102Y-120444959D01*
X132165014Y-120443277D01*
X132159656Y-120437388D01*
X132028335Y-120293069D01*
X132014670Y-120278051D01*
X131839359Y-120139598D01*
X131718512Y-120072887D01*
X131670964Y-120046639D01*
X131647567Y-120017329D01*
X131651747Y-119980060D01*
X131673087Y-119959739D01*
X131782994Y-119905896D01*
X131792943Y-119898800D01*
X131963224Y-119777340D01*
X131964860Y-119776173D01*
X132031049Y-119710215D01*
X132121672Y-119619909D01*
X132121677Y-119619903D01*
X132123096Y-119618489D01*
X132124268Y-119616857D01*
X132124273Y-119616852D01*
X132252281Y-119438709D01*
X132252285Y-119438703D01*
X132253453Y-119437077D01*
X132352430Y-119236811D01*
X132417370Y-119023069D01*
X132446529Y-118801590D01*
X132448156Y-118735000D01*
X132429852Y-118512361D01*
X132375431Y-118295702D01*
X132286354Y-118090840D01*
X132204872Y-117964888D01*
X132166106Y-117904964D01*
X132166102Y-117904959D01*
X132165014Y-117903277D01*
X132141230Y-117877138D01*
X132028335Y-117753069D01*
X132014670Y-117738051D01*
X131839359Y-117599598D01*
X131718512Y-117532887D01*
X131645547Y-117492608D01*
X131645542Y-117492606D01*
X131643789Y-117491638D01*
X131433212Y-117417069D01*
X131300524Y-117393434D01*
X131215262Y-117378246D01*
X131215258Y-117378246D01*
X131213284Y-117377894D01*
X131211276Y-117377869D01*
X131211271Y-117377869D01*
X131092695Y-117376421D01*
X130989911Y-117375165D01*
X130987918Y-117375470D01*
X130987917Y-117375470D01*
X130969776Y-117378246D01*
X130769091Y-117408955D01*
X130556756Y-117478357D01*
X130358607Y-117581507D01*
X130179965Y-117715635D01*
X130178578Y-117717087D01*
X130178574Y-117717090D01*
X130027017Y-117875685D01*
X130027014Y-117875689D01*
X130025629Y-117877138D01*
X130024501Y-117878791D01*
X130024499Y-117878794D01*
X129905382Y-118053414D01*
X129899743Y-118061680D01*
X129898898Y-118063501D01*
X129898896Y-118063504D01*
X129806536Y-118262477D01*
X129806534Y-118262482D01*
X129805688Y-118264305D01*
X129805150Y-118266245D01*
X129757678Y-118437423D01*
X129745989Y-118479570D01*
X129722251Y-118701695D01*
X129722366Y-118703691D01*
X129722366Y-118703694D01*
X129731876Y-118868627D01*
X129735110Y-118924715D01*
X129784222Y-119142639D01*
X129868266Y-119349616D01*
X129984987Y-119540088D01*
X130131250Y-119708938D01*
X130303126Y-119851632D01*
X130304856Y-119852643D01*
X130304859Y-119852645D01*
X130496000Y-119964338D01*
X130495486Y-119965218D01*
X130518467Y-119990840D01*
X130516432Y-120028288D01*
X130494872Y-120050572D01*
X130358607Y-120121507D01*
X130179965Y-120255635D01*
X130178578Y-120257087D01*
X130178574Y-120257090D01*
X130027017Y-120415685D01*
X130027014Y-120415689D01*
X130025629Y-120417138D01*
X129899743Y-120601680D01*
X129898898Y-120603501D01*
X129898896Y-120603504D01*
X129806536Y-120802477D01*
X129806534Y-120802482D01*
X129805688Y-120804305D01*
X129805150Y-120806245D01*
X129757678Y-120977423D01*
X129745989Y-121019570D01*
X129722251Y-121241695D01*
X127365418Y-121241695D01*
X127349852Y-121052361D01*
X127295431Y-120835702D01*
X127206354Y-120630840D01*
X127112353Y-120485536D01*
X127086106Y-120444964D01*
X127086102Y-120444959D01*
X127085014Y-120443277D01*
X127079656Y-120437388D01*
X126948335Y-120293069D01*
X126934670Y-120278051D01*
X126759359Y-120139598D01*
X126638512Y-120072887D01*
X126590964Y-120046639D01*
X126567567Y-120017329D01*
X126571747Y-119980060D01*
X126593087Y-119959739D01*
X126702994Y-119905896D01*
X126712943Y-119898800D01*
X126883224Y-119777340D01*
X126884860Y-119776173D01*
X126951049Y-119710215D01*
X127041672Y-119619909D01*
X127041677Y-119619903D01*
X127043096Y-119618489D01*
X127044268Y-119616857D01*
X127044273Y-119616852D01*
X127172281Y-119438709D01*
X127172285Y-119438703D01*
X127173453Y-119437077D01*
X127272430Y-119236811D01*
X127337370Y-119023069D01*
X127366529Y-118801590D01*
X127368156Y-118735000D01*
X127349852Y-118512361D01*
X127295431Y-118295702D01*
X127206354Y-118090840D01*
X127124872Y-117964888D01*
X127086106Y-117904964D01*
X127086102Y-117904959D01*
X127085014Y-117903277D01*
X127061230Y-117877138D01*
X126948335Y-117753069D01*
X126934670Y-117738051D01*
X126759359Y-117599598D01*
X126638512Y-117532887D01*
X126565547Y-117492608D01*
X126565542Y-117492606D01*
X126563789Y-117491638D01*
X126353212Y-117417069D01*
X126220524Y-117393434D01*
X126135262Y-117378246D01*
X126135258Y-117378246D01*
X126133284Y-117377894D01*
X126131276Y-117377869D01*
X126131271Y-117377869D01*
X126012695Y-117376421D01*
X125909911Y-117375165D01*
X125907918Y-117375470D01*
X125907917Y-117375470D01*
X125889776Y-117378246D01*
X125689091Y-117408955D01*
X125476756Y-117478357D01*
X125278607Y-117581507D01*
X125099965Y-117715635D01*
X125098578Y-117717087D01*
X125098574Y-117717090D01*
X124947017Y-117875685D01*
X124947014Y-117875689D01*
X124945629Y-117877138D01*
X124944501Y-117878791D01*
X124944499Y-117878794D01*
X124825382Y-118053414D01*
X124819743Y-118061680D01*
X124818898Y-118063501D01*
X124818896Y-118063504D01*
X124779901Y-118147511D01*
X124752295Y-118172896D01*
X124714825Y-118171325D01*
X124690520Y-118146418D01*
X124667158Y-118092689D01*
X124667156Y-118092685D01*
X124666354Y-118090840D01*
X124584872Y-117964888D01*
X124546106Y-117904964D01*
X124546102Y-117904959D01*
X124545014Y-117903277D01*
X124521230Y-117877138D01*
X124408335Y-117753069D01*
X124394670Y-117738051D01*
X124219359Y-117599598D01*
X124098512Y-117532887D01*
X124025547Y-117492608D01*
X124025542Y-117492606D01*
X124023789Y-117491638D01*
X123813212Y-117417069D01*
X123680524Y-117393434D01*
X123595262Y-117378246D01*
X123595258Y-117378246D01*
X123593284Y-117377894D01*
X123591276Y-117377869D01*
X123591271Y-117377869D01*
X123472695Y-117376421D01*
X123369911Y-117375165D01*
X123367918Y-117375470D01*
X123367917Y-117375470D01*
X123349776Y-117378246D01*
X123149091Y-117408955D01*
X122936756Y-117478357D01*
X122738607Y-117581507D01*
X122559965Y-117715635D01*
X122558578Y-117717087D01*
X122558574Y-117717090D01*
X122407017Y-117875685D01*
X122407014Y-117875689D01*
X122405629Y-117877138D01*
X122404501Y-117878791D01*
X122404499Y-117878794D01*
X122285382Y-118053414D01*
X122279743Y-118061680D01*
X122278898Y-118063501D01*
X122278896Y-118063504D01*
X122239901Y-118147511D01*
X122212295Y-118172896D01*
X122174825Y-118171325D01*
X122150520Y-118146418D01*
X122127158Y-118092689D01*
X122127156Y-118092685D01*
X122126354Y-118090840D01*
X122044872Y-117964888D01*
X122006106Y-117904964D01*
X122006102Y-117904959D01*
X122005014Y-117903277D01*
X121981230Y-117877138D01*
X121868335Y-117753069D01*
X121854670Y-117738051D01*
X121702131Y-117617582D01*
X121683835Y-117584845D01*
X121683500Y-117579128D01*
X121683500Y-108209477D01*
X121697852Y-108174829D01*
X122972461Y-106900220D01*
X122996920Y-106886940D01*
X123082288Y-106868794D01*
X123256752Y-106791118D01*
X123280251Y-106774045D01*
X123409182Y-106680371D01*
X123409184Y-106680369D01*
X123411253Y-106678866D01*
X123412965Y-106676964D01*
X123412969Y-106676961D01*
X123537317Y-106538858D01*
X123537319Y-106538856D01*
X123539040Y-106536944D01*
X123634527Y-106371556D01*
X123693542Y-106189928D01*
X123713504Y-106000000D01*
X123693542Y-105810072D01*
X123634527Y-105628444D01*
X123539040Y-105463056D01*
X123524742Y-105447176D01*
X123412969Y-105323039D01*
X123412965Y-105323036D01*
X123411253Y-105321134D01*
X123286038Y-105230159D01*
X123258828Y-105210390D01*
X123258826Y-105210389D01*
X123256752Y-105208882D01*
X123082288Y-105131206D01*
X122996920Y-105113060D01*
X122972461Y-105099780D01*
X121472681Y-103600000D01*
X136786496Y-103600000D01*
X136806458Y-103789928D01*
X136865473Y-103971556D01*
X136960960Y-104136944D01*
X136962681Y-104138856D01*
X136962683Y-104138858D01*
X137053914Y-104240180D01*
X137066500Y-104272967D01*
X137066500Y-112364648D01*
X137065320Y-112375337D01*
X137064298Y-112379909D01*
X137064395Y-112382993D01*
X137066476Y-112449195D01*
X137066500Y-112450735D01*
X137066500Y-112479856D01*
X137066691Y-112481369D01*
X137066692Y-112481383D01*
X137067461Y-112487467D01*
X137067823Y-112492064D01*
X137069327Y-112539889D01*
X137076668Y-112565159D01*
X137078225Y-112572679D01*
X137081138Y-112595734D01*
X137081140Y-112595742D01*
X137081526Y-112598797D01*
X137082661Y-112601663D01*
X137099141Y-112643287D01*
X137100636Y-112647655D01*
X137113982Y-112693593D01*
X137127380Y-112716248D01*
X137130760Y-112723147D01*
X137140448Y-112747617D01*
X137142261Y-112750112D01*
X137168570Y-112786324D01*
X137171103Y-112790180D01*
X137195458Y-112831362D01*
X137214063Y-112849967D01*
X137219057Y-112855814D01*
X137232716Y-112874614D01*
X137232719Y-112874617D01*
X137234528Y-112877107D01*
X137259252Y-112897561D01*
X137271396Y-112907607D01*
X137274810Y-112910714D01*
X141406530Y-117042434D01*
X141420882Y-117077082D01*
X141419100Y-117090177D01*
X141385989Y-117209570D01*
X141362251Y-117431695D01*
X141362366Y-117433691D01*
X141362366Y-117433694D01*
X141374994Y-117652707D01*
X141375110Y-117654715D01*
X141424222Y-117872639D01*
X141508266Y-118079616D01*
X141624987Y-118270088D01*
X141771250Y-118438938D01*
X141943126Y-118581632D01*
X141944856Y-118582643D01*
X141944859Y-118582645D01*
X142073353Y-118657730D01*
X142136000Y-118694338D01*
X142344692Y-118774030D01*
X142346665Y-118774431D01*
X142346667Y-118774432D01*
X142561626Y-118818166D01*
X142563597Y-118818567D01*
X142565602Y-118818641D01*
X142565606Y-118818641D01*
X142717048Y-118824194D01*
X142786837Y-118826753D01*
X142853869Y-118818166D01*
X143006419Y-118798624D01*
X143006421Y-118798624D01*
X143008416Y-118798368D01*
X143010343Y-118797790D01*
X143010347Y-118797789D01*
X143220459Y-118734752D01*
X143220464Y-118734750D01*
X143222384Y-118734174D01*
X143322689Y-118685035D01*
X143421188Y-118636781D01*
X143421190Y-118636780D01*
X143422994Y-118635896D01*
X143604860Y-118506173D01*
X143671049Y-118440215D01*
X143761672Y-118349909D01*
X143761677Y-118349903D01*
X143763096Y-118348489D01*
X143764268Y-118346857D01*
X143764273Y-118346852D01*
X143892281Y-118168709D01*
X143892285Y-118168703D01*
X143893453Y-118167077D01*
X143949629Y-118053413D01*
X143977846Y-118028711D01*
X144015266Y-118031196D01*
X144038956Y-118056688D01*
X144048266Y-118079616D01*
X144164987Y-118270088D01*
X144311250Y-118438938D01*
X144483126Y-118581632D01*
X144484856Y-118582643D01*
X144484859Y-118582645D01*
X144676000Y-118694338D01*
X144675486Y-118695218D01*
X144698467Y-118720840D01*
X144696432Y-118758288D01*
X144674872Y-118780572D01*
X144538607Y-118851507D01*
X144359965Y-118985635D01*
X144358578Y-118987087D01*
X144358574Y-118987090D01*
X144207017Y-119145685D01*
X144207014Y-119145689D01*
X144205629Y-119147138D01*
X144204501Y-119148791D01*
X144204499Y-119148794D01*
X144085382Y-119323414D01*
X144079743Y-119331680D01*
X144078898Y-119333501D01*
X144078896Y-119333504D01*
X143986536Y-119532477D01*
X143986534Y-119532482D01*
X143985688Y-119534305D01*
X143985150Y-119536245D01*
X143937678Y-119707423D01*
X143925989Y-119749570D01*
X143902251Y-119971695D01*
X143902366Y-119973691D01*
X143902366Y-119973694D01*
X143911876Y-120138627D01*
X143915110Y-120194715D01*
X143964222Y-120412639D01*
X144048266Y-120619616D01*
X144164987Y-120810088D01*
X144311250Y-120978938D01*
X144483126Y-121121632D01*
X144484856Y-121122643D01*
X144484859Y-121122645D01*
X144676000Y-121234338D01*
X144675486Y-121235218D01*
X144698467Y-121260840D01*
X144696432Y-121298288D01*
X144674872Y-121320572D01*
X144538607Y-121391507D01*
X144359965Y-121525635D01*
X144358578Y-121527087D01*
X144358574Y-121527090D01*
X144207017Y-121685685D01*
X144207014Y-121685689D01*
X144205629Y-121687138D01*
X144204501Y-121688791D01*
X144204499Y-121688794D01*
X144085382Y-121863414D01*
X144079743Y-121871680D01*
X144078898Y-121873501D01*
X144078896Y-121873504D01*
X144039901Y-121957511D01*
X144012295Y-121982896D01*
X143974825Y-121981325D01*
X143950520Y-121956418D01*
X143927158Y-121902689D01*
X143927156Y-121902685D01*
X143926354Y-121900840D01*
X143844872Y-121774888D01*
X143806106Y-121714964D01*
X143806102Y-121714959D01*
X143805014Y-121713277D01*
X143781230Y-121687138D01*
X143668335Y-121563069D01*
X143654670Y-121548051D01*
X143479359Y-121409598D01*
X143358512Y-121342887D01*
X143285547Y-121302608D01*
X143285542Y-121302606D01*
X143283789Y-121301638D01*
X143073212Y-121227069D01*
X142940524Y-121203434D01*
X142855262Y-121188246D01*
X142855258Y-121188246D01*
X142853284Y-121187894D01*
X142851276Y-121187869D01*
X142851271Y-121187869D01*
X142732695Y-121186421D01*
X142629911Y-121185165D01*
X142627918Y-121185470D01*
X142627917Y-121185470D01*
X142609776Y-121188246D01*
X142409091Y-121218955D01*
X142196756Y-121288357D01*
X141998607Y-121391507D01*
X141819965Y-121525635D01*
X141818578Y-121527087D01*
X141818574Y-121527090D01*
X141667017Y-121685685D01*
X141667014Y-121685689D01*
X141665629Y-121687138D01*
X141664501Y-121688791D01*
X141664499Y-121688794D01*
X141545382Y-121863414D01*
X141539743Y-121871680D01*
X141538898Y-121873501D01*
X141538896Y-121873504D01*
X141446536Y-122072477D01*
X141446534Y-122072482D01*
X141445688Y-122074305D01*
X141445150Y-122076245D01*
X141397678Y-122247423D01*
X141385989Y-122289570D01*
X141362251Y-122511695D01*
X141362366Y-122513691D01*
X141362366Y-122513694D01*
X141372099Y-122682500D01*
X141375110Y-122734715D01*
X141424222Y-122952639D01*
X141508266Y-123159616D01*
X141624987Y-123350088D01*
X141771250Y-123518938D01*
X141852235Y-123586173D01*
X141912532Y-123636232D01*
X141943126Y-123661632D01*
X141944856Y-123662643D01*
X141944859Y-123662645D01*
X142136000Y-123774338D01*
X142135486Y-123775218D01*
X142158467Y-123800840D01*
X142156432Y-123838288D01*
X142134872Y-123860572D01*
X141998607Y-123931507D01*
X141819965Y-124065635D01*
X141818578Y-124067087D01*
X141818574Y-124067090D01*
X141667017Y-124225685D01*
X141667014Y-124225689D01*
X141665629Y-124227138D01*
X141664501Y-124228791D01*
X141664499Y-124228794D01*
X141555488Y-124388599D01*
X141539743Y-124411680D01*
X141538898Y-124413501D01*
X141538896Y-124413504D01*
X141446536Y-124612477D01*
X141446534Y-124612482D01*
X141445688Y-124614305D01*
X141385989Y-124829570D01*
X141362251Y-125051695D01*
X141362366Y-125053691D01*
X141362366Y-125053694D01*
X141368216Y-125155151D01*
X141375110Y-125274715D01*
X141424222Y-125492639D01*
X141508266Y-125699616D01*
X141624987Y-125890088D01*
X141771250Y-126058938D01*
X141943126Y-126201632D01*
X141944856Y-126202643D01*
X141944859Y-126202645D01*
X142054135Y-126266500D01*
X142136000Y-126314338D01*
X142344692Y-126394030D01*
X142346665Y-126394431D01*
X142346667Y-126394432D01*
X142561626Y-126438166D01*
X142563597Y-126438567D01*
X142565602Y-126438641D01*
X142565606Y-126438641D01*
X142717048Y-126444194D01*
X142786837Y-126446753D01*
X142853869Y-126438166D01*
X143006419Y-126418624D01*
X143006421Y-126418624D01*
X143008416Y-126418368D01*
X143010343Y-126417790D01*
X143010347Y-126417789D01*
X143220459Y-126354752D01*
X143220464Y-126354750D01*
X143222384Y-126354174D01*
X143322689Y-126305035D01*
X143421188Y-126256781D01*
X143421190Y-126256780D01*
X143422994Y-126255896D01*
X143487137Y-126210144D01*
X143603224Y-126127340D01*
X143604860Y-126126173D01*
X143671049Y-126060215D01*
X143761672Y-125969909D01*
X143761677Y-125969903D01*
X143763096Y-125968489D01*
X143764268Y-125966857D01*
X143764273Y-125966852D01*
X143892281Y-125788709D01*
X143892285Y-125788703D01*
X143893453Y-125787077D01*
X143949629Y-125673413D01*
X143977846Y-125648711D01*
X144015266Y-125651196D01*
X144038956Y-125676688D01*
X144048266Y-125699616D01*
X144164987Y-125890088D01*
X144311250Y-126058938D01*
X144483126Y-126201632D01*
X144484856Y-126202643D01*
X144484859Y-126202645D01*
X144594135Y-126266500D01*
X144676000Y-126314338D01*
X144884692Y-126394030D01*
X144886665Y-126394431D01*
X144886667Y-126394432D01*
X145101626Y-126438166D01*
X145103597Y-126438567D01*
X145105602Y-126438641D01*
X145105606Y-126438641D01*
X145257048Y-126444194D01*
X145326837Y-126446753D01*
X145393869Y-126438166D01*
X145546419Y-126418624D01*
X145546421Y-126418624D01*
X145548416Y-126418368D01*
X145550343Y-126417790D01*
X145550347Y-126417789D01*
X145760459Y-126354752D01*
X145760464Y-126354750D01*
X145762384Y-126354174D01*
X145862689Y-126305035D01*
X145961188Y-126256781D01*
X145961190Y-126256780D01*
X145962994Y-126255896D01*
X146027137Y-126210144D01*
X146143224Y-126127340D01*
X146144860Y-126126173D01*
X146211049Y-126060215D01*
X146301672Y-125969909D01*
X146301677Y-125969903D01*
X146303096Y-125968489D01*
X146304268Y-125966857D01*
X146304273Y-125966852D01*
X146432281Y-125788709D01*
X146432285Y-125788703D01*
X146433453Y-125787077D01*
X146532430Y-125586811D01*
X146597370Y-125373069D01*
X146626529Y-125151590D01*
X146628156Y-125085000D01*
X146609852Y-124862361D01*
X146555431Y-124645702D01*
X146466354Y-124440840D01*
X146419087Y-124367776D01*
X146346106Y-124254964D01*
X146346102Y-124254959D01*
X146345014Y-124253277D01*
X146321230Y-124227138D01*
X146196021Y-124089536D01*
X146194670Y-124088051D01*
X146019359Y-123949598D01*
X145984906Y-123930579D01*
X145850964Y-123856639D01*
X145827567Y-123827329D01*
X145831747Y-123790060D01*
X145853087Y-123769739D01*
X145962994Y-123715896D01*
X146059895Y-123646778D01*
X146143224Y-123587340D01*
X146144860Y-123586173D01*
X146194711Y-123536496D01*
X146301672Y-123429909D01*
X146301677Y-123429903D01*
X146303096Y-123428489D01*
X146304268Y-123426857D01*
X146304273Y-123426852D01*
X146432281Y-123248709D01*
X146432285Y-123248703D01*
X146433453Y-123247077D01*
X146532430Y-123046811D01*
X146597370Y-122833069D01*
X146626529Y-122611590D01*
X146628156Y-122545000D01*
X146609852Y-122322361D01*
X146555431Y-122105702D01*
X146466354Y-121900840D01*
X146384872Y-121774888D01*
X146346106Y-121714964D01*
X146346102Y-121714959D01*
X146345014Y-121713277D01*
X146321230Y-121687138D01*
X146208335Y-121563069D01*
X146194670Y-121548051D01*
X146019359Y-121409598D01*
X145898512Y-121342887D01*
X145850964Y-121316639D01*
X145827567Y-121287329D01*
X145831747Y-121250060D01*
X145853087Y-121229739D01*
X145962994Y-121175896D01*
X146144860Y-121046173D01*
X146211049Y-120980215D01*
X146301672Y-120889909D01*
X146301677Y-120889903D01*
X146303096Y-120888489D01*
X146304268Y-120886857D01*
X146304273Y-120886852D01*
X146432281Y-120708709D01*
X146432285Y-120708703D01*
X146433453Y-120707077D01*
X146532430Y-120506811D01*
X146597370Y-120293069D01*
X146626529Y-120071590D01*
X146628156Y-120005000D01*
X146609852Y-119782361D01*
X146555431Y-119565702D01*
X146466354Y-119360840D01*
X146384872Y-119234888D01*
X146346106Y-119174964D01*
X146346102Y-119174959D01*
X146345014Y-119173277D01*
X146321230Y-119147138D01*
X146208335Y-119023069D01*
X146194670Y-119008051D01*
X146019359Y-118869598D01*
X145941611Y-118826679D01*
X145850964Y-118776639D01*
X145827567Y-118747329D01*
X145831747Y-118710060D01*
X145853087Y-118689739D01*
X145962994Y-118635896D01*
X146144860Y-118506173D01*
X146211049Y-118440215D01*
X146301672Y-118349909D01*
X146301677Y-118349903D01*
X146303096Y-118348489D01*
X146304268Y-118346857D01*
X146304273Y-118346852D01*
X146432281Y-118168709D01*
X146432285Y-118168703D01*
X146433453Y-118167077D01*
X146532430Y-117966811D01*
X146597370Y-117753069D01*
X146626529Y-117531590D01*
X146627098Y-117508288D01*
X146628124Y-117466316D01*
X146628124Y-117466313D01*
X146628156Y-117465000D01*
X146609852Y-117242361D01*
X146568337Y-117077082D01*
X146555921Y-117027652D01*
X146555920Y-117027650D01*
X146555431Y-117025702D01*
X146466354Y-116820840D01*
X146446416Y-116790020D01*
X146346106Y-116634964D01*
X146346102Y-116634959D01*
X146345014Y-116633277D01*
X146321230Y-116607138D01*
X146196021Y-116469536D01*
X146194670Y-116468051D01*
X146037741Y-116344115D01*
X146020938Y-116330845D01*
X146019359Y-116329598D01*
X145984906Y-116310579D01*
X145850964Y-116236639D01*
X145827567Y-116207329D01*
X145831747Y-116170060D01*
X145853087Y-116149739D01*
X145962994Y-116095896D01*
X146144860Y-115966173D01*
X146211049Y-115900215D01*
X146301672Y-115809909D01*
X146301677Y-115809903D01*
X146303096Y-115808489D01*
X146304268Y-115806857D01*
X146304273Y-115806852D01*
X146432281Y-115628709D01*
X146432285Y-115628703D01*
X146433453Y-115627077D01*
X146532430Y-115426811D01*
X146597370Y-115213069D01*
X146626529Y-114991590D01*
X146628156Y-114925000D01*
X146609852Y-114702361D01*
X146567741Y-114534709D01*
X146555921Y-114487652D01*
X146555920Y-114487650D01*
X146555431Y-114485702D01*
X146466354Y-114280840D01*
X146436081Y-114234045D01*
X146346106Y-114094964D01*
X146346102Y-114094959D01*
X146345014Y-114093277D01*
X146339656Y-114087388D01*
X146196021Y-113929536D01*
X146194670Y-113928051D01*
X146019359Y-113789598D01*
X145984906Y-113770579D01*
X145825547Y-113682608D01*
X145825542Y-113682606D01*
X145823789Y-113681638D01*
X145613212Y-113607069D01*
X145480524Y-113583434D01*
X145395262Y-113568246D01*
X145395258Y-113568246D01*
X145393284Y-113567894D01*
X145391276Y-113567869D01*
X145391271Y-113567869D01*
X145272695Y-113566421D01*
X145169911Y-113565165D01*
X145167918Y-113565470D01*
X145167917Y-113565470D01*
X144967245Y-113596177D01*
X144949091Y-113598955D01*
X144736756Y-113668357D01*
X144538607Y-113771507D01*
X144359965Y-113905635D01*
X144358578Y-113907087D01*
X144358574Y-113907090D01*
X144207017Y-114065685D01*
X144207014Y-114065689D01*
X144205629Y-114067138D01*
X144204501Y-114068791D01*
X144204499Y-114068794D01*
X144172979Y-114115001D01*
X144141598Y-114135536D01*
X144104887Y-114127867D01*
X144084352Y-114096486D01*
X144083500Y-114087388D01*
X144083500Y-114026866D01*
X144076745Y-113964684D01*
X144054609Y-113905635D01*
X144026842Y-113831567D01*
X144026841Y-113831565D01*
X144025615Y-113828295D01*
X144020691Y-113821724D01*
X143940355Y-113714533D01*
X143938261Y-113711739D01*
X143899392Y-113682608D01*
X143824502Y-113626481D01*
X143824501Y-113626480D01*
X143821705Y-113624385D01*
X143818435Y-113623159D01*
X143818433Y-113623158D01*
X143688190Y-113574332D01*
X143688187Y-113574331D01*
X143685316Y-113573255D01*
X143682266Y-113572924D01*
X143682263Y-113572923D01*
X143655067Y-113569969D01*
X143623134Y-113566500D01*
X141826866Y-113566500D01*
X141794933Y-113569969D01*
X141767737Y-113572923D01*
X141767734Y-113572924D01*
X141764684Y-113573255D01*
X141761813Y-113574331D01*
X141761810Y-113574332D01*
X141631567Y-113623158D01*
X141631565Y-113623159D01*
X141628295Y-113624385D01*
X141625499Y-113626480D01*
X141625498Y-113626481D01*
X141550608Y-113682608D01*
X141511739Y-113711739D01*
X141509645Y-113714533D01*
X141429310Y-113821724D01*
X141424385Y-113828295D01*
X141423159Y-113831565D01*
X141423158Y-113831567D01*
X141395392Y-113905635D01*
X141373255Y-113964684D01*
X141366500Y-114026866D01*
X141366500Y-115092300D01*
X141352148Y-115126948D01*
X141317500Y-115141300D01*
X141282852Y-115126948D01*
X139838513Y-113682608D01*
X138347852Y-112191947D01*
X138333500Y-112157299D01*
X138333500Y-104272967D01*
X138346086Y-104240180D01*
X138437317Y-104138858D01*
X138437319Y-104138856D01*
X138439040Y-104136944D01*
X138534527Y-103971556D01*
X138593542Y-103789928D01*
X138613504Y-103600000D01*
X138593542Y-103410072D01*
X138534527Y-103228444D01*
X138439040Y-103063056D01*
X138395187Y-103014352D01*
X138312969Y-102923039D01*
X138312965Y-102923036D01*
X138311253Y-102921134D01*
X138156752Y-102808882D01*
X137982288Y-102731206D01*
X137888888Y-102711353D01*
X137797996Y-102692033D01*
X137797993Y-102692033D01*
X137795487Y-102691500D01*
X137604513Y-102691500D01*
X137602007Y-102692033D01*
X137602004Y-102692033D01*
X137511112Y-102711353D01*
X137417712Y-102731206D01*
X137243248Y-102808882D01*
X137088747Y-102921134D01*
X137087035Y-102923036D01*
X137087031Y-102923039D01*
X137004813Y-103014352D01*
X136960960Y-103063056D01*
X136865473Y-103228444D01*
X136806458Y-103410072D01*
X136786496Y-103600000D01*
X121472681Y-103600000D01*
X120956329Y-103083648D01*
X120941977Y-103049000D01*
X120956329Y-103014352D01*
X120990977Y-103000000D01*
X126000000Y-103000000D01*
X126000000Y-100800000D01*
X132386496Y-100800000D01*
X132406458Y-100989928D01*
X132465473Y-101171556D01*
X132466757Y-101173781D01*
X132466758Y-101173782D01*
X132549405Y-101316930D01*
X132560960Y-101336944D01*
X132562681Y-101338856D01*
X132562683Y-101338858D01*
X132687031Y-101476961D01*
X132687035Y-101476964D01*
X132688747Y-101478866D01*
X132690816Y-101480369D01*
X132690818Y-101480371D01*
X132841172Y-101589610D01*
X132843248Y-101591118D01*
X133017712Y-101668794D01*
X133111113Y-101688647D01*
X133202004Y-101707967D01*
X133202007Y-101707967D01*
X133204513Y-101708500D01*
X133395487Y-101708500D01*
X133397993Y-101707967D01*
X133397996Y-101707967D01*
X133488887Y-101688647D01*
X133582288Y-101668794D01*
X133756752Y-101591118D01*
X133758828Y-101589610D01*
X133909182Y-101480371D01*
X133909184Y-101480369D01*
X133911253Y-101478866D01*
X133912965Y-101476964D01*
X133912969Y-101476961D01*
X134037317Y-101338858D01*
X134037319Y-101338856D01*
X134039040Y-101336944D01*
X134050595Y-101316930D01*
X134133242Y-101173782D01*
X134133243Y-101173781D01*
X134134527Y-101171556D01*
X134193542Y-100989928D01*
X134213504Y-100800000D01*
X134193542Y-100610072D01*
X134134527Y-100428444D01*
X134065065Y-100308133D01*
X134058500Y-100283633D01*
X134058500Y-98896334D01*
X134072852Y-98861686D01*
X134107500Y-98847334D01*
X134256653Y-98847334D01*
X134259159Y-98846801D01*
X134259162Y-98846801D01*
X134350054Y-98827481D01*
X134443454Y-98807628D01*
X134617918Y-98729952D01*
X134772419Y-98617700D01*
X134798669Y-98588546D01*
X134835084Y-98572334D01*
X135871009Y-98572334D01*
X135907423Y-98588547D01*
X135943830Y-98628981D01*
X135988747Y-98678866D01*
X135990816Y-98680369D01*
X135990818Y-98680371D01*
X136141172Y-98789610D01*
X136143248Y-98791118D01*
X136317712Y-98868794D01*
X136403529Y-98887035D01*
X136502004Y-98907967D01*
X136502007Y-98907967D01*
X136504513Y-98908500D01*
X136695487Y-98908500D01*
X136697993Y-98907967D01*
X136697996Y-98907967D01*
X136796471Y-98887035D01*
X136882288Y-98868794D01*
X137056752Y-98791118D01*
X137058828Y-98789610D01*
X137209182Y-98680371D01*
X137209184Y-98680369D01*
X137211253Y-98678866D01*
X137212965Y-98676964D01*
X137212969Y-98676961D01*
X137337317Y-98538858D01*
X137337319Y-98538856D01*
X137339040Y-98536944D01*
X137434527Y-98371556D01*
X137493542Y-98189928D01*
X137513504Y-98000000D01*
X137493542Y-97810072D01*
X137434527Y-97628444D01*
X137380790Y-97535368D01*
X137340327Y-97465285D01*
X137340327Y-97465284D01*
X137339040Y-97463056D01*
X137337009Y-97460800D01*
X137212969Y-97323039D01*
X137212965Y-97323036D01*
X137211253Y-97321134D01*
X137189507Y-97305334D01*
X137058828Y-97210390D01*
X137058826Y-97210389D01*
X137056752Y-97208882D01*
X136882288Y-97131206D01*
X136788887Y-97111353D01*
X136697996Y-97092033D01*
X136697993Y-97092033D01*
X136695487Y-97091500D01*
X136504513Y-97091500D01*
X136502007Y-97092033D01*
X136502004Y-97092033D01*
X136411113Y-97111353D01*
X136317712Y-97131206D01*
X136143248Y-97208882D01*
X136141174Y-97210389D01*
X136141172Y-97210390D01*
X136023374Y-97295976D01*
X135994572Y-97305334D01*
X134835084Y-97305334D01*
X134798670Y-97289122D01*
X134774137Y-97261876D01*
X134772419Y-97259968D01*
X134704181Y-97210390D01*
X134619994Y-97149224D01*
X134619992Y-97149223D01*
X134617918Y-97147716D01*
X134443454Y-97070040D01*
X134350053Y-97050187D01*
X134259162Y-97030867D01*
X134259159Y-97030867D01*
X134256653Y-97030334D01*
X134107500Y-97030334D01*
X134072852Y-97015982D01*
X134058500Y-96981334D01*
X134058500Y-93126695D01*
X138177251Y-93126695D01*
X138177366Y-93128691D01*
X138177366Y-93128694D01*
X138186731Y-93291118D01*
X138190110Y-93349715D01*
X138239222Y-93567639D01*
X138323266Y-93774616D01*
X138439987Y-93965088D01*
X138586250Y-94133938D01*
X138758126Y-94276632D01*
X138759856Y-94277643D01*
X138759859Y-94277645D01*
X138888353Y-94352730D01*
X138951000Y-94389338D01*
X139159692Y-94469030D01*
X139161665Y-94469431D01*
X139161667Y-94469432D01*
X139311913Y-94500000D01*
X139378597Y-94513567D01*
X139380602Y-94513641D01*
X139380606Y-94513641D01*
X139532048Y-94519194D01*
X139601837Y-94521753D01*
X139668869Y-94513166D01*
X139821419Y-94493624D01*
X139821421Y-94493624D01*
X139823416Y-94493368D01*
X139825343Y-94492790D01*
X139825347Y-94492789D01*
X140035459Y-94429752D01*
X140035464Y-94429750D01*
X140037384Y-94429174D01*
X140154997Y-94371556D01*
X140236188Y-94331781D01*
X140236190Y-94331780D01*
X140237994Y-94330896D01*
X140267189Y-94310072D01*
X140418224Y-94202340D01*
X140419860Y-94201173D01*
X140486049Y-94135215D01*
X140576672Y-94044909D01*
X140576677Y-94044903D01*
X140578096Y-94043489D01*
X140579268Y-94041857D01*
X140579273Y-94041852D01*
X140707281Y-93863709D01*
X140707285Y-93863703D01*
X140708453Y-93862077D01*
X140807430Y-93661811D01*
X140872370Y-93448069D01*
X140901529Y-93226590D01*
X140903156Y-93160000D01*
X140884852Y-92937361D01*
X140830431Y-92720702D01*
X140741354Y-92515840D01*
X140721416Y-92485020D01*
X140621106Y-92329964D01*
X140621102Y-92329959D01*
X140620014Y-92328277D01*
X140596230Y-92302138D01*
X140471021Y-92164536D01*
X140469670Y-92163051D01*
X140294359Y-92024598D01*
X140216611Y-91981679D01*
X140100547Y-91917608D01*
X140100542Y-91917606D01*
X140098789Y-91916638D01*
X139888212Y-91842069D01*
X139755524Y-91818434D01*
X139670262Y-91803246D01*
X139670258Y-91803246D01*
X139668284Y-91802894D01*
X139666276Y-91802869D01*
X139666271Y-91802869D01*
X139547695Y-91801421D01*
X139444911Y-91800165D01*
X139442918Y-91800470D01*
X139442917Y-91800470D01*
X139424776Y-91803246D01*
X139224091Y-91833955D01*
X139011756Y-91903357D01*
X138813607Y-92006507D01*
X138634965Y-92140635D01*
X138633578Y-92142087D01*
X138633574Y-92142090D01*
X138482017Y-92300685D01*
X138482014Y-92300689D01*
X138480629Y-92302138D01*
X138479501Y-92303791D01*
X138479499Y-92303794D01*
X138475217Y-92310072D01*
X138354743Y-92486680D01*
X138353898Y-92488501D01*
X138353896Y-92488504D01*
X138261536Y-92687477D01*
X138261534Y-92687482D01*
X138260688Y-92689305D01*
X138200989Y-92904570D01*
X138177251Y-93126695D01*
X134058500Y-93126695D01*
X134058500Y-90586695D01*
X135637251Y-90586695D01*
X135637366Y-90588691D01*
X135637366Y-90588694D01*
X135645914Y-90736944D01*
X135650110Y-90809715D01*
X135699222Y-91027639D01*
X135783266Y-91234616D01*
X135899987Y-91425088D01*
X136046250Y-91593938D01*
X136218126Y-91736632D01*
X136219856Y-91737643D01*
X136219859Y-91737645D01*
X136331520Y-91802894D01*
X136411000Y-91849338D01*
X136619692Y-91929030D01*
X136621665Y-91929431D01*
X136621667Y-91929432D01*
X136786934Y-91963056D01*
X136838597Y-91973567D01*
X136840602Y-91973641D01*
X136840606Y-91973641D01*
X136992048Y-91979194D01*
X137061837Y-91981753D01*
X137207790Y-91963056D01*
X137281419Y-91953624D01*
X137281421Y-91953624D01*
X137283416Y-91953368D01*
X137285343Y-91952790D01*
X137285347Y-91952789D01*
X137495459Y-91889752D01*
X137495464Y-91889750D01*
X137497384Y-91889174D01*
X137679074Y-91800165D01*
X137696188Y-91791781D01*
X137696190Y-91791780D01*
X137697994Y-91790896D01*
X137879860Y-91661173D01*
X137946049Y-91595215D01*
X138036672Y-91504909D01*
X138036677Y-91504903D01*
X138038096Y-91503489D01*
X138039268Y-91501857D01*
X138039273Y-91501852D01*
X138167281Y-91323709D01*
X138167285Y-91323703D01*
X138168453Y-91322077D01*
X138267430Y-91121811D01*
X138332370Y-90908069D01*
X138361529Y-90686590D01*
X138363156Y-90620000D01*
X138344852Y-90397361D01*
X138290431Y-90180702D01*
X138201354Y-89975840D01*
X138180638Y-89943818D01*
X138081106Y-89789964D01*
X138081102Y-89789959D01*
X138080014Y-89788277D01*
X138056230Y-89762138D01*
X137996638Y-89696648D01*
X137929670Y-89623051D01*
X137754359Y-89484598D01*
X137676611Y-89441679D01*
X137560547Y-89377608D01*
X137560542Y-89377606D01*
X137558789Y-89376638D01*
X137348212Y-89302069D01*
X137215524Y-89278434D01*
X137130262Y-89263246D01*
X137130258Y-89263246D01*
X137128284Y-89262894D01*
X137126276Y-89262869D01*
X137126271Y-89262869D01*
X137007695Y-89261421D01*
X136904911Y-89260165D01*
X136902918Y-89260470D01*
X136902917Y-89260470D01*
X136686084Y-89293650D01*
X136684091Y-89293955D01*
X136471756Y-89363357D01*
X136273607Y-89466507D01*
X136094965Y-89600635D01*
X136093578Y-89602087D01*
X136093574Y-89602090D01*
X135942017Y-89760685D01*
X135942014Y-89760689D01*
X135940629Y-89762138D01*
X135939501Y-89763791D01*
X135939499Y-89763794D01*
X135866181Y-89871275D01*
X135814743Y-89946680D01*
X135813898Y-89948501D01*
X135813896Y-89948504D01*
X135721536Y-90147477D01*
X135721534Y-90147482D01*
X135720688Y-90149305D01*
X135660989Y-90364570D01*
X135637251Y-90586695D01*
X134058500Y-90586695D01*
X134058500Y-88046695D01*
X138177251Y-88046695D01*
X138177366Y-88048691D01*
X138177366Y-88048694D01*
X138183331Y-88152144D01*
X138190110Y-88269715D01*
X138239222Y-88487639D01*
X138323266Y-88694616D01*
X138439987Y-88885088D01*
X138586250Y-89053938D01*
X138675993Y-89128444D01*
X138737110Y-89179184D01*
X138758126Y-89196632D01*
X138759856Y-89197643D01*
X138759859Y-89197645D01*
X138871520Y-89262894D01*
X138951000Y-89309338D01*
X139159692Y-89389030D01*
X139161665Y-89389431D01*
X139161667Y-89389432D01*
X139376626Y-89433166D01*
X139378597Y-89433567D01*
X139380602Y-89433641D01*
X139380606Y-89433641D01*
X139532048Y-89439194D01*
X139601837Y-89441753D01*
X139668869Y-89433166D01*
X139821419Y-89413624D01*
X139821421Y-89413624D01*
X139823416Y-89413368D01*
X139825343Y-89412790D01*
X139825347Y-89412789D01*
X140035459Y-89349752D01*
X140035464Y-89349750D01*
X140037384Y-89349174D01*
X140228678Y-89255460D01*
X140236188Y-89251781D01*
X140236190Y-89251780D01*
X140237994Y-89250896D01*
X140298768Y-89207547D01*
X140418224Y-89122340D01*
X140419860Y-89121173D01*
X140486049Y-89055215D01*
X140576672Y-88964909D01*
X140576677Y-88964903D01*
X140578096Y-88963489D01*
X140579268Y-88961857D01*
X140579273Y-88961852D01*
X140707281Y-88783709D01*
X140707285Y-88783703D01*
X140708453Y-88782077D01*
X140807430Y-88581811D01*
X140872370Y-88368069D01*
X140901529Y-88146590D01*
X140903156Y-88080000D01*
X140884852Y-87857361D01*
X140830431Y-87640702D01*
X140741354Y-87435840D01*
X140721416Y-87405020D01*
X140621106Y-87249964D01*
X140621102Y-87249959D01*
X140620014Y-87248277D01*
X140596230Y-87222138D01*
X140471021Y-87084536D01*
X140469670Y-87083051D01*
X140294359Y-86944598D01*
X140259906Y-86925579D01*
X140100547Y-86837608D01*
X140100542Y-86837606D01*
X140098789Y-86836638D01*
X139888212Y-86762069D01*
X139755524Y-86738434D01*
X139670262Y-86723246D01*
X139670258Y-86723246D01*
X139668284Y-86722894D01*
X139666276Y-86722869D01*
X139666271Y-86722869D01*
X139547695Y-86721421D01*
X139444911Y-86720165D01*
X139442918Y-86720470D01*
X139442917Y-86720470D01*
X139424776Y-86723246D01*
X139224091Y-86753955D01*
X139011756Y-86823357D01*
X138813607Y-86926507D01*
X138634965Y-87060635D01*
X138633578Y-87062087D01*
X138633574Y-87062090D01*
X138482017Y-87220685D01*
X138482014Y-87220689D01*
X138480629Y-87222138D01*
X138479501Y-87223791D01*
X138479499Y-87223794D01*
X138476394Y-87228347D01*
X138354743Y-87406680D01*
X138353898Y-87408501D01*
X138353896Y-87408504D01*
X138261536Y-87607477D01*
X138261534Y-87607482D01*
X138260688Y-87609305D01*
X138200989Y-87824570D01*
X138177251Y-88046695D01*
X134058500Y-88046695D01*
X134058500Y-87316367D01*
X134065065Y-87291867D01*
X134133242Y-87173782D01*
X134133243Y-87173781D01*
X134134527Y-87171556D01*
X134193542Y-86989928D01*
X134213504Y-86800000D01*
X134193542Y-86610072D01*
X134134527Y-86428444D01*
X134065065Y-86308133D01*
X134058500Y-86283633D01*
X134058500Y-83898134D01*
X135641500Y-83898134D01*
X135648255Y-83960316D01*
X135649331Y-83963187D01*
X135649332Y-83963190D01*
X135698158Y-84093433D01*
X135699385Y-84096705D01*
X135701480Y-84099501D01*
X135701481Y-84099502D01*
X135715940Y-84118794D01*
X135786739Y-84213261D01*
X135789533Y-84215355D01*
X135862115Y-84269752D01*
X135903295Y-84300615D01*
X135906565Y-84301841D01*
X135906567Y-84301842D01*
X136036810Y-84350668D01*
X136036813Y-84350669D01*
X136039684Y-84351745D01*
X136042734Y-84352076D01*
X136042737Y-84352077D01*
X136069933Y-84355031D01*
X136101866Y-84358500D01*
X137898134Y-84358500D01*
X137930067Y-84355031D01*
X137957263Y-84352077D01*
X137957266Y-84352076D01*
X137960316Y-84351745D01*
X137963187Y-84350669D01*
X137963190Y-84350668D01*
X138093433Y-84301842D01*
X138093435Y-84301841D01*
X138096705Y-84300615D01*
X138137886Y-84269752D01*
X138210467Y-84215355D01*
X138213261Y-84213261D01*
X138284060Y-84118794D01*
X138298519Y-84099502D01*
X138298520Y-84099501D01*
X138300615Y-84096705D01*
X138301842Y-84093433D01*
X138350668Y-83963190D01*
X138350669Y-83963187D01*
X138351745Y-83960316D01*
X138358500Y-83898134D01*
X138358500Y-83842423D01*
X138372852Y-83807775D01*
X138407500Y-83793423D01*
X138444538Y-83810341D01*
X138586250Y-83973938D01*
X138667169Y-84041118D01*
X138737493Y-84099502D01*
X138758126Y-84116632D01*
X138759856Y-84117643D01*
X138759859Y-84117645D01*
X138859129Y-84175653D01*
X138951000Y-84229338D01*
X139159692Y-84309030D01*
X139161665Y-84309431D01*
X139161667Y-84309432D01*
X139364348Y-84350668D01*
X139378597Y-84353567D01*
X139380602Y-84353641D01*
X139380606Y-84353641D01*
X139532048Y-84359194D01*
X139601837Y-84361753D01*
X139677370Y-84352077D01*
X139821419Y-84333624D01*
X139821421Y-84333624D01*
X139823416Y-84333368D01*
X139825343Y-84332790D01*
X139825347Y-84332789D01*
X140035459Y-84269752D01*
X140035464Y-84269750D01*
X140037384Y-84269174D01*
X140147242Y-84215355D01*
X140236188Y-84171781D01*
X140236190Y-84171780D01*
X140237994Y-84170896D01*
X140419860Y-84041173D01*
X140486049Y-83975215D01*
X140576672Y-83884909D01*
X140576677Y-83884903D01*
X140578096Y-83883489D01*
X140579268Y-83881857D01*
X140579273Y-83881852D01*
X140707281Y-83703709D01*
X140707285Y-83703703D01*
X140708453Y-83702077D01*
X140807430Y-83501811D01*
X140872370Y-83288069D01*
X140901529Y-83066590D01*
X140903156Y-83000000D01*
X140884852Y-82777361D01*
X140834337Y-82576251D01*
X140830921Y-82562652D01*
X140830920Y-82562650D01*
X140830431Y-82560702D01*
X140741354Y-82355840D01*
X140646283Y-82208882D01*
X140621106Y-82169964D01*
X140621102Y-82169959D01*
X140620014Y-82168277D01*
X140614656Y-82162388D01*
X140471021Y-82004536D01*
X140469670Y-82003051D01*
X140294359Y-81864598D01*
X140215624Y-81821134D01*
X140100547Y-81757608D01*
X140100542Y-81757606D01*
X140098789Y-81756638D01*
X139888212Y-81682069D01*
X139755524Y-81658434D01*
X139670262Y-81643246D01*
X139670258Y-81643246D01*
X139668284Y-81642894D01*
X139666276Y-81642869D01*
X139666271Y-81642869D01*
X139547695Y-81641421D01*
X139444911Y-81640165D01*
X139442918Y-81640470D01*
X139442917Y-81640470D01*
X139226084Y-81673650D01*
X139224091Y-81673955D01*
X139011756Y-81743357D01*
X138813607Y-81846507D01*
X138634965Y-81980635D01*
X138633578Y-81982087D01*
X138633574Y-81982090D01*
X138482017Y-82140685D01*
X138482014Y-82140689D01*
X138480629Y-82142138D01*
X138479501Y-82143791D01*
X138479499Y-82143794D01*
X138447979Y-82190001D01*
X138416598Y-82210536D01*
X138379887Y-82202867D01*
X138359352Y-82171486D01*
X138358500Y-82162388D01*
X138358500Y-82101866D01*
X138351745Y-82039684D01*
X138329609Y-81980635D01*
X138301842Y-81906567D01*
X138301841Y-81906565D01*
X138300615Y-81903295D01*
X138270886Y-81863627D01*
X138215355Y-81789533D01*
X138213261Y-81786739D01*
X138174392Y-81757608D01*
X138099502Y-81701481D01*
X138099501Y-81701480D01*
X138096705Y-81699385D01*
X138093435Y-81698159D01*
X138093433Y-81698158D01*
X137963190Y-81649332D01*
X137963187Y-81649331D01*
X137960316Y-81648255D01*
X137957266Y-81647924D01*
X137957263Y-81647923D01*
X137930067Y-81644969D01*
X137898134Y-81641500D01*
X136101866Y-81641500D01*
X136069933Y-81644969D01*
X136042737Y-81647923D01*
X136042734Y-81647924D01*
X136039684Y-81648255D01*
X136036813Y-81649331D01*
X136036810Y-81649332D01*
X135906567Y-81698158D01*
X135906565Y-81698159D01*
X135903295Y-81699385D01*
X135900499Y-81701480D01*
X135900498Y-81701481D01*
X135825608Y-81757608D01*
X135786739Y-81786739D01*
X135784645Y-81789533D01*
X135729115Y-81863627D01*
X135699385Y-81903295D01*
X135698159Y-81906565D01*
X135698158Y-81906567D01*
X135670392Y-81980635D01*
X135648255Y-82039684D01*
X135641500Y-82101866D01*
X135641500Y-83898134D01*
X134058500Y-83898134D01*
X134058500Y-81116367D01*
X134065065Y-81091867D01*
X134133242Y-80973782D01*
X134133243Y-80973781D01*
X134134527Y-80971556D01*
X134193542Y-80789928D01*
X134213504Y-80600000D01*
X134193542Y-80410072D01*
X134134527Y-80228444D01*
X134132385Y-80224733D01*
X134040327Y-80065285D01*
X134040327Y-80065284D01*
X134039040Y-80063056D01*
X134015529Y-80036944D01*
X133912969Y-79923039D01*
X133912965Y-79923036D01*
X133911253Y-79921134D01*
X133756752Y-79808882D01*
X133582288Y-79731206D01*
X133488888Y-79711353D01*
X133397996Y-79692033D01*
X133397993Y-79692033D01*
X133395487Y-79691500D01*
X133204513Y-79691500D01*
X133202007Y-79692033D01*
X133202004Y-79692033D01*
X133111112Y-79711353D01*
X133017712Y-79731206D01*
X132843248Y-79808882D01*
X132688747Y-79921134D01*
X132687035Y-79923036D01*
X132687031Y-79923039D01*
X132584471Y-80036944D01*
X132560960Y-80063056D01*
X132559673Y-80065284D01*
X132559673Y-80065285D01*
X132467616Y-80224733D01*
X132465473Y-80228444D01*
X132406458Y-80410072D01*
X132386496Y-80600000D01*
X132406458Y-80789928D01*
X132465473Y-80971556D01*
X132466757Y-80973781D01*
X132466758Y-80973782D01*
X132534935Y-81091867D01*
X132541500Y-81116367D01*
X132541500Y-86283633D01*
X132534935Y-86308133D01*
X132465473Y-86428444D01*
X132406458Y-86610072D01*
X132386496Y-86800000D01*
X132406458Y-86989928D01*
X132465473Y-87171556D01*
X132466757Y-87173781D01*
X132466758Y-87173782D01*
X132534935Y-87291867D01*
X132541500Y-87316367D01*
X132541500Y-100283633D01*
X132534935Y-100308133D01*
X132465473Y-100428444D01*
X132406458Y-100610072D01*
X132386496Y-100800000D01*
X126000000Y-100800000D01*
X126000000Y-74126695D01*
X138177251Y-74126695D01*
X138177366Y-74128691D01*
X138177366Y-74128694D01*
X138188462Y-74321134D01*
X138190110Y-74349715D01*
X138239222Y-74567639D01*
X138323266Y-74774616D01*
X138439987Y-74965088D01*
X138586250Y-75133938D01*
X138758126Y-75276632D01*
X138759856Y-75277643D01*
X138759859Y-75277645D01*
X138859627Y-75335944D01*
X138951000Y-75389338D01*
X139159692Y-75469030D01*
X139161665Y-75469431D01*
X139161667Y-75469432D01*
X139376626Y-75513166D01*
X139378597Y-75513567D01*
X139380602Y-75513641D01*
X139380606Y-75513641D01*
X139532048Y-75519194D01*
X139601837Y-75521753D01*
X139668869Y-75513166D01*
X139821419Y-75493624D01*
X139821421Y-75493624D01*
X139823416Y-75493368D01*
X139825343Y-75492790D01*
X139825347Y-75492789D01*
X140035459Y-75429752D01*
X140035464Y-75429750D01*
X140037384Y-75429174D01*
X140227690Y-75335944D01*
X140236188Y-75331781D01*
X140236190Y-75331780D01*
X140237994Y-75330896D01*
X140373760Y-75234056D01*
X140418224Y-75202340D01*
X140419860Y-75201173D01*
X140486049Y-75135215D01*
X140576672Y-75044909D01*
X140576677Y-75044903D01*
X140578096Y-75043489D01*
X140579268Y-75041857D01*
X140579273Y-75041852D01*
X140707281Y-74863709D01*
X140707285Y-74863703D01*
X140708453Y-74862077D01*
X140807430Y-74661811D01*
X140872370Y-74448069D01*
X140901529Y-74226590D01*
X140903156Y-74160000D01*
X140884852Y-73937361D01*
X140830431Y-73720702D01*
X140741354Y-73515840D01*
X140685523Y-73429538D01*
X140621106Y-73329964D01*
X140621102Y-73329959D01*
X140620014Y-73328277D01*
X140596230Y-73302138D01*
X140471021Y-73164536D01*
X140469670Y-73163051D01*
X140294359Y-73024598D01*
X140216611Y-72981679D01*
X140100547Y-72917608D01*
X140100542Y-72917606D01*
X140098789Y-72916638D01*
X139888212Y-72842069D01*
X139755524Y-72818434D01*
X139670262Y-72803246D01*
X139670258Y-72803246D01*
X139668284Y-72802894D01*
X139666276Y-72802869D01*
X139666271Y-72802869D01*
X139547695Y-72801421D01*
X139444911Y-72800165D01*
X139442918Y-72800470D01*
X139442917Y-72800470D01*
X139424776Y-72803246D01*
X139224091Y-72833955D01*
X139011756Y-72903357D01*
X138813607Y-73006507D01*
X138634965Y-73140635D01*
X138633578Y-73142087D01*
X138633574Y-73142090D01*
X138482017Y-73300685D01*
X138482014Y-73300689D01*
X138480629Y-73302138D01*
X138479501Y-73303791D01*
X138479499Y-73303794D01*
X138393723Y-73429538D01*
X138354743Y-73486680D01*
X138353898Y-73488501D01*
X138353896Y-73488504D01*
X138261536Y-73687477D01*
X138261534Y-73687482D01*
X138260688Y-73689305D01*
X138260150Y-73691245D01*
X138212475Y-73863155D01*
X138200989Y-73904570D01*
X138177251Y-74126695D01*
X126000000Y-74126695D01*
X126000000Y-63700000D01*
X132086496Y-63700000D01*
X132106458Y-63889928D01*
X132165473Y-64071556D01*
X132260960Y-64236944D01*
X132262681Y-64238856D01*
X132262683Y-64238858D01*
X132387031Y-64376961D01*
X132387035Y-64376964D01*
X132388747Y-64378866D01*
X132390816Y-64380369D01*
X132390818Y-64380371D01*
X132541172Y-64489610D01*
X132543248Y-64491118D01*
X132717712Y-64568794D01*
X132811112Y-64588647D01*
X132902004Y-64607967D01*
X132902007Y-64607967D01*
X132904513Y-64608500D01*
X133095487Y-64608500D01*
X133097993Y-64607967D01*
X133097996Y-64607967D01*
X133188888Y-64588647D01*
X133282288Y-64568794D01*
X133456752Y-64491118D01*
X133458828Y-64489610D01*
X133609182Y-64380371D01*
X133609184Y-64380369D01*
X133611253Y-64378866D01*
X133660014Y-64324712D01*
X133696427Y-64308500D01*
X133887655Y-64308500D01*
X133922303Y-64322852D01*
X135689206Y-66089755D01*
X135703558Y-66124403D01*
X135701776Y-66137498D01*
X135661526Y-66282633D01*
X135660989Y-66284570D01*
X135637251Y-66506695D01*
X135637366Y-66508691D01*
X135637366Y-66508694D01*
X135649994Y-66727707D01*
X135650110Y-66729715D01*
X135699222Y-66947639D01*
X135783266Y-67154616D01*
X135899987Y-67345088D01*
X135901305Y-67346609D01*
X136006760Y-67468350D01*
X136018598Y-67503935D01*
X136004371Y-67535080D01*
X133207070Y-70332381D01*
X133192352Y-70342497D01*
X133143424Y-70364281D01*
X133043248Y-70408882D01*
X133041174Y-70410389D01*
X133041172Y-70410390D01*
X132913379Y-70503238D01*
X132888747Y-70521134D01*
X132887035Y-70523036D01*
X132887031Y-70523039D01*
X132762683Y-70661142D01*
X132760960Y-70663056D01*
X132759673Y-70665284D01*
X132759673Y-70665285D01*
X132724966Y-70725400D01*
X132665473Y-70828444D01*
X132606458Y-71010072D01*
X132586496Y-71200000D01*
X132606458Y-71389928D01*
X132665473Y-71571556D01*
X132666757Y-71573781D01*
X132666758Y-71573782D01*
X132692685Y-71618689D01*
X132760960Y-71736944D01*
X132762681Y-71738856D01*
X132762683Y-71738858D01*
X132887031Y-71876961D01*
X132887035Y-71876964D01*
X132888747Y-71878866D01*
X132890816Y-71880369D01*
X132890818Y-71880371D01*
X133041172Y-71989610D01*
X133043248Y-71991118D01*
X133217712Y-72068794D01*
X133311113Y-72088647D01*
X133402004Y-72107967D01*
X133402007Y-72107967D01*
X133404513Y-72108500D01*
X133595487Y-72108500D01*
X133597993Y-72107967D01*
X133597996Y-72107967D01*
X133688887Y-72088647D01*
X133782288Y-72068794D01*
X133956752Y-71991118D01*
X133958828Y-71989610D01*
X134109182Y-71880371D01*
X134109184Y-71880369D01*
X134111253Y-71878866D01*
X134112965Y-71876964D01*
X134112969Y-71876961D01*
X134237317Y-71738858D01*
X134237319Y-71738856D01*
X134239040Y-71736944D01*
X134307315Y-71618689D01*
X134325787Y-71586695D01*
X135637251Y-71586695D01*
X135637366Y-71588691D01*
X135637366Y-71588694D01*
X135645914Y-71736944D01*
X135650110Y-71809715D01*
X135672708Y-71909990D01*
X135695607Y-72011596D01*
X135699222Y-72027639D01*
X135783266Y-72234616D01*
X135899987Y-72425088D01*
X136046250Y-72593938D01*
X136218126Y-72736632D01*
X136219856Y-72737643D01*
X136219859Y-72737645D01*
X136331520Y-72802894D01*
X136411000Y-72849338D01*
X136619692Y-72929030D01*
X136621665Y-72929431D01*
X136621667Y-72929432D01*
X136836626Y-72973166D01*
X136838597Y-72973567D01*
X136840602Y-72973641D01*
X136840606Y-72973641D01*
X136992048Y-72979194D01*
X137061837Y-72981753D01*
X137128869Y-72973166D01*
X137281419Y-72953624D01*
X137281421Y-72953624D01*
X137283416Y-72953368D01*
X137285343Y-72952790D01*
X137285347Y-72952789D01*
X137495459Y-72889752D01*
X137495464Y-72889750D01*
X137497384Y-72889174D01*
X137679074Y-72800165D01*
X137696188Y-72791781D01*
X137696190Y-72791780D01*
X137697994Y-72790896D01*
X137785471Y-72728500D01*
X137878224Y-72662340D01*
X137879860Y-72661173D01*
X137946049Y-72595215D01*
X138036672Y-72504909D01*
X138036677Y-72504903D01*
X138038096Y-72503489D01*
X138039268Y-72501857D01*
X138039273Y-72501852D01*
X138167281Y-72323709D01*
X138167285Y-72323703D01*
X138168453Y-72322077D01*
X138267430Y-72121811D01*
X138332370Y-71908069D01*
X138361529Y-71686590D01*
X138363156Y-71620000D01*
X138344852Y-71397361D01*
X138290431Y-71180702D01*
X138201354Y-70975840D01*
X138147931Y-70893261D01*
X138081106Y-70789964D01*
X138081102Y-70789959D01*
X138080014Y-70788277D01*
X138073888Y-70781544D01*
X137931021Y-70624536D01*
X137929670Y-70623051D01*
X137754359Y-70484598D01*
X137676611Y-70441679D01*
X137560547Y-70377608D01*
X137560542Y-70377606D01*
X137558789Y-70376638D01*
X137348212Y-70302069D01*
X137215524Y-70278434D01*
X137130262Y-70263246D01*
X137130258Y-70263246D01*
X137128284Y-70262894D01*
X137126276Y-70262869D01*
X137126271Y-70262869D01*
X137007695Y-70261421D01*
X136904911Y-70260165D01*
X136902918Y-70260470D01*
X136902917Y-70260470D01*
X136884776Y-70263246D01*
X136684091Y-70293955D01*
X136471756Y-70363357D01*
X136273607Y-70466507D01*
X136094965Y-70600635D01*
X136093578Y-70602087D01*
X136093574Y-70602090D01*
X135942017Y-70760685D01*
X135942014Y-70760689D01*
X135940629Y-70762138D01*
X135939501Y-70763791D01*
X135939499Y-70763794D01*
X135825679Y-70930649D01*
X135814743Y-70946680D01*
X135813898Y-70948501D01*
X135813896Y-70948504D01*
X135721536Y-71147477D01*
X135721534Y-71147482D01*
X135720688Y-71149305D01*
X135720150Y-71151245D01*
X135682281Y-71287796D01*
X135660989Y-71364570D01*
X135637251Y-71586695D01*
X134325787Y-71586695D01*
X134333242Y-71573782D01*
X134333243Y-71573781D01*
X134334527Y-71571556D01*
X134393542Y-71389928D01*
X134413504Y-71200000D01*
X134393542Y-71010072D01*
X134367736Y-70930649D01*
X134370679Y-70893261D01*
X134379690Y-70880859D01*
X136707208Y-68553341D01*
X136741856Y-68538989D01*
X137626419Y-68538989D01*
X137632814Y-68539408D01*
X137669511Y-68544239D01*
X137672694Y-68543820D01*
X137709385Y-68538990D01*
X137709395Y-68538989D01*
X137709396Y-68538989D01*
X137808968Y-68525880D01*
X137828362Y-68523327D01*
X137976387Y-68462013D01*
X138071583Y-68388966D01*
X138071586Y-68388963D01*
X138103498Y-68364476D01*
X138126034Y-68335107D01*
X138130260Y-68330289D01*
X138760297Y-67700252D01*
X138794945Y-67685900D01*
X138819667Y-67692594D01*
X138951000Y-67769338D01*
X138950486Y-67770218D01*
X138973467Y-67795840D01*
X138971432Y-67833288D01*
X138949872Y-67855572D01*
X138813607Y-67926507D01*
X138634965Y-68060635D01*
X138633578Y-68062087D01*
X138633574Y-68062090D01*
X138482017Y-68220685D01*
X138482014Y-68220689D01*
X138480629Y-68222138D01*
X138479501Y-68223791D01*
X138479499Y-68223794D01*
X138366827Y-68388966D01*
X138354743Y-68406680D01*
X138353898Y-68408501D01*
X138353896Y-68408504D01*
X138261536Y-68607477D01*
X138261534Y-68607482D01*
X138260688Y-68609305D01*
X138260150Y-68611245D01*
X138233073Y-68708882D01*
X138200989Y-68824570D01*
X138177251Y-69046695D01*
X138177366Y-69048691D01*
X138177366Y-69048694D01*
X138186602Y-69208882D01*
X138190110Y-69269715D01*
X138239222Y-69487639D01*
X138323266Y-69694616D01*
X138439987Y-69885088D01*
X138586250Y-70053938D01*
X138667235Y-70121173D01*
X138736727Y-70178866D01*
X138758126Y-70196632D01*
X138759856Y-70197643D01*
X138759859Y-70197645D01*
X138871520Y-70262894D01*
X138951000Y-70309338D01*
X139159692Y-70389030D01*
X139161665Y-70389431D01*
X139161667Y-70389432D01*
X139376626Y-70433166D01*
X139378597Y-70433567D01*
X139380602Y-70433641D01*
X139380606Y-70433641D01*
X139532048Y-70439194D01*
X139601837Y-70441753D01*
X139668869Y-70433166D01*
X139821419Y-70413624D01*
X139821421Y-70413624D01*
X139823416Y-70413368D01*
X139825343Y-70412790D01*
X139825347Y-70412789D01*
X140035459Y-70349752D01*
X140035464Y-70349750D01*
X140037384Y-70349174D01*
X140219074Y-70260165D01*
X140236188Y-70251781D01*
X140236190Y-70251780D01*
X140237994Y-70250896D01*
X140323469Y-70189928D01*
X140418224Y-70122340D01*
X140419860Y-70121173D01*
X140486049Y-70055215D01*
X140576672Y-69964909D01*
X140576677Y-69964903D01*
X140578096Y-69963489D01*
X140579268Y-69961857D01*
X140579273Y-69961852D01*
X140707281Y-69783709D01*
X140707285Y-69783703D01*
X140708453Y-69782077D01*
X140807430Y-69581811D01*
X140872370Y-69368069D01*
X140901529Y-69146590D01*
X140903156Y-69080000D01*
X140884852Y-68857361D01*
X140830431Y-68640702D01*
X140741354Y-68435840D01*
X140695187Y-68364476D01*
X140621106Y-68249964D01*
X140621102Y-68249959D01*
X140620014Y-68248277D01*
X140596230Y-68222138D01*
X140471021Y-68084536D01*
X140469670Y-68083051D01*
X140294359Y-67944598D01*
X140259906Y-67925579D01*
X140125964Y-67851639D01*
X140102567Y-67822329D01*
X140106747Y-67785060D01*
X140128087Y-67764739D01*
X140237994Y-67710896D01*
X140252917Y-67700252D01*
X140418224Y-67582340D01*
X140419860Y-67581173D01*
X140421281Y-67579757D01*
X140576672Y-67424909D01*
X140576677Y-67424903D01*
X140578096Y-67423489D01*
X140579268Y-67421857D01*
X140579273Y-67421852D01*
X140707281Y-67243709D01*
X140707285Y-67243703D01*
X140708453Y-67242077D01*
X140807430Y-67041811D01*
X140872370Y-66828069D01*
X140901529Y-66606590D01*
X140903156Y-66540000D01*
X140884852Y-66317361D01*
X140857971Y-66210345D01*
X140830921Y-66102652D01*
X140830920Y-66102650D01*
X140830431Y-66100702D01*
X140741354Y-65895840D01*
X140676885Y-65796186D01*
X140621106Y-65709964D01*
X140621102Y-65709959D01*
X140620014Y-65708277D01*
X140547353Y-65628423D01*
X140471021Y-65544536D01*
X140469670Y-65543051D01*
X140294359Y-65404598D01*
X140285118Y-65399497D01*
X140125964Y-65311639D01*
X140102567Y-65282329D01*
X140106747Y-65245060D01*
X140128087Y-65224739D01*
X140237994Y-65170896D01*
X140419860Y-65041173D01*
X140421281Y-65039757D01*
X140576672Y-64884909D01*
X140576677Y-64884903D01*
X140578096Y-64883489D01*
X140579268Y-64881857D01*
X140579273Y-64881852D01*
X140707281Y-64703709D01*
X140707285Y-64703703D01*
X140708453Y-64702077D01*
X140807430Y-64501811D01*
X140872370Y-64288069D01*
X140901529Y-64066590D01*
X140903156Y-64000000D01*
X140884852Y-63777361D01*
X140830431Y-63560702D01*
X140741354Y-63355840D01*
X140702238Y-63295376D01*
X140621106Y-63169964D01*
X140621102Y-63169959D01*
X140620014Y-63168277D01*
X140617292Y-63165285D01*
X140500388Y-63036810D01*
X140469670Y-63003051D01*
X140294359Y-62864598D01*
X140166179Y-62793839D01*
X140100547Y-62757608D01*
X140100542Y-62757606D01*
X140098789Y-62756638D01*
X139888212Y-62682069D01*
X139755524Y-62658434D01*
X139670262Y-62643246D01*
X139670258Y-62643246D01*
X139668284Y-62642894D01*
X139666276Y-62642869D01*
X139666271Y-62642869D01*
X139547695Y-62641421D01*
X139444911Y-62640165D01*
X139442918Y-62640470D01*
X139442917Y-62640470D01*
X139226084Y-62673650D01*
X139224091Y-62673955D01*
X139011756Y-62743357D01*
X138813607Y-62846507D01*
X138634965Y-62980635D01*
X138633578Y-62982087D01*
X138633574Y-62982090D01*
X138482017Y-63140685D01*
X138482014Y-63140689D01*
X138480629Y-63142138D01*
X138479501Y-63143791D01*
X138479499Y-63143794D01*
X138447979Y-63190001D01*
X138416598Y-63210536D01*
X138379887Y-63202867D01*
X138359352Y-63171486D01*
X138358500Y-63162388D01*
X138358500Y-63101866D01*
X138351745Y-63039684D01*
X138344688Y-63020858D01*
X138301842Y-62906567D01*
X138301841Y-62906565D01*
X138300615Y-62903295D01*
X138270886Y-62863627D01*
X138215355Y-62789533D01*
X138213261Y-62786739D01*
X138174392Y-62757608D01*
X138099502Y-62701481D01*
X138099501Y-62701480D01*
X138096705Y-62699385D01*
X138093435Y-62698159D01*
X138093433Y-62698158D01*
X137963190Y-62649332D01*
X137963187Y-62649331D01*
X137960316Y-62648255D01*
X137957266Y-62647924D01*
X137957263Y-62647923D01*
X137930067Y-62644969D01*
X137898134Y-62641500D01*
X136101866Y-62641500D01*
X136069933Y-62644969D01*
X136042737Y-62647923D01*
X136042734Y-62647924D01*
X136039684Y-62648255D01*
X136036813Y-62649331D01*
X136036810Y-62649332D01*
X135906567Y-62698158D01*
X135906565Y-62698159D01*
X135903295Y-62699385D01*
X135900499Y-62701480D01*
X135900498Y-62701481D01*
X135825608Y-62757608D01*
X135786739Y-62786739D01*
X135784645Y-62789533D01*
X135729115Y-62863627D01*
X135699385Y-62903295D01*
X135698159Y-62906565D01*
X135698158Y-62906567D01*
X135655313Y-63020858D01*
X135648255Y-63039684D01*
X135641500Y-63101866D01*
X135641500Y-64202655D01*
X135627148Y-64237303D01*
X135592500Y-64251655D01*
X135557852Y-64237303D01*
X134620744Y-63300195D01*
X134616518Y-63295376D01*
X134595943Y-63268562D01*
X134593987Y-63266013D01*
X134562075Y-63241526D01*
X134562072Y-63241523D01*
X134466876Y-63168476D01*
X134318851Y-63107162D01*
X134299457Y-63104609D01*
X134288694Y-63103192D01*
X134199895Y-63091501D01*
X134199875Y-63091499D01*
X134163183Y-63086669D01*
X134160000Y-63086250D01*
X134156817Y-63086669D01*
X134123303Y-63091081D01*
X134116908Y-63091500D01*
X133696427Y-63091500D01*
X133660014Y-63075288D01*
X133611253Y-63021134D01*
X133555512Y-62980635D01*
X133458828Y-62910390D01*
X133458826Y-62910389D01*
X133456752Y-62908882D01*
X133282288Y-62831206D01*
X133188888Y-62811353D01*
X133097996Y-62792033D01*
X133097993Y-62792033D01*
X133095487Y-62791500D01*
X132904513Y-62791500D01*
X132902007Y-62792033D01*
X132902004Y-62792033D01*
X132811112Y-62811353D01*
X132717712Y-62831206D01*
X132543248Y-62908882D01*
X132541174Y-62910389D01*
X132541172Y-62910390D01*
X132444489Y-62980635D01*
X132388747Y-63021134D01*
X132387035Y-63023035D01*
X132387031Y-63023039D01*
X132262683Y-63161142D01*
X132260960Y-63163056D01*
X132259673Y-63165284D01*
X132259673Y-63165285D01*
X132181783Y-63300195D01*
X132165473Y-63328444D01*
X132106458Y-63510072D01*
X132086496Y-63700000D01*
X126000000Y-63700000D01*
X126000000Y-60557000D01*
X126014352Y-60522352D01*
X126049000Y-60508000D01*
X149443000Y-60508000D01*
X149477648Y-60522352D01*
G37*
G04 #@! TD.AperFunction*
G04 #@! TA.AperFunction,Conductor*
G36*
X124942121Y-60528002D02*
G01*
X124988614Y-60581658D01*
X125000000Y-60634000D01*
X125000000Y-101874000D01*
X124979998Y-101942121D01*
X124926342Y-101988614D01*
X124874000Y-102000000D01*
X119929309Y-102000000D01*
X119861188Y-101979998D01*
X119847735Y-101970030D01*
X119818219Y-101944954D01*
X119810716Y-101938035D01*
X119805021Y-101932340D01*
X119798880Y-101927482D01*
X119782749Y-101914719D01*
X119779345Y-101911928D01*
X119729297Y-101869409D01*
X119729295Y-101869408D01*
X119723715Y-101864667D01*
X119717199Y-101861339D01*
X119712150Y-101857972D01*
X119707021Y-101854805D01*
X119701284Y-101850266D01*
X119635125Y-101819345D01*
X119631225Y-101817439D01*
X119566192Y-101784231D01*
X119559084Y-101782492D01*
X119553441Y-101780393D01*
X119547678Y-101778476D01*
X119541050Y-101775378D01*
X119469583Y-101760513D01*
X119465299Y-101759543D01*
X119394390Y-101742192D01*
X119388788Y-101741844D01*
X119388785Y-101741844D01*
X119383236Y-101741500D01*
X119383238Y-101741464D01*
X119379245Y-101741225D01*
X119375053Y-101740851D01*
X119367885Y-101739360D01*
X119301675Y-101741151D01*
X119290479Y-101741454D01*
X119287072Y-101741500D01*
X118126000Y-101741500D01*
X118057879Y-101721498D01*
X118011386Y-101667842D01*
X118000000Y-101615500D01*
X118000000Y-100555186D01*
X118020002Y-100487065D01*
X118073658Y-100440572D01*
X118143932Y-100430468D01*
X118208512Y-100459962D01*
X118235119Y-100492186D01*
X118260960Y-100536944D01*
X118388747Y-100678866D01*
X118543248Y-100791118D01*
X118549276Y-100793802D01*
X118549278Y-100793803D01*
X118711681Y-100866109D01*
X118717712Y-100868794D01*
X118811112Y-100888647D01*
X118898056Y-100907128D01*
X118898061Y-100907128D01*
X118904513Y-100908500D01*
X119095487Y-100908500D01*
X119101939Y-100907128D01*
X119101944Y-100907128D01*
X119188887Y-100888647D01*
X119282288Y-100868794D01*
X119288319Y-100866109D01*
X119450722Y-100793803D01*
X119450724Y-100793802D01*
X119456752Y-100791118D01*
X119611253Y-100678866D01*
X119739040Y-100536944D01*
X119834527Y-100371556D01*
X119893542Y-100189928D01*
X119913504Y-100000000D01*
X119908360Y-99951053D01*
X119894232Y-99816635D01*
X119894232Y-99816633D01*
X119893542Y-99810072D01*
X119834527Y-99628444D01*
X119739040Y-99463056D01*
X119611253Y-99321134D01*
X119456752Y-99208882D01*
X119450724Y-99206198D01*
X119450722Y-99206197D01*
X119333251Y-99153896D01*
X119279155Y-99107916D01*
X119258500Y-99038789D01*
X119258500Y-83536999D01*
X119275381Y-83473999D01*
X119331223Y-83377279D01*
X119331224Y-83377278D01*
X119334527Y-83371556D01*
X119393542Y-83189928D01*
X119401741Y-83111924D01*
X119412814Y-83006565D01*
X119413504Y-83000000D01*
X119404816Y-82917334D01*
X119394232Y-82816635D01*
X119394232Y-82816633D01*
X119393542Y-82810072D01*
X119334527Y-82628444D01*
X119239040Y-82463056D01*
X119217295Y-82438905D01*
X119115675Y-82326045D01*
X119115674Y-82326044D01*
X119111253Y-82321134D01*
X118956752Y-82208882D01*
X118950724Y-82206198D01*
X118950722Y-82206197D01*
X118788319Y-82133891D01*
X118788318Y-82133891D01*
X118782288Y-82131206D01*
X118688888Y-82111353D01*
X118601944Y-82092872D01*
X118601939Y-82092872D01*
X118595487Y-82091500D01*
X118404513Y-82091500D01*
X118398061Y-82092872D01*
X118398056Y-82092872D01*
X118311112Y-82111353D01*
X118217712Y-82131206D01*
X118211682Y-82133891D01*
X118211681Y-82133891D01*
X118049278Y-82206197D01*
X118049276Y-82206198D01*
X118043248Y-82208882D01*
X117888747Y-82321134D01*
X117884326Y-82326044D01*
X117884325Y-82326045D01*
X117782706Y-82438905D01*
X117760960Y-82463056D01*
X117665473Y-82628444D01*
X117606458Y-82810072D01*
X117605768Y-82816633D01*
X117605768Y-82816635D01*
X117595184Y-82917334D01*
X117586496Y-83000000D01*
X117587186Y-83006565D01*
X117598260Y-83111924D01*
X117606458Y-83189928D01*
X117665473Y-83371556D01*
X117668776Y-83377278D01*
X117668777Y-83377279D01*
X117724619Y-83473999D01*
X117741500Y-83536999D01*
X117741500Y-94874000D01*
X117721498Y-94942121D01*
X117667842Y-94988614D01*
X117615500Y-95000000D01*
X100634000Y-95000000D01*
X100565879Y-94979998D01*
X100519386Y-94926342D01*
X100508000Y-94874000D01*
X100508000Y-72685983D01*
X102297105Y-72685983D01*
X102297685Y-72692114D01*
X102301420Y-72731630D01*
X102301979Y-72743488D01*
X102301979Y-89248636D01*
X102301242Y-89262243D01*
X102300237Y-89271500D01*
X102297155Y-89299867D01*
X102297692Y-89306002D01*
X102301529Y-89349867D01*
X102301858Y-89354693D01*
X102301979Y-89357165D01*
X102301979Y-89360248D01*
X102302280Y-89363316D01*
X102306169Y-89402985D01*
X102306291Y-89404298D01*
X102314392Y-89496892D01*
X102315879Y-89502011D01*
X102316399Y-89507312D01*
X102343270Y-89596313D01*
X102343605Y-89597446D01*
X102357157Y-89644089D01*
X102369570Y-89686815D01*
X102372023Y-89691547D01*
X102373563Y-89696648D01*
X102376457Y-89702091D01*
X102417210Y-89778739D01*
X102417822Y-89779905D01*
X102460587Y-89862405D01*
X102463910Y-89866568D01*
X102466413Y-89871275D01*
X102525234Y-89943397D01*
X102525925Y-89944253D01*
X102557217Y-89983452D01*
X102559721Y-89985956D01*
X102560363Y-89986674D01*
X102564064Y-89991007D01*
X102591414Y-90024541D01*
X102626746Y-90053770D01*
X102635516Y-90061751D01*
X103523149Y-90949383D01*
X103532251Y-90959527D01*
X103555968Y-90989025D01*
X103560696Y-90992992D01*
X103594421Y-91021291D01*
X103598069Y-91024472D01*
X103599881Y-91026115D01*
X103602075Y-91028309D01*
X103635349Y-91055642D01*
X103636147Y-91056304D01*
X103707474Y-91116154D01*
X103712144Y-91118722D01*
X103716261Y-91122103D01*
X103798120Y-91165995D01*
X103799280Y-91166624D01*
X103875389Y-91208466D01*
X103875394Y-91208468D01*
X103880787Y-91211433D01*
X103885865Y-91213044D01*
X103890563Y-91215563D01*
X103979498Y-91242753D01*
X103980702Y-91243128D01*
X104069306Y-91271235D01*
X104074597Y-91271828D01*
X104079698Y-91273388D01*
X104172311Y-91282795D01*
X104173431Y-91282915D01*
X104223227Y-91288500D01*
X104226756Y-91288500D01*
X104227739Y-91288555D01*
X104233426Y-91289003D01*
X104253683Y-91291060D01*
X104270336Y-91292752D01*
X104270339Y-91292752D01*
X104276463Y-91293374D01*
X104322112Y-91289059D01*
X104333969Y-91288500D01*
X107903157Y-91288500D01*
X107916764Y-91289237D01*
X107948262Y-91292659D01*
X107948267Y-91292659D01*
X107954388Y-91293324D01*
X107980638Y-91291027D01*
X108004388Y-91288950D01*
X108009214Y-91288621D01*
X108011686Y-91288500D01*
X108014769Y-91288500D01*
X108026738Y-91287326D01*
X108057506Y-91284310D01*
X108058819Y-91284188D01*
X108103084Y-91280315D01*
X108151413Y-91276087D01*
X108156532Y-91274600D01*
X108161833Y-91274080D01*
X108250834Y-91247209D01*
X108251967Y-91246874D01*
X108335414Y-91222630D01*
X108335418Y-91222628D01*
X108341336Y-91220909D01*
X108346068Y-91218456D01*
X108351169Y-91216916D01*
X108367062Y-91208466D01*
X108433260Y-91173269D01*
X108434426Y-91172657D01*
X108511453Y-91132729D01*
X108516926Y-91129892D01*
X108521089Y-91126569D01*
X108525796Y-91124066D01*
X108597918Y-91065245D01*
X108598774Y-91064554D01*
X108637973Y-91033262D01*
X108640477Y-91030758D01*
X108641195Y-91030116D01*
X108645528Y-91026415D01*
X108679062Y-90999065D01*
X108708288Y-90963737D01*
X108716277Y-90954958D01*
X108853853Y-90817382D01*
X108916165Y-90783356D01*
X108952832Y-90780865D01*
X109115000Y-90793628D01*
X109375249Y-90773146D01*
X109380056Y-90771992D01*
X109380062Y-90771991D01*
X109540069Y-90733576D01*
X109629089Y-90712204D01*
X109633662Y-90710310D01*
X109865697Y-90614198D01*
X109865701Y-90614196D01*
X109870271Y-90612303D01*
X110092856Y-90475903D01*
X110291363Y-90306363D01*
X110460903Y-90107856D01*
X110597303Y-89885271D01*
X110603101Y-89871275D01*
X110695310Y-89648662D01*
X110695311Y-89648660D01*
X110697204Y-89644089D01*
X110729804Y-89508300D01*
X110756991Y-89395062D01*
X110756992Y-89395056D01*
X110758146Y-89390249D01*
X110778628Y-89130000D01*
X110758146Y-88869751D01*
X110756992Y-88864944D01*
X110756991Y-88864938D01*
X110698359Y-88620723D01*
X110697204Y-88615911D01*
X110597303Y-88374729D01*
X110460903Y-88152144D01*
X110291363Y-87953637D01*
X110092856Y-87784097D01*
X109870271Y-87647697D01*
X109865701Y-87645804D01*
X109865697Y-87645802D01*
X109633662Y-87549690D01*
X109633660Y-87549689D01*
X109629089Y-87547796D01*
X109540069Y-87526424D01*
X109380062Y-87488009D01*
X109380056Y-87488008D01*
X109375249Y-87486854D01*
X109115000Y-87466372D01*
X108854751Y-87486854D01*
X108849944Y-87488008D01*
X108849938Y-87488009D01*
X108689931Y-87526424D01*
X108600911Y-87547796D01*
X108596340Y-87549689D01*
X108596338Y-87549690D01*
X108364303Y-87645802D01*
X108364299Y-87645804D01*
X108359729Y-87647697D01*
X108137144Y-87784097D01*
X108124828Y-87794616D01*
X107981434Y-87917085D01*
X107916644Y-87946116D01*
X107846444Y-87935511D01*
X107793122Y-87888636D01*
X107773607Y-87820374D01*
X107776195Y-87796577D01*
X107776754Y-87794616D01*
X107777794Y-87787313D01*
X107817137Y-87510870D01*
X107817742Y-87506619D01*
X107819265Y-87215723D01*
X107781295Y-86927313D01*
X107704535Y-86646724D01*
X107590404Y-86379148D01*
X107441015Y-86129538D01*
X107355885Y-86023278D01*
X107328905Y-85957610D01*
X107341710Y-85887778D01*
X107390237Y-85835955D01*
X107454221Y-85818500D01*
X109023134Y-85818500D01*
X109085316Y-85811745D01*
X109221705Y-85760615D01*
X109338261Y-85673261D01*
X109415651Y-85570000D01*
X113561693Y-85570000D01*
X113580885Y-85789371D01*
X113637880Y-86002076D01*
X113640205Y-86007061D01*
X113728618Y-86196666D01*
X113728621Y-86196671D01*
X113730944Y-86201653D01*
X113734100Y-86206160D01*
X113734101Y-86206162D01*
X113852646Y-86375461D01*
X113857251Y-86382038D01*
X114012962Y-86537749D01*
X114193346Y-86664056D01*
X114392924Y-86757120D01*
X114605629Y-86814115D01*
X114825000Y-86833307D01*
X115044371Y-86814115D01*
X115257076Y-86757120D01*
X115456654Y-86664056D01*
X115637038Y-86537749D01*
X115792749Y-86382038D01*
X115797355Y-86375461D01*
X115915899Y-86206162D01*
X115915900Y-86206160D01*
X115919056Y-86201653D01*
X115921379Y-86196671D01*
X115921382Y-86196666D01*
X116009795Y-86007061D01*
X116012120Y-86002076D01*
X116069115Y-85789371D01*
X116088307Y-85570000D01*
X116069115Y-85350629D01*
X116012120Y-85137924D01*
X115968585Y-85044562D01*
X115921382Y-84943334D01*
X115921379Y-84943329D01*
X115919056Y-84938347D01*
X115915899Y-84933838D01*
X115795908Y-84762473D01*
X115795906Y-84762470D01*
X115792749Y-84757962D01*
X115637038Y-84602251D01*
X115456654Y-84475944D01*
X115257076Y-84382880D01*
X115044371Y-84325885D01*
X114825000Y-84306693D01*
X114605629Y-84325885D01*
X114392924Y-84382880D01*
X114299562Y-84426415D01*
X114198334Y-84473618D01*
X114198329Y-84473621D01*
X114193347Y-84475944D01*
X114188840Y-84479100D01*
X114188838Y-84479101D01*
X114017473Y-84599092D01*
X114017470Y-84599094D01*
X114012962Y-84602251D01*
X113857251Y-84757962D01*
X113854094Y-84762470D01*
X113854092Y-84762473D01*
X113734101Y-84933838D01*
X113730944Y-84938347D01*
X113728621Y-84943329D01*
X113728618Y-84943334D01*
X113681415Y-85044562D01*
X113637880Y-85137924D01*
X113580885Y-85350629D01*
X113561693Y-85570000D01*
X109415651Y-85570000D01*
X109425615Y-85556705D01*
X109476745Y-85420316D01*
X109483500Y-85358134D01*
X109483500Y-84871366D01*
X109503502Y-84803245D01*
X109557158Y-84756752D01*
X109627432Y-84746648D01*
X109642112Y-84749660D01*
X109780308Y-84786690D01*
X109780317Y-84786691D01*
X109785629Y-84788115D01*
X110005000Y-84807307D01*
X110224371Y-84788115D01*
X110437076Y-84731120D01*
X110636654Y-84638056D01*
X110817038Y-84511749D01*
X110972749Y-84356038D01*
X110993863Y-84325885D01*
X111095899Y-84180162D01*
X111095900Y-84180160D01*
X111099056Y-84175653D01*
X111101379Y-84170671D01*
X111101382Y-84170666D01*
X111189795Y-83981061D01*
X111192120Y-83976076D01*
X111249115Y-83763371D01*
X111268307Y-83544000D01*
X111249115Y-83324629D01*
X111192120Y-83111924D01*
X111148585Y-83018562D01*
X111101382Y-82917334D01*
X111101379Y-82917329D01*
X111099056Y-82912347D01*
X111032038Y-82816635D01*
X110975908Y-82736473D01*
X110975906Y-82736470D01*
X110972749Y-82731962D01*
X110857882Y-82617095D01*
X110823856Y-82554783D01*
X110828921Y-82483968D01*
X110857882Y-82438905D01*
X110972749Y-82324038D01*
X110977502Y-82317251D01*
X111095899Y-82148162D01*
X111095900Y-82148160D01*
X111099056Y-82143653D01*
X111101379Y-82138671D01*
X111101382Y-82138666D01*
X111189795Y-81949061D01*
X111192120Y-81944076D01*
X111249115Y-81731371D01*
X111268307Y-81512000D01*
X111249115Y-81292629D01*
X111192120Y-81079924D01*
X111123637Y-80933061D01*
X111101382Y-80885334D01*
X111101379Y-80885329D01*
X111099056Y-80880347D01*
X110983539Y-80715371D01*
X110975908Y-80704473D01*
X110975906Y-80704470D01*
X110972749Y-80699962D01*
X110857882Y-80585095D01*
X110823856Y-80522783D01*
X110828921Y-80451968D01*
X110857882Y-80406905D01*
X110972749Y-80292038D01*
X110975906Y-80287529D01*
X110979284Y-80283504D01*
X111038395Y-80244181D01*
X111075802Y-80238500D01*
X113404296Y-80238500D01*
X113423246Y-80239933D01*
X113437481Y-80242099D01*
X113437485Y-80242099D01*
X113444715Y-80243199D01*
X113452007Y-80242606D01*
X113452010Y-80242606D01*
X113497384Y-80238915D01*
X113507599Y-80238500D01*
X113515659Y-80238500D01*
X113528949Y-80236951D01*
X113543873Y-80235211D01*
X113548248Y-80234778D01*
X113613705Y-80229454D01*
X113613708Y-80229453D01*
X113621003Y-80228860D01*
X113627967Y-80226604D01*
X113633926Y-80225413D01*
X113639781Y-80224029D01*
X113647047Y-80223182D01*
X113715693Y-80198265D01*
X113719821Y-80196848D01*
X113782302Y-80176607D01*
X113782304Y-80176606D01*
X113789265Y-80174351D01*
X113795520Y-80170555D01*
X113800994Y-80168049D01*
X113806424Y-80165330D01*
X113813303Y-80162833D01*
X113874342Y-80122814D01*
X113878046Y-80120477D01*
X113940473Y-80082595D01*
X113948850Y-80075197D01*
X113948874Y-80075224D01*
X113951866Y-80072571D01*
X113955099Y-80069868D01*
X113961218Y-80065856D01*
X114014494Y-80009617D01*
X114016872Y-80007175D01*
X119988911Y-74035136D01*
X120003323Y-74022750D01*
X120014918Y-74014217D01*
X120014923Y-74014212D01*
X120020818Y-74009874D01*
X120025557Y-74004296D01*
X120025560Y-74004293D01*
X120055035Y-73969598D01*
X120061965Y-73962082D01*
X120067660Y-73956387D01*
X120075305Y-73946724D01*
X120085281Y-73934115D01*
X120088072Y-73930711D01*
X120130591Y-73880663D01*
X120130592Y-73880661D01*
X120135333Y-73875081D01*
X120138661Y-73868565D01*
X120142028Y-73863516D01*
X120145195Y-73858387D01*
X120149734Y-73852650D01*
X120180655Y-73786491D01*
X120182562Y-73782589D01*
X120193616Y-73760942D01*
X120242410Y-73709370D01*
X120311340Y-73692365D01*
X120378522Y-73715326D01*
X120414285Y-73754105D01*
X120424294Y-73771029D01*
X120432988Y-73788776D01*
X120440448Y-73807617D01*
X120445110Y-73814033D01*
X120445110Y-73814034D01*
X120466436Y-73843387D01*
X120472952Y-73853307D01*
X120489131Y-73880663D01*
X120495458Y-73891362D01*
X120509779Y-73905683D01*
X120522619Y-73920716D01*
X120534528Y-73937107D01*
X120564718Y-73962082D01*
X120568605Y-73965298D01*
X120577384Y-73973288D01*
X122552878Y-75948783D01*
X122586904Y-76011095D01*
X122589093Y-76024706D01*
X122606458Y-76189928D01*
X122665473Y-76371556D01*
X122760960Y-76536944D01*
X122888747Y-76678866D01*
X122931199Y-76709709D01*
X123008049Y-76765544D01*
X123043248Y-76791118D01*
X123049276Y-76793802D01*
X123049278Y-76793803D01*
X123211681Y-76866109D01*
X123217712Y-76868794D01*
X123311112Y-76888647D01*
X123398056Y-76907128D01*
X123398061Y-76907128D01*
X123404513Y-76908500D01*
X123595487Y-76908500D01*
X123601939Y-76907128D01*
X123601944Y-76907128D01*
X123688888Y-76888647D01*
X123782288Y-76868794D01*
X123788319Y-76866109D01*
X123950722Y-76793803D01*
X123950724Y-76793802D01*
X123956752Y-76791118D01*
X123991952Y-76765544D01*
X124068801Y-76709709D01*
X124111253Y-76678866D01*
X124239040Y-76536944D01*
X124334527Y-76371556D01*
X124393542Y-76189928D01*
X124401227Y-76116815D01*
X124412814Y-76006565D01*
X124413504Y-76000000D01*
X124393542Y-75810072D01*
X124334527Y-75628444D01*
X124239040Y-75463056D01*
X124111253Y-75321134D01*
X123956752Y-75208882D01*
X123950724Y-75206198D01*
X123950722Y-75206197D01*
X123788319Y-75133891D01*
X123788318Y-75133891D01*
X123782288Y-75131206D01*
X123686794Y-75110908D01*
X123601944Y-75092872D01*
X123601939Y-75092872D01*
X123595487Y-75091500D01*
X123539594Y-75091500D01*
X123471473Y-75071498D01*
X123450499Y-75054595D01*
X121670405Y-73274500D01*
X121636379Y-73212188D01*
X121633500Y-73185405D01*
X121633500Y-70702524D01*
X121653502Y-70634403D01*
X121665858Y-70618221D01*
X121739040Y-70536944D01*
X121834527Y-70371556D01*
X121893542Y-70189928D01*
X121913504Y-70000000D01*
X121893542Y-69810072D01*
X121834527Y-69628444D01*
X121739040Y-69463056D01*
X121611253Y-69321134D01*
X121456752Y-69208882D01*
X121450724Y-69206198D01*
X121450722Y-69206197D01*
X121288319Y-69133891D01*
X121288318Y-69133891D01*
X121282288Y-69131206D01*
X121188888Y-69111353D01*
X121101944Y-69092872D01*
X121101939Y-69092872D01*
X121095487Y-69091500D01*
X120904513Y-69091500D01*
X120898061Y-69092872D01*
X120898056Y-69092872D01*
X120811112Y-69111353D01*
X120717712Y-69131206D01*
X120711682Y-69133891D01*
X120711681Y-69133891D01*
X120549278Y-69206197D01*
X120549276Y-69206198D01*
X120543248Y-69208882D01*
X120388747Y-69321134D01*
X120384326Y-69326044D01*
X120384325Y-69326045D01*
X120343636Y-69371235D01*
X120283190Y-69408475D01*
X120212207Y-69407123D01*
X120156364Y-69371235D01*
X120115675Y-69326045D01*
X120115674Y-69326044D01*
X120111253Y-69321134D01*
X119956752Y-69208882D01*
X119950724Y-69206198D01*
X119950722Y-69206197D01*
X119788319Y-69133891D01*
X119788318Y-69133891D01*
X119782288Y-69131206D01*
X119688888Y-69111353D01*
X119601944Y-69092872D01*
X119601939Y-69092872D01*
X119595487Y-69091500D01*
X119404513Y-69091500D01*
X119398061Y-69092872D01*
X119398056Y-69092872D01*
X119311112Y-69111353D01*
X119217712Y-69131206D01*
X119211682Y-69133891D01*
X119211681Y-69133891D01*
X119049278Y-69206197D01*
X119049276Y-69206198D01*
X119043248Y-69208882D01*
X118888747Y-69321134D01*
X118760960Y-69463056D01*
X118665473Y-69628444D01*
X118606458Y-69810072D01*
X118586496Y-70000000D01*
X118606458Y-70189928D01*
X118665473Y-70371556D01*
X118668776Y-70377278D01*
X118668777Y-70377279D01*
X118724619Y-70473999D01*
X118741500Y-70536999D01*
X118741500Y-73084995D01*
X118721498Y-73153116D01*
X118704595Y-73174090D01*
X113194090Y-78684595D01*
X113131778Y-78718621D01*
X113104995Y-78721500D01*
X111075802Y-78721500D01*
X111007681Y-78701498D01*
X110979284Y-78676496D01*
X110975906Y-78672471D01*
X110972749Y-78667962D01*
X110857882Y-78553095D01*
X110823856Y-78490783D01*
X110828921Y-78419968D01*
X110857882Y-78374905D01*
X110972749Y-78260038D01*
X110979704Y-78250106D01*
X111095899Y-78084162D01*
X111095900Y-78084160D01*
X111099056Y-78079653D01*
X111101379Y-78074671D01*
X111101382Y-78074666D01*
X111189795Y-77885061D01*
X111192120Y-77880076D01*
X111249115Y-77667371D01*
X111268307Y-77448000D01*
X111249115Y-77228629D01*
X111192120Y-77015924D01*
X111124152Y-76870166D01*
X111101382Y-76821334D01*
X111101379Y-76821329D01*
X111099056Y-76816347D01*
X111083271Y-76793803D01*
X110975908Y-76640473D01*
X110975906Y-76640470D01*
X110972749Y-76635962D01*
X110817038Y-76480251D01*
X110807003Y-76473224D01*
X110726174Y-76416627D01*
X110636654Y-76353944D01*
X110437076Y-76260880D01*
X110224371Y-76203885D01*
X110005000Y-76184693D01*
X109785629Y-76203885D01*
X109572924Y-76260880D01*
X109499796Y-76294980D01*
X109378334Y-76351618D01*
X109378329Y-76351621D01*
X109373347Y-76353944D01*
X109368840Y-76357100D01*
X109368838Y-76357101D01*
X109197473Y-76477092D01*
X109197470Y-76477094D01*
X109192962Y-76480251D01*
X109037251Y-76635962D01*
X109034094Y-76640470D01*
X109034092Y-76640473D01*
X108926729Y-76793803D01*
X108910944Y-76816347D01*
X108908621Y-76821329D01*
X108908618Y-76821334D01*
X108885848Y-76870166D01*
X108817880Y-77015924D01*
X108816457Y-77021235D01*
X108774480Y-77177893D01*
X108737528Y-77238515D01*
X108673667Y-77269537D01*
X108620162Y-77266988D01*
X108449684Y-77221308D01*
X108449677Y-77221307D01*
X108444371Y-77219885D01*
X108225000Y-77200693D01*
X108005629Y-77219885D01*
X107792924Y-77276880D01*
X107699562Y-77320415D01*
X107598334Y-77367618D01*
X107598329Y-77367621D01*
X107593347Y-77369944D01*
X107588840Y-77373100D01*
X107588838Y-77373101D01*
X107417473Y-77493092D01*
X107417470Y-77493094D01*
X107412962Y-77496251D01*
X107257251Y-77651962D01*
X107254094Y-77656470D01*
X107254092Y-77656473D01*
X107246461Y-77667371D01*
X107130944Y-77832347D01*
X107128621Y-77837329D01*
X107128618Y-77837334D01*
X107106363Y-77885061D01*
X107037880Y-78031924D01*
X106980885Y-78244629D01*
X106961693Y-78464000D01*
X106980885Y-78683371D01*
X107037880Y-78896076D01*
X107040205Y-78901061D01*
X107128618Y-79090666D01*
X107128621Y-79090671D01*
X107130944Y-79095653D01*
X107257251Y-79276038D01*
X107372118Y-79390905D01*
X107406144Y-79453217D01*
X107401079Y-79524032D01*
X107372118Y-79569095D01*
X107257251Y-79683962D01*
X107130944Y-79864347D01*
X107128621Y-79869329D01*
X107128618Y-79869334D01*
X107081415Y-79970562D01*
X107037880Y-80063924D01*
X106980885Y-80276629D01*
X106961693Y-80496000D01*
X106980885Y-80715371D01*
X107037880Y-80928076D01*
X107040205Y-80933061D01*
X107128618Y-81122666D01*
X107128621Y-81122671D01*
X107130944Y-81127653D01*
X107134100Y-81132160D01*
X107134101Y-81132162D01*
X107250297Y-81298106D01*
X107257251Y-81308038D01*
X107412962Y-81463749D01*
X107593346Y-81590056D01*
X107792924Y-81683120D01*
X108005629Y-81740115D01*
X108225000Y-81759307D01*
X108444371Y-81740115D01*
X108449677Y-81738693D01*
X108449684Y-81738692D01*
X108620162Y-81693012D01*
X108691138Y-81694702D01*
X108749934Y-81734496D01*
X108774480Y-81782107D01*
X108817880Y-81944076D01*
X108820205Y-81949061D01*
X108908618Y-82138666D01*
X108908621Y-82138671D01*
X108910944Y-82143653D01*
X108914100Y-82148160D01*
X108914101Y-82148162D01*
X109032499Y-82317251D01*
X109037251Y-82324038D01*
X109152118Y-82438905D01*
X109186144Y-82501217D01*
X109181079Y-82572032D01*
X109152118Y-82617095D01*
X109037251Y-82731962D01*
X109034094Y-82736470D01*
X109034092Y-82736473D01*
X108977962Y-82816635D01*
X108910944Y-82912347D01*
X108908621Y-82917329D01*
X108908618Y-82917334D01*
X108849365Y-83044404D01*
X108817880Y-83111924D01*
X108816458Y-83117232D01*
X108816457Y-83117234D01*
X108792106Y-83208112D01*
X108755155Y-83268734D01*
X108691294Y-83299756D01*
X108670400Y-83301500D01*
X107426866Y-83301500D01*
X107364684Y-83308255D01*
X107228295Y-83359385D01*
X107111739Y-83446739D01*
X107024385Y-83563295D01*
X106973255Y-83699684D01*
X106966500Y-83761866D01*
X106966500Y-85358134D01*
X106966869Y-85361527D01*
X106966869Y-85361533D01*
X106970389Y-85393937D01*
X106957860Y-85463820D01*
X106909539Y-85515835D01*
X106840767Y-85533469D01*
X106786167Y-85518899D01*
X106558587Y-85398402D01*
X106558586Y-85398401D01*
X106554800Y-85396397D01*
X106550777Y-85394925D01*
X106550773Y-85394923D01*
X106285649Y-85297901D01*
X106285647Y-85297900D01*
X106281618Y-85296426D01*
X105997396Y-85234456D01*
X105953598Y-85231009D01*
X105771703Y-85216693D01*
X105771696Y-85216693D01*
X105769247Y-85216500D01*
X105611879Y-85216500D01*
X105609743Y-85216646D01*
X105609732Y-85216646D01*
X105399051Y-85231009D01*
X105399045Y-85231010D01*
X105394774Y-85231301D01*
X105390579Y-85232170D01*
X105390577Y-85232170D01*
X105375130Y-85235369D01*
X105109919Y-85290291D01*
X104835705Y-85387395D01*
X104831896Y-85389361D01*
X104687635Y-85463820D01*
X104577207Y-85520816D01*
X104573706Y-85523277D01*
X104573702Y-85523279D01*
X104517430Y-85562828D01*
X104450195Y-85585633D01*
X104381305Y-85568468D01*
X104332631Y-85516783D01*
X104318979Y-85459741D01*
X104318979Y-76541345D01*
X104338981Y-76473224D01*
X104392637Y-76426731D01*
X104462911Y-76416627D01*
X104518506Y-76439022D01*
X104558113Y-76467483D01*
X104582228Y-76480251D01*
X104689303Y-76536944D01*
X104815200Y-76603603D01*
X104819223Y-76605075D01*
X104819227Y-76605077D01*
X105031475Y-76682749D01*
X105088382Y-76703574D01*
X105372604Y-76765544D01*
X105401650Y-76767830D01*
X105598297Y-76783307D01*
X105598304Y-76783307D01*
X105600753Y-76783500D01*
X105758121Y-76783500D01*
X105760257Y-76783354D01*
X105760268Y-76783354D01*
X105970949Y-76768991D01*
X105970955Y-76768990D01*
X105975226Y-76768699D01*
X105979421Y-76767830D01*
X105979423Y-76767830D01*
X106117653Y-76739204D01*
X106260081Y-76709709D01*
X106534295Y-76612605D01*
X106671376Y-76541852D01*
X106788986Y-76481149D01*
X106788987Y-76481149D01*
X106792793Y-76479184D01*
X106796294Y-76476723D01*
X106796298Y-76476721D01*
X106974299Y-76351619D01*
X107030792Y-76311915D01*
X107243888Y-76113894D01*
X107337110Y-76000000D01*
X107425423Y-75892102D01*
X107428139Y-75888784D01*
X107580133Y-75640752D01*
X107697059Y-75374386D01*
X107711186Y-75324795D01*
X107737033Y-75234056D01*
X107776754Y-75094616D01*
X107780045Y-75071498D01*
X107817137Y-74810870D01*
X107817742Y-74806619D01*
X107818998Y-74566765D01*
X107819243Y-74520009D01*
X107819243Y-74520003D01*
X107819265Y-74515723D01*
X107781295Y-74227313D01*
X107779849Y-74222029D01*
X107776802Y-74210887D01*
X107778122Y-74139903D01*
X107817609Y-74080901D01*
X107882727Y-74052614D01*
X107952801Y-74064022D01*
X107980163Y-74081830D01*
X108054683Y-74145475D01*
X108133379Y-74212688D01*
X108133384Y-74212691D01*
X108137144Y-74215903D01*
X108359729Y-74352303D01*
X108364299Y-74354196D01*
X108364303Y-74354198D01*
X108596338Y-74450310D01*
X108600911Y-74452204D01*
X108689931Y-74473576D01*
X108849938Y-74511991D01*
X108849944Y-74511992D01*
X108854751Y-74513146D01*
X109115000Y-74533628D01*
X109375249Y-74513146D01*
X109380056Y-74511992D01*
X109380062Y-74511991D01*
X109540069Y-74473576D01*
X109629089Y-74452204D01*
X109633662Y-74450310D01*
X109865697Y-74354198D01*
X109865701Y-74354196D01*
X109870271Y-74352303D01*
X110092856Y-74215903D01*
X110181728Y-74140000D01*
X113561693Y-74140000D01*
X113580885Y-74359371D01*
X113637880Y-74572076D01*
X113640205Y-74577061D01*
X113728618Y-74766666D01*
X113728621Y-74766671D01*
X113730944Y-74771653D01*
X113857251Y-74952038D01*
X114012962Y-75107749D01*
X114193346Y-75234056D01*
X114392924Y-75327120D01*
X114605629Y-75384115D01*
X114825000Y-75403307D01*
X115044371Y-75384115D01*
X115257076Y-75327120D01*
X115456654Y-75234056D01*
X115637038Y-75107749D01*
X115792749Y-74952038D01*
X115919056Y-74771653D01*
X115921379Y-74766671D01*
X115921382Y-74766666D01*
X116009795Y-74577061D01*
X116012120Y-74572076D01*
X116069115Y-74359371D01*
X116088307Y-74140000D01*
X116069115Y-73920629D01*
X116012120Y-73707924D01*
X115931299Y-73534602D01*
X115921382Y-73513334D01*
X115921379Y-73513329D01*
X115919056Y-73508347D01*
X115915899Y-73503838D01*
X115795908Y-73332473D01*
X115795906Y-73332470D01*
X115792749Y-73327962D01*
X115637038Y-73172251D01*
X115456654Y-73045944D01*
X115257076Y-72952880D01*
X115044371Y-72895885D01*
X114825000Y-72876693D01*
X114605629Y-72895885D01*
X114392924Y-72952880D01*
X114299562Y-72996415D01*
X114198334Y-73043618D01*
X114198329Y-73043621D01*
X114193347Y-73045944D01*
X114188840Y-73049100D01*
X114188838Y-73049101D01*
X114017473Y-73169092D01*
X114017470Y-73169094D01*
X114012962Y-73172251D01*
X113857251Y-73327962D01*
X113854094Y-73332470D01*
X113854092Y-73332473D01*
X113734101Y-73503838D01*
X113730944Y-73508347D01*
X113728621Y-73513329D01*
X113728618Y-73513334D01*
X113718701Y-73534602D01*
X113637880Y-73707924D01*
X113580885Y-73920629D01*
X113561693Y-74140000D01*
X110181728Y-74140000D01*
X110291363Y-74046363D01*
X110460903Y-73847856D01*
X110597303Y-73625271D01*
X110599978Y-73618815D01*
X110695310Y-73388662D01*
X110695311Y-73388660D01*
X110697204Y-73384089D01*
X110723514Y-73274500D01*
X110756991Y-73135062D01*
X110756992Y-73135056D01*
X110758146Y-73130249D01*
X110778628Y-72870000D01*
X110758146Y-72609751D01*
X110756992Y-72604944D01*
X110756991Y-72604938D01*
X110698359Y-72360723D01*
X110697204Y-72355911D01*
X110674080Y-72300084D01*
X110599198Y-72119303D01*
X110599196Y-72119299D01*
X110597303Y-72114729D01*
X110460903Y-71892144D01*
X110291363Y-71693637D01*
X110092856Y-71524097D01*
X109870271Y-71387697D01*
X109865701Y-71385804D01*
X109865697Y-71385802D01*
X109633662Y-71289690D01*
X109633660Y-71289689D01*
X109629089Y-71287796D01*
X109540069Y-71266424D01*
X109380062Y-71228009D01*
X109380056Y-71228008D01*
X109375249Y-71226854D01*
X109115000Y-71206372D01*
X108952832Y-71219135D01*
X108883353Y-71204539D01*
X108853852Y-71182618D01*
X108721855Y-71050621D01*
X108712753Y-71040478D01*
X108692897Y-71015782D01*
X108689032Y-71010975D01*
X108650578Y-70978708D01*
X108646931Y-70975528D01*
X108645119Y-70973885D01*
X108642925Y-70971691D01*
X108609651Y-70944358D01*
X108608853Y-70943696D01*
X108537526Y-70883846D01*
X108532856Y-70881278D01*
X108528739Y-70877897D01*
X108446914Y-70834023D01*
X108445755Y-70833394D01*
X108369619Y-70791538D01*
X108369611Y-70791535D01*
X108364213Y-70788567D01*
X108359131Y-70786955D01*
X108354437Y-70784438D01*
X108265469Y-70757238D01*
X108264441Y-70756918D01*
X108175694Y-70728765D01*
X108170398Y-70728171D01*
X108165302Y-70726613D01*
X108072743Y-70717210D01*
X108071607Y-70717089D01*
X108037992Y-70713319D01*
X108025270Y-70711892D01*
X108025266Y-70711892D01*
X108021773Y-70711500D01*
X108018246Y-70711500D01*
X108017261Y-70711445D01*
X108011581Y-70710998D01*
X107982175Y-70708011D01*
X107974663Y-70707248D01*
X107974661Y-70707248D01*
X107968538Y-70706626D01*
X107926259Y-70710623D01*
X107922891Y-70710941D01*
X107911033Y-70711500D01*
X104341850Y-70711500D01*
X104328242Y-70710763D01*
X104327662Y-70710700D01*
X104290612Y-70706675D01*
X104240570Y-70711053D01*
X104235788Y-70711379D01*
X104233310Y-70711500D01*
X104230231Y-70711500D01*
X104227177Y-70711799D01*
X104227166Y-70711800D01*
X104187529Y-70715687D01*
X104186215Y-70715809D01*
X104150688Y-70718917D01*
X104093587Y-70723913D01*
X104088468Y-70725400D01*
X104083167Y-70725920D01*
X103994166Y-70752791D01*
X103993033Y-70753126D01*
X103909586Y-70777370D01*
X103909582Y-70777372D01*
X103903664Y-70779091D01*
X103898932Y-70781544D01*
X103893831Y-70783084D01*
X103888388Y-70785978D01*
X103811740Y-70826731D01*
X103810574Y-70827343D01*
X103733547Y-70867271D01*
X103728074Y-70870108D01*
X103723911Y-70873431D01*
X103719204Y-70875934D01*
X103714429Y-70879828D01*
X103714428Y-70879829D01*
X103647102Y-70934739D01*
X103646075Y-70935567D01*
X103609792Y-70964531D01*
X103609787Y-70964536D01*
X103607028Y-70966738D01*
X103604527Y-70969239D01*
X103603809Y-70969881D01*
X103599461Y-70973594D01*
X103565938Y-71000935D01*
X103562015Y-71005677D01*
X103562013Y-71005679D01*
X103536703Y-71036273D01*
X103528713Y-71045053D01*
X102641100Y-71932666D01*
X102630957Y-71941768D01*
X102601454Y-71965489D01*
X102597487Y-71970217D01*
X102569188Y-72003942D01*
X102566007Y-72007590D01*
X102564364Y-72009402D01*
X102562170Y-72011596D01*
X102534837Y-72044870D01*
X102534175Y-72045668D01*
X102474325Y-72116995D01*
X102471757Y-72121665D01*
X102468376Y-72125782D01*
X102437339Y-72183666D01*
X102424502Y-72207607D01*
X102423873Y-72208766D01*
X102382017Y-72284902D01*
X102382014Y-72284910D01*
X102379046Y-72290308D01*
X102377434Y-72295390D01*
X102374917Y-72300084D01*
X102347717Y-72389052D01*
X102347397Y-72390080D01*
X102319244Y-72478827D01*
X102318650Y-72484123D01*
X102317092Y-72489219D01*
X102316469Y-72495355D01*
X102307697Y-72581708D01*
X102307568Y-72582914D01*
X102301979Y-72632748D01*
X102301979Y-72636275D01*
X102301924Y-72637260D01*
X102301477Y-72642940D01*
X102297105Y-72685983D01*
X100508000Y-72685983D01*
X100508000Y-64132703D01*
X101890743Y-64132703D01*
X101928268Y-64417734D01*
X102004129Y-64695036D01*
X102116923Y-64959476D01*
X102264561Y-65206161D01*
X102444313Y-65430528D01*
X102652851Y-65628423D01*
X102886317Y-65796186D01*
X102890112Y-65798195D01*
X102890113Y-65798196D01*
X102911869Y-65809715D01*
X103140392Y-65930712D01*
X103410373Y-66029511D01*
X103691264Y-66090755D01*
X103719841Y-66093004D01*
X103914282Y-66108307D01*
X103914291Y-66108307D01*
X103916739Y-66108500D01*
X104072271Y-66108500D01*
X104074407Y-66108354D01*
X104074418Y-66108354D01*
X104282548Y-66094165D01*
X104282554Y-66094164D01*
X104286825Y-66093873D01*
X104291020Y-66093004D01*
X104291022Y-66093004D01*
X104427583Y-66064724D01*
X104568342Y-66035574D01*
X104839343Y-65939607D01*
X105094812Y-65807750D01*
X105098313Y-65805289D01*
X105098317Y-65805287D01*
X105212417Y-65725096D01*
X105330023Y-65642441D01*
X105540622Y-65446740D01*
X105722713Y-65224268D01*
X105872927Y-64979142D01*
X105988483Y-64715898D01*
X106067244Y-64439406D01*
X106107751Y-64154784D01*
X106107845Y-64136951D01*
X106109235Y-63871583D01*
X106109235Y-63871576D01*
X106109257Y-63867297D01*
X106071732Y-63582266D01*
X105995871Y-63304964D01*
X105883077Y-63040524D01*
X105735439Y-62793839D01*
X105555687Y-62569472D01*
X105347149Y-62371577D01*
X105113683Y-62203814D01*
X105091843Y-62192250D01*
X105068654Y-62179972D01*
X104859608Y-62069288D01*
X104589627Y-61970489D01*
X104308736Y-61909245D01*
X104277685Y-61906801D01*
X104085718Y-61891693D01*
X104085709Y-61891693D01*
X104083261Y-61891500D01*
X103927729Y-61891500D01*
X103925593Y-61891646D01*
X103925582Y-61891646D01*
X103717452Y-61905835D01*
X103717446Y-61905836D01*
X103713175Y-61906127D01*
X103708980Y-61906996D01*
X103708978Y-61906996D01*
X103572417Y-61935276D01*
X103431658Y-61964426D01*
X103160657Y-62060393D01*
X102905188Y-62192250D01*
X102901687Y-62194711D01*
X102901683Y-62194713D01*
X102891594Y-62201804D01*
X102669977Y-62357559D01*
X102459378Y-62553260D01*
X102277287Y-62775732D01*
X102127073Y-63020858D01*
X102011517Y-63284102D01*
X101932756Y-63560594D01*
X101892249Y-63845216D01*
X101892227Y-63849505D01*
X101892226Y-63849512D01*
X101890765Y-64128417D01*
X101890743Y-64132703D01*
X100508000Y-64132703D01*
X100508000Y-60634000D01*
X100528002Y-60565879D01*
X100581658Y-60519386D01*
X100634000Y-60508000D01*
X124874000Y-60508000D01*
X124942121Y-60528002D01*
G37*
G04 #@! TD.AperFunction*
M02*
