G04 #@! TF.GenerationSoftware,KiCad,Pcbnew,7.0.9-7.0.9~ubuntu23.04.1*
G04 #@! TF.CreationDate,2024-01-20T22:21:10+00:00*
G04 #@! TF.ProjectId,nascontrol-remote,6e617363-6f6e-4747-926f-6c2d72656d6f,rev?*
G04 #@! TF.SameCoordinates,Original*
G04 #@! TF.FileFunction,Paste,Top*
G04 #@! TF.FilePolarity,Positive*
%FSLAX46Y46*%
G04 Gerber Fmt 4.6, Leading zero omitted, Abs format (unit mm)*
G04 Created by KiCad (PCBNEW 7.0.9-7.0.9~ubuntu23.04.1) date 2024-01-20 22:21:10*
%MOMM*%
%LPD*%
G01*
G04 APERTURE LIST*
%ADD10R,2.000000X1.780000*%
G04 APERTURE END LIST*
G36*
G01*
X137220000Y-111170000D02*
X137220000Y-110830000D01*
G75*
G02*
X137360000Y-110690000I140000J0D01*
G01*
X137640000Y-110690000D01*
G75*
G02*
X137780000Y-110830000I0J-140000D01*
G01*
X137780000Y-111170000D01*
G75*
G02*
X137640000Y-111310000I-140000J0D01*
G01*
X137360000Y-111310000D01*
G75*
G02*
X137220000Y-111170000I0J140000D01*
G01*
G37*
G36*
G01*
X138180000Y-111170000D02*
X138180000Y-110830000D01*
G75*
G02*
X138320000Y-110690000I140000J0D01*
G01*
X138600000Y-110690000D01*
G75*
G02*
X138740000Y-110830000I0J-140000D01*
G01*
X138740000Y-111170000D01*
G75*
G02*
X138600000Y-111310000I-140000J0D01*
G01*
X138320000Y-111310000D01*
G75*
G02*
X138180000Y-111170000I0J140000D01*
G01*
G37*
G36*
G01*
X113500000Y-116381250D02*
X113500000Y-115618750D01*
G75*
G02*
X113718750Y-115400000I218750J0D01*
G01*
X114156250Y-115400000D01*
G75*
G02*
X114375000Y-115618750I0J-218750D01*
G01*
X114375000Y-116381250D01*
G75*
G02*
X114156250Y-116600000I-218750J0D01*
G01*
X113718750Y-116600000D01*
G75*
G02*
X113500000Y-116381250I0J218750D01*
G01*
G37*
G36*
G01*
X115625000Y-116381250D02*
X115625000Y-115618750D01*
G75*
G02*
X115843750Y-115400000I218750J0D01*
G01*
X116281250Y-115400000D01*
G75*
G02*
X116500000Y-115618750I0J-218750D01*
G01*
X116500000Y-116381250D01*
G75*
G02*
X116281250Y-116600000I-218750J0D01*
G01*
X115843750Y-116600000D01*
G75*
G02*
X115625000Y-116381250I0J218750D01*
G01*
G37*
G36*
G01*
X118200000Y-131200000D02*
X118200000Y-130900000D01*
G75*
G02*
X118350000Y-130750000I150000J0D01*
G01*
X119375000Y-130750000D01*
G75*
G02*
X119525000Y-130900000I0J-150000D01*
G01*
X119525000Y-131200000D01*
G75*
G02*
X119375000Y-131350000I-150000J0D01*
G01*
X118350000Y-131350000D01*
G75*
G02*
X118200000Y-131200000I0J150000D01*
G01*
G37*
G36*
G01*
X118200000Y-132150000D02*
X118200000Y-131850000D01*
G75*
G02*
X118350000Y-131700000I150000J0D01*
G01*
X119375000Y-131700000D01*
G75*
G02*
X119525000Y-131850000I0J-150000D01*
G01*
X119525000Y-132150000D01*
G75*
G02*
X119375000Y-132300000I-150000J0D01*
G01*
X118350000Y-132300000D01*
G75*
G02*
X118200000Y-132150000I0J150000D01*
G01*
G37*
G36*
G01*
X118200000Y-133100000D02*
X118200000Y-132800000D01*
G75*
G02*
X118350000Y-132650000I150000J0D01*
G01*
X119375000Y-132650000D01*
G75*
G02*
X119525000Y-132800000I0J-150000D01*
G01*
X119525000Y-133100000D01*
G75*
G02*
X119375000Y-133250000I-150000J0D01*
G01*
X118350000Y-133250000D01*
G75*
G02*
X118200000Y-133100000I0J150000D01*
G01*
G37*
G36*
G01*
X120475000Y-133100000D02*
X120475000Y-132800000D01*
G75*
G02*
X120625000Y-132650000I150000J0D01*
G01*
X121650000Y-132650000D01*
G75*
G02*
X121800000Y-132800000I0J-150000D01*
G01*
X121800000Y-133100000D01*
G75*
G02*
X121650000Y-133250000I-150000J0D01*
G01*
X120625000Y-133250000D01*
G75*
G02*
X120475000Y-133100000I0J150000D01*
G01*
G37*
G36*
G01*
X120475000Y-132150000D02*
X120475000Y-131850000D01*
G75*
G02*
X120625000Y-131700000I150000J0D01*
G01*
X121650000Y-131700000D01*
G75*
G02*
X121800000Y-131850000I0J-150000D01*
G01*
X121800000Y-132150000D01*
G75*
G02*
X121650000Y-132300000I-150000J0D01*
G01*
X120625000Y-132300000D01*
G75*
G02*
X120475000Y-132150000I0J150000D01*
G01*
G37*
G36*
G01*
X120475000Y-131200000D02*
X120475000Y-130900000D01*
G75*
G02*
X120625000Y-130750000I150000J0D01*
G01*
X121650000Y-130750000D01*
G75*
G02*
X121800000Y-130900000I0J-150000D01*
G01*
X121800000Y-131200000D01*
G75*
G02*
X121650000Y-131350000I-150000J0D01*
G01*
X120625000Y-131350000D01*
G75*
G02*
X120475000Y-131200000I0J150000D01*
G01*
G37*
G36*
G01*
X135640000Y-109770000D02*
X135640000Y-109430000D01*
G75*
G02*
X135780000Y-109290000I140000J0D01*
G01*
X136060000Y-109290000D01*
G75*
G02*
X136200000Y-109430000I0J-140000D01*
G01*
X136200000Y-109770000D01*
G75*
G02*
X136060000Y-109910000I-140000J0D01*
G01*
X135780000Y-109910000D01*
G75*
G02*
X135640000Y-109770000I0J140000D01*
G01*
G37*
G36*
G01*
X136600000Y-109770000D02*
X136600000Y-109430000D01*
G75*
G02*
X136740000Y-109290000I140000J0D01*
G01*
X137020000Y-109290000D01*
G75*
G02*
X137160000Y-109430000I0J-140000D01*
G01*
X137160000Y-109770000D01*
G75*
G02*
X137020000Y-109910000I-140000J0D01*
G01*
X136740000Y-109910000D01*
G75*
G02*
X136600000Y-109770000I0J140000D01*
G01*
G37*
D10*
X123465000Y-84730000D03*
X123465000Y-87270000D03*
X131085000Y-87270000D03*
X131085000Y-84730000D03*
G36*
G01*
X119125000Y-98025000D02*
X117875000Y-98025000D01*
G75*
G02*
X117625000Y-97775000I0J250000D01*
G01*
X117625000Y-97150000D01*
G75*
G02*
X117875000Y-96900000I250000J0D01*
G01*
X119125000Y-96900000D01*
G75*
G02*
X119375000Y-97150000I0J-250000D01*
G01*
X119375000Y-97775000D01*
G75*
G02*
X119125000Y-98025000I-250000J0D01*
G01*
G37*
G36*
G01*
X119125000Y-95100000D02*
X117875000Y-95100000D01*
G75*
G02*
X117625000Y-94850000I0J250000D01*
G01*
X117625000Y-94225000D01*
G75*
G02*
X117875000Y-93975000I250000J0D01*
G01*
X119125000Y-93975000D01*
G75*
G02*
X119375000Y-94225000I0J-250000D01*
G01*
X119375000Y-94850000D01*
G75*
G02*
X119125000Y-95100000I-250000J0D01*
G01*
G37*
G36*
G01*
X118735000Y-85930000D02*
X118365000Y-85930000D01*
G75*
G02*
X118230000Y-85795000I0J135000D01*
G01*
X118230000Y-85525000D01*
G75*
G02*
X118365000Y-85390000I135000J0D01*
G01*
X118735000Y-85390000D01*
G75*
G02*
X118870000Y-85525000I0J-135000D01*
G01*
X118870000Y-85795000D01*
G75*
G02*
X118735000Y-85930000I-135000J0D01*
G01*
G37*
G36*
G01*
X118735000Y-84910000D02*
X118365000Y-84910000D01*
G75*
G02*
X118230000Y-84775000I0J135000D01*
G01*
X118230000Y-84505000D01*
G75*
G02*
X118365000Y-84370000I135000J0D01*
G01*
X118735000Y-84370000D01*
G75*
G02*
X118870000Y-84505000I0J-135000D01*
G01*
X118870000Y-84775000D01*
G75*
G02*
X118735000Y-84910000I-135000J0D01*
G01*
G37*
G36*
G01*
X132675000Y-100220000D02*
X132675000Y-100520000D01*
G75*
G02*
X132525000Y-100670000I-150000J0D01*
G01*
X130775000Y-100670000D01*
G75*
G02*
X130625000Y-100520000I0J150000D01*
G01*
X130625000Y-100220000D01*
G75*
G02*
X130775000Y-100070000I150000J0D01*
G01*
X132525000Y-100070000D01*
G75*
G02*
X132675000Y-100220000I0J-150000D01*
G01*
G37*
G36*
G01*
X132675000Y-98950000D02*
X132675000Y-99250000D01*
G75*
G02*
X132525000Y-99400000I-150000J0D01*
G01*
X130775000Y-99400000D01*
G75*
G02*
X130625000Y-99250000I0J150000D01*
G01*
X130625000Y-98950000D01*
G75*
G02*
X130775000Y-98800000I150000J0D01*
G01*
X132525000Y-98800000D01*
G75*
G02*
X132675000Y-98950000I0J-150000D01*
G01*
G37*
G36*
G01*
X132675000Y-97680000D02*
X132675000Y-97980000D01*
G75*
G02*
X132525000Y-98130000I-150000J0D01*
G01*
X130775000Y-98130000D01*
G75*
G02*
X130625000Y-97980000I0J150000D01*
G01*
X130625000Y-97680000D01*
G75*
G02*
X130775000Y-97530000I150000J0D01*
G01*
X132525000Y-97530000D01*
G75*
G02*
X132675000Y-97680000I0J-150000D01*
G01*
G37*
G36*
G01*
X132675000Y-96410000D02*
X132675000Y-96710000D01*
G75*
G02*
X132525000Y-96860000I-150000J0D01*
G01*
X130775000Y-96860000D01*
G75*
G02*
X130625000Y-96710000I0J150000D01*
G01*
X130625000Y-96410000D01*
G75*
G02*
X130775000Y-96260000I150000J0D01*
G01*
X132525000Y-96260000D01*
G75*
G02*
X132675000Y-96410000I0J-150000D01*
G01*
G37*
G36*
G01*
X132675000Y-95140000D02*
X132675000Y-95440000D01*
G75*
G02*
X132525000Y-95590000I-150000J0D01*
G01*
X130775000Y-95590000D01*
G75*
G02*
X130625000Y-95440000I0J150000D01*
G01*
X130625000Y-95140000D01*
G75*
G02*
X130775000Y-94990000I150000J0D01*
G01*
X132525000Y-94990000D01*
G75*
G02*
X132675000Y-95140000I0J-150000D01*
G01*
G37*
G36*
G01*
X132675000Y-93870000D02*
X132675000Y-94170000D01*
G75*
G02*
X132525000Y-94320000I-150000J0D01*
G01*
X130775000Y-94320000D01*
G75*
G02*
X130625000Y-94170000I0J150000D01*
G01*
X130625000Y-93870000D01*
G75*
G02*
X130775000Y-93720000I150000J0D01*
G01*
X132525000Y-93720000D01*
G75*
G02*
X132675000Y-93870000I0J-150000D01*
G01*
G37*
G36*
G01*
X132675000Y-92600000D02*
X132675000Y-92900000D01*
G75*
G02*
X132525000Y-93050000I-150000J0D01*
G01*
X130775000Y-93050000D01*
G75*
G02*
X130625000Y-92900000I0J150000D01*
G01*
X130625000Y-92600000D01*
G75*
G02*
X130775000Y-92450000I150000J0D01*
G01*
X132525000Y-92450000D01*
G75*
G02*
X132675000Y-92600000I0J-150000D01*
G01*
G37*
G36*
G01*
X132675000Y-91330000D02*
X132675000Y-91630000D01*
G75*
G02*
X132525000Y-91780000I-150000J0D01*
G01*
X130775000Y-91780000D01*
G75*
G02*
X130625000Y-91630000I0J150000D01*
G01*
X130625000Y-91330000D01*
G75*
G02*
X130775000Y-91180000I150000J0D01*
G01*
X132525000Y-91180000D01*
G75*
G02*
X132675000Y-91330000I0J-150000D01*
G01*
G37*
G36*
G01*
X123375000Y-91330000D02*
X123375000Y-91630000D01*
G75*
G02*
X123225000Y-91780000I-150000J0D01*
G01*
X121475000Y-91780000D01*
G75*
G02*
X121325000Y-91630000I0J150000D01*
G01*
X121325000Y-91330000D01*
G75*
G02*
X121475000Y-91180000I150000J0D01*
G01*
X123225000Y-91180000D01*
G75*
G02*
X123375000Y-91330000I0J-150000D01*
G01*
G37*
G36*
G01*
X123375000Y-92600000D02*
X123375000Y-92900000D01*
G75*
G02*
X123225000Y-93050000I-150000J0D01*
G01*
X121475000Y-93050000D01*
G75*
G02*
X121325000Y-92900000I0J150000D01*
G01*
X121325000Y-92600000D01*
G75*
G02*
X121475000Y-92450000I150000J0D01*
G01*
X123225000Y-92450000D01*
G75*
G02*
X123375000Y-92600000I0J-150000D01*
G01*
G37*
G36*
G01*
X123375000Y-93870000D02*
X123375000Y-94170000D01*
G75*
G02*
X123225000Y-94320000I-150000J0D01*
G01*
X121475000Y-94320000D01*
G75*
G02*
X121325000Y-94170000I0J150000D01*
G01*
X121325000Y-93870000D01*
G75*
G02*
X121475000Y-93720000I150000J0D01*
G01*
X123225000Y-93720000D01*
G75*
G02*
X123375000Y-93870000I0J-150000D01*
G01*
G37*
G36*
G01*
X123375000Y-95140000D02*
X123375000Y-95440000D01*
G75*
G02*
X123225000Y-95590000I-150000J0D01*
G01*
X121475000Y-95590000D01*
G75*
G02*
X121325000Y-95440000I0J150000D01*
G01*
X121325000Y-95140000D01*
G75*
G02*
X121475000Y-94990000I150000J0D01*
G01*
X123225000Y-94990000D01*
G75*
G02*
X123375000Y-95140000I0J-150000D01*
G01*
G37*
G36*
G01*
X123375000Y-96410000D02*
X123375000Y-96710000D01*
G75*
G02*
X123225000Y-96860000I-150000J0D01*
G01*
X121475000Y-96860000D01*
G75*
G02*
X121325000Y-96710000I0J150000D01*
G01*
X121325000Y-96410000D01*
G75*
G02*
X121475000Y-96260000I150000J0D01*
G01*
X123225000Y-96260000D01*
G75*
G02*
X123375000Y-96410000I0J-150000D01*
G01*
G37*
G36*
G01*
X123375000Y-97680000D02*
X123375000Y-97980000D01*
G75*
G02*
X123225000Y-98130000I-150000J0D01*
G01*
X121475000Y-98130000D01*
G75*
G02*
X121325000Y-97980000I0J150000D01*
G01*
X121325000Y-97680000D01*
G75*
G02*
X121475000Y-97530000I150000J0D01*
G01*
X123225000Y-97530000D01*
G75*
G02*
X123375000Y-97680000I0J-150000D01*
G01*
G37*
G36*
G01*
X123375000Y-98950000D02*
X123375000Y-99250000D01*
G75*
G02*
X123225000Y-99400000I-150000J0D01*
G01*
X121475000Y-99400000D01*
G75*
G02*
X121325000Y-99250000I0J150000D01*
G01*
X121325000Y-98950000D01*
G75*
G02*
X121475000Y-98800000I150000J0D01*
G01*
X123225000Y-98800000D01*
G75*
G02*
X123375000Y-98950000I0J-150000D01*
G01*
G37*
G36*
G01*
X123375000Y-100220000D02*
X123375000Y-100520000D01*
G75*
G02*
X123225000Y-100670000I-150000J0D01*
G01*
X121475000Y-100670000D01*
G75*
G02*
X121325000Y-100520000I0J150000D01*
G01*
X121325000Y-100220000D01*
G75*
G02*
X121475000Y-100070000I150000J0D01*
G01*
X123225000Y-100070000D01*
G75*
G02*
X123375000Y-100220000I0J-150000D01*
G01*
G37*
G36*
G01*
X120815000Y-67720000D02*
X121185000Y-67720000D01*
G75*
G02*
X121320000Y-67855000I0J-135000D01*
G01*
X121320000Y-68125000D01*
G75*
G02*
X121185000Y-68260000I-135000J0D01*
G01*
X120815000Y-68260000D01*
G75*
G02*
X120680000Y-68125000I0J135000D01*
G01*
X120680000Y-67855000D01*
G75*
G02*
X120815000Y-67720000I135000J0D01*
G01*
G37*
G36*
G01*
X120815000Y-68740000D02*
X121185000Y-68740000D01*
G75*
G02*
X121320000Y-68875000I0J-135000D01*
G01*
X121320000Y-69145000D01*
G75*
G02*
X121185000Y-69280000I-135000J0D01*
G01*
X120815000Y-69280000D01*
G75*
G02*
X120680000Y-69145000I0J135000D01*
G01*
X120680000Y-68875000D01*
G75*
G02*
X120815000Y-68740000I135000J0D01*
G01*
G37*
G36*
G01*
X117385000Y-74380000D02*
X117015000Y-74380000D01*
G75*
G02*
X116880000Y-74245000I0J135000D01*
G01*
X116880000Y-73975000D01*
G75*
G02*
X117015000Y-73840000I135000J0D01*
G01*
X117385000Y-73840000D01*
G75*
G02*
X117520000Y-73975000I0J-135000D01*
G01*
X117520000Y-74245000D01*
G75*
G02*
X117385000Y-74380000I-135000J0D01*
G01*
G37*
G36*
G01*
X117385000Y-73360000D02*
X117015000Y-73360000D01*
G75*
G02*
X116880000Y-73225000I0J135000D01*
G01*
X116880000Y-72955000D01*
G75*
G02*
X117015000Y-72820000I135000J0D01*
G01*
X117385000Y-72820000D01*
G75*
G02*
X117520000Y-72955000I0J-135000D01*
G01*
X117520000Y-73225000D01*
G75*
G02*
X117385000Y-73360000I-135000J0D01*
G01*
G37*
X131085000Y-73270000D03*
X131085000Y-70730000D03*
X123465000Y-70730000D03*
X123465000Y-73270000D03*
G36*
G01*
X105350000Y-93450000D02*
X106650000Y-93450000D01*
G75*
G02*
X106900000Y-93700000I0J-250000D01*
G01*
X106900000Y-94350000D01*
G75*
G02*
X106650000Y-94600000I-250000J0D01*
G01*
X105350000Y-94600000D01*
G75*
G02*
X105100000Y-94350000I0J250000D01*
G01*
X105100000Y-93700000D01*
G75*
G02*
X105350000Y-93450000I250000J0D01*
G01*
G37*
G36*
G01*
X105350000Y-96400000D02*
X106650000Y-96400000D01*
G75*
G02*
X106900000Y-96650000I0J-250000D01*
G01*
X106900000Y-97300000D01*
G75*
G02*
X106650000Y-97550000I-250000J0D01*
G01*
X105350000Y-97550000D01*
G75*
G02*
X105100000Y-97300000I0J250000D01*
G01*
X105100000Y-96650000D01*
G75*
G02*
X105350000Y-96400000I250000J0D01*
G01*
G37*
G36*
G01*
X133770000Y-100360000D02*
X133430000Y-100360000D01*
G75*
G02*
X133290000Y-100220000I0J140000D01*
G01*
X133290000Y-99940000D01*
G75*
G02*
X133430000Y-99800000I140000J0D01*
G01*
X133770000Y-99800000D01*
G75*
G02*
X133910000Y-99940000I0J-140000D01*
G01*
X133910000Y-100220000D01*
G75*
G02*
X133770000Y-100360000I-140000J0D01*
G01*
G37*
G36*
G01*
X133770000Y-99400000D02*
X133430000Y-99400000D01*
G75*
G02*
X133290000Y-99260000I0J140000D01*
G01*
X133290000Y-98980000D01*
G75*
G02*
X133430000Y-98840000I140000J0D01*
G01*
X133770000Y-98840000D01*
G75*
G02*
X133910000Y-98980000I0J-140000D01*
G01*
X133910000Y-99260000D01*
G75*
G02*
X133770000Y-99400000I-140000J0D01*
G01*
G37*
X123465000Y-77730000D03*
X123465000Y-80270000D03*
X131085000Y-80270000D03*
X131085000Y-77730000D03*
G36*
G01*
X116675000Y-94800000D02*
X116675000Y-95100000D01*
G75*
G02*
X116525000Y-95250000I-150000J0D01*
G01*
X115350000Y-95250000D01*
G75*
G02*
X115200000Y-95100000I0J150000D01*
G01*
X115200000Y-94800000D01*
G75*
G02*
X115350000Y-94650000I150000J0D01*
G01*
X116525000Y-94650000D01*
G75*
G02*
X116675000Y-94800000I0J-150000D01*
G01*
G37*
G36*
G01*
X116675000Y-92900000D02*
X116675000Y-93200000D01*
G75*
G02*
X116525000Y-93350000I-150000J0D01*
G01*
X115350000Y-93350000D01*
G75*
G02*
X115200000Y-93200000I0J150000D01*
G01*
X115200000Y-92900000D01*
G75*
G02*
X115350000Y-92750000I150000J0D01*
G01*
X116525000Y-92750000D01*
G75*
G02*
X116675000Y-92900000I0J-150000D01*
G01*
G37*
G36*
G01*
X114800000Y-93850000D02*
X114800000Y-94150000D01*
G75*
G02*
X114650000Y-94300000I-150000J0D01*
G01*
X113475000Y-94300000D01*
G75*
G02*
X113325000Y-94150000I0J150000D01*
G01*
X113325000Y-93850000D01*
G75*
G02*
X113475000Y-93700000I150000J0D01*
G01*
X114650000Y-93700000D01*
G75*
G02*
X114800000Y-93850000I0J-150000D01*
G01*
G37*
G36*
G01*
X120815000Y-81720000D02*
X121185000Y-81720000D01*
G75*
G02*
X121320000Y-81855000I0J-135000D01*
G01*
X121320000Y-82125000D01*
G75*
G02*
X121185000Y-82260000I-135000J0D01*
G01*
X120815000Y-82260000D01*
G75*
G02*
X120680000Y-82125000I0J135000D01*
G01*
X120680000Y-81855000D01*
G75*
G02*
X120815000Y-81720000I135000J0D01*
G01*
G37*
G36*
G01*
X120815000Y-82740000D02*
X121185000Y-82740000D01*
G75*
G02*
X121320000Y-82875000I0J-135000D01*
G01*
X121320000Y-83145000D01*
G75*
G02*
X121185000Y-83280000I-135000J0D01*
G01*
X120815000Y-83280000D01*
G75*
G02*
X120680000Y-83145000I0J135000D01*
G01*
X120680000Y-82875000D01*
G75*
G02*
X120815000Y-82740000I135000J0D01*
G01*
G37*
G36*
G01*
X135240000Y-100370000D02*
X135240000Y-100030000D01*
G75*
G02*
X135380000Y-99890000I140000J0D01*
G01*
X135660000Y-99890000D01*
G75*
G02*
X135800000Y-100030000I0J-140000D01*
G01*
X135800000Y-100370000D01*
G75*
G02*
X135660000Y-100510000I-140000J0D01*
G01*
X135380000Y-100510000D01*
G75*
G02*
X135240000Y-100370000I0J140000D01*
G01*
G37*
G36*
G01*
X136200000Y-100370000D02*
X136200000Y-100030000D01*
G75*
G02*
X136340000Y-99890000I140000J0D01*
G01*
X136620000Y-99890000D01*
G75*
G02*
X136760000Y-100030000I0J-140000D01*
G01*
X136760000Y-100370000D01*
G75*
G02*
X136620000Y-100510000I-140000J0D01*
G01*
X136340000Y-100510000D01*
G75*
G02*
X136200000Y-100370000I0J140000D01*
G01*
G37*
G36*
G01*
X133315000Y-71970000D02*
X133685000Y-71970000D01*
G75*
G02*
X133820000Y-72105000I0J-135000D01*
G01*
X133820000Y-72375000D01*
G75*
G02*
X133685000Y-72510000I-135000J0D01*
G01*
X133315000Y-72510000D01*
G75*
G02*
X133180000Y-72375000I0J135000D01*
G01*
X133180000Y-72105000D01*
G75*
G02*
X133315000Y-71970000I135000J0D01*
G01*
G37*
G36*
G01*
X133315000Y-72990000D02*
X133685000Y-72990000D01*
G75*
G02*
X133820000Y-73125000I0J-135000D01*
G01*
X133820000Y-73395000D01*
G75*
G02*
X133685000Y-73530000I-135000J0D01*
G01*
X133315000Y-73530000D01*
G75*
G02*
X133180000Y-73395000I0J135000D01*
G01*
X133180000Y-73125000D01*
G75*
G02*
X133315000Y-72990000I135000J0D01*
G01*
G37*
G36*
G01*
X119315000Y-67720000D02*
X119685000Y-67720000D01*
G75*
G02*
X119820000Y-67855000I0J-135000D01*
G01*
X119820000Y-68125000D01*
G75*
G02*
X119685000Y-68260000I-135000J0D01*
G01*
X119315000Y-68260000D01*
G75*
G02*
X119180000Y-68125000I0J135000D01*
G01*
X119180000Y-67855000D01*
G75*
G02*
X119315000Y-67720000I135000J0D01*
G01*
G37*
G36*
G01*
X119315000Y-68740000D02*
X119685000Y-68740000D01*
G75*
G02*
X119820000Y-68875000I0J-135000D01*
G01*
X119820000Y-69145000D01*
G75*
G02*
X119685000Y-69280000I-135000J0D01*
G01*
X119315000Y-69280000D01*
G75*
G02*
X119180000Y-69145000I0J135000D01*
G01*
X119180000Y-68875000D01*
G75*
G02*
X119315000Y-68740000I135000J0D01*
G01*
G37*
G36*
G01*
X135825000Y-108600000D02*
X135625000Y-108600000D01*
G75*
G02*
X135525000Y-108500000I0J100000D01*
G01*
X135525000Y-107225000D01*
G75*
G02*
X135625000Y-107125000I100000J0D01*
G01*
X135825000Y-107125000D01*
G75*
G02*
X135925000Y-107225000I0J-100000D01*
G01*
X135925000Y-108500000D01*
G75*
G02*
X135825000Y-108600000I-100000J0D01*
G01*
G37*
G36*
G01*
X136475000Y-108600000D02*
X136275000Y-108600000D01*
G75*
G02*
X136175000Y-108500000I0J100000D01*
G01*
X136175000Y-107225000D01*
G75*
G02*
X136275000Y-107125000I100000J0D01*
G01*
X136475000Y-107125000D01*
G75*
G02*
X136575000Y-107225000I0J-100000D01*
G01*
X136575000Y-108500000D01*
G75*
G02*
X136475000Y-108600000I-100000J0D01*
G01*
G37*
G36*
G01*
X137125000Y-108600000D02*
X136925000Y-108600000D01*
G75*
G02*
X136825000Y-108500000I0J100000D01*
G01*
X136825000Y-107225000D01*
G75*
G02*
X136925000Y-107125000I100000J0D01*
G01*
X137125000Y-107125000D01*
G75*
G02*
X137225000Y-107225000I0J-100000D01*
G01*
X137225000Y-108500000D01*
G75*
G02*
X137125000Y-108600000I-100000J0D01*
G01*
G37*
G36*
G01*
X137775000Y-108600000D02*
X137575000Y-108600000D01*
G75*
G02*
X137475000Y-108500000I0J100000D01*
G01*
X137475000Y-107225000D01*
G75*
G02*
X137575000Y-107125000I100000J0D01*
G01*
X137775000Y-107125000D01*
G75*
G02*
X137875000Y-107225000I0J-100000D01*
G01*
X137875000Y-108500000D01*
G75*
G02*
X137775000Y-108600000I-100000J0D01*
G01*
G37*
G36*
G01*
X138425000Y-108600000D02*
X138225000Y-108600000D01*
G75*
G02*
X138125000Y-108500000I0J100000D01*
G01*
X138125000Y-107225000D01*
G75*
G02*
X138225000Y-107125000I100000J0D01*
G01*
X138425000Y-107125000D01*
G75*
G02*
X138525000Y-107225000I0J-100000D01*
G01*
X138525000Y-108500000D01*
G75*
G02*
X138425000Y-108600000I-100000J0D01*
G01*
G37*
G36*
G01*
X139075000Y-108600000D02*
X138875000Y-108600000D01*
G75*
G02*
X138775000Y-108500000I0J100000D01*
G01*
X138775000Y-107225000D01*
G75*
G02*
X138875000Y-107125000I100000J0D01*
G01*
X139075000Y-107125000D01*
G75*
G02*
X139175000Y-107225000I0J-100000D01*
G01*
X139175000Y-108500000D01*
G75*
G02*
X139075000Y-108600000I-100000J0D01*
G01*
G37*
G36*
G01*
X139725000Y-108600000D02*
X139525000Y-108600000D01*
G75*
G02*
X139425000Y-108500000I0J100000D01*
G01*
X139425000Y-107225000D01*
G75*
G02*
X139525000Y-107125000I100000J0D01*
G01*
X139725000Y-107125000D01*
G75*
G02*
X139825000Y-107225000I0J-100000D01*
G01*
X139825000Y-108500000D01*
G75*
G02*
X139725000Y-108600000I-100000J0D01*
G01*
G37*
G36*
G01*
X140375000Y-108600000D02*
X140175000Y-108600000D01*
G75*
G02*
X140075000Y-108500000I0J100000D01*
G01*
X140075000Y-107225000D01*
G75*
G02*
X140175000Y-107125000I100000J0D01*
G01*
X140375000Y-107125000D01*
G75*
G02*
X140475000Y-107225000I0J-100000D01*
G01*
X140475000Y-108500000D01*
G75*
G02*
X140375000Y-108600000I-100000J0D01*
G01*
G37*
G36*
G01*
X140375000Y-102875000D02*
X140175000Y-102875000D01*
G75*
G02*
X140075000Y-102775000I0J100000D01*
G01*
X140075000Y-101500000D01*
G75*
G02*
X140175000Y-101400000I100000J0D01*
G01*
X140375000Y-101400000D01*
G75*
G02*
X140475000Y-101500000I0J-100000D01*
G01*
X140475000Y-102775000D01*
G75*
G02*
X140375000Y-102875000I-100000J0D01*
G01*
G37*
G36*
G01*
X139725000Y-102875000D02*
X139525000Y-102875000D01*
G75*
G02*
X139425000Y-102775000I0J100000D01*
G01*
X139425000Y-101500000D01*
G75*
G02*
X139525000Y-101400000I100000J0D01*
G01*
X139725000Y-101400000D01*
G75*
G02*
X139825000Y-101500000I0J-100000D01*
G01*
X139825000Y-102775000D01*
G75*
G02*
X139725000Y-102875000I-100000J0D01*
G01*
G37*
G36*
G01*
X139075000Y-102875000D02*
X138875000Y-102875000D01*
G75*
G02*
X138775000Y-102775000I0J100000D01*
G01*
X138775000Y-101500000D01*
G75*
G02*
X138875000Y-101400000I100000J0D01*
G01*
X139075000Y-101400000D01*
G75*
G02*
X139175000Y-101500000I0J-100000D01*
G01*
X139175000Y-102775000D01*
G75*
G02*
X139075000Y-102875000I-100000J0D01*
G01*
G37*
G36*
G01*
X138425000Y-102875000D02*
X138225000Y-102875000D01*
G75*
G02*
X138125000Y-102775000I0J100000D01*
G01*
X138125000Y-101500000D01*
G75*
G02*
X138225000Y-101400000I100000J0D01*
G01*
X138425000Y-101400000D01*
G75*
G02*
X138525000Y-101500000I0J-100000D01*
G01*
X138525000Y-102775000D01*
G75*
G02*
X138425000Y-102875000I-100000J0D01*
G01*
G37*
G36*
G01*
X137775000Y-102875000D02*
X137575000Y-102875000D01*
G75*
G02*
X137475000Y-102775000I0J100000D01*
G01*
X137475000Y-101500000D01*
G75*
G02*
X137575000Y-101400000I100000J0D01*
G01*
X137775000Y-101400000D01*
G75*
G02*
X137875000Y-101500000I0J-100000D01*
G01*
X137875000Y-102775000D01*
G75*
G02*
X137775000Y-102875000I-100000J0D01*
G01*
G37*
G36*
G01*
X137125000Y-102875000D02*
X136925000Y-102875000D01*
G75*
G02*
X136825000Y-102775000I0J100000D01*
G01*
X136825000Y-101500000D01*
G75*
G02*
X136925000Y-101400000I100000J0D01*
G01*
X137125000Y-101400000D01*
G75*
G02*
X137225000Y-101500000I0J-100000D01*
G01*
X137225000Y-102775000D01*
G75*
G02*
X137125000Y-102875000I-100000J0D01*
G01*
G37*
G36*
G01*
X136475000Y-102875000D02*
X136275000Y-102875000D01*
G75*
G02*
X136175000Y-102775000I0J100000D01*
G01*
X136175000Y-101500000D01*
G75*
G02*
X136275000Y-101400000I100000J0D01*
G01*
X136475000Y-101400000D01*
G75*
G02*
X136575000Y-101500000I0J-100000D01*
G01*
X136575000Y-102775000D01*
G75*
G02*
X136475000Y-102875000I-100000J0D01*
G01*
G37*
G36*
G01*
X135825000Y-102875000D02*
X135625000Y-102875000D01*
G75*
G02*
X135525000Y-102775000I0J100000D01*
G01*
X135525000Y-101500000D01*
G75*
G02*
X135625000Y-101400000I100000J0D01*
G01*
X135825000Y-101400000D01*
G75*
G02*
X135925000Y-101500000I0J-100000D01*
G01*
X135925000Y-102775000D01*
G75*
G02*
X135825000Y-102875000I-100000J0D01*
G01*
G37*
X131085000Y-66270000D03*
X131085000Y-63730000D03*
X123465000Y-63730000D03*
X123465000Y-66270000D03*
G36*
G01*
X134560000Y-106430000D02*
X134560000Y-106770000D01*
G75*
G02*
X134420000Y-106910000I-140000J0D01*
G01*
X134140000Y-106910000D01*
G75*
G02*
X134000000Y-106770000I0J140000D01*
G01*
X134000000Y-106430000D01*
G75*
G02*
X134140000Y-106290000I140000J0D01*
G01*
X134420000Y-106290000D01*
G75*
G02*
X134560000Y-106430000I0J-140000D01*
G01*
G37*
G36*
G01*
X133600000Y-106430000D02*
X133600000Y-106770000D01*
G75*
G02*
X133460000Y-106910000I-140000J0D01*
G01*
X133180000Y-106910000D01*
G75*
G02*
X133040000Y-106770000I0J140000D01*
G01*
X133040000Y-106430000D01*
G75*
G02*
X133180000Y-106290000I140000J0D01*
G01*
X133460000Y-106290000D01*
G75*
G02*
X133600000Y-106430000I0J-140000D01*
G01*
G37*
G36*
G01*
X113500000Y-142381250D02*
X113500000Y-141618750D01*
G75*
G02*
X113718750Y-141400000I218750J0D01*
G01*
X114156250Y-141400000D01*
G75*
G02*
X114375000Y-141618750I0J-218750D01*
G01*
X114375000Y-142381250D01*
G75*
G02*
X114156250Y-142600000I-218750J0D01*
G01*
X113718750Y-142600000D01*
G75*
G02*
X113500000Y-142381250I0J218750D01*
G01*
G37*
G36*
G01*
X115625000Y-142381250D02*
X115625000Y-141618750D01*
G75*
G02*
X115843750Y-141400000I218750J0D01*
G01*
X116281250Y-141400000D01*
G75*
G02*
X116500000Y-141618750I0J-218750D01*
G01*
X116500000Y-142381250D01*
G75*
G02*
X116281250Y-142600000I-218750J0D01*
G01*
X115843750Y-142600000D01*
G75*
G02*
X115625000Y-142381250I0J218750D01*
G01*
G37*
G36*
G01*
X133115000Y-84470000D02*
X133485000Y-84470000D01*
G75*
G02*
X133620000Y-84605000I0J-135000D01*
G01*
X133620000Y-84875000D01*
G75*
G02*
X133485000Y-85010000I-135000J0D01*
G01*
X133115000Y-85010000D01*
G75*
G02*
X132980000Y-84875000I0J135000D01*
G01*
X132980000Y-84605000D01*
G75*
G02*
X133115000Y-84470000I135000J0D01*
G01*
G37*
G36*
G01*
X133115000Y-85490000D02*
X133485000Y-85490000D01*
G75*
G02*
X133620000Y-85625000I0J-135000D01*
G01*
X133620000Y-85895000D01*
G75*
G02*
X133485000Y-86030000I-135000J0D01*
G01*
X133115000Y-86030000D01*
G75*
G02*
X132980000Y-85895000I0J135000D01*
G01*
X132980000Y-85625000D01*
G75*
G02*
X133115000Y-85490000I135000J0D01*
G01*
G37*
G36*
G01*
X119780000Y-81815000D02*
X119780000Y-82185000D01*
G75*
G02*
X119645000Y-82320000I-135000J0D01*
G01*
X119375000Y-82320000D01*
G75*
G02*
X119240000Y-82185000I0J135000D01*
G01*
X119240000Y-81815000D01*
G75*
G02*
X119375000Y-81680000I135000J0D01*
G01*
X119645000Y-81680000D01*
G75*
G02*
X119780000Y-81815000I0J-135000D01*
G01*
G37*
G36*
G01*
X118760000Y-81815000D02*
X118760000Y-82185000D01*
G75*
G02*
X118625000Y-82320000I-135000J0D01*
G01*
X118355000Y-82320000D01*
G75*
G02*
X118220000Y-82185000I0J135000D01*
G01*
X118220000Y-81815000D01*
G75*
G02*
X118355000Y-81680000I135000J0D01*
G01*
X118625000Y-81680000D01*
G75*
G02*
X118760000Y-81815000I0J-135000D01*
G01*
G37*
G36*
G01*
X138840000Y-109770000D02*
X138840000Y-109430000D01*
G75*
G02*
X138980000Y-109290000I140000J0D01*
G01*
X139260000Y-109290000D01*
G75*
G02*
X139400000Y-109430000I0J-140000D01*
G01*
X139400000Y-109770000D01*
G75*
G02*
X139260000Y-109910000I-140000J0D01*
G01*
X138980000Y-109910000D01*
G75*
G02*
X138840000Y-109770000I0J140000D01*
G01*
G37*
G36*
G01*
X139800000Y-109770000D02*
X139800000Y-109430000D01*
G75*
G02*
X139940000Y-109290000I140000J0D01*
G01*
X140220000Y-109290000D01*
G75*
G02*
X140360000Y-109430000I0J-140000D01*
G01*
X140360000Y-109770000D01*
G75*
G02*
X140220000Y-109910000I-140000J0D01*
G01*
X139940000Y-109910000D01*
G75*
G02*
X139800000Y-109770000I0J140000D01*
G01*
G37*
G36*
G01*
X101800000Y-94075000D02*
X102700000Y-94075000D01*
G75*
G02*
X102950000Y-94325000I0J-250000D01*
G01*
X102950000Y-94850000D01*
G75*
G02*
X102700000Y-95100000I-250000J0D01*
G01*
X101800000Y-95100000D01*
G75*
G02*
X101550000Y-94850000I0J250000D01*
G01*
X101550000Y-94325000D01*
G75*
G02*
X101800000Y-94075000I250000J0D01*
G01*
G37*
G36*
G01*
X101800000Y-95900000D02*
X102700000Y-95900000D01*
G75*
G02*
X102950000Y-96150000I0J-250000D01*
G01*
X102950000Y-96675000D01*
G75*
G02*
X102700000Y-96925000I-250000J0D01*
G01*
X101800000Y-96925000D01*
G75*
G02*
X101550000Y-96675000I0J250000D01*
G01*
X101550000Y-96150000D01*
G75*
G02*
X101800000Y-95900000I250000J0D01*
G01*
G37*
G36*
G01*
X120570000Y-100560000D02*
X120230000Y-100560000D01*
G75*
G02*
X120090000Y-100420000I0J140000D01*
G01*
X120090000Y-100140000D01*
G75*
G02*
X120230000Y-100000000I140000J0D01*
G01*
X120570000Y-100000000D01*
G75*
G02*
X120710000Y-100140000I0J-140000D01*
G01*
X120710000Y-100420000D01*
G75*
G02*
X120570000Y-100560000I-140000J0D01*
G01*
G37*
G36*
G01*
X120570000Y-99600000D02*
X120230000Y-99600000D01*
G75*
G02*
X120090000Y-99460000I0J140000D01*
G01*
X120090000Y-99180000D01*
G75*
G02*
X120230000Y-99040000I140000J0D01*
G01*
X120570000Y-99040000D01*
G75*
G02*
X120710000Y-99180000I0J-140000D01*
G01*
X120710000Y-99460000D01*
G75*
G02*
X120570000Y-99600000I-140000J0D01*
G01*
G37*
G36*
G01*
X118200000Y-105200000D02*
X118200000Y-104900000D01*
G75*
G02*
X118350000Y-104750000I150000J0D01*
G01*
X119375000Y-104750000D01*
G75*
G02*
X119525000Y-104900000I0J-150000D01*
G01*
X119525000Y-105200000D01*
G75*
G02*
X119375000Y-105350000I-150000J0D01*
G01*
X118350000Y-105350000D01*
G75*
G02*
X118200000Y-105200000I0J150000D01*
G01*
G37*
G36*
G01*
X118200000Y-106150000D02*
X118200000Y-105850000D01*
G75*
G02*
X118350000Y-105700000I150000J0D01*
G01*
X119375000Y-105700000D01*
G75*
G02*
X119525000Y-105850000I0J-150000D01*
G01*
X119525000Y-106150000D01*
G75*
G02*
X119375000Y-106300000I-150000J0D01*
G01*
X118350000Y-106300000D01*
G75*
G02*
X118200000Y-106150000I0J150000D01*
G01*
G37*
G36*
G01*
X118200000Y-107100000D02*
X118200000Y-106800000D01*
G75*
G02*
X118350000Y-106650000I150000J0D01*
G01*
X119375000Y-106650000D01*
G75*
G02*
X119525000Y-106800000I0J-150000D01*
G01*
X119525000Y-107100000D01*
G75*
G02*
X119375000Y-107250000I-150000J0D01*
G01*
X118350000Y-107250000D01*
G75*
G02*
X118200000Y-107100000I0J150000D01*
G01*
G37*
G36*
G01*
X120475000Y-107100000D02*
X120475000Y-106800000D01*
G75*
G02*
X120625000Y-106650000I150000J0D01*
G01*
X121650000Y-106650000D01*
G75*
G02*
X121800000Y-106800000I0J-150000D01*
G01*
X121800000Y-107100000D01*
G75*
G02*
X121650000Y-107250000I-150000J0D01*
G01*
X120625000Y-107250000D01*
G75*
G02*
X120475000Y-107100000I0J150000D01*
G01*
G37*
G36*
G01*
X120475000Y-106150000D02*
X120475000Y-105850000D01*
G75*
G02*
X120625000Y-105700000I150000J0D01*
G01*
X121650000Y-105700000D01*
G75*
G02*
X121800000Y-105850000I0J-150000D01*
G01*
X121800000Y-106150000D01*
G75*
G02*
X121650000Y-106300000I-150000J0D01*
G01*
X120625000Y-106300000D01*
G75*
G02*
X120475000Y-106150000I0J150000D01*
G01*
G37*
G36*
G01*
X120475000Y-105200000D02*
X120475000Y-104900000D01*
G75*
G02*
X120625000Y-104750000I150000J0D01*
G01*
X121650000Y-104750000D01*
G75*
G02*
X121800000Y-104900000I0J-150000D01*
G01*
X121800000Y-105200000D01*
G75*
G02*
X121650000Y-105350000I-150000J0D01*
G01*
X120625000Y-105350000D01*
G75*
G02*
X120475000Y-105200000I0J150000D01*
G01*
G37*
G36*
G01*
X133315000Y-64970000D02*
X133685000Y-64970000D01*
G75*
G02*
X133820000Y-65105000I0J-135000D01*
G01*
X133820000Y-65375000D01*
G75*
G02*
X133685000Y-65510000I-135000J0D01*
G01*
X133315000Y-65510000D01*
G75*
G02*
X133180000Y-65375000I0J135000D01*
G01*
X133180000Y-65105000D01*
G75*
G02*
X133315000Y-64970000I135000J0D01*
G01*
G37*
G36*
G01*
X133315000Y-65990000D02*
X133685000Y-65990000D01*
G75*
G02*
X133820000Y-66125000I0J-135000D01*
G01*
X133820000Y-66395000D01*
G75*
G02*
X133685000Y-66530000I-135000J0D01*
G01*
X133315000Y-66530000D01*
G75*
G02*
X133180000Y-66395000I0J135000D01*
G01*
X133180000Y-66125000D01*
G75*
G02*
X133315000Y-65990000I135000J0D01*
G01*
G37*
G36*
G01*
X133115000Y-77480000D02*
X133485000Y-77480000D01*
G75*
G02*
X133620000Y-77615000I0J-135000D01*
G01*
X133620000Y-77885000D01*
G75*
G02*
X133485000Y-78020000I-135000J0D01*
G01*
X133115000Y-78020000D01*
G75*
G02*
X132980000Y-77885000I0J135000D01*
G01*
X132980000Y-77615000D01*
G75*
G02*
X133115000Y-77480000I135000J0D01*
G01*
G37*
G36*
G01*
X133115000Y-78500000D02*
X133485000Y-78500000D01*
G75*
G02*
X133620000Y-78635000I0J-135000D01*
G01*
X133620000Y-78905000D01*
G75*
G02*
X133485000Y-79040000I-135000J0D01*
G01*
X133115000Y-79040000D01*
G75*
G02*
X132980000Y-78905000I0J135000D01*
G01*
X132980000Y-78635000D01*
G75*
G02*
X133115000Y-78500000I135000J0D01*
G01*
G37*
M02*
