M48
INCH,TZ
T1C0.0157
T2C0.0350
T3C0.0374
T4C0.0394
T5C0.0618
T6C0.0906
T7C0.1260
%
G90
G05
T1
X39961Y-29528
X39961Y-33465
X40748Y-27362
X41535Y-31299
X42717Y-37205
X43110Y-24606
X43110Y-36417
X43701Y-37008
X43720Y-33819
X44114Y-32008
X44114Y-35512
X44744Y-36555
X45039Y-32776
X45079Y-25787
X45335Y-31752
X45354Y-41732
X45354Y-51969
X46024Y-41732
X46024Y-51969
X46457Y-24409
X46654Y-32677
X46850Y-39370
X46850Y-39961
X47047Y-27559
X47146Y-33701
X47244Y-35630
X47638Y-27559
X48346Y-41732
X48346Y-51969
X48425Y-27165
X48622Y-29921
X48622Y-32480
X48622Y-35236
X48819Y-26969
X49016Y-37992
X52362Y-25079
X52480Y-31732
X52480Y-34173
X52480Y-39685
X52559Y-28031
X52819Y-38559
X53780Y-38583
X54213Y-40787
T2
X42608Y-30891
X42608Y-31691
X42608Y-32491
X42608Y-33291
X43309Y-30491
X43309Y-31291
X43309Y-32091
X43309Y-32891
X45207Y-29189
X45207Y-30091
X45207Y-33689
X45207Y-34591
T3
X44630Y-40354
X44630Y-41339
X44630Y-42126
X44630Y-43110
X44630Y-50591
X44630Y-51575
X44630Y-52362
X44630Y-53346
T4
X47608Y-46746
X47608Y-47746
X48608Y-46746
X48608Y-47746
X49608Y-46746
X49608Y-47746
X50608Y-46746
X50608Y-47746
X51608Y-46746
X51608Y-47746
X53937Y-25197
X53937Y-26197
X53937Y-27197
X53937Y-28197
X53937Y-29197
X53937Y-32677
X53937Y-33677
X53937Y-34677
X53937Y-35677
X53937Y-36677
X54937Y-25197
X54937Y-26197
X54937Y-27197
X54937Y-28197
X54937Y-29197
X54937Y-32677
X54937Y-33677
X54937Y-34677
X54937Y-35677
X54937Y-36677
X56191Y-45246
X56191Y-46246
X56191Y-47246
X56191Y-48246
X56191Y-49246
X57191Y-45246
X57191Y-46246
X57191Y-47246
X57191Y-48246
X57191Y-49246
T5
X42959Y-28689
X42959Y-35091
T6
X43563Y-39146
X43563Y-44319
X43563Y-49382
X43563Y-54555
T7
X40945Y-57480
T0
M30
