M48
; DRILL file {KiCad 6.0.5+dfsg-1~bpo11+1} date Fri Jan 20 13:15:39 2023
; FORMAT={-:-/ absolute / metric / decimal}
; #@! TF.CreationDate,2023-01-20T13:15:39+00:00
; #@! TF.GenerationSoftware,Kicad,Pcbnew,6.0.5+dfsg-1~bpo11+1
; #@! TF.FileFunction,MixedPlating,1,2
FMAT,2
METRIC
; #@! TA.AperFunction,Plated,PTH,ViaDrill
T1C0.400
; #@! TA.AperFunction,Plated,PTH,ComponentDrill
T2C0.890
; #@! TA.AperFunction,Plated,PTH,ComponentDrill
T3C0.950
; #@! TA.AperFunction,Plated,PTH,ComponentDrill
T4C1.000
; #@! TA.AperFunction,Plated,PTH,ComponentDrill
T5C1.570
; #@! TA.AperFunction,Plated,PTH,ComponentDrill
T6C2.300
; #@! TA.AperFunction,Plated,PTH,ComponentDrill
T7C3.200
; #@! TA.AperFunction,NonPlated,NPTH,ComponentDrill
T8C3.200
; #@! TA.AperFunction,NonPlated,NPTH,ComponentDrill
T9C3.250
%
G90
G05
T1
X101.5Y-75.0
X101.5Y-85.0
X103.5Y-69.5
X105.5Y-79.5
X108.5Y-94.5
X109.5Y-62.5
X109.5Y-92.5
X111.0Y-94.0
X111.05Y-85.9
X112.05Y-81.3
X112.05Y-90.2
X113.65Y-92.85
X114.4Y-83.25
X114.5Y-65.5
X115.15Y-80.65
X115.2Y-106.0
X115.2Y-132.0
X116.9Y-106.0
X116.9Y-132.0
X118.0Y-62.0
X118.5Y-83.0
X119.0Y-100.0
X119.0Y-101.5
X119.5Y-70.0
X119.75Y-85.6
X120.0Y-90.5
X121.0Y-70.0
X122.8Y-106.0
X122.8Y-132.0
X123.0Y-69.0
X123.5Y-76.0
X123.5Y-82.5
X123.5Y-89.5
X124.0Y-68.5
X124.5Y-96.5
X133.0Y-63.7
X133.3Y-80.6
X133.3Y-86.8
X133.3Y-100.8
X133.5Y-71.2
X134.161Y-97.939
X136.6Y-98.0
X137.7Y-103.6
T2
X108.225Y-78.464
X108.225Y-80.496
X108.225Y-82.528
X108.225Y-84.56
X110.005Y-77.448
X110.005Y-79.48
X110.005Y-81.512
X110.005Y-83.544
X114.825Y-74.14
X114.825Y-76.43
X114.825Y-85.57
X114.825Y-87.86
T3
X113.36Y-102.5
X113.36Y-105.0
X113.36Y-107.0
X113.36Y-109.5
X113.36Y-128.5
X113.36Y-131.0
X113.36Y-133.0
X113.36Y-135.5
T4
X120.925Y-118.735
X120.925Y-121.275
X123.465Y-118.735
X123.465Y-121.275
X126.005Y-118.735
X126.005Y-121.275
X128.545Y-118.735
X128.545Y-121.275
X131.085Y-118.735
X131.085Y-121.275
X137.0Y-64.0
X137.0Y-66.54
X137.0Y-69.08
X137.0Y-71.62
X137.0Y-74.16
X137.0Y-83.0
X137.0Y-85.54
X137.0Y-88.08
X137.0Y-90.62
X137.0Y-93.16
X139.54Y-64.0
X139.54Y-66.54
X139.54Y-69.08
X139.54Y-71.62
X139.54Y-74.16
X139.54Y-83.0
X139.54Y-85.54
X139.54Y-88.08
X139.54Y-90.62
X139.54Y-93.16
X142.725Y-114.925
X142.725Y-117.465
X142.725Y-120.005
X142.725Y-122.545
X142.725Y-125.085
X145.265Y-114.925
X145.265Y-117.465
X145.265Y-120.005
X145.265Y-122.545
X145.265Y-125.085
T5
X109.115Y-72.87
X109.115Y-89.13
T6
X110.65Y-99.43
X110.65Y-112.57
X110.65Y-125.43
X110.65Y-138.57
T7
X104.0Y-146.0
T8
X104.0Y-64.0
T9
X105.685Y-74.65
X105.685Y-87.35
T0
M30
