M48
; DRILL file {KiCad 7.0.9-7.0.9~ubuntu23.04.1} date Sat Jan 20 22:40:33 2024
; FORMAT={-:-/ absolute / metric / decimal}
; #@! TF.CreationDate,2024-01-20T22:40:33+00:00
; #@! TF.GenerationSoftware,Kicad,Pcbnew,7.0.9-7.0.9~ubuntu23.04.1
; #@! TF.FileFunction,MixedPlating,1,2
FMAT,2
METRIC
; #@! TA.AperFunction,Plated,PTH,ViaDrill
T1C0.400
; #@! TA.AperFunction,Plated,PTH,ComponentDrill
T2C0.890
; #@! TA.AperFunction,Plated,PTH,ComponentDrill
T3C0.950
; #@! TA.AperFunction,Plated,PTH,ComponentDrill
T4C1.000
; #@! TA.AperFunction,Plated,PTH,ComponentDrill
T5C1.570
; #@! TA.AperFunction,Plated,PTH,ComponentDrill
T6C2.300
; #@! TA.AperFunction,Plated,PTH,ComponentDrill
T7C3.200
; #@! TA.AperFunction,NonPlated,NPTH,ComponentDrill
T8C3.250
%
G90
G05
T1
X101.5Y-75.0
X101.5Y-85.0
X105.5Y-92.0
X106.5Y-80.5
X108.5Y-94.5
X110.5Y-92.0
X111.05Y-85.9
X112.0Y-79.5
X112.5Y-78.0
X113.5Y-82.5
X114.0Y-93.0
X115.0Y-81.0
X115.2Y-106.0
X115.2Y-132.0
X115.5Y-94.0
X116.9Y-106.0
X116.9Y-132.0
X117.0Y-84.0
X117.2Y-72.0
X117.5Y-81.0
X118.5Y-83.0
X119.0Y-100.0
X119.0Y-101.5
X119.75Y-85.6
X120.0Y-90.5
X121.0Y-67.0
X121.0Y-70.0
X121.0Y-81.0
X122.8Y-106.0
X122.8Y-132.0
X123.0Y-69.0
X123.5Y-76.0
X123.5Y-82.5
X123.5Y-89.5
X124.0Y-68.5
X124.5Y-96.5
X133.25Y-77.0
X133.3Y-79.86
X133.3Y-86.8
X133.3Y-100.8
X134.161Y-97.939
X134.485Y-65.015
X135.45Y-68.95
X135.5Y-70.5
X136.25Y-76.5
X136.6Y-98.0
X137.0Y-79.25
X137.7Y-103.6
X139.25Y-76.5
X139.5Y-81.0
X141.5Y-69.75
X141.5Y-81.75
T2
X108.225Y-78.464
X108.225Y-80.496
X108.225Y-82.528
X108.225Y-84.56
X110.005Y-77.448
X110.005Y-79.48
X110.005Y-81.512
X110.005Y-83.544
X114.825Y-74.14
X114.825Y-76.43
X114.825Y-85.57
X114.825Y-87.86
T3
X113.36Y-102.5
X113.36Y-105.0
X113.36Y-107.0
X113.36Y-109.5
X113.36Y-128.5
X113.36Y-131.0
X113.36Y-133.0
X113.36Y-135.5
T4
X120.925Y-118.735
X120.925Y-121.275
X123.465Y-118.735
X123.465Y-121.275
X126.005Y-118.735
X126.005Y-121.275
X128.545Y-118.735
X128.545Y-121.275
X131.085Y-118.735
X131.085Y-121.275
X137.0Y-64.0
X137.0Y-66.54
X137.0Y-69.08
X137.0Y-71.62
X137.0Y-74.16
X137.0Y-83.0
X137.0Y-85.54
X137.0Y-88.08
X137.0Y-90.62
X137.0Y-93.16
X139.54Y-64.0
X139.54Y-66.54
X139.54Y-69.08
X139.54Y-71.62
X139.54Y-74.16
X139.54Y-83.0
X139.54Y-85.54
X139.54Y-88.08
X139.54Y-90.62
X139.54Y-93.16
X142.725Y-114.925
X142.725Y-117.465
X142.725Y-120.005
X142.725Y-122.545
X142.725Y-125.085
X145.265Y-114.925
X145.265Y-117.465
X145.265Y-120.005
X145.265Y-122.545
X145.265Y-125.085
T5
X109.115Y-72.87
X109.115Y-89.13
T6
X110.65Y-99.43
X110.65Y-112.57
X110.65Y-125.43
X110.65Y-138.57
T7
X104.0Y-64.0
X104.0Y-146.0
T8
X105.685Y-74.65
X105.685Y-87.35
T0
M30
