G04 #@! TF.GenerationSoftware,KiCad,Pcbnew,7.0.9-7.0.9~ubuntu23.04.1*
G04 #@! TF.CreationDate,2024-01-20T22:46:23+00:00*
G04 #@! TF.ProjectId,nascontrol-remote,6e617363-6f6e-4747-926f-6c2d72656d6f,rev?*
G04 #@! TF.SameCoordinates,Original*
G04 #@! TF.FileFunction,Copper,L2,Bot*
G04 #@! TF.FilePolarity,Positive*
%FSLAX46Y46*%
G04 Gerber Fmt 4.6, Leading zero omitted, Abs format (unit mm)*
G04 Created by KiCad (PCBNEW 7.0.9-7.0.9~ubuntu23.04.1) date 2024-01-20 22:46:23*
%MOMM*%
%LPD*%
G01*
G04 APERTURE LIST*
G04 #@! TA.AperFunction,ComponentPad*
%ADD10C,6.400000*%
G04 #@! TD*
G04 #@! TA.AperFunction,ComponentPad*
%ADD11R,1.500000X1.600000*%
G04 #@! TD*
G04 #@! TA.AperFunction,ComponentPad*
%ADD12C,1.600000*%
G04 #@! TD*
G04 #@! TA.AperFunction,ComponentPad*
%ADD13C,3.000000*%
G04 #@! TD*
G04 #@! TA.AperFunction,ComponentPad*
%ADD14R,1.500000X1.500000*%
G04 #@! TD*
G04 #@! TA.AperFunction,ComponentPad*
%ADD15C,1.500000*%
G04 #@! TD*
G04 #@! TA.AperFunction,ComponentPad*
%ADD16C,2.300000*%
G04 #@! TD*
G04 #@! TA.AperFunction,ComponentPad*
%ADD17R,1.700000X1.700000*%
G04 #@! TD*
G04 #@! TA.AperFunction,ComponentPad*
%ADD18O,1.700000X1.700000*%
G04 #@! TD*
G04 #@! TA.AperFunction,ViaPad*
%ADD19C,0.800000*%
G04 #@! TD*
G04 #@! TA.AperFunction,Conductor*
%ADD20C,0.500000*%
G04 #@! TD*
G04 #@! TA.AperFunction,Conductor*
%ADD21C,0.250000*%
G04 #@! TD*
G04 #@! TA.AperFunction,Conductor*
%ADD22C,0.200000*%
G04 #@! TD*
G04 APERTURE END LIST*
D10*
X104000000Y-146000000D03*
D11*
X113360000Y-128500000D03*
D12*
X113360000Y-131000000D03*
X113360000Y-133000000D03*
X113360000Y-135500000D03*
D13*
X110650000Y-125430000D03*
X110650000Y-138570000D03*
D14*
X108225000Y-84560000D03*
D15*
X110005000Y-83544000D03*
X108225000Y-82528000D03*
X110005000Y-81512000D03*
X108225000Y-80496000D03*
X110005000Y-79480000D03*
X108225000Y-78464000D03*
X110005000Y-77448000D03*
X114825000Y-87860000D03*
X114825000Y-85570000D03*
X114825000Y-76430000D03*
X114825000Y-74140000D03*
D16*
X109115000Y-89130000D03*
X109115000Y-72870000D03*
D17*
X142725000Y-114925000D03*
D18*
X145265000Y-114925000D03*
X142725000Y-117465000D03*
X145265000Y-117465000D03*
X142725000Y-120005000D03*
X145265000Y-120005000D03*
X142725000Y-122545000D03*
X145265000Y-122545000D03*
X142725000Y-125085000D03*
X145265000Y-125085000D03*
D17*
X137000000Y-64000000D03*
D18*
X139540000Y-64000000D03*
X137000000Y-66540000D03*
X139540000Y-66540000D03*
X137000000Y-69080000D03*
X139540000Y-69080000D03*
X137000000Y-71620000D03*
X139540000Y-71620000D03*
X137000000Y-74160000D03*
X139540000Y-74160000D03*
D17*
X120925000Y-121275000D03*
D18*
X120925000Y-118735000D03*
X123465000Y-121275000D03*
X123465000Y-118735000D03*
X126005000Y-121275000D03*
X126005000Y-118735000D03*
X128545000Y-121275000D03*
X128545000Y-118735000D03*
X131085000Y-121275000D03*
X131085000Y-118735000D03*
D10*
X104000000Y-64000000D03*
D17*
X137000000Y-83000000D03*
D18*
X139540000Y-83000000D03*
X137000000Y-85540000D03*
X139540000Y-85540000D03*
X137000000Y-88080000D03*
X139540000Y-88080000D03*
X137000000Y-90620000D03*
X139540000Y-90620000D03*
X137000000Y-93160000D03*
X139540000Y-93160000D03*
D11*
X113360000Y-102500000D03*
D12*
X113360000Y-105000000D03*
X113360000Y-107000000D03*
X113360000Y-109500000D03*
D13*
X110650000Y-99430000D03*
X110650000Y-112570000D03*
D19*
X118500000Y-83000000D03*
X119000000Y-100000000D03*
X123500000Y-89500000D03*
X123500000Y-82500000D03*
X108500000Y-94500000D03*
X106500000Y-80500000D03*
X113500000Y-82500000D03*
X115000000Y-81000000D03*
X119000000Y-101500000D03*
X123000000Y-69000000D03*
X101500000Y-75000000D03*
X101500000Y-85000000D03*
X115500000Y-94000000D03*
X105500000Y-92000000D03*
X110500000Y-92000000D03*
X112000000Y-79500000D03*
X124000000Y-68500000D03*
X124500000Y-96500000D03*
X120000000Y-90500000D03*
X112500000Y-78000000D03*
X119750000Y-85600000D03*
X111050000Y-85900000D03*
X133300000Y-100800000D03*
X133300000Y-86800000D03*
X122800000Y-106000000D03*
X133300000Y-79860000D03*
X115200000Y-132000000D03*
X139250000Y-76500000D03*
X116900000Y-132000000D03*
X137000000Y-79250000D03*
X139500000Y-81000000D03*
X136250000Y-76500000D03*
X116900000Y-106000000D03*
X115200000Y-106000000D03*
X114000000Y-93000000D03*
X137700000Y-103600000D03*
X121000000Y-67000000D03*
X117500000Y-81000000D03*
X121000000Y-81000000D03*
X117200000Y-72000000D03*
X117000000Y-84000000D03*
X134485025Y-65014975D03*
X135450000Y-68950000D03*
X141500000Y-69750000D03*
X141500000Y-81750000D03*
X135500000Y-70500000D03*
X133250000Y-77000000D03*
X122800000Y-132000000D03*
X121000000Y-70000000D03*
X123500000Y-76000000D03*
X134161166Y-97938834D03*
X136600000Y-98000000D03*
D20*
X106920102Y-83109694D02*
X106920102Y-85579898D01*
X106920102Y-85579898D02*
X108000000Y-86659796D01*
X113747742Y-91500000D02*
X118500000Y-91500000D01*
X108000000Y-86659796D02*
X108907538Y-86659796D01*
X118500000Y-99500000D02*
X119000000Y-100000000D01*
X118500000Y-83000000D02*
X118500000Y-91500000D01*
X108225000Y-82528000D02*
X107501796Y-82528000D01*
X107501796Y-82528000D02*
X106920102Y-83109694D01*
X108907538Y-86659796D02*
X113747742Y-91500000D01*
X118500000Y-91500000D02*
X118500000Y-99500000D01*
X120525000Y-103725000D02*
X122800000Y-106000000D01*
X115750000Y-102500000D02*
X117000000Y-103750000D01*
X120500000Y-103750000D02*
X120525000Y-103725000D01*
X133300000Y-86800000D02*
X133300000Y-100800000D01*
X113360000Y-102500000D02*
X115750000Y-102500000D01*
X120925000Y-107875000D02*
X122800000Y-106000000D01*
X133300000Y-86800000D02*
X133300000Y-79860000D01*
X117000000Y-103750000D02*
X120500000Y-103750000D01*
X120925000Y-118735000D02*
X120925000Y-107875000D01*
X114000000Y-93000000D02*
X108329796Y-93000000D01*
X108225000Y-80496000D02*
X103560000Y-85161000D01*
X103560000Y-85161000D02*
X103560000Y-88230204D01*
X108329796Y-93000000D02*
X103560000Y-88230204D01*
D21*
X137700000Y-112440000D02*
X142725000Y-117465000D01*
X137700000Y-103600000D02*
X137700000Y-112440000D01*
X119392340Y-67000000D02*
X121000000Y-67000000D01*
X110005000Y-77448000D02*
X110005000Y-76387340D01*
X110005000Y-76387340D02*
X119392340Y-67000000D01*
X117500000Y-81000000D02*
X121000000Y-81000000D01*
X110005000Y-83544000D02*
X117200000Y-76349000D01*
X117200000Y-76349000D02*
X117200000Y-72000000D01*
X108225000Y-84560000D02*
X108284000Y-84619000D01*
X110881000Y-84619000D02*
X111500000Y-84000000D01*
X108284000Y-84619000D02*
X110881000Y-84619000D01*
X111500000Y-84000000D02*
X117000000Y-84000000D01*
D22*
X134485025Y-65014975D02*
X135500000Y-64000000D01*
X135500000Y-64000000D02*
X137000000Y-64000000D01*
X134485025Y-65014975D02*
X134485025Y-80485025D01*
X134485025Y-80485025D02*
X137000000Y-83000000D01*
X136763654Y-65150000D02*
X138390000Y-65150000D01*
X135450000Y-66463654D02*
X136763654Y-65150000D01*
X135450000Y-68950000D02*
X135450000Y-66463654D01*
X138390000Y-65150000D02*
X139540000Y-64000000D01*
X139303654Y-67930000D02*
X137913654Y-66540000D01*
X141500000Y-69750000D02*
X141500000Y-69413654D01*
X137913654Y-66540000D02*
X137000000Y-66540000D01*
X139860000Y-84390000D02*
X141500000Y-82750000D01*
X141500000Y-69413654D02*
X140016346Y-67930000D01*
X139860000Y-84390000D02*
X138150000Y-84390000D01*
X141500000Y-82750000D02*
X141500000Y-81750000D01*
X138150000Y-84390000D02*
X137000000Y-85540000D01*
X140016346Y-67930000D02*
X139303654Y-67930000D01*
D21*
X134025000Y-86766701D02*
X134025000Y-77775000D01*
X139540000Y-90620000D02*
X138175000Y-89255000D01*
X135500000Y-70500000D02*
X135555000Y-70445000D01*
X135555000Y-70445000D02*
X138365000Y-70445000D01*
X138365000Y-70445000D02*
X139540000Y-71620000D01*
X138175000Y-89255000D02*
X136513299Y-89255000D01*
X136513299Y-89255000D02*
X134025000Y-86766701D01*
X134025000Y-77775000D02*
X133250000Y-77000000D01*
D20*
X113360000Y-128500000D02*
X119300000Y-128500000D01*
X119300000Y-128500000D02*
X122800000Y-132000000D01*
X120925000Y-126875000D02*
X119300000Y-128500000D01*
X120925000Y-121275000D02*
X120925000Y-126875000D01*
D21*
X121000000Y-73500000D02*
X123500000Y-76000000D01*
X121000000Y-70000000D02*
X121000000Y-73500000D01*
X134161166Y-97938834D02*
X136561166Y-97938834D01*
G04 #@! TA.AperFunction,Conductor*
G36*
X149985148Y-60014852D02*
G01*
X149999500Y-60049500D01*
X149999500Y-149950500D01*
X149985148Y-149985148D01*
X149950500Y-149999500D01*
X100049500Y-149999500D01*
X100014852Y-149985148D01*
X100000500Y-149950500D01*
X100000500Y-138570000D01*
X108636807Y-138570000D01*
X108655557Y-138844132D01*
X108711459Y-139113145D01*
X108803476Y-139372056D01*
X108803481Y-139372066D01*
X108929887Y-139616019D01*
X108929891Y-139616027D01*
X109009116Y-139728262D01*
X109088343Y-139840502D01*
X109275889Y-140041314D01*
X109489031Y-140214718D01*
X109489032Y-140214719D01*
X109555131Y-140254914D01*
X109723800Y-140357484D01*
X109975823Y-140466953D01*
X110240404Y-140541085D01*
X110461014Y-140571407D01*
X110512614Y-140578500D01*
X110512615Y-140578500D01*
X110787386Y-140578500D01*
X110830763Y-140572537D01*
X111059596Y-140541085D01*
X111324177Y-140466953D01*
X111576200Y-140357484D01*
X111810969Y-140214718D01*
X112024111Y-140041314D01*
X112211657Y-139840502D01*
X112370111Y-139616023D01*
X112496523Y-139372058D01*
X112588538Y-139113153D01*
X112644442Y-138844130D01*
X112663193Y-138570000D01*
X112644442Y-138295870D01*
X112644442Y-138295867D01*
X112588540Y-138026854D01*
X112496523Y-137767943D01*
X112496518Y-137767933D01*
X112370111Y-137523977D01*
X112370109Y-137523974D01*
X112370108Y-137523972D01*
X112319179Y-137451823D01*
X112211657Y-137299498D01*
X112024111Y-137098686D01*
X111810969Y-136925282D01*
X111810968Y-136925281D01*
X111810967Y-136925280D01*
X111678768Y-136844889D01*
X111576200Y-136782516D01*
X111576197Y-136782514D01*
X111576196Y-136782514D01*
X111324178Y-136673047D01*
X111059598Y-136598915D01*
X110787386Y-136561500D01*
X110787385Y-136561500D01*
X110512615Y-136561500D01*
X110512614Y-136561500D01*
X110240401Y-136598915D01*
X109975821Y-136673047D01*
X109723803Y-136782514D01*
X109723800Y-136782516D01*
X109489032Y-136925280D01*
X109489031Y-136925281D01*
X109275897Y-137098679D01*
X109275886Y-137098689D01*
X109088347Y-137299493D01*
X109088341Y-137299501D01*
X108929891Y-137523972D01*
X108929887Y-137523980D01*
X108803481Y-137767933D01*
X108803476Y-137767943D01*
X108711459Y-138026854D01*
X108655557Y-138295867D01*
X108636807Y-138570000D01*
X100000500Y-138570000D01*
X100000500Y-125430000D01*
X108636807Y-125430000D01*
X108655557Y-125704132D01*
X108711459Y-125973145D01*
X108803476Y-126232056D01*
X108803481Y-126232066D01*
X108929887Y-126476019D01*
X108929891Y-126476027D01*
X108975418Y-126540523D01*
X109088343Y-126700502D01*
X109275889Y-126901314D01*
X109352518Y-126963656D01*
X109489031Y-127074718D01*
X109489032Y-127074719D01*
X109555131Y-127114914D01*
X109723800Y-127217484D01*
X109975823Y-127326953D01*
X110240404Y-127401085D01*
X110454171Y-127430467D01*
X110512614Y-127438500D01*
X110512615Y-127438500D01*
X110787386Y-127438500D01*
X110845814Y-127430469D01*
X111059596Y-127401085D01*
X111324177Y-127326953D01*
X111576200Y-127217484D01*
X111810969Y-127074718D01*
X112024111Y-126901314D01*
X112211657Y-126700502D01*
X112370111Y-126476023D01*
X112496523Y-126232058D01*
X112588538Y-125973153D01*
X112599113Y-125922266D01*
X112644442Y-125704132D01*
X112648285Y-125647942D01*
X112663193Y-125430000D01*
X112644442Y-125155870D01*
X112644442Y-125155867D01*
X112588540Y-124886854D01*
X112579220Y-124860631D01*
X112496523Y-124627942D01*
X112370111Y-124383977D01*
X112370109Y-124383974D01*
X112370108Y-124383972D01*
X112319179Y-124311823D01*
X112211657Y-124159498D01*
X112024111Y-123958686D01*
X111874119Y-123836658D01*
X111810968Y-123785281D01*
X111810967Y-123785280D01*
X111678768Y-123704889D01*
X111576200Y-123642516D01*
X111576197Y-123642514D01*
X111576196Y-123642514D01*
X111324178Y-123533047D01*
X111059598Y-123458915D01*
X110787386Y-123421500D01*
X110787385Y-123421500D01*
X110512615Y-123421500D01*
X110512614Y-123421500D01*
X110240401Y-123458915D01*
X109975821Y-123533047D01*
X109723803Y-123642514D01*
X109723800Y-123642516D01*
X109489032Y-123785280D01*
X109489031Y-123785281D01*
X109275897Y-123958679D01*
X109275886Y-123958689D01*
X109088347Y-124159493D01*
X109088341Y-124159501D01*
X108929891Y-124383972D01*
X108929887Y-124383980D01*
X108803481Y-124627933D01*
X108803476Y-124627943D01*
X108711459Y-124886854D01*
X108655557Y-125155867D01*
X108636807Y-125430000D01*
X100000500Y-125430000D01*
X100000500Y-112570000D01*
X108636807Y-112570000D01*
X108655557Y-112844132D01*
X108711459Y-113113145D01*
X108803476Y-113372056D01*
X108803481Y-113372066D01*
X108929887Y-113616019D01*
X108929891Y-113616027D01*
X108997452Y-113711739D01*
X109088343Y-113840502D01*
X109275889Y-114041314D01*
X109489031Y-114214718D01*
X109489032Y-114214719D01*
X109546453Y-114249637D01*
X109723800Y-114357484D01*
X109975823Y-114466953D01*
X110240404Y-114541085D01*
X110461014Y-114571407D01*
X110512614Y-114578500D01*
X110512615Y-114578500D01*
X110787386Y-114578500D01*
X110830763Y-114572537D01*
X111059596Y-114541085D01*
X111324177Y-114466953D01*
X111576200Y-114357484D01*
X111810969Y-114214718D01*
X112024111Y-114041314D01*
X112211657Y-113840502D01*
X112370111Y-113616023D01*
X112496523Y-113372058D01*
X112588538Y-113113153D01*
X112631252Y-112907605D01*
X112644442Y-112844132D01*
X112648396Y-112786327D01*
X112663193Y-112570000D01*
X112644442Y-112295870D01*
X112644442Y-112295867D01*
X112588540Y-112026854D01*
X112496523Y-111767943D01*
X112496518Y-111767933D01*
X112370111Y-111523977D01*
X112370109Y-111523974D01*
X112370108Y-111523972D01*
X112319179Y-111451823D01*
X112211657Y-111299498D01*
X112024111Y-111098686D01*
X111810969Y-110925282D01*
X111810968Y-110925281D01*
X111810967Y-110925280D01*
X111678768Y-110844889D01*
X111576200Y-110782516D01*
X111576197Y-110782514D01*
X111576196Y-110782514D01*
X111324178Y-110673047D01*
X111059598Y-110598915D01*
X110787386Y-110561500D01*
X110787385Y-110561500D01*
X110512615Y-110561500D01*
X110512614Y-110561500D01*
X110240401Y-110598915D01*
X109975821Y-110673047D01*
X109723803Y-110782514D01*
X109723800Y-110782516D01*
X109489032Y-110925280D01*
X109489031Y-110925281D01*
X109275897Y-111098679D01*
X109275886Y-111098689D01*
X109088347Y-111299493D01*
X109088341Y-111299501D01*
X108929891Y-111523972D01*
X108929887Y-111523980D01*
X108803481Y-111767933D01*
X108803476Y-111767943D01*
X108711459Y-112026854D01*
X108655557Y-112295867D01*
X108636807Y-112570000D01*
X100000500Y-112570000D01*
X100000500Y-99430000D01*
X108636807Y-99430000D01*
X108655557Y-99704132D01*
X108711459Y-99973145D01*
X108803476Y-100232056D01*
X108803481Y-100232066D01*
X108929887Y-100476019D01*
X108929891Y-100476027D01*
X109009116Y-100588262D01*
X109088343Y-100700502D01*
X109275889Y-100901314D01*
X109351780Y-100963056D01*
X109489031Y-101074718D01*
X109489032Y-101074719D01*
X109555131Y-101114914D01*
X109723800Y-101217484D01*
X109975823Y-101326953D01*
X110240404Y-101401085D01*
X110461014Y-101431407D01*
X110512614Y-101438500D01*
X110512615Y-101438500D01*
X110787386Y-101438500D01*
X110830763Y-101432537D01*
X111059596Y-101401085D01*
X111324177Y-101326953D01*
X111576200Y-101217484D01*
X111810969Y-101074718D01*
X112024111Y-100901314D01*
X112211657Y-100700502D01*
X112370111Y-100476023D01*
X112496523Y-100232058D01*
X112588538Y-99973153D01*
X112622427Y-99810072D01*
X112644442Y-99704132D01*
X112653131Y-99577095D01*
X112663193Y-99430000D01*
X112644442Y-99155870D01*
X112644442Y-99155867D01*
X112588540Y-98886854D01*
X112582121Y-98868794D01*
X112496523Y-98627942D01*
X112370111Y-98383977D01*
X112370109Y-98383974D01*
X112370108Y-98383972D01*
X112319179Y-98311823D01*
X112211657Y-98159498D01*
X112024111Y-97958686D01*
X111810969Y-97785282D01*
X111810968Y-97785281D01*
X111810967Y-97785280D01*
X111678768Y-97704889D01*
X111576200Y-97642516D01*
X111576197Y-97642514D01*
X111576196Y-97642514D01*
X111324178Y-97533047D01*
X111059598Y-97458915D01*
X110787386Y-97421500D01*
X110787385Y-97421500D01*
X110512615Y-97421500D01*
X110512614Y-97421500D01*
X110240401Y-97458915D01*
X109975821Y-97533047D01*
X109723803Y-97642514D01*
X109723800Y-97642516D01*
X109489032Y-97785280D01*
X109489031Y-97785281D01*
X109275897Y-97958679D01*
X109275886Y-97958689D01*
X109088347Y-98159493D01*
X109088341Y-98159501D01*
X108929891Y-98383972D01*
X108929887Y-98383980D01*
X108803481Y-98627933D01*
X108803476Y-98627943D01*
X108711459Y-98886854D01*
X108655557Y-99155867D01*
X108636807Y-99430000D01*
X100000500Y-99430000D01*
X100000500Y-96049000D01*
X100014852Y-96014352D01*
X100049500Y-96000000D01*
X111986428Y-96000000D01*
X112011638Y-96006983D01*
X116976210Y-98985726D01*
X116998537Y-99015859D01*
X117000000Y-99027743D01*
X117000000Y-102559023D01*
X116985648Y-102593671D01*
X116951000Y-102608023D01*
X116916352Y-102593671D01*
X116327940Y-102005259D01*
X116323284Y-101999871D01*
X116305471Y-101975943D01*
X116305466Y-101975938D01*
X116264556Y-101941611D01*
X116261404Y-101938723D01*
X116255100Y-101932419D01*
X116229647Y-101912293D01*
X116228571Y-101911417D01*
X116169640Y-101861968D01*
X116164134Y-101859203D01*
X116155739Y-101853853D01*
X116150910Y-101850035D01*
X116081176Y-101817516D01*
X116079894Y-101816895D01*
X116011189Y-101782391D01*
X116005197Y-101780971D01*
X115995793Y-101777702D01*
X115990206Y-101775097D01*
X115990204Y-101775096D01*
X115990203Y-101775096D01*
X115914826Y-101759531D01*
X115913435Y-101759222D01*
X115856073Y-101745627D01*
X115838656Y-101741500D01*
X115838655Y-101741500D01*
X115832506Y-101741500D01*
X115822598Y-101740488D01*
X115816560Y-101739241D01*
X115816556Y-101739241D01*
X115739642Y-101741479D01*
X115738217Y-101741500D01*
X114667500Y-101741500D01*
X114632852Y-101727148D01*
X114618500Y-101692500D01*
X114618500Y-101651355D01*
X114611989Y-101590802D01*
X114611989Y-101590799D01*
X114594248Y-101543236D01*
X114560890Y-101453798D01*
X114560889Y-101453797D01*
X114560889Y-101453796D01*
X114473261Y-101336739D01*
X114356204Y-101249111D01*
X114356203Y-101249110D01*
X114356201Y-101249109D01*
X114219205Y-101198012D01*
X114219197Y-101198010D01*
X114158645Y-101191500D01*
X114158638Y-101191500D01*
X112561362Y-101191500D01*
X112561355Y-101191500D01*
X112500802Y-101198010D01*
X112500794Y-101198012D01*
X112363798Y-101249109D01*
X112363794Y-101249112D01*
X112246739Y-101336739D01*
X112159112Y-101453794D01*
X112159109Y-101453798D01*
X112108012Y-101590794D01*
X112108010Y-101590802D01*
X112101500Y-101651355D01*
X112101500Y-103348644D01*
X112108010Y-103409197D01*
X112108012Y-103409205D01*
X112159109Y-103546201D01*
X112159110Y-103546203D01*
X112159111Y-103546204D01*
X112246739Y-103663261D01*
X112363796Y-103750889D01*
X112363797Y-103750889D01*
X112363798Y-103750890D01*
X112453236Y-103784248D01*
X112500799Y-103801989D01*
X112518967Y-103803942D01*
X112561355Y-103808500D01*
X112561362Y-103808500D01*
X112624930Y-103808500D01*
X112659578Y-103822852D01*
X112673930Y-103857500D01*
X112659578Y-103892148D01*
X112653035Y-103897638D01*
X112515705Y-103993797D01*
X112515698Y-103993803D01*
X112353803Y-104155698D01*
X112353797Y-104155705D01*
X112222482Y-104343240D01*
X112222476Y-104343252D01*
X112125715Y-104550759D01*
X112125713Y-104550764D01*
X112066458Y-104771904D01*
X112066457Y-104771910D01*
X112046502Y-105000000D01*
X112066457Y-105228089D01*
X112066458Y-105228095D01*
X112125713Y-105449235D01*
X112125715Y-105449240D01*
X112125716Y-105449243D01*
X112132157Y-105463056D01*
X112222476Y-105656747D01*
X112222482Y-105656759D01*
X112353797Y-105844294D01*
X112353803Y-105844301D01*
X112474854Y-105965352D01*
X112489206Y-106000000D01*
X112474854Y-106034648D01*
X112353803Y-106155698D01*
X112353797Y-106155705D01*
X112222482Y-106343240D01*
X112222476Y-106343252D01*
X112125715Y-106550759D01*
X112125713Y-106550764D01*
X112066458Y-106771904D01*
X112066457Y-106771910D01*
X112046502Y-107000000D01*
X112066457Y-107228089D01*
X112066458Y-107228095D01*
X112125713Y-107449235D01*
X112125715Y-107449240D01*
X112125716Y-107449243D01*
X112137304Y-107474094D01*
X112222476Y-107656747D01*
X112222482Y-107656759D01*
X112353797Y-107844294D01*
X112353803Y-107844301D01*
X112515698Y-108006196D01*
X112515705Y-108006202D01*
X112703240Y-108137517D01*
X112703248Y-108137521D01*
X112703251Y-108137523D01*
X112910757Y-108234284D01*
X112910763Y-108234285D01*
X112910764Y-108234286D01*
X113131904Y-108293541D01*
X113131908Y-108293541D01*
X113131913Y-108293543D01*
X113360000Y-108313498D01*
X113588087Y-108293543D01*
X113588093Y-108293541D01*
X113588095Y-108293541D01*
X113698665Y-108263913D01*
X113809243Y-108234284D01*
X114016749Y-108137523D01*
X114016753Y-108137519D01*
X114016759Y-108137517D01*
X114204294Y-108006202D01*
X114204300Y-108006198D01*
X114366198Y-107844300D01*
X114402473Y-107792494D01*
X114497517Y-107656759D01*
X114497519Y-107656753D01*
X114497523Y-107656749D01*
X114594284Y-107449243D01*
X114629040Y-107319532D01*
X114653541Y-107228095D01*
X114653542Y-107228089D01*
X114653543Y-107228087D01*
X114673498Y-107000000D01*
X114653543Y-106771913D01*
X114594284Y-106550757D01*
X114497523Y-106343251D01*
X114497521Y-106343248D01*
X114497517Y-106343240D01*
X114366202Y-106155705D01*
X114366196Y-106155698D01*
X114245146Y-106034648D01*
X114230794Y-106000000D01*
X114245146Y-105965352D01*
X114245147Y-105965351D01*
X114366198Y-105844300D01*
X114390165Y-105810071D01*
X114497517Y-105656759D01*
X114497519Y-105656753D01*
X114497523Y-105656749D01*
X114594284Y-105449243D01*
X114653543Y-105228087D01*
X114673498Y-105000000D01*
X114653543Y-104771913D01*
X114594284Y-104550757D01*
X114497523Y-104343251D01*
X114497521Y-104343248D01*
X114497517Y-104343240D01*
X114366202Y-104155705D01*
X114366196Y-104155698D01*
X114204301Y-103993803D01*
X114204294Y-103993797D01*
X114066965Y-103897638D01*
X114046814Y-103866009D01*
X114054932Y-103829395D01*
X114086561Y-103809244D01*
X114095070Y-103808500D01*
X114158645Y-103808500D01*
X114197178Y-103804356D01*
X114219201Y-103801989D01*
X114356204Y-103750889D01*
X114473261Y-103663261D01*
X114560889Y-103546204D01*
X114611989Y-103409201D01*
X114614593Y-103384975D01*
X114618500Y-103348644D01*
X114618500Y-103307500D01*
X114632852Y-103272852D01*
X114667500Y-103258500D01*
X115415523Y-103258500D01*
X115450171Y-103272852D01*
X116422058Y-104244739D01*
X116426714Y-104250126D01*
X116444532Y-104274059D01*
X116444533Y-104274061D01*
X116485442Y-104308387D01*
X116488594Y-104311275D01*
X116494900Y-104317581D01*
X116520365Y-104337716D01*
X116521422Y-104338577D01*
X116580357Y-104388030D01*
X116580358Y-104388030D01*
X116580360Y-104388032D01*
X116585867Y-104390797D01*
X116594262Y-104396147D01*
X116599091Y-104399965D01*
X116599094Y-104399966D01*
X116599095Y-104399967D01*
X116668825Y-104432482D01*
X116670061Y-104433081D01*
X116738812Y-104467609D01*
X116744800Y-104469028D01*
X116754215Y-104472301D01*
X116759793Y-104474903D01*
X116773733Y-104477781D01*
X116835216Y-104490476D01*
X116836490Y-104490758D01*
X116911344Y-104508500D01*
X116917494Y-104508500D01*
X116927402Y-104509512D01*
X116929476Y-104509940D01*
X116933442Y-104510759D01*
X117010358Y-104508520D01*
X117011783Y-104508500D01*
X120215523Y-104508500D01*
X120250171Y-104522852D01*
X121692670Y-105965351D01*
X121707022Y-105999999D01*
X121692670Y-106034647D01*
X120430257Y-107297060D01*
X120424872Y-107301714D01*
X120400940Y-107319532D01*
X120366611Y-107360443D01*
X120363726Y-107363592D01*
X120357422Y-107369896D01*
X120357416Y-107369903D01*
X120337312Y-107395327D01*
X120336414Y-107396430D01*
X120286967Y-107455361D01*
X120284202Y-107460866D01*
X120278857Y-107469256D01*
X120275033Y-107474092D01*
X120242510Y-107543836D01*
X120241889Y-107545118D01*
X120207391Y-107613810D01*
X120207389Y-107613815D01*
X120205970Y-107619803D01*
X120202702Y-107629205D01*
X120200097Y-107634790D01*
X120200094Y-107634799D01*
X120184530Y-107710173D01*
X120184222Y-107711562D01*
X120166500Y-107786343D01*
X120166500Y-107792494D01*
X120165488Y-107802401D01*
X120164241Y-107808438D01*
X120164241Y-107808444D01*
X120166479Y-107885357D01*
X120166500Y-107886782D01*
X120166500Y-117579915D01*
X120152148Y-117614563D01*
X120147597Y-117618583D01*
X120001756Y-117732097D01*
X119849276Y-117897733D01*
X119726145Y-118086199D01*
X119726138Y-118086211D01*
X119688484Y-118172056D01*
X119635704Y-118292384D01*
X119580436Y-118510632D01*
X119561844Y-118735000D01*
X119580436Y-118959368D01*
X119633201Y-119167733D01*
X119635705Y-119177618D01*
X119726138Y-119383788D01*
X119726145Y-119383800D01*
X119849276Y-119572266D01*
X119849278Y-119572268D01*
X120001760Y-119737906D01*
X120118581Y-119828832D01*
X120137108Y-119861439D01*
X120127152Y-119897597D01*
X120094545Y-119916124D01*
X120088484Y-119916500D01*
X120026355Y-119916500D01*
X119965802Y-119923010D01*
X119965794Y-119923012D01*
X119828798Y-119974109D01*
X119828794Y-119974112D01*
X119711739Y-120061739D01*
X119624112Y-120178794D01*
X119624109Y-120178798D01*
X119573012Y-120315794D01*
X119573010Y-120315802D01*
X119566500Y-120376355D01*
X119566500Y-122173644D01*
X119573010Y-122234197D01*
X119573012Y-122234205D01*
X119624109Y-122371201D01*
X119624110Y-122371203D01*
X119624111Y-122371204D01*
X119711739Y-122488261D01*
X119828796Y-122575889D01*
X119828797Y-122575889D01*
X119828798Y-122575890D01*
X119918236Y-122609248D01*
X119965799Y-122626989D01*
X119983967Y-122628942D01*
X120026355Y-122633500D01*
X120026362Y-122633500D01*
X120117500Y-122633500D01*
X120152148Y-122647852D01*
X120166500Y-122682500D01*
X120166500Y-126540523D01*
X120152148Y-126575171D01*
X119000171Y-127727148D01*
X118965523Y-127741500D01*
X114667500Y-127741500D01*
X114632852Y-127727148D01*
X114618500Y-127692500D01*
X114618500Y-127651355D01*
X114611989Y-127590802D01*
X114611989Y-127590799D01*
X114560889Y-127453796D01*
X114473261Y-127336739D01*
X114356204Y-127249111D01*
X114356203Y-127249110D01*
X114356201Y-127249109D01*
X114219205Y-127198012D01*
X114219197Y-127198010D01*
X114158645Y-127191500D01*
X114158638Y-127191500D01*
X112561362Y-127191500D01*
X112561355Y-127191500D01*
X112500802Y-127198010D01*
X112500794Y-127198012D01*
X112363798Y-127249109D01*
X112363794Y-127249112D01*
X112246739Y-127336739D01*
X112159112Y-127453794D01*
X112159109Y-127453798D01*
X112108012Y-127590794D01*
X112108010Y-127590802D01*
X112101500Y-127651355D01*
X112101500Y-129348644D01*
X112108010Y-129409197D01*
X112108012Y-129409205D01*
X112159109Y-129546201D01*
X112159110Y-129546203D01*
X112159111Y-129546204D01*
X112246739Y-129663261D01*
X112363796Y-129750889D01*
X112363797Y-129750889D01*
X112363798Y-129750890D01*
X112453236Y-129784248D01*
X112500799Y-129801989D01*
X112518967Y-129803942D01*
X112561355Y-129808500D01*
X112561362Y-129808500D01*
X112624930Y-129808500D01*
X112659578Y-129822852D01*
X112673930Y-129857500D01*
X112659578Y-129892148D01*
X112653035Y-129897638D01*
X112515705Y-129993797D01*
X112515698Y-129993803D01*
X112353803Y-130155698D01*
X112353797Y-130155705D01*
X112222482Y-130343240D01*
X112222476Y-130343252D01*
X112125715Y-130550759D01*
X112125713Y-130550764D01*
X112066458Y-130771904D01*
X112066457Y-130771910D01*
X112046502Y-131000000D01*
X112066457Y-131228089D01*
X112066458Y-131228095D01*
X112125713Y-131449235D01*
X112125715Y-131449240D01*
X112125716Y-131449243D01*
X112132157Y-131463056D01*
X112222476Y-131656747D01*
X112222482Y-131656759D01*
X112353797Y-131844294D01*
X112353803Y-131844301D01*
X112474854Y-131965352D01*
X112489206Y-132000000D01*
X112474854Y-132034648D01*
X112353803Y-132155698D01*
X112353797Y-132155705D01*
X112222482Y-132343240D01*
X112222476Y-132343252D01*
X112125715Y-132550759D01*
X112125713Y-132550764D01*
X112066458Y-132771904D01*
X112066457Y-132771910D01*
X112046502Y-133000000D01*
X112066457Y-133228089D01*
X112066458Y-133228095D01*
X112125713Y-133449235D01*
X112125715Y-133449240D01*
X112222476Y-133656747D01*
X112222482Y-133656759D01*
X112353797Y-133844294D01*
X112353803Y-133844301D01*
X112515698Y-134006196D01*
X112515705Y-134006202D01*
X112703240Y-134137517D01*
X112703248Y-134137521D01*
X112703251Y-134137523D01*
X112910757Y-134234284D01*
X112910763Y-134234285D01*
X112910764Y-134234286D01*
X113131904Y-134293541D01*
X113131908Y-134293541D01*
X113131913Y-134293543D01*
X113360000Y-134313498D01*
X113588087Y-134293543D01*
X113588093Y-134293541D01*
X113588095Y-134293541D01*
X113698665Y-134263913D01*
X113809243Y-134234284D01*
X114016749Y-134137523D01*
X114016753Y-134137519D01*
X114016759Y-134137517D01*
X114204294Y-134006202D01*
X114204300Y-134006198D01*
X114366198Y-133844300D01*
X114388164Y-133812929D01*
X114497517Y-133656759D01*
X114497519Y-133656753D01*
X114497523Y-133656749D01*
X114594284Y-133449243D01*
X114653543Y-133228087D01*
X114673498Y-133000000D01*
X114653543Y-132771913D01*
X114594284Y-132550757D01*
X114497523Y-132343251D01*
X114497521Y-132343248D01*
X114497517Y-132343240D01*
X114366202Y-132155705D01*
X114366196Y-132155698D01*
X114245146Y-132034648D01*
X114230794Y-132000000D01*
X114245146Y-131965352D01*
X114366198Y-131844300D01*
X114390165Y-131810071D01*
X114497517Y-131656759D01*
X114497519Y-131656753D01*
X114497523Y-131656749D01*
X114594284Y-131449243D01*
X114653543Y-131228087D01*
X114673498Y-131000000D01*
X114653543Y-130771913D01*
X114594284Y-130550757D01*
X114497523Y-130343251D01*
X114497521Y-130343248D01*
X114497517Y-130343240D01*
X114366202Y-130155705D01*
X114366196Y-130155698D01*
X114204301Y-129993803D01*
X114204294Y-129993797D01*
X114066965Y-129897638D01*
X114046814Y-129866009D01*
X114054932Y-129829395D01*
X114086561Y-129809244D01*
X114095070Y-129808500D01*
X114158645Y-129808500D01*
X114197178Y-129804356D01*
X114219201Y-129801989D01*
X114356204Y-129750889D01*
X114473261Y-129663261D01*
X114560889Y-129546204D01*
X114611989Y-129409201D01*
X114614593Y-129384975D01*
X114618500Y-129348644D01*
X114618500Y-129307500D01*
X114632852Y-129272852D01*
X114667500Y-129258500D01*
X118965523Y-129258500D01*
X119000171Y-129272852D01*
X121893282Y-132165963D01*
X121905074Y-132187677D01*
X121905665Y-132187486D01*
X121906457Y-132189925D01*
X121906458Y-132189928D01*
X121965473Y-132371556D01*
X122060960Y-132536944D01*
X122188747Y-132678866D01*
X122343248Y-132791118D01*
X122517712Y-132868794D01*
X122704513Y-132908500D01*
X122895487Y-132908500D01*
X123082288Y-132868794D01*
X123256752Y-132791118D01*
X123411253Y-132678866D01*
X123539040Y-132536944D01*
X123634527Y-132371556D01*
X123693542Y-132189928D01*
X123713504Y-132000000D01*
X123693542Y-131810072D01*
X123634527Y-131628444D01*
X123539040Y-131463056D01*
X123411253Y-131321134D01*
X123256752Y-131208882D01*
X123082288Y-131131206D01*
X123082283Y-131131205D01*
X123082280Y-131131204D01*
X122996919Y-131113059D01*
X122972459Y-131099778D01*
X120407328Y-128534647D01*
X120392976Y-128499999D01*
X120407326Y-128465354D01*
X121419745Y-127452934D01*
X121425127Y-127448284D01*
X121449058Y-127430469D01*
X121483390Y-127389552D01*
X121486267Y-127386412D01*
X121492580Y-127380101D01*
X121512721Y-127354627D01*
X121513567Y-127353589D01*
X121563032Y-127294640D01*
X121565794Y-127289137D01*
X121571145Y-127280738D01*
X121574967Y-127275906D01*
X121607525Y-127206082D01*
X121608045Y-127205010D01*
X121642609Y-127136188D01*
X121644027Y-127130200D01*
X121647297Y-127120792D01*
X121649903Y-127115206D01*
X121665470Y-127039811D01*
X121665759Y-127038507D01*
X121683500Y-126963656D01*
X121683500Y-126957500D01*
X121684512Y-126947590D01*
X121685758Y-126941558D01*
X121683521Y-126864660D01*
X121683500Y-126863235D01*
X121683500Y-122682500D01*
X121697852Y-122647852D01*
X121732500Y-122633500D01*
X121823645Y-122633500D01*
X121862178Y-122629356D01*
X121884201Y-122626989D01*
X122021204Y-122575889D01*
X122138261Y-122488261D01*
X122225889Y-122371204D01*
X122276989Y-122234201D01*
X122279593Y-122209975D01*
X122283500Y-122173644D01*
X122283500Y-122114950D01*
X122297852Y-122080302D01*
X122332500Y-122065950D01*
X122367148Y-122080302D01*
X122373516Y-122088143D01*
X122389278Y-122112268D01*
X122389280Y-122112270D01*
X122501522Y-122234197D01*
X122541760Y-122277906D01*
X122719424Y-122416189D01*
X122719431Y-122416193D01*
X122719433Y-122416194D01*
X122917418Y-122523338D01*
X122917420Y-122523338D01*
X122917426Y-122523342D01*
X123130365Y-122596444D01*
X123352431Y-122633500D01*
X123352434Y-122633500D01*
X123577566Y-122633500D01*
X123577569Y-122633500D01*
X123799635Y-122596444D01*
X124012574Y-122523342D01*
X124210576Y-122416189D01*
X124388240Y-122277906D01*
X124540722Y-122112268D01*
X124663860Y-121923791D01*
X124690127Y-121863906D01*
X124717188Y-121837942D01*
X124754683Y-121838717D01*
X124779873Y-121863907D01*
X124806138Y-121923788D01*
X124806145Y-121923800D01*
X124929276Y-122112266D01*
X125041522Y-122234197D01*
X125081760Y-122277906D01*
X125259424Y-122416189D01*
X125259431Y-122416193D01*
X125259433Y-122416194D01*
X125457418Y-122523338D01*
X125457420Y-122523338D01*
X125457426Y-122523342D01*
X125670365Y-122596444D01*
X125892431Y-122633500D01*
X125892434Y-122633500D01*
X126117566Y-122633500D01*
X126117569Y-122633500D01*
X126339635Y-122596444D01*
X126552574Y-122523342D01*
X126750576Y-122416189D01*
X126928240Y-122277906D01*
X127080722Y-122112268D01*
X127203860Y-121923791D01*
X127294296Y-121717616D01*
X127349564Y-121499368D01*
X127368156Y-121275000D01*
X129721844Y-121275000D01*
X129740436Y-121499368D01*
X129793201Y-121707733D01*
X129795705Y-121717618D01*
X129886138Y-121923788D01*
X129886145Y-121923800D01*
X130009276Y-122112266D01*
X130121522Y-122234197D01*
X130161760Y-122277906D01*
X130339424Y-122416189D01*
X130339431Y-122416193D01*
X130339433Y-122416194D01*
X130537418Y-122523338D01*
X130537420Y-122523338D01*
X130537426Y-122523342D01*
X130750365Y-122596444D01*
X130972431Y-122633500D01*
X130972434Y-122633500D01*
X131197566Y-122633500D01*
X131197569Y-122633500D01*
X131419635Y-122596444D01*
X131632574Y-122523342D01*
X131830576Y-122416189D01*
X132008240Y-122277906D01*
X132160722Y-122112268D01*
X132283860Y-121923791D01*
X132374296Y-121717616D01*
X132429564Y-121499368D01*
X132448156Y-121275000D01*
X132429564Y-121050632D01*
X132374296Y-120832384D01*
X132295962Y-120653800D01*
X132283861Y-120626211D01*
X132283854Y-120626199D01*
X132160723Y-120437733D01*
X132008243Y-120272097D01*
X132008242Y-120272096D01*
X132008240Y-120272094D01*
X131830576Y-120133811D01*
X131830573Y-120133809D01*
X131830566Y-120133805D01*
X131672185Y-120048094D01*
X131648543Y-120018982D01*
X131652412Y-119981679D01*
X131672185Y-119961906D01*
X131744058Y-119923010D01*
X131830576Y-119876189D01*
X132008240Y-119737906D01*
X132160722Y-119572268D01*
X132283860Y-119383791D01*
X132374296Y-119177616D01*
X132429564Y-118959368D01*
X132448156Y-118735000D01*
X132429564Y-118510632D01*
X132374296Y-118292384D01*
X132295962Y-118113800D01*
X132283861Y-118086211D01*
X132283854Y-118086199D01*
X132160723Y-117897733D01*
X132008243Y-117732097D01*
X132008242Y-117732096D01*
X132008240Y-117732094D01*
X131830576Y-117593811D01*
X131830573Y-117593809D01*
X131830566Y-117593805D01*
X131632581Y-117486661D01*
X131632575Y-117486658D01*
X131632574Y-117486658D01*
X131615510Y-117480800D01*
X131419636Y-117413556D01*
X131364118Y-117404292D01*
X131197569Y-117376500D01*
X130972431Y-117376500D01*
X130839191Y-117398733D01*
X130750363Y-117413556D01*
X130537428Y-117486657D01*
X130537418Y-117486661D01*
X130339433Y-117593805D01*
X130339425Y-117593810D01*
X130161756Y-117732097D01*
X130009276Y-117897733D01*
X129886145Y-118086199D01*
X129886138Y-118086211D01*
X129848484Y-118172056D01*
X129795704Y-118292384D01*
X129740436Y-118510632D01*
X129721844Y-118735000D01*
X129740436Y-118959368D01*
X129793201Y-119167733D01*
X129795705Y-119177618D01*
X129886138Y-119383788D01*
X129886145Y-119383800D01*
X130009276Y-119572266D01*
X130009278Y-119572268D01*
X130161760Y-119737906D01*
X130339424Y-119876189D01*
X130339431Y-119876193D01*
X130339433Y-119876194D01*
X130497814Y-119961906D01*
X130521456Y-119991018D01*
X130517587Y-120028321D01*
X130497814Y-120048094D01*
X130339433Y-120133805D01*
X130339425Y-120133810D01*
X130161756Y-120272097D01*
X130009276Y-120437733D01*
X129886145Y-120626199D01*
X129886138Y-120626211D01*
X129848484Y-120712056D01*
X129795704Y-120832384D01*
X129740436Y-121050632D01*
X129721844Y-121275000D01*
X127368156Y-121275000D01*
X127349564Y-121050632D01*
X127294296Y-120832384D01*
X127215962Y-120653800D01*
X127203861Y-120626211D01*
X127203854Y-120626199D01*
X127080723Y-120437733D01*
X126928243Y-120272097D01*
X126928242Y-120272096D01*
X126928240Y-120272094D01*
X126750576Y-120133811D01*
X126750573Y-120133809D01*
X126750566Y-120133805D01*
X126592185Y-120048094D01*
X126568543Y-120018982D01*
X126572412Y-119981679D01*
X126592185Y-119961906D01*
X126664058Y-119923010D01*
X126750576Y-119876189D01*
X126928240Y-119737906D01*
X127080722Y-119572268D01*
X127203860Y-119383791D01*
X127294296Y-119177616D01*
X127349564Y-118959368D01*
X127368156Y-118735000D01*
X127349564Y-118510632D01*
X127294296Y-118292384D01*
X127215962Y-118113800D01*
X127203861Y-118086211D01*
X127203854Y-118086199D01*
X127080723Y-117897733D01*
X126928243Y-117732097D01*
X126928242Y-117732096D01*
X126928240Y-117732094D01*
X126750576Y-117593811D01*
X126750573Y-117593809D01*
X126750566Y-117593805D01*
X126552581Y-117486661D01*
X126552575Y-117486658D01*
X126552574Y-117486658D01*
X126535510Y-117480800D01*
X126339636Y-117413556D01*
X126284118Y-117404292D01*
X126117569Y-117376500D01*
X125892431Y-117376500D01*
X125759191Y-117398733D01*
X125670363Y-117413556D01*
X125457428Y-117486657D01*
X125457418Y-117486661D01*
X125259433Y-117593805D01*
X125259425Y-117593810D01*
X125081756Y-117732097D01*
X124929276Y-117897733D01*
X124806145Y-118086199D01*
X124806138Y-118086211D01*
X124779873Y-118146091D01*
X124752812Y-118172056D01*
X124715317Y-118171281D01*
X124690127Y-118146091D01*
X124663861Y-118086211D01*
X124663854Y-118086199D01*
X124540723Y-117897733D01*
X124388243Y-117732097D01*
X124388242Y-117732096D01*
X124388240Y-117732094D01*
X124210576Y-117593811D01*
X124210573Y-117593809D01*
X124210566Y-117593805D01*
X124012581Y-117486661D01*
X124012575Y-117486658D01*
X124012574Y-117486658D01*
X123995510Y-117480800D01*
X123799636Y-117413556D01*
X123744118Y-117404292D01*
X123577569Y-117376500D01*
X123352431Y-117376500D01*
X123219191Y-117398733D01*
X123130363Y-117413556D01*
X122917428Y-117486657D01*
X122917418Y-117486661D01*
X122719433Y-117593805D01*
X122719425Y-117593810D01*
X122541756Y-117732097D01*
X122389276Y-117897733D01*
X122266145Y-118086199D01*
X122266138Y-118086211D01*
X122239873Y-118146091D01*
X122212812Y-118172056D01*
X122175317Y-118171281D01*
X122150127Y-118146091D01*
X122123861Y-118086211D01*
X122123854Y-118086199D01*
X122000723Y-117897733D01*
X121848243Y-117732097D01*
X121848242Y-117732096D01*
X121848240Y-117732094D01*
X121702402Y-117618582D01*
X121683876Y-117585976D01*
X121683500Y-117579915D01*
X121683500Y-108209476D01*
X121697851Y-108174829D01*
X122972461Y-106900218D01*
X122996918Y-106886939D01*
X123082288Y-106868794D01*
X123256752Y-106791118D01*
X123411253Y-106678866D01*
X123539040Y-106536944D01*
X123634527Y-106371556D01*
X123693542Y-106189928D01*
X123713504Y-106000000D01*
X123693542Y-105810072D01*
X123634527Y-105628444D01*
X123539040Y-105463056D01*
X123411253Y-105321134D01*
X123256752Y-105208882D01*
X123082288Y-105131206D01*
X123082283Y-105131205D01*
X123082280Y-105131204D01*
X122996919Y-105113059D01*
X122972459Y-105099778D01*
X121472681Y-103600000D01*
X136786496Y-103600000D01*
X136806458Y-103789928D01*
X136865473Y-103971556D01*
X136960960Y-104136944D01*
X137053915Y-104240181D01*
X137066500Y-104272966D01*
X137066500Y-112364649D01*
X137065320Y-112375336D01*
X137064298Y-112379907D01*
X137064297Y-112379911D01*
X137066476Y-112449193D01*
X137066500Y-112450733D01*
X137066500Y-112479865D01*
X137067461Y-112487471D01*
X137067823Y-112492069D01*
X137069326Y-112539885D01*
X137069326Y-112539888D01*
X137069327Y-112539889D01*
X137076668Y-112565158D01*
X137078225Y-112572678D01*
X137081525Y-112598797D01*
X137099139Y-112643283D01*
X137100634Y-112647650D01*
X137113982Y-112693593D01*
X137127376Y-112716243D01*
X137130757Y-112723145D01*
X137140446Y-112747615D01*
X137168573Y-112786327D01*
X137171096Y-112790168D01*
X137195458Y-112831362D01*
X137195460Y-112831364D01*
X137214062Y-112849966D01*
X137219056Y-112855812D01*
X137234527Y-112877106D01*
X137271394Y-112907605D01*
X137274808Y-112910712D01*
X141406069Y-117041973D01*
X141420421Y-117076621D01*
X141418922Y-117088649D01*
X141380436Y-117240629D01*
X141380436Y-117240631D01*
X141380436Y-117240632D01*
X141361844Y-117465000D01*
X141380436Y-117689368D01*
X141433201Y-117897733D01*
X141435705Y-117907618D01*
X141526138Y-118113788D01*
X141526145Y-118113800D01*
X141649276Y-118302266D01*
X141649278Y-118302268D01*
X141801760Y-118467906D01*
X141979424Y-118606189D01*
X141979431Y-118606193D01*
X141979433Y-118606194D01*
X142177418Y-118713338D01*
X142177420Y-118713338D01*
X142177426Y-118713342D01*
X142390365Y-118786444D01*
X142612431Y-118823500D01*
X142612434Y-118823500D01*
X142837566Y-118823500D01*
X142837569Y-118823500D01*
X143059635Y-118786444D01*
X143272574Y-118713342D01*
X143470576Y-118606189D01*
X143648240Y-118467906D01*
X143800722Y-118302268D01*
X143923860Y-118113791D01*
X143950127Y-118053906D01*
X143977188Y-118027942D01*
X144014683Y-118028717D01*
X144039873Y-118053907D01*
X144066138Y-118113788D01*
X144066145Y-118113800D01*
X144189276Y-118302266D01*
X144189278Y-118302268D01*
X144341760Y-118467906D01*
X144519424Y-118606189D01*
X144519431Y-118606193D01*
X144519433Y-118606194D01*
X144677814Y-118691906D01*
X144701456Y-118721018D01*
X144697587Y-118758321D01*
X144677814Y-118778094D01*
X144519433Y-118863805D01*
X144519425Y-118863810D01*
X144341756Y-119002097D01*
X144189276Y-119167733D01*
X144066145Y-119356199D01*
X144066138Y-119356211D01*
X143975705Y-119562381D01*
X143975704Y-119562384D01*
X143920436Y-119780632D01*
X143901844Y-120005000D01*
X143920436Y-120229368D01*
X143973201Y-120437733D01*
X143975705Y-120447618D01*
X144066138Y-120653788D01*
X144066145Y-120653800D01*
X144189276Y-120842266D01*
X144189278Y-120842268D01*
X144341760Y-121007906D01*
X144519424Y-121146189D01*
X144519431Y-121146193D01*
X144519433Y-121146194D01*
X144677814Y-121231906D01*
X144701456Y-121261018D01*
X144697587Y-121298321D01*
X144677814Y-121318094D01*
X144519433Y-121403805D01*
X144519425Y-121403810D01*
X144341756Y-121542097D01*
X144189276Y-121707733D01*
X144066145Y-121896199D01*
X144066138Y-121896211D01*
X144039873Y-121956091D01*
X144012812Y-121982056D01*
X143975317Y-121981281D01*
X143950127Y-121956091D01*
X143923861Y-121896211D01*
X143923854Y-121896199D01*
X143800723Y-121707733D01*
X143648243Y-121542097D01*
X143648242Y-121542096D01*
X143648240Y-121542094D01*
X143470576Y-121403811D01*
X143470573Y-121403809D01*
X143470566Y-121403805D01*
X143272581Y-121296661D01*
X143272575Y-121296658D01*
X143272574Y-121296658D01*
X143250215Y-121288982D01*
X143059636Y-121223556D01*
X143004118Y-121214292D01*
X142837569Y-121186500D01*
X142612431Y-121186500D01*
X142479191Y-121208733D01*
X142390363Y-121223556D01*
X142177428Y-121296657D01*
X142177418Y-121296661D01*
X141979433Y-121403805D01*
X141979425Y-121403810D01*
X141801756Y-121542097D01*
X141649276Y-121707733D01*
X141526145Y-121896199D01*
X141526138Y-121896211D01*
X141435705Y-122102381D01*
X141435704Y-122102384D01*
X141408795Y-122208644D01*
X141380436Y-122320631D01*
X141361844Y-122545000D01*
X141380436Y-122769368D01*
X141435705Y-122987618D01*
X141526138Y-123193788D01*
X141526145Y-123193800D01*
X141649276Y-123382266D01*
X141649278Y-123382268D01*
X141801760Y-123547906D01*
X141979424Y-123686189D01*
X141979431Y-123686193D01*
X141979433Y-123686194D01*
X142137814Y-123771906D01*
X142161456Y-123801018D01*
X142157587Y-123838321D01*
X142137814Y-123858094D01*
X141979433Y-123943805D01*
X141979425Y-123943810D01*
X141801756Y-124082097D01*
X141649276Y-124247733D01*
X141526145Y-124436199D01*
X141526138Y-124436211D01*
X141435705Y-124642381D01*
X141380436Y-124860631D01*
X141361844Y-125085000D01*
X141380436Y-125309368D01*
X141435705Y-125527618D01*
X141526138Y-125733788D01*
X141526145Y-125733800D01*
X141649276Y-125922266D01*
X141649278Y-125922268D01*
X141801760Y-126087906D01*
X141979424Y-126226189D01*
X141979431Y-126226193D01*
X141979433Y-126226194D01*
X142177418Y-126333338D01*
X142177420Y-126333338D01*
X142177426Y-126333342D01*
X142390365Y-126406444D01*
X142612431Y-126443500D01*
X142612434Y-126443500D01*
X142837566Y-126443500D01*
X142837569Y-126443500D01*
X143059635Y-126406444D01*
X143272574Y-126333342D01*
X143470576Y-126226189D01*
X143648240Y-126087906D01*
X143800722Y-125922268D01*
X143923860Y-125733791D01*
X143950127Y-125673906D01*
X143977188Y-125647942D01*
X144014683Y-125648717D01*
X144039873Y-125673907D01*
X144066138Y-125733788D01*
X144066145Y-125733800D01*
X144189276Y-125922266D01*
X144189278Y-125922268D01*
X144341760Y-126087906D01*
X144519424Y-126226189D01*
X144519431Y-126226193D01*
X144519433Y-126226194D01*
X144717418Y-126333338D01*
X144717420Y-126333338D01*
X144717426Y-126333342D01*
X144930365Y-126406444D01*
X145152431Y-126443500D01*
X145152434Y-126443500D01*
X145377566Y-126443500D01*
X145377569Y-126443500D01*
X145599635Y-126406444D01*
X145812574Y-126333342D01*
X146010576Y-126226189D01*
X146188240Y-126087906D01*
X146340722Y-125922268D01*
X146463860Y-125733791D01*
X146554296Y-125527616D01*
X146609564Y-125309368D01*
X146628156Y-125085000D01*
X146609564Y-124860632D01*
X146554296Y-124642384D01*
X146463860Y-124436209D01*
X146463858Y-124436206D01*
X146463854Y-124436199D01*
X146340723Y-124247733D01*
X146188243Y-124082097D01*
X146188242Y-124082096D01*
X146188240Y-124082094D01*
X146010576Y-123943811D01*
X146010573Y-123943809D01*
X146010566Y-123943805D01*
X145852185Y-123858094D01*
X145828543Y-123828982D01*
X145832412Y-123791679D01*
X145852185Y-123771906D01*
X145923405Y-123733363D01*
X146010576Y-123686189D01*
X146188240Y-123547906D01*
X146340722Y-123382268D01*
X146463860Y-123193791D01*
X146554296Y-122987616D01*
X146609564Y-122769368D01*
X146628156Y-122545000D01*
X146609564Y-122320632D01*
X146554296Y-122102384D01*
X146475962Y-121923800D01*
X146463861Y-121896211D01*
X146463854Y-121896199D01*
X146340723Y-121707733D01*
X146188243Y-121542097D01*
X146188242Y-121542096D01*
X146188240Y-121542094D01*
X146010576Y-121403811D01*
X146010573Y-121403809D01*
X146010566Y-121403805D01*
X145852185Y-121318094D01*
X145828543Y-121288982D01*
X145832412Y-121251679D01*
X145852185Y-121231906D01*
X145923405Y-121193363D01*
X146010576Y-121146189D01*
X146188240Y-121007906D01*
X146340722Y-120842268D01*
X146463860Y-120653791D01*
X146554296Y-120447616D01*
X146609564Y-120229368D01*
X146628156Y-120005000D01*
X146609564Y-119780632D01*
X146554296Y-119562384D01*
X146475962Y-119383800D01*
X146463861Y-119356211D01*
X146463854Y-119356199D01*
X146340723Y-119167733D01*
X146188243Y-119002097D01*
X146188242Y-119002096D01*
X146188240Y-119002094D01*
X146010576Y-118863811D01*
X146010573Y-118863809D01*
X146010566Y-118863805D01*
X145852185Y-118778094D01*
X145828543Y-118748982D01*
X145832412Y-118711679D01*
X145852185Y-118691906D01*
X145923405Y-118653363D01*
X146010576Y-118606189D01*
X146188240Y-118467906D01*
X146340722Y-118302268D01*
X146463860Y-118113791D01*
X146554296Y-117907616D01*
X146609564Y-117689368D01*
X146628156Y-117465000D01*
X146609564Y-117240632D01*
X146554296Y-117022384D01*
X146463860Y-116816209D01*
X146463858Y-116816206D01*
X146463854Y-116816199D01*
X146340723Y-116627733D01*
X146188243Y-116462097D01*
X146188242Y-116462096D01*
X146188240Y-116462094D01*
X146010576Y-116323811D01*
X146010573Y-116323809D01*
X146010566Y-116323805D01*
X145852185Y-116238094D01*
X145828543Y-116208982D01*
X145832412Y-116171679D01*
X145852185Y-116151906D01*
X145923405Y-116113363D01*
X146010576Y-116066189D01*
X146188240Y-115927906D01*
X146340722Y-115762268D01*
X146463860Y-115573791D01*
X146554296Y-115367616D01*
X146609564Y-115149368D01*
X146628156Y-114925000D01*
X146609564Y-114700632D01*
X146554296Y-114482384D01*
X146463860Y-114276209D01*
X146463858Y-114276206D01*
X146463854Y-114276199D01*
X146340723Y-114087733D01*
X146188243Y-113922097D01*
X146188242Y-113922096D01*
X146188240Y-113922094D01*
X146010576Y-113783811D01*
X146010573Y-113783809D01*
X146010566Y-113783805D01*
X145812581Y-113676661D01*
X145812575Y-113676658D01*
X145812574Y-113676658D01*
X145659510Y-113624111D01*
X145599636Y-113603556D01*
X145544118Y-113594292D01*
X145377569Y-113566500D01*
X145152431Y-113566500D01*
X145019191Y-113588733D01*
X144930363Y-113603556D01*
X144717428Y-113676657D01*
X144717418Y-113676661D01*
X144519433Y-113783805D01*
X144519425Y-113783810D01*
X144341756Y-113922097D01*
X144189278Y-114087730D01*
X144173521Y-114111849D01*
X144142555Y-114133005D01*
X144105699Y-114126069D01*
X144084543Y-114095103D01*
X144083500Y-114085048D01*
X144083500Y-114026355D01*
X144076989Y-113965802D01*
X144076989Y-113965799D01*
X144025889Y-113828796D01*
X143938261Y-113711739D01*
X143821204Y-113624111D01*
X143821203Y-113624110D01*
X143821201Y-113624109D01*
X143684205Y-113573012D01*
X143684197Y-113573010D01*
X143623645Y-113566500D01*
X143623638Y-113566500D01*
X141826362Y-113566500D01*
X141826355Y-113566500D01*
X141765802Y-113573010D01*
X141765794Y-113573012D01*
X141628798Y-113624109D01*
X141628794Y-113624112D01*
X141511739Y-113711739D01*
X141424112Y-113828794D01*
X141424109Y-113828798D01*
X141373012Y-113965794D01*
X141373010Y-113965802D01*
X141366500Y-114026355D01*
X141366500Y-115092299D01*
X141352148Y-115126947D01*
X141317500Y-115141299D01*
X141282852Y-115126947D01*
X138347852Y-112191947D01*
X138333500Y-112157299D01*
X138333500Y-104272966D01*
X138346084Y-104240181D01*
X138439040Y-104136944D01*
X138534527Y-103971556D01*
X138593542Y-103789928D01*
X138613504Y-103600000D01*
X138593542Y-103410072D01*
X138534527Y-103228444D01*
X138439040Y-103063056D01*
X138311253Y-102921134D01*
X138156752Y-102808882D01*
X137982288Y-102731206D01*
X137982285Y-102731205D01*
X137982281Y-102731204D01*
X137795487Y-102691500D01*
X137604513Y-102691500D01*
X137417718Y-102731204D01*
X137417709Y-102731207D01*
X137243248Y-102808882D01*
X137088747Y-102921134D01*
X137088746Y-102921135D01*
X137088742Y-102921138D01*
X136960963Y-103063052D01*
X136960957Y-103063060D01*
X136865475Y-103228440D01*
X136865473Y-103228443D01*
X136806740Y-103409205D01*
X136806458Y-103410072D01*
X136786496Y-103600000D01*
X121472681Y-103600000D01*
X121077960Y-103205279D01*
X121076004Y-103203206D01*
X121032683Y-103154526D01*
X121032682Y-103154525D01*
X120979301Y-103117147D01*
X120977015Y-103115445D01*
X120941592Y-103087436D01*
X120923315Y-103054688D01*
X120933548Y-103018608D01*
X120966296Y-103000331D01*
X120971984Y-103000000D01*
X128000000Y-103000000D01*
X128000000Y-77000000D01*
X132336496Y-77000000D01*
X132356458Y-77189928D01*
X132415473Y-77371556D01*
X132510960Y-77536944D01*
X132510963Y-77536947D01*
X132628396Y-77667371D01*
X132638747Y-77678866D01*
X132793248Y-77791118D01*
X132967712Y-77868794D01*
X133154513Y-77908500D01*
X133242300Y-77908500D01*
X133276948Y-77922852D01*
X133377148Y-78023052D01*
X133391500Y-78057700D01*
X133391500Y-78902500D01*
X133377148Y-78937148D01*
X133342500Y-78951500D01*
X133204513Y-78951500D01*
X133017718Y-78991204D01*
X133017709Y-78991207D01*
X132843248Y-79068882D01*
X132688747Y-79181134D01*
X132688746Y-79181135D01*
X132688742Y-79181138D01*
X132560963Y-79323052D01*
X132560957Y-79323060D01*
X132465475Y-79488440D01*
X132465473Y-79488443D01*
X132431988Y-79591500D01*
X132406458Y-79670072D01*
X132386496Y-79860000D01*
X132406458Y-80049928D01*
X132465473Y-80231556D01*
X132517191Y-80321134D01*
X132534935Y-80351867D01*
X132541500Y-80376367D01*
X132541500Y-86283631D01*
X132534935Y-86308131D01*
X132465475Y-86428440D01*
X132465473Y-86428443D01*
X132416598Y-86578866D01*
X132406458Y-86610072D01*
X132386496Y-86800000D01*
X132406458Y-86989928D01*
X132465473Y-87171556D01*
X132530526Y-87284230D01*
X132534935Y-87291867D01*
X132541500Y-87316367D01*
X132541500Y-100283631D01*
X132534935Y-100308131D01*
X132465475Y-100428440D01*
X132465473Y-100428443D01*
X132406458Y-100610071D01*
X132396953Y-100700506D01*
X132386496Y-100800000D01*
X132406458Y-100989928D01*
X132465473Y-101171556D01*
X132560960Y-101336944D01*
X132560963Y-101336947D01*
X132666175Y-101453798D01*
X132688747Y-101478866D01*
X132843248Y-101591118D01*
X133017712Y-101668794D01*
X133204513Y-101708500D01*
X133395487Y-101708500D01*
X133582288Y-101668794D01*
X133756752Y-101591118D01*
X133911253Y-101478866D01*
X134039040Y-101336944D01*
X134134527Y-101171556D01*
X134193542Y-100989928D01*
X134213504Y-100800000D01*
X134193542Y-100610072D01*
X134134527Y-100428444D01*
X134095734Y-100361253D01*
X134065065Y-100308131D01*
X134058500Y-100283631D01*
X134058500Y-98896334D01*
X134072852Y-98861686D01*
X134107500Y-98847334D01*
X134256653Y-98847334D01*
X134443454Y-98807628D01*
X134617918Y-98729952D01*
X134772419Y-98617700D01*
X134798670Y-98588546D01*
X134832520Y-98572401D01*
X134835084Y-98572334D01*
X135871009Y-98572334D01*
X135905657Y-98586686D01*
X135907423Y-98588547D01*
X135942895Y-98627943D01*
X135988747Y-98678866D01*
X136143248Y-98791118D01*
X136317712Y-98868794D01*
X136504513Y-98908500D01*
X136695487Y-98908500D01*
X136882288Y-98868794D01*
X137056752Y-98791118D01*
X137211253Y-98678866D01*
X137339040Y-98536944D01*
X137434527Y-98371556D01*
X137493542Y-98189928D01*
X137513504Y-98000000D01*
X137493542Y-97810072D01*
X137434527Y-97628444D01*
X137339040Y-97463056D01*
X137211253Y-97321134D01*
X137056752Y-97208882D01*
X136882288Y-97131206D01*
X136882285Y-97131205D01*
X136882281Y-97131204D01*
X136695487Y-97091500D01*
X136504513Y-97091500D01*
X136317718Y-97131204D01*
X136317709Y-97131207D01*
X136143246Y-97208883D01*
X136023373Y-97295976D01*
X135994572Y-97305334D01*
X134835084Y-97305334D01*
X134800436Y-97290982D01*
X134798670Y-97289122D01*
X134772421Y-97259970D01*
X134772420Y-97259969D01*
X134772419Y-97259968D01*
X134617918Y-97147716D01*
X134443454Y-97070040D01*
X134443451Y-97070039D01*
X134443447Y-97070038D01*
X134256653Y-97030334D01*
X134107500Y-97030334D01*
X134072852Y-97015982D01*
X134058500Y-96981334D01*
X134058500Y-87814401D01*
X134072852Y-87779753D01*
X134107500Y-87765401D01*
X134142148Y-87779753D01*
X135996890Y-89634495D01*
X136011242Y-89669143D01*
X135998293Y-89702330D01*
X135924274Y-89782736D01*
X135801145Y-89971199D01*
X135801138Y-89971211D01*
X135710705Y-90177381D01*
X135655436Y-90395631D01*
X135636844Y-90620000D01*
X135655436Y-90844368D01*
X135710705Y-91062618D01*
X135801138Y-91268788D01*
X135801145Y-91268800D01*
X135924276Y-91457266D01*
X135983937Y-91522075D01*
X136076760Y-91622906D01*
X136254424Y-91761189D01*
X136254431Y-91761193D01*
X136254433Y-91761194D01*
X136452418Y-91868338D01*
X136452420Y-91868338D01*
X136452426Y-91868342D01*
X136665365Y-91941444D01*
X136887431Y-91978500D01*
X136887434Y-91978500D01*
X137112566Y-91978500D01*
X137112569Y-91978500D01*
X137334635Y-91941444D01*
X137547574Y-91868342D01*
X137745576Y-91761189D01*
X137923240Y-91622906D01*
X138075722Y-91457268D01*
X138198860Y-91268791D01*
X138225127Y-91208906D01*
X138252188Y-91182942D01*
X138289683Y-91183717D01*
X138314873Y-91208907D01*
X138341138Y-91268788D01*
X138341145Y-91268800D01*
X138464276Y-91457266D01*
X138523937Y-91522075D01*
X138616760Y-91622906D01*
X138794424Y-91761189D01*
X138794431Y-91761193D01*
X138794433Y-91761194D01*
X138992418Y-91868338D01*
X138992420Y-91868338D01*
X138992426Y-91868342D01*
X139205365Y-91941444D01*
X139427431Y-91978500D01*
X139427434Y-91978500D01*
X139652566Y-91978500D01*
X139652569Y-91978500D01*
X139874635Y-91941444D01*
X140087574Y-91868342D01*
X140285576Y-91761189D01*
X140463240Y-91622906D01*
X140615722Y-91457268D01*
X140738860Y-91268791D01*
X140829296Y-91062616D01*
X140884564Y-90844368D01*
X140903156Y-90620000D01*
X140884564Y-90395632D01*
X140829296Y-90177384D01*
X140738860Y-89971209D01*
X140738858Y-89971206D01*
X140738854Y-89971199D01*
X140615723Y-89782733D01*
X140463243Y-89617097D01*
X140463242Y-89617096D01*
X140463240Y-89617094D01*
X140285576Y-89478811D01*
X140285573Y-89478809D01*
X140285566Y-89478805D01*
X140087581Y-89371661D01*
X140087575Y-89371658D01*
X140087574Y-89371658D01*
X139913377Y-89311856D01*
X139874636Y-89298556D01*
X139819118Y-89289292D01*
X139652569Y-89261500D01*
X139427431Y-89261500D01*
X139260881Y-89289292D01*
X139205364Y-89298556D01*
X139166619Y-89311856D01*
X139129188Y-89309530D01*
X139116063Y-89300158D01*
X138676233Y-88860328D01*
X138669507Y-88851933D01*
X138667001Y-88847983D01*
X138666997Y-88847979D01*
X138616461Y-88800522D01*
X138615356Y-88799451D01*
X138594770Y-88778865D01*
X138588705Y-88774160D01*
X138585199Y-88771165D01*
X138550324Y-88738417D01*
X138550321Y-88738414D01*
X138550314Y-88738410D01*
X138527260Y-88725735D01*
X138520836Y-88721515D01*
X138500045Y-88705389D01*
X138500036Y-88705383D01*
X138456131Y-88686385D01*
X138451985Y-88684354D01*
X138410061Y-88661305D01*
X138410053Y-88661302D01*
X138384565Y-88654758D01*
X138377291Y-88652268D01*
X138353147Y-88641820D01*
X138353145Y-88641819D01*
X138353141Y-88641818D01*
X138353140Y-88641818D01*
X138305891Y-88634333D01*
X138301373Y-88633398D01*
X138268204Y-88624882D01*
X138255030Y-88621500D01*
X138255029Y-88621500D01*
X138228716Y-88621500D01*
X138221051Y-88620897D01*
X138218644Y-88620515D01*
X138195057Y-88616780D01*
X138195055Y-88616780D01*
X138147421Y-88621283D01*
X138142810Y-88621500D01*
X136796000Y-88621500D01*
X136761352Y-88607148D01*
X134672852Y-86518648D01*
X134658500Y-86484000D01*
X134658500Y-81637345D01*
X134672852Y-81602697D01*
X134707500Y-81588345D01*
X134742148Y-81602697D01*
X135627148Y-82487697D01*
X135641500Y-82522345D01*
X135641500Y-83898644D01*
X135648010Y-83959197D01*
X135648012Y-83959205D01*
X135699109Y-84096201D01*
X135699110Y-84096203D01*
X135699111Y-84096204D01*
X135786739Y-84213261D01*
X135903796Y-84300889D01*
X135903797Y-84300889D01*
X135903798Y-84300890D01*
X135958074Y-84321134D01*
X136040799Y-84351989D01*
X136058967Y-84353942D01*
X136101355Y-84358500D01*
X136101362Y-84358500D01*
X136163484Y-84358500D01*
X136198132Y-84372852D01*
X136212484Y-84407500D01*
X136198132Y-84442148D01*
X136193585Y-84446164D01*
X136171883Y-84463056D01*
X136076756Y-84537097D01*
X135924276Y-84702733D01*
X135801145Y-84891199D01*
X135801138Y-84891211D01*
X135711994Y-85094442D01*
X135710704Y-85097384D01*
X135655436Y-85315632D01*
X135636844Y-85540000D01*
X135655436Y-85764368D01*
X135707903Y-85971556D01*
X135710705Y-85982618D01*
X135801138Y-86188788D01*
X135801145Y-86188800D01*
X135924276Y-86377266D01*
X136072012Y-86537749D01*
X136076760Y-86542906D01*
X136254424Y-86681189D01*
X136254431Y-86681193D01*
X136254433Y-86681194D01*
X136452418Y-86788338D01*
X136452420Y-86788338D01*
X136452426Y-86788342D01*
X136665365Y-86861444D01*
X136887431Y-86898500D01*
X136887434Y-86898500D01*
X137112566Y-86898500D01*
X137112569Y-86898500D01*
X137334635Y-86861444D01*
X137547574Y-86788342D01*
X137745576Y-86681189D01*
X137923240Y-86542906D01*
X138075722Y-86377268D01*
X138198860Y-86188791D01*
X138225127Y-86128906D01*
X138252188Y-86102942D01*
X138289683Y-86103717D01*
X138314873Y-86128907D01*
X138341138Y-86188788D01*
X138341145Y-86188800D01*
X138464276Y-86377266D01*
X138612012Y-86537749D01*
X138616760Y-86542906D01*
X138794424Y-86681189D01*
X138794431Y-86681193D01*
X138794433Y-86681194D01*
X138992418Y-86788338D01*
X138992420Y-86788338D01*
X138992426Y-86788342D01*
X139205365Y-86861444D01*
X139427431Y-86898500D01*
X139427434Y-86898500D01*
X139652566Y-86898500D01*
X139652569Y-86898500D01*
X139874635Y-86861444D01*
X140087574Y-86788342D01*
X140285576Y-86681189D01*
X140463240Y-86542906D01*
X140615722Y-86377268D01*
X140738860Y-86188791D01*
X140829296Y-85982616D01*
X140884564Y-85764368D01*
X140903156Y-85540000D01*
X140884564Y-85315632D01*
X140829296Y-85097384D01*
X140747397Y-84910671D01*
X140738861Y-84891211D01*
X140738854Y-84891199D01*
X140615723Y-84702733D01*
X140596541Y-84681896D01*
X140547909Y-84629068D01*
X140535002Y-84593859D01*
X140549311Y-84561236D01*
X141899807Y-83210740D01*
X141904609Y-83206528D01*
X141933987Y-83183987D01*
X141956021Y-83155270D01*
X141956031Y-83155260D01*
X141974488Y-83131206D01*
X142031524Y-83056876D01*
X142073382Y-82955820D01*
X142092838Y-82908850D01*
X142108500Y-82789885D01*
X142108500Y-82789877D01*
X142113750Y-82750000D01*
X142108919Y-82713302D01*
X142108500Y-82706907D01*
X142108500Y-82450732D01*
X142121086Y-82417945D01*
X142239040Y-82286944D01*
X142334527Y-82121556D01*
X142393542Y-81939928D01*
X142413504Y-81750000D01*
X142393542Y-81560072D01*
X142334527Y-81378444D01*
X142239040Y-81213056D01*
X142111253Y-81071134D01*
X141956752Y-80958882D01*
X141782288Y-80881206D01*
X141782285Y-80881205D01*
X141782281Y-80881204D01*
X141595487Y-80841500D01*
X141404513Y-80841500D01*
X141217718Y-80881204D01*
X141217709Y-80881207D01*
X141043248Y-80958882D01*
X140888747Y-81071134D01*
X140888746Y-81071135D01*
X140888742Y-81071138D01*
X140760963Y-81213052D01*
X140760957Y-81213060D01*
X140665475Y-81378440D01*
X140665473Y-81378443D01*
X140613973Y-81536944D01*
X140606458Y-81560072D01*
X140586496Y-81750000D01*
X140606458Y-81939928D01*
X140639234Y-82040802D01*
X140643934Y-82055265D01*
X140640991Y-82092652D01*
X140612474Y-82117009D01*
X140575087Y-82114066D01*
X140561282Y-82103594D01*
X140463243Y-81997097D01*
X140463242Y-81997096D01*
X140463240Y-81997094D01*
X140285576Y-81858811D01*
X140285573Y-81858809D01*
X140285566Y-81858805D01*
X140087581Y-81751661D01*
X140087575Y-81751658D01*
X140087574Y-81751658D01*
X139934510Y-81699111D01*
X139874636Y-81678556D01*
X139819118Y-81669292D01*
X139652569Y-81641500D01*
X139427431Y-81641500D01*
X139294191Y-81663733D01*
X139205363Y-81678556D01*
X138992428Y-81751657D01*
X138992418Y-81751661D01*
X138794433Y-81858805D01*
X138794425Y-81858810D01*
X138616756Y-81997097D01*
X138464278Y-82162730D01*
X138448521Y-82186849D01*
X138417555Y-82208005D01*
X138380699Y-82201069D01*
X138359543Y-82170103D01*
X138358500Y-82160048D01*
X138358500Y-82101355D01*
X138351989Y-82040802D01*
X138351989Y-82040799D01*
X138300889Y-81903796D01*
X138213261Y-81786739D01*
X138096204Y-81699111D01*
X138096203Y-81699110D01*
X138096201Y-81699109D01*
X137959205Y-81648012D01*
X137959197Y-81648010D01*
X137898645Y-81641500D01*
X137898638Y-81641500D01*
X136522345Y-81641500D01*
X136487697Y-81627148D01*
X135107877Y-80247328D01*
X135093525Y-80212680D01*
X135093525Y-71388955D01*
X135107877Y-71354307D01*
X135142525Y-71339955D01*
X135162451Y-71344190D01*
X135217712Y-71368794D01*
X135404513Y-71408500D01*
X135595481Y-71408500D01*
X135595487Y-71408500D01*
X135595492Y-71408498D01*
X135596031Y-71408442D01*
X135596227Y-71408500D01*
X135598055Y-71408500D01*
X135598055Y-71409040D01*
X135631993Y-71419083D01*
X135649897Y-71452036D01*
X135650000Y-71461218D01*
X135636844Y-71619999D01*
X135636844Y-71620000D01*
X135655436Y-71844368D01*
X135694847Y-72000000D01*
X135710705Y-72062618D01*
X135801138Y-72268788D01*
X135801145Y-72268800D01*
X135924276Y-72457266D01*
X135997625Y-72536944D01*
X136076760Y-72622906D01*
X136254424Y-72761189D01*
X136254431Y-72761193D01*
X136254433Y-72761194D01*
X136452418Y-72868338D01*
X136452420Y-72868338D01*
X136452426Y-72868342D01*
X136665365Y-72941444D01*
X136887431Y-72978500D01*
X136887434Y-72978500D01*
X137112566Y-72978500D01*
X137112569Y-72978500D01*
X137334635Y-72941444D01*
X137547574Y-72868342D01*
X137745576Y-72761189D01*
X137923240Y-72622906D01*
X138075722Y-72457268D01*
X138198860Y-72268791D01*
X138225127Y-72208906D01*
X138252188Y-72182942D01*
X138289683Y-72183717D01*
X138314873Y-72208907D01*
X138341138Y-72268788D01*
X138341145Y-72268800D01*
X138464276Y-72457266D01*
X138537625Y-72536944D01*
X138616760Y-72622906D01*
X138794424Y-72761189D01*
X138794431Y-72761193D01*
X138794433Y-72761194D01*
X138992418Y-72868338D01*
X138992420Y-72868338D01*
X138992426Y-72868342D01*
X139205365Y-72941444D01*
X139427431Y-72978500D01*
X139427434Y-72978500D01*
X139652566Y-72978500D01*
X139652569Y-72978500D01*
X139874635Y-72941444D01*
X140087574Y-72868342D01*
X140285576Y-72761189D01*
X140463240Y-72622906D01*
X140615722Y-72457268D01*
X140738860Y-72268791D01*
X140829296Y-72062616D01*
X140884564Y-71844368D01*
X140903156Y-71620000D01*
X140884564Y-71395632D01*
X140829296Y-71177384D01*
X140738860Y-70971209D01*
X140738858Y-70971206D01*
X140738854Y-70971199D01*
X140615723Y-70782733D01*
X140463243Y-70617097D01*
X140463242Y-70617096D01*
X140463240Y-70617094D01*
X140285576Y-70478811D01*
X140285573Y-70478809D01*
X140285566Y-70478805D01*
X140087581Y-70371661D01*
X140087575Y-70371658D01*
X140087574Y-70371658D01*
X139913377Y-70311856D01*
X139874636Y-70298556D01*
X139819118Y-70289292D01*
X139652569Y-70261500D01*
X139427431Y-70261500D01*
X139260881Y-70289292D01*
X139205364Y-70298556D01*
X139166619Y-70311856D01*
X139129188Y-70309530D01*
X139116063Y-70300158D01*
X138866233Y-70050328D01*
X138859507Y-70041933D01*
X138857001Y-70037983D01*
X138856997Y-70037979D01*
X138806461Y-69990522D01*
X138805356Y-69989451D01*
X138784770Y-69968865D01*
X138778705Y-69964160D01*
X138775199Y-69961165D01*
X138740324Y-69928417D01*
X138740321Y-69928414D01*
X138740314Y-69928410D01*
X138717260Y-69915735D01*
X138710836Y-69911515D01*
X138690045Y-69895389D01*
X138690036Y-69895383D01*
X138646131Y-69876385D01*
X138641985Y-69874354D01*
X138600061Y-69851305D01*
X138600053Y-69851302D01*
X138574565Y-69844758D01*
X138567291Y-69842268D01*
X138543147Y-69831820D01*
X138543145Y-69831819D01*
X138543141Y-69831818D01*
X138543140Y-69831818D01*
X138495891Y-69824333D01*
X138491373Y-69823398D01*
X138458204Y-69814882D01*
X138445030Y-69811500D01*
X138445029Y-69811500D01*
X138418716Y-69811500D01*
X138411051Y-69810897D01*
X138405842Y-69810072D01*
X138385057Y-69806780D01*
X138385055Y-69806780D01*
X138337421Y-69811283D01*
X138332810Y-69811500D01*
X136113915Y-69811500D01*
X136085113Y-69802142D01*
X136008497Y-69746477D01*
X135988902Y-69714500D01*
X135997657Y-69678033D01*
X136008492Y-69667198D01*
X136061253Y-69628866D01*
X136189040Y-69486944D01*
X136284527Y-69321556D01*
X136343542Y-69139928D01*
X136363504Y-68950000D01*
X136343542Y-68760072D01*
X136284527Y-68578444D01*
X136189040Y-68413056D01*
X136096313Y-68310072D01*
X136071086Y-68282054D01*
X136058500Y-68249267D01*
X136058500Y-67628925D01*
X136072852Y-67594277D01*
X136107500Y-67579925D01*
X136137594Y-67590256D01*
X136187276Y-67628925D01*
X136254425Y-67681190D01*
X136254433Y-67681194D01*
X136452418Y-67788338D01*
X136452420Y-67788338D01*
X136452426Y-67788342D01*
X136665365Y-67861444D01*
X136887431Y-67898500D01*
X136887434Y-67898500D01*
X137112566Y-67898500D01*
X137112569Y-67898500D01*
X137334635Y-67861444D01*
X137547574Y-67788342D01*
X137745576Y-67681189D01*
X137923240Y-67542906D01*
X137952293Y-67511345D01*
X137986316Y-67495575D01*
X138021528Y-67508482D01*
X138022990Y-67509885D01*
X138842905Y-68329800D01*
X138847131Y-68334618D01*
X138869668Y-68363988D01*
X138900294Y-68387488D01*
X138900327Y-68387515D01*
X138974323Y-68444293D01*
X138996778Y-68461524D01*
X138996780Y-68461524D01*
X138996782Y-68461526D01*
X139070790Y-68492181D01*
X139144803Y-68522838D01*
X139164195Y-68525390D01*
X139164196Y-68525391D01*
X139164197Y-68525391D01*
X139263769Y-68538500D01*
X139263774Y-68538500D01*
X139303654Y-68543750D01*
X139340351Y-68538918D01*
X139346746Y-68538500D01*
X139744001Y-68538500D01*
X139778649Y-68552852D01*
X140629223Y-69403426D01*
X140643575Y-69438074D01*
X140641177Y-69453215D01*
X140613973Y-69536944D01*
X140606458Y-69560072D01*
X140586496Y-69750000D01*
X140606458Y-69939928D01*
X140665473Y-70121556D01*
X140760960Y-70286944D01*
X140888747Y-70428866D01*
X141043248Y-70541118D01*
X141217712Y-70618794D01*
X141404513Y-70658500D01*
X141595487Y-70658500D01*
X141782288Y-70618794D01*
X141956752Y-70541118D01*
X142111253Y-70428866D01*
X142239040Y-70286944D01*
X142334527Y-70121556D01*
X142393542Y-69939928D01*
X142413504Y-69750000D01*
X142393542Y-69560072D01*
X142334527Y-69378444D01*
X142239040Y-69213056D01*
X142111253Y-69071134D01*
X141956752Y-68958882D01*
X141873162Y-68921665D01*
X141858444Y-68911549D01*
X140509215Y-67562320D01*
X140494863Y-67527672D01*
X140507811Y-67494488D01*
X140615722Y-67377268D01*
X140738860Y-67188791D01*
X140829296Y-66982616D01*
X140884564Y-66764368D01*
X140903156Y-66540000D01*
X140884564Y-66315632D01*
X140829296Y-66097384D01*
X140738860Y-65891209D01*
X140738857Y-65891205D01*
X140738854Y-65891199D01*
X140615723Y-65702733D01*
X140463243Y-65537097D01*
X140463242Y-65537096D01*
X140463240Y-65537094D01*
X140285576Y-65398811D01*
X140285573Y-65398809D01*
X140285566Y-65398805D01*
X140127185Y-65313094D01*
X140103543Y-65283982D01*
X140107412Y-65246679D01*
X140127185Y-65226906D01*
X140198405Y-65188363D01*
X140285576Y-65141189D01*
X140463240Y-65002906D01*
X140615722Y-64837268D01*
X140738860Y-64648791D01*
X140829296Y-64442616D01*
X140884564Y-64224368D01*
X140903156Y-64000000D01*
X140884564Y-63775632D01*
X140829296Y-63557384D01*
X140738860Y-63351209D01*
X140738858Y-63351206D01*
X140738854Y-63351199D01*
X140615723Y-63162733D01*
X140463243Y-62997097D01*
X140463242Y-62997096D01*
X140463240Y-62997094D01*
X140285576Y-62858811D01*
X140285573Y-62858809D01*
X140285566Y-62858805D01*
X140087581Y-62751661D01*
X140087575Y-62751658D01*
X140087574Y-62751658D01*
X139934510Y-62699111D01*
X139874636Y-62678556D01*
X139819118Y-62669292D01*
X139652569Y-62641500D01*
X139427431Y-62641500D01*
X139294191Y-62663733D01*
X139205363Y-62678556D01*
X138992428Y-62751657D01*
X138992418Y-62751661D01*
X138794433Y-62858805D01*
X138794425Y-62858810D01*
X138616756Y-62997097D01*
X138464278Y-63162730D01*
X138448521Y-63186849D01*
X138417555Y-63208005D01*
X138380699Y-63201069D01*
X138359543Y-63170103D01*
X138358500Y-63160048D01*
X138358500Y-63101355D01*
X138351989Y-63040802D01*
X138351989Y-63040799D01*
X138300889Y-62903796D01*
X138213261Y-62786739D01*
X138096204Y-62699111D01*
X138096203Y-62699110D01*
X138096201Y-62699109D01*
X137959205Y-62648012D01*
X137959197Y-62648010D01*
X137898645Y-62641500D01*
X137898638Y-62641500D01*
X136101362Y-62641500D01*
X136101355Y-62641500D01*
X136040802Y-62648010D01*
X136040794Y-62648012D01*
X135903798Y-62699109D01*
X135903794Y-62699112D01*
X135786739Y-62786739D01*
X135699112Y-62903794D01*
X135699109Y-62903798D01*
X135648012Y-63040794D01*
X135648010Y-63040802D01*
X135641500Y-63101355D01*
X135641500Y-63342500D01*
X135627148Y-63377148D01*
X135592500Y-63391500D01*
X135543091Y-63391500D01*
X135536695Y-63391081D01*
X135500000Y-63386250D01*
X135499999Y-63386250D01*
X135461747Y-63391285D01*
X135461706Y-63391291D01*
X135460118Y-63391500D01*
X135460115Y-63391500D01*
X135420041Y-63396775D01*
X135341151Y-63407161D01*
X135193123Y-63468477D01*
X135191782Y-63469372D01*
X135190572Y-63470434D01*
X135098596Y-63541010D01*
X135098570Y-63541028D01*
X135098571Y-63541029D01*
X135066012Y-63566013D01*
X135043475Y-63595382D01*
X135039250Y-63600199D01*
X134547328Y-64092123D01*
X134512680Y-64106475D01*
X134389538Y-64106475D01*
X134202743Y-64146179D01*
X134202734Y-64146182D01*
X134028273Y-64223857D01*
X133873772Y-64336109D01*
X133873771Y-64336110D01*
X133873767Y-64336113D01*
X133745988Y-64478027D01*
X133745982Y-64478035D01*
X133650500Y-64643415D01*
X133650498Y-64643418D01*
X133591483Y-64825046D01*
X133583748Y-64898638D01*
X133571521Y-65014975D01*
X133591483Y-65204903D01*
X133650498Y-65386531D01*
X133745985Y-65551919D01*
X133745988Y-65551922D01*
X133863939Y-65682920D01*
X133876525Y-65715707D01*
X133876525Y-76236061D01*
X133862173Y-76270709D01*
X133827525Y-76285061D01*
X133798724Y-76275703D01*
X133719779Y-76218347D01*
X133706752Y-76208882D01*
X133532288Y-76131206D01*
X133532285Y-76131205D01*
X133532281Y-76131204D01*
X133345487Y-76091500D01*
X133154513Y-76091500D01*
X132967718Y-76131204D01*
X132967709Y-76131207D01*
X132793248Y-76208882D01*
X132638747Y-76321134D01*
X132638746Y-76321135D01*
X132638742Y-76321138D01*
X132510963Y-76463052D01*
X132510957Y-76463060D01*
X132415475Y-76628440D01*
X132415473Y-76628443D01*
X132362617Y-76791118D01*
X132356458Y-76810072D01*
X132336496Y-77000000D01*
X128000000Y-77000000D01*
X128000000Y-61000000D01*
X109000000Y-61000000D01*
X109000000Y-67951000D01*
X108985648Y-67985648D01*
X108951000Y-68000000D01*
X100049500Y-68000000D01*
X100014852Y-67985648D01*
X100000500Y-67951000D01*
X100000500Y-60049500D01*
X100014852Y-60014852D01*
X100049500Y-60000500D01*
X149950500Y-60000500D01*
X149985148Y-60014852D01*
G37*
G04 #@! TD.AperFunction*
G04 #@! TA.AperFunction,Conductor*
G36*
X126942121Y-62020002D02*
G01*
X126988614Y-62073658D01*
X127000000Y-62126000D01*
X127000000Y-101874000D01*
X126979998Y-101942121D01*
X126926342Y-101988614D01*
X126874000Y-102000000D01*
X118126000Y-102000000D01*
X118057879Y-101979998D01*
X118011386Y-101926342D01*
X118000000Y-101874000D01*
X118000000Y-100555186D01*
X118020002Y-100487065D01*
X118073658Y-100440572D01*
X118143932Y-100430468D01*
X118208512Y-100459962D01*
X118235119Y-100492186D01*
X118260958Y-100536941D01*
X118260965Y-100536951D01*
X118388744Y-100678864D01*
X118388747Y-100678866D01*
X118543248Y-100791118D01*
X118717712Y-100868794D01*
X118904513Y-100908500D01*
X119095487Y-100908500D01*
X119282288Y-100868794D01*
X119456752Y-100791118D01*
X119611253Y-100678866D01*
X119739040Y-100536944D01*
X119834527Y-100371556D01*
X119893542Y-100189928D01*
X119913504Y-100000000D01*
X119893542Y-99810072D01*
X119834527Y-99628444D01*
X119739040Y-99463056D01*
X119739038Y-99463054D01*
X119739034Y-99463048D01*
X119611255Y-99321135D01*
X119456752Y-99208882D01*
X119333251Y-99153896D01*
X119279155Y-99107916D01*
X119258506Y-99039988D01*
X119258500Y-99038789D01*
X119258500Y-91525744D01*
X119258713Y-91518417D01*
X119262372Y-91455597D01*
X119262371Y-91455592D01*
X119260414Y-91444490D01*
X119258500Y-91422613D01*
X119258500Y-83536999D01*
X119275380Y-83474000D01*
X119334527Y-83371556D01*
X119393542Y-83189928D01*
X119413504Y-83000000D01*
X119393542Y-82810072D01*
X119334527Y-82628444D01*
X119239040Y-82463056D01*
X119239038Y-82463054D01*
X119239034Y-82463048D01*
X119111255Y-82321135D01*
X118956752Y-82208882D01*
X118782288Y-82131206D01*
X118595487Y-82091500D01*
X118404513Y-82091500D01*
X118217711Y-82131206D01*
X118043247Y-82208882D01*
X117888744Y-82321135D01*
X117760965Y-82463048D01*
X117760958Y-82463058D01*
X117665476Y-82628438D01*
X117665473Y-82628445D01*
X117606457Y-82810072D01*
X117586496Y-83000000D01*
X117593085Y-83062696D01*
X117580312Y-83132534D01*
X117531810Y-83184380D01*
X117462977Y-83201774D01*
X117416527Y-83190972D01*
X117282290Y-83131206D01*
X117095487Y-83091500D01*
X116904513Y-83091500D01*
X116717711Y-83131206D01*
X116543247Y-83208882D01*
X116388747Y-83321133D01*
X116385437Y-83324810D01*
X116324991Y-83362050D01*
X116291800Y-83366500D01*
X111583853Y-83366500D01*
X111568011Y-83364750D01*
X111567984Y-83365044D01*
X111560092Y-83364298D01*
X111560091Y-83364298D01*
X111536360Y-83365044D01*
X111492014Y-83366438D01*
X111488055Y-83366500D01*
X111460144Y-83366500D01*
X111460141Y-83366500D01*
X111460126Y-83366501D01*
X111456121Y-83367007D01*
X111444304Y-83367937D01*
X111400107Y-83369326D01*
X111397512Y-83369738D01*
X111395462Y-83369473D01*
X111392189Y-83369576D01*
X111392172Y-83369047D01*
X111327101Y-83360638D01*
X111272788Y-83314915D01*
X111251816Y-83247086D01*
X111270844Y-83178687D01*
X111288704Y-83156198D01*
X113444902Y-81000000D01*
X116586496Y-81000000D01*
X116606457Y-81189927D01*
X116618221Y-81226131D01*
X116665473Y-81371556D01*
X116665476Y-81371561D01*
X116760958Y-81536941D01*
X116760965Y-81536951D01*
X116888744Y-81678864D01*
X116888747Y-81678866D01*
X117043248Y-81791118D01*
X117217712Y-81868794D01*
X117404513Y-81908500D01*
X117595487Y-81908500D01*
X117782288Y-81868794D01*
X117956752Y-81791118D01*
X118111253Y-81678866D01*
X118114563Y-81675190D01*
X118175009Y-81637950D01*
X118208200Y-81633500D01*
X120291800Y-81633500D01*
X120359921Y-81653502D01*
X120385437Y-81675190D01*
X120388747Y-81678866D01*
X120543248Y-81791118D01*
X120717712Y-81868794D01*
X120904513Y-81908500D01*
X121095487Y-81908500D01*
X121282288Y-81868794D01*
X121456752Y-81791118D01*
X121611253Y-81678866D01*
X121739040Y-81536944D01*
X121834527Y-81371556D01*
X121893542Y-81189928D01*
X121913504Y-81000000D01*
X121893542Y-80810072D01*
X121834527Y-80628444D01*
X121739040Y-80463056D01*
X121739038Y-80463054D01*
X121739034Y-80463048D01*
X121611255Y-80321135D01*
X121456752Y-80208882D01*
X121282288Y-80131206D01*
X121095487Y-80091500D01*
X120904513Y-80091500D01*
X120717711Y-80131206D01*
X120543247Y-80208882D01*
X120388747Y-80321133D01*
X120385437Y-80324810D01*
X120324991Y-80362050D01*
X120291800Y-80366500D01*
X118208200Y-80366500D01*
X118140079Y-80346498D01*
X118114563Y-80324810D01*
X118111252Y-80321133D01*
X117956752Y-80208882D01*
X117782288Y-80131206D01*
X117595487Y-80091500D01*
X117404513Y-80091500D01*
X117217711Y-80131206D01*
X117043247Y-80208882D01*
X116888744Y-80321135D01*
X116760965Y-80463048D01*
X116760958Y-80463058D01*
X116665476Y-80628438D01*
X116665473Y-80628445D01*
X116606457Y-80810072D01*
X116586496Y-81000000D01*
X113444902Y-81000000D01*
X117588657Y-76856245D01*
X117601092Y-76846284D01*
X117600905Y-76846057D01*
X117607016Y-76841001D01*
X117607015Y-76841001D01*
X117607018Y-76841000D01*
X117653676Y-76791312D01*
X117656367Y-76788535D01*
X117676135Y-76768769D01*
X117678614Y-76765571D01*
X117686299Y-76756571D01*
X117716586Y-76724321D01*
X117726345Y-76706567D01*
X117737204Y-76690038D01*
X117745870Y-76678866D01*
X117749614Y-76674040D01*
X117767177Y-76633451D01*
X117772396Y-76622801D01*
X117793694Y-76584061D01*
X117793695Y-76584060D01*
X117798733Y-76564435D01*
X117805138Y-76545730D01*
X117808940Y-76536944D01*
X117813181Y-76527145D01*
X117820096Y-76483481D01*
X117822504Y-76471852D01*
X117833500Y-76429030D01*
X117833500Y-76408775D01*
X117835051Y-76389063D01*
X117835436Y-76386632D01*
X117838220Y-76369057D01*
X117834059Y-76325036D01*
X117833500Y-76313179D01*
X117833500Y-72702524D01*
X117853502Y-72634403D01*
X117865858Y-72618220D01*
X117939040Y-72536944D01*
X118034527Y-72371556D01*
X118093542Y-72189928D01*
X118113504Y-72000000D01*
X118093542Y-71810072D01*
X118034527Y-71628444D01*
X117939040Y-71463056D01*
X117939038Y-71463054D01*
X117939034Y-71463048D01*
X117811255Y-71321135D01*
X117656752Y-71208882D01*
X117482288Y-71131206D01*
X117295487Y-71091500D01*
X117104513Y-71091500D01*
X116917711Y-71131206D01*
X116743247Y-71208882D01*
X116588744Y-71321135D01*
X116460965Y-71463048D01*
X116460958Y-71463058D01*
X116365476Y-71628438D01*
X116365473Y-71628445D01*
X116306457Y-71810072D01*
X116286496Y-72000000D01*
X116306457Y-72189927D01*
X116336526Y-72282470D01*
X116365473Y-72371556D01*
X116460960Y-72536944D01*
X116534137Y-72618215D01*
X116564853Y-72682220D01*
X116566500Y-72702524D01*
X116566500Y-76034405D01*
X116546498Y-76102526D01*
X116529595Y-76123500D01*
X111426963Y-81226131D01*
X111364651Y-81260157D01*
X111293836Y-81255092D01*
X111237000Y-81212545D01*
X111216162Y-81169649D01*
X111192120Y-81079924D01*
X111099056Y-80880347D01*
X110972749Y-80699962D01*
X110817038Y-80544251D01*
X110636654Y-80417944D01*
X110636650Y-80417942D01*
X110437079Y-80324881D01*
X110437073Y-80324879D01*
X110347178Y-80300791D01*
X110224371Y-80267885D01*
X110005000Y-80248693D01*
X109785629Y-80267885D01*
X109609838Y-80314988D01*
X109538861Y-80313298D01*
X109480066Y-80273504D01*
X109455521Y-80225893D01*
X109412123Y-80063934D01*
X109412121Y-80063930D01*
X109412120Y-80063924D01*
X109319056Y-79864347D01*
X109192749Y-79683962D01*
X109077882Y-79569095D01*
X109043856Y-79506783D01*
X109048921Y-79435968D01*
X109077880Y-79390906D01*
X109192749Y-79276038D01*
X109319056Y-79095654D01*
X109412120Y-78896076D01*
X109455520Y-78734104D01*
X109492472Y-78673484D01*
X109556333Y-78642462D01*
X109609836Y-78645010D01*
X109785629Y-78692115D01*
X110005000Y-78711307D01*
X110224371Y-78692115D01*
X110437076Y-78635120D01*
X110636654Y-78542056D01*
X110817038Y-78415749D01*
X110972749Y-78260038D01*
X111099056Y-78079654D01*
X111192120Y-77880076D01*
X111249115Y-77667371D01*
X111268307Y-77448000D01*
X111249115Y-77228629D01*
X111192120Y-77015924D01*
X111099056Y-76816347D01*
X110972749Y-76635962D01*
X110901609Y-76564822D01*
X110867584Y-76502509D01*
X110872650Y-76431694D01*
X110901608Y-76386634D01*
X113356547Y-73931695D01*
X113418857Y-73897671D01*
X113489672Y-73902736D01*
X113546508Y-73945283D01*
X113571319Y-74011803D01*
X113571161Y-74031772D01*
X113561693Y-74140000D01*
X113568334Y-74215903D01*
X113580885Y-74359370D01*
X113637879Y-74572073D01*
X113637881Y-74572079D01*
X113706242Y-74718680D01*
X113730944Y-74771654D01*
X113857251Y-74952038D01*
X113857254Y-74952042D01*
X114012957Y-75107745D01*
X114012961Y-75107748D01*
X114012962Y-75107749D01*
X114193346Y-75234056D01*
X114392924Y-75327120D01*
X114605629Y-75384115D01*
X114825000Y-75403307D01*
X115044371Y-75384115D01*
X115257076Y-75327120D01*
X115456654Y-75234056D01*
X115637038Y-75107749D01*
X115792749Y-74952038D01*
X115919056Y-74771654D01*
X116012120Y-74572076D01*
X116069115Y-74359371D01*
X116088307Y-74140000D01*
X116069115Y-73920629D01*
X116012120Y-73707924D01*
X115919056Y-73508347D01*
X115792749Y-73327962D01*
X115637038Y-73172251D01*
X115621805Y-73161585D01*
X115507651Y-73081653D01*
X115456654Y-73045944D01*
X115456650Y-73045942D01*
X115257079Y-72952881D01*
X115257073Y-72952879D01*
X115167178Y-72928791D01*
X115044371Y-72895885D01*
X114825000Y-72876693D01*
X114824999Y-72876693D01*
X114716772Y-72886161D01*
X114647168Y-72872171D01*
X114596176Y-72822771D01*
X114579986Y-72753645D01*
X114603739Y-72686740D01*
X114616690Y-72671552D01*
X117288243Y-70000000D01*
X120086496Y-70000000D01*
X120106457Y-70189927D01*
X120136526Y-70282470D01*
X120165473Y-70371556D01*
X120260960Y-70536944D01*
X120334137Y-70618215D01*
X120364853Y-70682220D01*
X120366500Y-70702524D01*
X120366500Y-73416146D01*
X120364751Y-73431988D01*
X120365044Y-73432016D01*
X120364298Y-73439907D01*
X120364298Y-73439909D01*
X120364524Y-73447084D01*
X120366438Y-73507984D01*
X120366500Y-73511943D01*
X120366500Y-73539851D01*
X120366501Y-73539869D01*
X120367007Y-73543877D01*
X120367937Y-73555696D01*
X120369326Y-73599888D01*
X120369327Y-73599893D01*
X120374977Y-73619339D01*
X120378986Y-73638697D01*
X120381525Y-73658793D01*
X120381526Y-73658800D01*
X120397800Y-73699903D01*
X120401644Y-73711129D01*
X120413982Y-73753593D01*
X120424294Y-73771031D01*
X120432988Y-73788779D01*
X120440444Y-73807609D01*
X120440450Y-73807620D01*
X120466432Y-73843381D01*
X120472949Y-73853301D01*
X120495458Y-73891362D01*
X120495459Y-73891363D01*
X120495461Y-73891366D01*
X120509779Y-73905684D01*
X120522617Y-73920714D01*
X120534526Y-73937104D01*
X120534530Y-73937109D01*
X120568598Y-73965292D01*
X120577378Y-73973282D01*
X122552877Y-75948782D01*
X122586903Y-76011094D01*
X122589092Y-76024706D01*
X122606457Y-76189927D01*
X122628813Y-76258729D01*
X122665473Y-76371556D01*
X122665476Y-76371561D01*
X122760958Y-76536941D01*
X122760965Y-76536951D01*
X122888744Y-76678864D01*
X122888747Y-76678866D01*
X123043248Y-76791118D01*
X123217712Y-76868794D01*
X123404513Y-76908500D01*
X123595487Y-76908500D01*
X123782288Y-76868794D01*
X123956752Y-76791118D01*
X124111253Y-76678866D01*
X124115596Y-76674043D01*
X124239034Y-76536951D01*
X124239035Y-76536949D01*
X124239040Y-76536944D01*
X124334527Y-76371556D01*
X124393542Y-76189928D01*
X124413504Y-76000000D01*
X124393542Y-75810072D01*
X124334527Y-75628444D01*
X124239040Y-75463056D01*
X124239038Y-75463054D01*
X124239034Y-75463048D01*
X124111255Y-75321135D01*
X123956752Y-75208882D01*
X123782288Y-75131206D01*
X123595487Y-75091500D01*
X123539594Y-75091500D01*
X123471473Y-75071498D01*
X123450499Y-75054595D01*
X121670405Y-73274500D01*
X121636379Y-73212188D01*
X121633500Y-73185405D01*
X121633500Y-70702524D01*
X121653502Y-70634403D01*
X121665858Y-70618220D01*
X121739040Y-70536944D01*
X121834527Y-70371556D01*
X121893542Y-70189928D01*
X121913504Y-70000000D01*
X121893542Y-69810072D01*
X121834527Y-69628444D01*
X121739040Y-69463056D01*
X121739038Y-69463054D01*
X121739034Y-69463048D01*
X121611255Y-69321135D01*
X121456752Y-69208882D01*
X121282288Y-69131206D01*
X121095487Y-69091500D01*
X120904513Y-69091500D01*
X120717711Y-69131206D01*
X120543247Y-69208882D01*
X120388744Y-69321135D01*
X120260965Y-69463048D01*
X120260958Y-69463058D01*
X120165476Y-69628438D01*
X120165473Y-69628445D01*
X120106457Y-69810072D01*
X120086496Y-70000000D01*
X117288243Y-70000000D01*
X119617839Y-67670405D01*
X119680151Y-67636379D01*
X119706934Y-67633500D01*
X120291800Y-67633500D01*
X120359921Y-67653502D01*
X120385437Y-67675190D01*
X120388747Y-67678866D01*
X120543248Y-67791118D01*
X120717712Y-67868794D01*
X120904513Y-67908500D01*
X121095487Y-67908500D01*
X121282288Y-67868794D01*
X121456752Y-67791118D01*
X121611253Y-67678866D01*
X121614563Y-67675190D01*
X121739034Y-67536951D01*
X121739035Y-67536949D01*
X121739040Y-67536944D01*
X121834527Y-67371556D01*
X121893542Y-67189928D01*
X121913504Y-67000000D01*
X121893542Y-66810072D01*
X121834527Y-66628444D01*
X121739040Y-66463056D01*
X121739038Y-66463054D01*
X121739034Y-66463048D01*
X121611255Y-66321135D01*
X121456752Y-66208882D01*
X121282288Y-66131206D01*
X121095487Y-66091500D01*
X120904513Y-66091500D01*
X120717711Y-66131206D01*
X120543247Y-66208882D01*
X120388747Y-66321133D01*
X120385437Y-66324810D01*
X120324991Y-66362050D01*
X120291800Y-66366500D01*
X119476194Y-66366500D01*
X119460352Y-66364750D01*
X119460325Y-66365044D01*
X119452432Y-66364297D01*
X119384342Y-66366438D01*
X119380384Y-66366500D01*
X119352484Y-66366500D01*
X119352478Y-66366500D01*
X119352472Y-66366501D01*
X119348473Y-66367006D01*
X119336653Y-66367936D01*
X119292451Y-66369325D01*
X119272990Y-66374979D01*
X119253644Y-66378985D01*
X119233544Y-66381525D01*
X119233543Y-66381525D01*
X119192435Y-66397800D01*
X119181210Y-66401643D01*
X119138753Y-66413978D01*
X119138744Y-66413982D01*
X119121302Y-66424297D01*
X119103555Y-66432991D01*
X119084723Y-66440447D01*
X119084721Y-66440448D01*
X119048954Y-66466434D01*
X119039040Y-66472947D01*
X119000976Y-66495459D01*
X119000973Y-66495461D01*
X118986652Y-66509783D01*
X118971623Y-66522619D01*
X118955233Y-66534527D01*
X118927040Y-66568605D01*
X118919053Y-66577381D01*
X109616336Y-75880097D01*
X109603901Y-75890061D01*
X109604089Y-75890288D01*
X109597979Y-75895342D01*
X109551370Y-75944975D01*
X109548620Y-75947813D01*
X109528863Y-75967571D01*
X109526374Y-75970779D01*
X109518688Y-75979776D01*
X109488418Y-76012013D01*
X109488411Y-76012023D01*
X109478651Y-76029775D01*
X109467803Y-76046290D01*
X109455386Y-76062298D01*
X109437824Y-76102880D01*
X109432604Y-76113535D01*
X109411305Y-76152279D01*
X109411303Y-76152284D01*
X109406267Y-76171899D01*
X109399864Y-76190602D01*
X109391819Y-76209192D01*
X109384901Y-76252865D01*
X109382495Y-76264482D01*
X109369529Y-76314986D01*
X109367507Y-76314467D01*
X109343463Y-76369580D01*
X109319121Y-76391911D01*
X109192963Y-76480249D01*
X109037248Y-76635965D01*
X108910944Y-76816346D01*
X108817881Y-77015920D01*
X108817880Y-77015923D01*
X108774480Y-77177894D01*
X108737528Y-77238516D01*
X108673667Y-77269538D01*
X108620163Y-77266989D01*
X108444371Y-77219885D01*
X108225000Y-77200693D01*
X108005629Y-77219885D01*
X107792926Y-77276879D01*
X107792920Y-77276881D01*
X107593346Y-77369944D01*
X107412965Y-77496248D01*
X107412959Y-77496253D01*
X107257253Y-77651959D01*
X107257248Y-77651965D01*
X107130944Y-77832346D01*
X107037881Y-78031920D01*
X107037879Y-78031926D01*
X106980885Y-78244629D01*
X106961693Y-78464000D01*
X106980885Y-78683371D01*
X107037880Y-78896076D01*
X107130944Y-79095654D01*
X107257250Y-79276037D01*
X107257251Y-79276038D01*
X107257254Y-79276042D01*
X107372117Y-79390905D01*
X107406143Y-79453217D01*
X107401078Y-79524032D01*
X107372118Y-79569095D01*
X107257248Y-79683965D01*
X107130944Y-79864346D01*
X107037881Y-80063920D01*
X107037879Y-80063926D01*
X106980885Y-80276629D01*
X106961693Y-80496000D01*
X106971907Y-80612761D01*
X106957917Y-80682366D01*
X106935481Y-80712836D01*
X103069225Y-84579092D01*
X103055376Y-84591062D01*
X103035943Y-84605529D01*
X103003771Y-84643870D01*
X102996360Y-84651958D01*
X102992420Y-84655898D01*
X102992414Y-84655905D01*
X102972997Y-84680460D01*
X102970689Y-84683294D01*
X102921964Y-84741364D01*
X102917935Y-84747491D01*
X102917880Y-84747455D01*
X102913825Y-84753820D01*
X102913882Y-84753855D01*
X102910030Y-84760098D01*
X102877996Y-84828794D01*
X102876401Y-84832087D01*
X102842394Y-84899805D01*
X102839882Y-84906707D01*
X102839820Y-84906684D01*
X102837343Y-84913810D01*
X102837404Y-84913831D01*
X102835096Y-84920795D01*
X102819759Y-84995064D01*
X102818967Y-84998637D01*
X102801500Y-85072340D01*
X102800648Y-85079634D01*
X102800581Y-85079626D01*
X102799814Y-85087126D01*
X102799881Y-85087132D01*
X102799241Y-85094442D01*
X102801447Y-85170258D01*
X102801500Y-85173922D01*
X102801500Y-88165763D01*
X102800170Y-88184023D01*
X102796659Y-88207990D01*
X102796659Y-88207999D01*
X102801020Y-88257837D01*
X102801500Y-88268820D01*
X102801500Y-88274389D01*
X102805135Y-88305493D01*
X102805507Y-88309136D01*
X102812111Y-88384622D01*
X102813596Y-88391810D01*
X102813531Y-88391823D01*
X102815165Y-88399193D01*
X102815229Y-88399179D01*
X102816921Y-88406320D01*
X102842846Y-88477546D01*
X102844049Y-88481008D01*
X102867884Y-88552939D01*
X102870987Y-88559592D01*
X102870926Y-88559620D01*
X102874211Y-88566406D01*
X102874270Y-88566377D01*
X102877563Y-88572934D01*
X102919232Y-88636288D01*
X102921171Y-88639331D01*
X102960970Y-88703855D01*
X102960972Y-88703858D01*
X102965522Y-88709612D01*
X102965468Y-88709654D01*
X102970228Y-88715496D01*
X102970279Y-88715454D01*
X102974997Y-88721076D01*
X103030155Y-88773115D01*
X103032784Y-88775669D01*
X107747888Y-93490773D01*
X107759861Y-93504627D01*
X107774327Y-93524058D01*
X107812670Y-93556231D01*
X107820763Y-93563648D01*
X107824695Y-93567580D01*
X107849248Y-93586994D01*
X107852080Y-93589300D01*
X107910156Y-93638032D01*
X107910162Y-93638035D01*
X107916291Y-93642067D01*
X107916253Y-93642123D01*
X107922607Y-93646171D01*
X107922643Y-93646114D01*
X107928885Y-93649964D01*
X107928887Y-93649965D01*
X107928890Y-93649967D01*
X107997628Y-93682020D01*
X108000826Y-93683568D01*
X108068608Y-93717609D01*
X108068609Y-93717609D01*
X108068613Y-93717611D01*
X108075509Y-93720121D01*
X108075485Y-93720184D01*
X108082602Y-93722658D01*
X108082624Y-93722594D01*
X108089589Y-93724902D01*
X108108950Y-93728899D01*
X108163858Y-93740236D01*
X108167322Y-93741003D01*
X108241140Y-93758500D01*
X108241142Y-93758500D01*
X108248428Y-93759352D01*
X108248420Y-93759418D01*
X108255918Y-93760184D01*
X108255924Y-93760118D01*
X108263231Y-93760756D01*
X108263238Y-93760758D01*
X108337981Y-93758583D01*
X108339020Y-93758553D01*
X108342684Y-93758500D01*
X113457413Y-93758500D01*
X113525534Y-93778502D01*
X113531471Y-93782562D01*
X113543248Y-93791118D01*
X113717712Y-93868794D01*
X113904513Y-93908500D01*
X114095487Y-93908500D01*
X114282288Y-93868794D01*
X114456752Y-93791118D01*
X114611253Y-93678866D01*
X114637274Y-93649967D01*
X114739034Y-93536951D01*
X114739035Y-93536949D01*
X114739040Y-93536944D01*
X114834527Y-93371556D01*
X114893542Y-93189928D01*
X114913504Y-93000000D01*
X114893542Y-92810072D01*
X114834527Y-92628444D01*
X114739040Y-92463056D01*
X114735774Y-92458561D01*
X114711915Y-92391693D01*
X114727996Y-92322542D01*
X114778910Y-92273061D01*
X114837710Y-92258500D01*
X117615500Y-92258500D01*
X117683621Y-92278502D01*
X117730114Y-92332158D01*
X117741500Y-92384500D01*
X117741500Y-94874000D01*
X117721498Y-94942121D01*
X117667842Y-94988614D01*
X117615500Y-95000000D01*
X100126500Y-95000000D01*
X100058379Y-94979998D01*
X100011886Y-94926342D01*
X100000500Y-94874000D01*
X100000500Y-74718680D01*
X103805738Y-74718680D01*
X103835762Y-74991566D01*
X103905204Y-75257184D01*
X103959724Y-75385479D01*
X104012577Y-75509852D01*
X104155595Y-75744196D01*
X104331209Y-75955218D01*
X104331211Y-75955220D01*
X104331213Y-75955222D01*
X104535666Y-76138414D01*
X104535672Y-76138419D01*
X104535677Y-76138423D01*
X104764641Y-76289904D01*
X105013221Y-76406433D01*
X105276119Y-76485527D01*
X105276122Y-76485527D01*
X105276124Y-76485528D01*
X105547727Y-76525500D01*
X105547731Y-76525500D01*
X105753547Y-76525500D01*
X105958805Y-76510477D01*
X106226775Y-76450784D01*
X106483198Y-76352711D01*
X106722609Y-76218347D01*
X106939904Y-76050557D01*
X107130454Y-75852916D01*
X107290196Y-75629637D01*
X107415727Y-75385479D01*
X107415727Y-75385478D01*
X107415729Y-75385475D01*
X107504368Y-75125651D01*
X107504370Y-75125646D01*
X107554236Y-74855674D01*
X107564262Y-74581320D01*
X107539841Y-74359370D01*
X107534237Y-74308433D01*
X107499184Y-74174354D01*
X107464796Y-74042818D01*
X107357423Y-73790148D01*
X107214405Y-73555804D01*
X107038791Y-73344782D01*
X107038787Y-73344779D01*
X107038786Y-73344777D01*
X106834333Y-73161585D01*
X106834320Y-73161575D01*
X106605359Y-73010096D01*
X106590589Y-73003172D01*
X106356779Y-72893567D01*
X106278445Y-72870000D01*
X107451372Y-72870000D01*
X107471854Y-73130249D01*
X107532796Y-73384089D01*
X107632697Y-73625271D01*
X107744440Y-73807620D01*
X107769098Y-73847857D01*
X107769099Y-73847859D01*
X107938636Y-74046363D01*
X108088504Y-74174361D01*
X108137144Y-74215903D01*
X108359729Y-74352303D01*
X108600911Y-74452204D01*
X108854751Y-74513146D01*
X109115000Y-74533628D01*
X109375249Y-74513146D01*
X109629089Y-74452204D01*
X109870271Y-74352303D01*
X110092856Y-74215903D01*
X110291363Y-74046363D01*
X110460903Y-73847856D01*
X110597303Y-73625271D01*
X110697204Y-73384089D01*
X110758146Y-73130249D01*
X110778628Y-72870000D01*
X110758146Y-72609751D01*
X110697204Y-72355911D01*
X110597303Y-72114729D01*
X110460903Y-71892144D01*
X110460900Y-71892140D01*
X110291363Y-71693636D01*
X110092859Y-71524099D01*
X110092857Y-71524098D01*
X110092856Y-71524097D01*
X109870271Y-71387697D01*
X109629089Y-71287796D01*
X109629087Y-71287795D01*
X109629086Y-71287795D01*
X109492479Y-71254998D01*
X109375249Y-71226854D01*
X109115000Y-71206372D01*
X108854751Y-71226854D01*
X108600913Y-71287795D01*
X108359730Y-71387696D01*
X108137142Y-71524098D01*
X108137140Y-71524099D01*
X107938636Y-71693636D01*
X107769099Y-71892140D01*
X107769098Y-71892142D01*
X107632696Y-72114730D01*
X107532795Y-72355913D01*
X107489333Y-72536945D01*
X107471854Y-72609751D01*
X107451372Y-72870000D01*
X106278445Y-72870000D01*
X106197223Y-72845564D01*
X106093875Y-72814471D01*
X105822272Y-72774500D01*
X105822269Y-72774500D01*
X105616453Y-72774500D01*
X105411191Y-72789523D01*
X105143231Y-72849214D01*
X105143219Y-72849218D01*
X104886801Y-72947289D01*
X104647397Y-73081649D01*
X104647393Y-73081651D01*
X104430094Y-73249444D01*
X104430093Y-73249445D01*
X104239548Y-73447081D01*
X104079807Y-73670358D01*
X104079803Y-73670364D01*
X103954270Y-73914524D01*
X103865631Y-74174348D01*
X103865628Y-74174361D01*
X103815764Y-74444317D01*
X103815763Y-74444328D01*
X103805738Y-74718680D01*
X100000500Y-74718680D01*
X100000500Y-69126000D01*
X100020502Y-69057879D01*
X100074158Y-69011386D01*
X100126500Y-69000000D01*
X110000000Y-69000000D01*
X110000000Y-62126000D01*
X110020002Y-62057879D01*
X110073658Y-62011386D01*
X110126000Y-62000000D01*
X126874000Y-62000000D01*
X126942121Y-62020002D01*
G37*
G04 #@! TD.AperFunction*
G04 #@! TA.AperFunction,Conductor*
G36*
X107731822Y-87375146D02*
G01*
X107731914Y-87374894D01*
X107738808Y-87377403D01*
X107738812Y-87377405D01*
X107738815Y-87377405D01*
X107745707Y-87379914D01*
X107745684Y-87379976D01*
X107752810Y-87382453D01*
X107752831Y-87382391D01*
X107759793Y-87384698D01*
X107834052Y-87400030D01*
X107837544Y-87400804D01*
X107911344Y-87418296D01*
X107911346Y-87418296D01*
X107918632Y-87419148D01*
X107918624Y-87419214D01*
X107926122Y-87419980D01*
X107926128Y-87419914D01*
X107933435Y-87420552D01*
X107933442Y-87420554D01*
X108008185Y-87418379D01*
X108009224Y-87418349D01*
X108012888Y-87418296D01*
X108287315Y-87418296D01*
X108355436Y-87438298D01*
X108401929Y-87491954D01*
X108412033Y-87562228D01*
X108382539Y-87626808D01*
X108353151Y-87651727D01*
X108216122Y-87735698D01*
X108137142Y-87784098D01*
X108137140Y-87784099D01*
X107938636Y-87953636D01*
X107769099Y-88152140D01*
X107769098Y-88152142D01*
X107632696Y-88374730D01*
X107532795Y-88615913D01*
X107500470Y-88750557D01*
X107471854Y-88869751D01*
X107451372Y-89130000D01*
X107471854Y-89390249D01*
X107532796Y-89644089D01*
X107546344Y-89676796D01*
X107632696Y-89885269D01*
X107769098Y-90107857D01*
X107769099Y-90107859D01*
X107938636Y-90306363D01*
X108137140Y-90475900D01*
X108137144Y-90475903D01*
X108359729Y-90612303D01*
X108600911Y-90712204D01*
X108854751Y-90773146D01*
X109115000Y-90793628D01*
X109375249Y-90773146D01*
X109629089Y-90712204D01*
X109870271Y-90612303D01*
X110092856Y-90475903D01*
X110291363Y-90306363D01*
X110460903Y-90107856D01*
X110597303Y-89885271D01*
X110660759Y-89732074D01*
X110705305Y-89676796D01*
X110772668Y-89654375D01*
X110841460Y-89671933D01*
X110866261Y-89691200D01*
X113165834Y-91990773D01*
X113177807Y-92004627D01*
X113192274Y-92024059D01*
X113196966Y-92029033D01*
X113229165Y-92092308D01*
X113222044Y-92162946D01*
X113177862Y-92218521D01*
X113110649Y-92241387D01*
X113105318Y-92241500D01*
X108696167Y-92241500D01*
X108628046Y-92221498D01*
X108607072Y-92204595D01*
X105831204Y-89428727D01*
X105797178Y-89366415D01*
X105802243Y-89295600D01*
X105844790Y-89238764D01*
X105911101Y-89213968D01*
X105958805Y-89210477D01*
X106226775Y-89150784D01*
X106483198Y-89052711D01*
X106722609Y-88918347D01*
X106939904Y-88750557D01*
X107130454Y-88552916D01*
X107290196Y-88329637D01*
X107415727Y-88085479D01*
X107415727Y-88085478D01*
X107415729Y-88085475D01*
X107504368Y-87825651D01*
X107504370Y-87825646D01*
X107541097Y-87626808D01*
X107554235Y-87555682D01*
X107554236Y-87555671D01*
X107554524Y-87547796D01*
X107556795Y-87485624D01*
X107579271Y-87418282D01*
X107634588Y-87373779D01*
X107705184Y-87366247D01*
X107731822Y-87375146D01*
G37*
G04 #@! TD.AperFunction*
G04 #@! TA.AperFunction,Conductor*
G36*
X113770477Y-84653502D02*
G01*
X113816970Y-84707158D01*
X113827074Y-84777432D01*
X113805569Y-84831771D01*
X113730944Y-84938346D01*
X113637881Y-85137920D01*
X113637879Y-85137926D01*
X113607179Y-85252500D01*
X113580885Y-85350629D01*
X113561693Y-85570000D01*
X113580209Y-85781649D01*
X113580885Y-85789370D01*
X113637879Y-86002073D01*
X113637881Y-86002079D01*
X113679914Y-86092220D01*
X113730944Y-86201654D01*
X113857251Y-86382038D01*
X113857254Y-86382042D01*
X114012957Y-86537745D01*
X114012961Y-86537748D01*
X114012962Y-86537749D01*
X114193346Y-86664056D01*
X114392924Y-86757120D01*
X114605629Y-86814115D01*
X114825000Y-86833307D01*
X115044371Y-86814115D01*
X115257076Y-86757120D01*
X115456654Y-86664056D01*
X115637038Y-86537749D01*
X115792749Y-86382038D01*
X115919056Y-86201654D01*
X116012120Y-86002076D01*
X116069115Y-85789371D01*
X116088307Y-85570000D01*
X116069115Y-85350629D01*
X116012120Y-85137924D01*
X115919056Y-84938347D01*
X115884938Y-84889621D01*
X115844431Y-84831771D01*
X115821743Y-84764497D01*
X115839028Y-84695636D01*
X115890798Y-84647052D01*
X115947644Y-84633500D01*
X116291800Y-84633500D01*
X116359921Y-84653502D01*
X116385437Y-84675190D01*
X116388747Y-84678866D01*
X116543248Y-84791118D01*
X116717712Y-84868794D01*
X116904513Y-84908500D01*
X117095487Y-84908500D01*
X117282288Y-84868794D01*
X117456752Y-84791118D01*
X117541439Y-84729588D01*
X117608307Y-84705730D01*
X117677458Y-84721811D01*
X117726939Y-84772725D01*
X117741500Y-84831525D01*
X117741500Y-90615500D01*
X117721498Y-90683621D01*
X117667842Y-90730114D01*
X117615500Y-90741500D01*
X114114113Y-90741500D01*
X114045992Y-90721498D01*
X114025018Y-90704595D01*
X109489446Y-86169023D01*
X109477474Y-86155171D01*
X109463007Y-86135738D01*
X109463005Y-86135736D01*
X109424667Y-86103566D01*
X109416565Y-86096141D01*
X109412644Y-86092220D01*
X109388066Y-86072785D01*
X109385229Y-86070474D01*
X109327173Y-86021760D01*
X109321044Y-86017729D01*
X109321079Y-86017674D01*
X109314725Y-86013625D01*
X109314691Y-86013682D01*
X109308444Y-86009829D01*
X109240519Y-85978154D01*
X109187234Y-85931236D01*
X109167774Y-85862959D01*
X109188317Y-85794999D01*
X109218261Y-85763092D01*
X109338261Y-85673261D01*
X109425887Y-85556207D01*
X109425887Y-85556206D01*
X109425889Y-85556204D01*
X109476989Y-85419201D01*
X109482813Y-85365032D01*
X109509982Y-85299440D01*
X109568299Y-85258948D01*
X109608091Y-85252500D01*
X110797147Y-85252500D01*
X110812988Y-85254249D01*
X110813016Y-85253956D01*
X110820902Y-85254700D01*
X110820909Y-85254702D01*
X110888986Y-85252562D01*
X110892945Y-85252500D01*
X110920851Y-85252500D01*
X110920856Y-85252500D01*
X110924867Y-85251992D01*
X110936699Y-85251061D01*
X110980889Y-85249673D01*
X111000347Y-85244019D01*
X111019694Y-85240013D01*
X111039797Y-85237474D01*
X111080910Y-85221195D01*
X111092130Y-85217353D01*
X111116913Y-85210154D01*
X111134591Y-85205019D01*
X111134595Y-85205017D01*
X111152026Y-85194708D01*
X111169780Y-85186009D01*
X111188617Y-85178552D01*
X111224392Y-85152558D01*
X111234298Y-85146051D01*
X111272362Y-85123542D01*
X111286685Y-85109218D01*
X111301724Y-85096374D01*
X111318107Y-85084472D01*
X111346299Y-85050392D01*
X111354267Y-85041635D01*
X111725500Y-84670404D01*
X111787812Y-84636379D01*
X111814595Y-84633500D01*
X113702356Y-84633500D01*
X113770477Y-84653502D01*
G37*
G04 #@! TD.AperFunction*
M02*
