M48
; DRILL file {KiCad 6.0.5+dfsg-1~bpo11+1} date Fri Jan 13 16:16:33 2023
; FORMAT={-:-/ absolute / inch / decimal}
; #@! TF.CreationDate,2023-01-13T16:16:33+00:00
; #@! TF.GenerationSoftware,Kicad,Pcbnew,6.0.5+dfsg-1~bpo11+1
; #@! TF.FileFunction,Plated,1,2,PTH
FMAT,2
INCH
; #@! TA.AperFunction,Plated,PTH,ViaDrill
T1C0.0157
; #@! TA.AperFunction,Plated,PTH,ComponentDrill
T2C0.0350
; #@! TA.AperFunction,Plated,PTH,ComponentDrill
T3C0.0374
; #@! TA.AperFunction,Plated,PTH,ComponentDrill
T4C0.0394
; #@! TA.AperFunction,Plated,PTH,ComponentDrill
T5C0.0618
; #@! TA.AperFunction,Plated,PTH,ComponentDrill
T6C0.0906
; #@! TA.AperFunction,Plated,PTH,ComponentDrill
T7C0.1260
%
G90
G05
T1
X3.9961Y-2.9528
X3.9961Y-3.3465
X4.0748Y-2.7362
X4.1535Y-3.1299
X4.2717Y-3.7205
X4.311Y-2.4606
X4.311Y-3.6417
X4.3701Y-3.7008
X4.372Y-3.3819
X4.4114Y-3.2008
X4.4114Y-3.5512
X4.4744Y-3.6555
X4.5039Y-3.2776
X4.5079Y-2.5787
X4.5335Y-3.1752
X4.5354Y-4.1732
X4.5354Y-5.1969
X4.6024Y-4.1732
X4.6024Y-5.1969
X4.6457Y-2.4409
X4.6654Y-3.2677
X4.685Y-3.937
X4.685Y-3.9961
X4.7047Y-2.7559
X4.7146Y-3.3701
X4.7244Y-3.563
X4.7638Y-2.7559
X4.8346Y-4.1732
X4.8346Y-5.1969
X4.8425Y-2.7165
X4.8622Y-2.9921
X4.8622Y-3.248
X4.8622Y-3.5236
X4.8819Y-2.6969
X4.9016Y-3.7992
X5.2362Y-2.5079
X5.248Y-3.1732
X5.248Y-3.4173
X5.248Y-3.9685
X5.2559Y-2.8031
X5.2819Y-3.8559
X5.378Y-3.8583
X5.4213Y-4.0787
T2
X4.2608Y-3.0891
X4.2608Y-3.1691
X4.2608Y-3.2491
X4.2608Y-3.3291
X4.3309Y-3.0491
X4.3309Y-3.1291
X4.3309Y-3.2091
X4.3309Y-3.2891
X4.5207Y-2.9189
X4.5207Y-3.0091
X4.5207Y-3.3689
X4.5207Y-3.4591
T3
X4.463Y-4.0354
X4.463Y-4.1339
X4.463Y-4.2126
X4.463Y-4.311
X4.463Y-5.0591
X4.463Y-5.1575
X4.463Y-5.2362
X4.463Y-5.3346
T4
X4.7608Y-4.6746
X4.7608Y-4.7746
X4.8608Y-4.6746
X4.8608Y-4.7746
X4.9608Y-4.6746
X4.9608Y-4.7746
X5.0608Y-4.6746
X5.0608Y-4.7746
X5.1608Y-4.6746
X5.1608Y-4.7746
X5.3937Y-2.5197
X5.3937Y-2.6197
X5.3937Y-2.7197
X5.3937Y-2.8197
X5.3937Y-2.9197
X5.3937Y-3.2677
X5.3937Y-3.3677
X5.3937Y-3.4677
X5.3937Y-3.5677
X5.3937Y-3.6677
X5.4937Y-2.5197
X5.4937Y-2.6197
X5.4937Y-2.7197
X5.4937Y-2.8197
X5.4937Y-2.9197
X5.4937Y-3.2677
X5.4937Y-3.3677
X5.4937Y-3.4677
X5.4937Y-3.5677
X5.4937Y-3.6677
X5.6191Y-4.5246
X5.6191Y-4.6246
X5.6191Y-4.7246
X5.6191Y-4.8246
X5.6191Y-4.9246
X5.7191Y-4.5246
X5.7191Y-4.6246
X5.7191Y-4.7246
X5.7191Y-4.8246
X5.7191Y-4.9246
T5
X4.2959Y-2.8689
X4.2959Y-3.5091
T6
X4.3563Y-3.9146
X4.3563Y-4.4319
X4.3563Y-4.9382
X4.3563Y-5.4555
T7
X4.0945Y-5.748
T0
M30
