%TF.GenerationSoftware,KiCad,Pcbnew,6.0.5+dfsg-1~bpo11+1*%
%TF.CreationDate,2023-01-13T16:16:33+00:00*%
%TF.ProjectId,nascontrol-remote,6e617363-6f6e-4747-926f-6c2d72656d6f,rev?*%
%TF.SameCoordinates,Original*%
%TF.FileFunction,Plated,1,2,PTH,Drill*%
%TF.FilePolarity,Positive*%
%FSLAX46Y46*%
G04 Gerber Fmt 4.6, Leading zero omitted, Abs format (unit mm)*
G04 Created by KiCad (PCBNEW 6.0.5+dfsg-1~bpo11+1) date 2023-01-13 16:16:33*
%MOMM*%
%LPD*%
G01*
G04 APERTURE LIST*
%TA.AperFunction,ViaDrill*%
%ADD10C,0.400000*%
%TD*%
%TA.AperFunction,ComponentDrill*%
%ADD11C,0.890000*%
%TD*%
%TA.AperFunction,ComponentDrill*%
%ADD12C,0.950000*%
%TD*%
%TA.AperFunction,ComponentDrill*%
%ADD13C,1.000000*%
%TD*%
%TA.AperFunction,ComponentDrill*%
%ADD14C,1.570000*%
%TD*%
%TA.AperFunction,ComponentDrill*%
%ADD15C,2.300000*%
%TD*%
%TA.AperFunction,ComponentDrill*%
%ADD16C,3.200000*%
%TD*%
G04 APERTURE END LIST*
D10*
X101500000Y-75000000D03*
X101500000Y-85000000D03*
X103500000Y-69500000D03*
X105500000Y-79500000D03*
X108500000Y-94500000D03*
X109500000Y-62500000D03*
X109500000Y-92500000D03*
X111000000Y-94000000D03*
X111050000Y-85900000D03*
X112050000Y-81300000D03*
X112050000Y-90200000D03*
X113650000Y-92850000D03*
X114400000Y-83250000D03*
X114500000Y-65500000D03*
X115150000Y-80650000D03*
X115200000Y-106000000D03*
X115200000Y-132000000D03*
X116900000Y-106000000D03*
X116900000Y-132000000D03*
X118000000Y-62000000D03*
X118500000Y-83000000D03*
X119000000Y-100000000D03*
X119000000Y-101500000D03*
X119500000Y-70000000D03*
X119750000Y-85600000D03*
X120000000Y-90500000D03*
X121000000Y-70000000D03*
X122800000Y-106000000D03*
X122800000Y-132000000D03*
X123000000Y-69000000D03*
X123500000Y-76000000D03*
X123500000Y-82500000D03*
X123500000Y-89500000D03*
X124000000Y-68500000D03*
X124500000Y-96500000D03*
X133000000Y-63700000D03*
X133300000Y-80600000D03*
X133300000Y-86800000D03*
X133300000Y-100800000D03*
X133500000Y-71200000D03*
X134161166Y-97938834D03*
X136600000Y-98000000D03*
X137700000Y-103600000D03*
D11*
%TO.C,J103*%
X108225000Y-78464000D03*
X108225000Y-80496000D03*
X108225000Y-82528000D03*
X108225000Y-84560000D03*
X110005000Y-77448000D03*
X110005000Y-79480000D03*
X110005000Y-81512000D03*
X110005000Y-83544000D03*
X114825000Y-74140000D03*
X114825000Y-76430000D03*
X114825000Y-85570000D03*
X114825000Y-87860000D03*
D12*
%TO.C,J303*%
X113360000Y-102500000D03*
X113360000Y-105000000D03*
X113360000Y-107000000D03*
X113360000Y-109500000D03*
%TO.C,J302*%
X113360000Y-128500000D03*
X113360000Y-131000000D03*
X113360000Y-133000000D03*
X113360000Y-135500000D03*
D13*
%TO.C,J301*%
X120925000Y-118735000D03*
X120925000Y-121275000D03*
X123465000Y-118735000D03*
X123465000Y-121275000D03*
X126005000Y-118735000D03*
X126005000Y-121275000D03*
X128545000Y-118735000D03*
X128545000Y-121275000D03*
X131085000Y-118735000D03*
X131085000Y-121275000D03*
%TO.C,J102*%
X137000000Y-64000000D03*
X137000000Y-66540000D03*
X137000000Y-69080000D03*
X137000000Y-71620000D03*
X137000000Y-74160000D03*
%TO.C,J104*%
X137000000Y-83000000D03*
X137000000Y-85540000D03*
X137000000Y-88080000D03*
X137000000Y-90620000D03*
X137000000Y-93160000D03*
%TO.C,J102*%
X139540000Y-64000000D03*
X139540000Y-66540000D03*
X139540000Y-69080000D03*
X139540000Y-71620000D03*
X139540000Y-74160000D03*
%TO.C,J104*%
X139540000Y-83000000D03*
X139540000Y-85540000D03*
X139540000Y-88080000D03*
X139540000Y-90620000D03*
X139540000Y-93160000D03*
%TO.C,J101*%
X142725000Y-114925000D03*
X142725000Y-117465000D03*
X142725000Y-120005000D03*
X142725000Y-122545000D03*
X142725000Y-125085000D03*
X145265000Y-114925000D03*
X145265000Y-117465000D03*
X145265000Y-120005000D03*
X145265000Y-122545000D03*
X145265000Y-125085000D03*
D14*
%TO.C,J103*%
X109115000Y-72870000D03*
X109115000Y-89130000D03*
D15*
%TO.C,J303*%
X110650000Y-99430000D03*
X110650000Y-112570000D03*
%TO.C,J302*%
X110650000Y-125430000D03*
X110650000Y-138570000D03*
D16*
%TO.C,H102*%
X104000000Y-146000000D03*
M02*
