%TF.GenerationSoftware,KiCad,Pcbnew,6.0.5+dfsg-1~bpo11+1*%
%TF.CreationDate,2023-01-21T12:00:44+00:00*%
%TF.ProjectId,nascontrol-remote,6e617363-6f6e-4747-926f-6c2d72656d6f,rev?*%
%TF.SameCoordinates,Original*%
%TF.FileFunction,Legend,Top*%
%TF.FilePolarity,Positive*%
%FSLAX46Y46*%
G04 Gerber Fmt 4.6, Leading zero omitted, Abs format (unit mm)*
G04 Created by KiCad (PCBNEW 6.0.5+dfsg-1~bpo11+1) date 2023-01-21 12:00:44*
%MOMM*%
%LPD*%
G01*
G04 APERTURE LIST*
%ADD10C,0.150000*%
%ADD11C,0.120000*%
G04 APERTURE END LIST*
D10*
%TO.C,H102*%
X107285714Y-149452380D02*
X107285714Y-148452380D01*
X107285714Y-148928571D02*
X107857142Y-148928571D01*
X107857142Y-149452380D02*
X107857142Y-148452380D01*
X108857142Y-149452380D02*
X108285714Y-149452380D01*
X108571428Y-149452380D02*
X108571428Y-148452380D01*
X108476190Y-148595238D01*
X108380952Y-148690476D01*
X108285714Y-148738095D01*
X109476190Y-148452380D02*
X109571428Y-148452380D01*
X109666666Y-148500000D01*
X109714285Y-148547619D01*
X109761904Y-148642857D01*
X109809523Y-148833333D01*
X109809523Y-149071428D01*
X109761904Y-149261904D01*
X109714285Y-149357142D01*
X109666666Y-149404761D01*
X109571428Y-149452380D01*
X109476190Y-149452380D01*
X109380952Y-149404761D01*
X109333333Y-149357142D01*
X109285714Y-149261904D01*
X109238095Y-149071428D01*
X109238095Y-148833333D01*
X109285714Y-148642857D01*
X109333333Y-148547619D01*
X109380952Y-148500000D01*
X109476190Y-148452380D01*
X110190476Y-148547619D02*
X110238095Y-148500000D01*
X110333333Y-148452380D01*
X110571428Y-148452380D01*
X110666666Y-148500000D01*
X110714285Y-148547619D01*
X110761904Y-148642857D01*
X110761904Y-148738095D01*
X110714285Y-148880952D01*
X110142857Y-149452380D01*
X110761904Y-149452380D01*
%TO.C,C202*%
X136860952Y-112557142D02*
X136813333Y-112604761D01*
X136670476Y-112652380D01*
X136575238Y-112652380D01*
X136432380Y-112604761D01*
X136337142Y-112509523D01*
X136289523Y-112414285D01*
X136241904Y-112223809D01*
X136241904Y-112080952D01*
X136289523Y-111890476D01*
X136337142Y-111795238D01*
X136432380Y-111700000D01*
X136575238Y-111652380D01*
X136670476Y-111652380D01*
X136813333Y-111700000D01*
X136860952Y-111747619D01*
X137241904Y-111747619D02*
X137289523Y-111700000D01*
X137384761Y-111652380D01*
X137622857Y-111652380D01*
X137718095Y-111700000D01*
X137765714Y-111747619D01*
X137813333Y-111842857D01*
X137813333Y-111938095D01*
X137765714Y-112080952D01*
X137194285Y-112652380D01*
X137813333Y-112652380D01*
X138432380Y-111652380D02*
X138527619Y-111652380D01*
X138622857Y-111700000D01*
X138670476Y-111747619D01*
X138718095Y-111842857D01*
X138765714Y-112033333D01*
X138765714Y-112271428D01*
X138718095Y-112461904D01*
X138670476Y-112557142D01*
X138622857Y-112604761D01*
X138527619Y-112652380D01*
X138432380Y-112652380D01*
X138337142Y-112604761D01*
X138289523Y-112557142D01*
X138241904Y-112461904D01*
X138194285Y-112271428D01*
X138194285Y-112033333D01*
X138241904Y-111842857D01*
X138289523Y-111747619D01*
X138337142Y-111700000D01*
X138432380Y-111652380D01*
X139146666Y-111747619D02*
X139194285Y-111700000D01*
X139289523Y-111652380D01*
X139527619Y-111652380D01*
X139622857Y-111700000D01*
X139670476Y-111747619D01*
X139718095Y-111842857D01*
X139718095Y-111938095D01*
X139670476Y-112080952D01*
X139099047Y-112652380D01*
X139718095Y-112652380D01*
%TO.C,FB302*%
X113214285Y-114378571D02*
X112880952Y-114378571D01*
X112880952Y-114902380D02*
X112880952Y-113902380D01*
X113357142Y-113902380D01*
X114071428Y-114378571D02*
X114214285Y-114426190D01*
X114261904Y-114473809D01*
X114309523Y-114569047D01*
X114309523Y-114711904D01*
X114261904Y-114807142D01*
X114214285Y-114854761D01*
X114119047Y-114902380D01*
X113738095Y-114902380D01*
X113738095Y-113902380D01*
X114071428Y-113902380D01*
X114166666Y-113950000D01*
X114214285Y-113997619D01*
X114261904Y-114092857D01*
X114261904Y-114188095D01*
X114214285Y-114283333D01*
X114166666Y-114330952D01*
X114071428Y-114378571D01*
X113738095Y-114378571D01*
X114642857Y-113902380D02*
X115261904Y-113902380D01*
X114928571Y-114283333D01*
X115071428Y-114283333D01*
X115166666Y-114330952D01*
X115214285Y-114378571D01*
X115261904Y-114473809D01*
X115261904Y-114711904D01*
X115214285Y-114807142D01*
X115166666Y-114854761D01*
X115071428Y-114902380D01*
X114785714Y-114902380D01*
X114690476Y-114854761D01*
X114642857Y-114807142D01*
X115880952Y-113902380D02*
X115976190Y-113902380D01*
X116071428Y-113950000D01*
X116119047Y-113997619D01*
X116166666Y-114092857D01*
X116214285Y-114283333D01*
X116214285Y-114521428D01*
X116166666Y-114711904D01*
X116119047Y-114807142D01*
X116071428Y-114854761D01*
X115976190Y-114902380D01*
X115880952Y-114902380D01*
X115785714Y-114854761D01*
X115738095Y-114807142D01*
X115690476Y-114711904D01*
X115642857Y-114521428D01*
X115642857Y-114283333D01*
X115690476Y-114092857D01*
X115738095Y-113997619D01*
X115785714Y-113950000D01*
X115880952Y-113902380D01*
X116595238Y-113997619D02*
X116642857Y-113950000D01*
X116738095Y-113902380D01*
X116976190Y-113902380D01*
X117071428Y-113950000D01*
X117119047Y-113997619D01*
X117166666Y-114092857D01*
X117166666Y-114188095D01*
X117119047Y-114330952D01*
X116547619Y-114902380D01*
X117166666Y-114902380D01*
%TO.C,J302*%
X102714285Y-123452380D02*
X102714285Y-124166666D01*
X102666666Y-124309523D01*
X102571428Y-124404761D01*
X102428571Y-124452380D01*
X102333333Y-124452380D01*
X103095238Y-123452380D02*
X103714285Y-123452380D01*
X103380952Y-123833333D01*
X103523809Y-123833333D01*
X103619047Y-123880952D01*
X103666666Y-123928571D01*
X103714285Y-124023809D01*
X103714285Y-124261904D01*
X103666666Y-124357142D01*
X103619047Y-124404761D01*
X103523809Y-124452380D01*
X103238095Y-124452380D01*
X103142857Y-124404761D01*
X103095238Y-124357142D01*
X104333333Y-123452380D02*
X104428571Y-123452380D01*
X104523809Y-123500000D01*
X104571428Y-123547619D01*
X104619047Y-123642857D01*
X104666666Y-123833333D01*
X104666666Y-124071428D01*
X104619047Y-124261904D01*
X104571428Y-124357142D01*
X104523809Y-124404761D01*
X104428571Y-124452380D01*
X104333333Y-124452380D01*
X104238095Y-124404761D01*
X104190476Y-124357142D01*
X104142857Y-124261904D01*
X104095238Y-124071428D01*
X104095238Y-123833333D01*
X104142857Y-123642857D01*
X104190476Y-123547619D01*
X104238095Y-123500000D01*
X104333333Y-123452380D01*
X105047619Y-123547619D02*
X105095238Y-123500000D01*
X105190476Y-123452380D01*
X105428571Y-123452380D01*
X105523809Y-123500000D01*
X105571428Y-123547619D01*
X105619047Y-123642857D01*
X105619047Y-123738095D01*
X105571428Y-123880952D01*
X105000000Y-124452380D01*
X105619047Y-124452380D01*
%TO.C,U301*%
X118285714Y-129052380D02*
X118285714Y-129861904D01*
X118333333Y-129957142D01*
X118380952Y-130004761D01*
X118476190Y-130052380D01*
X118666666Y-130052380D01*
X118761904Y-130004761D01*
X118809523Y-129957142D01*
X118857142Y-129861904D01*
X118857142Y-129052380D01*
X119238095Y-129052380D02*
X119857142Y-129052380D01*
X119523809Y-129433333D01*
X119666666Y-129433333D01*
X119761904Y-129480952D01*
X119809523Y-129528571D01*
X119857142Y-129623809D01*
X119857142Y-129861904D01*
X119809523Y-129957142D01*
X119761904Y-130004761D01*
X119666666Y-130052380D01*
X119380952Y-130052380D01*
X119285714Y-130004761D01*
X119238095Y-129957142D01*
X120476190Y-129052380D02*
X120571428Y-129052380D01*
X120666666Y-129100000D01*
X120714285Y-129147619D01*
X120761904Y-129242857D01*
X120809523Y-129433333D01*
X120809523Y-129671428D01*
X120761904Y-129861904D01*
X120714285Y-129957142D01*
X120666666Y-130004761D01*
X120571428Y-130052380D01*
X120476190Y-130052380D01*
X120380952Y-130004761D01*
X120333333Y-129957142D01*
X120285714Y-129861904D01*
X120238095Y-129671428D01*
X120238095Y-129433333D01*
X120285714Y-129242857D01*
X120333333Y-129147619D01*
X120380952Y-129100000D01*
X120476190Y-129052380D01*
X121761904Y-130052380D02*
X121190476Y-130052380D01*
X121476190Y-130052380D02*
X121476190Y-129052380D01*
X121380952Y-129195238D01*
X121285714Y-129290476D01*
X121190476Y-129338095D01*
%TO.C,C201*%
X132280952Y-109957142D02*
X132233333Y-110004761D01*
X132090476Y-110052380D01*
X131995238Y-110052380D01*
X131852380Y-110004761D01*
X131757142Y-109909523D01*
X131709523Y-109814285D01*
X131661904Y-109623809D01*
X131661904Y-109480952D01*
X131709523Y-109290476D01*
X131757142Y-109195238D01*
X131852380Y-109100000D01*
X131995238Y-109052380D01*
X132090476Y-109052380D01*
X132233333Y-109100000D01*
X132280952Y-109147619D01*
X132661904Y-109147619D02*
X132709523Y-109100000D01*
X132804761Y-109052380D01*
X133042857Y-109052380D01*
X133138095Y-109100000D01*
X133185714Y-109147619D01*
X133233333Y-109242857D01*
X133233333Y-109338095D01*
X133185714Y-109480952D01*
X132614285Y-110052380D01*
X133233333Y-110052380D01*
X133852380Y-109052380D02*
X133947619Y-109052380D01*
X134042857Y-109100000D01*
X134090476Y-109147619D01*
X134138095Y-109242857D01*
X134185714Y-109433333D01*
X134185714Y-109671428D01*
X134138095Y-109861904D01*
X134090476Y-109957142D01*
X134042857Y-110004761D01*
X133947619Y-110052380D01*
X133852380Y-110052380D01*
X133757142Y-110004761D01*
X133709523Y-109957142D01*
X133661904Y-109861904D01*
X133614285Y-109671428D01*
X133614285Y-109433333D01*
X133661904Y-109242857D01*
X133709523Y-109147619D01*
X133757142Y-109100000D01*
X133852380Y-109052380D01*
X135138095Y-110052380D02*
X134566666Y-110052380D01*
X134852380Y-110052380D02*
X134852380Y-109052380D01*
X134757142Y-109195238D01*
X134661904Y-109290476D01*
X134566666Y-109338095D01*
%TO.C,J103*%
X98177380Y-82285714D02*
X98891666Y-82285714D01*
X99034523Y-82333333D01*
X99129761Y-82428571D01*
X99177380Y-82571428D01*
X99177380Y-82666666D01*
X99177380Y-81285714D02*
X99177380Y-81857142D01*
X99177380Y-81571428D02*
X98177380Y-81571428D01*
X98320238Y-81666666D01*
X98415476Y-81761904D01*
X98463095Y-81857142D01*
X98177380Y-80666666D02*
X98177380Y-80571428D01*
X98225000Y-80476190D01*
X98272619Y-80428571D01*
X98367857Y-80380952D01*
X98558333Y-80333333D01*
X98796428Y-80333333D01*
X98986904Y-80380952D01*
X99082142Y-80428571D01*
X99129761Y-80476190D01*
X99177380Y-80571428D01*
X99177380Y-80666666D01*
X99129761Y-80761904D01*
X99082142Y-80809523D01*
X98986904Y-80857142D01*
X98796428Y-80904761D01*
X98558333Y-80904761D01*
X98367857Y-80857142D01*
X98272619Y-80809523D01*
X98225000Y-80761904D01*
X98177380Y-80666666D01*
X98177380Y-80000000D02*
X98177380Y-79380952D01*
X98558333Y-79714285D01*
X98558333Y-79571428D01*
X98605952Y-79476190D01*
X98653571Y-79428571D01*
X98748809Y-79380952D01*
X98986904Y-79380952D01*
X99082142Y-79428571D01*
X99129761Y-79476190D01*
X99177380Y-79571428D01*
X99177380Y-79857142D01*
X99129761Y-79952380D01*
X99082142Y-80000000D01*
%TO.C,U102*%
X120452380Y-87714285D02*
X121261904Y-87714285D01*
X121357142Y-87666666D01*
X121404761Y-87619047D01*
X121452380Y-87523809D01*
X121452380Y-87333333D01*
X121404761Y-87238095D01*
X121357142Y-87190476D01*
X121261904Y-87142857D01*
X120452380Y-87142857D01*
X121452380Y-86142857D02*
X121452380Y-86714285D01*
X121452380Y-86428571D02*
X120452380Y-86428571D01*
X120595238Y-86523809D01*
X120690476Y-86619047D01*
X120738095Y-86714285D01*
X120452380Y-85523809D02*
X120452380Y-85428571D01*
X120500000Y-85333333D01*
X120547619Y-85285714D01*
X120642857Y-85238095D01*
X120833333Y-85190476D01*
X121071428Y-85190476D01*
X121261904Y-85238095D01*
X121357142Y-85285714D01*
X121404761Y-85333333D01*
X121452380Y-85428571D01*
X121452380Y-85523809D01*
X121404761Y-85619047D01*
X121357142Y-85666666D01*
X121261904Y-85714285D01*
X121071428Y-85761904D01*
X120833333Y-85761904D01*
X120642857Y-85714285D01*
X120547619Y-85666666D01*
X120500000Y-85619047D01*
X120452380Y-85523809D01*
X120547619Y-84809523D02*
X120500000Y-84761904D01*
X120452380Y-84666666D01*
X120452380Y-84428571D01*
X120500000Y-84333333D01*
X120547619Y-84285714D01*
X120642857Y-84238095D01*
X120738095Y-84238095D01*
X120880952Y-84285714D01*
X121452380Y-84857142D01*
X121452380Y-84238095D01*
%TO.C,R201*%
X117880952Y-93352380D02*
X117547619Y-92876190D01*
X117309523Y-93352380D02*
X117309523Y-92352380D01*
X117690476Y-92352380D01*
X117785714Y-92400000D01*
X117833333Y-92447619D01*
X117880952Y-92542857D01*
X117880952Y-92685714D01*
X117833333Y-92780952D01*
X117785714Y-92828571D01*
X117690476Y-92876190D01*
X117309523Y-92876190D01*
X118261904Y-92447619D02*
X118309523Y-92400000D01*
X118404761Y-92352380D01*
X118642857Y-92352380D01*
X118738095Y-92400000D01*
X118785714Y-92447619D01*
X118833333Y-92542857D01*
X118833333Y-92638095D01*
X118785714Y-92780952D01*
X118214285Y-93352380D01*
X118833333Y-93352380D01*
X119452380Y-92352380D02*
X119547619Y-92352380D01*
X119642857Y-92400000D01*
X119690476Y-92447619D01*
X119738095Y-92542857D01*
X119785714Y-92733333D01*
X119785714Y-92971428D01*
X119738095Y-93161904D01*
X119690476Y-93257142D01*
X119642857Y-93304761D01*
X119547619Y-93352380D01*
X119452380Y-93352380D01*
X119357142Y-93304761D01*
X119309523Y-93257142D01*
X119261904Y-93161904D01*
X119214285Y-92971428D01*
X119214285Y-92733333D01*
X119261904Y-92542857D01*
X119309523Y-92447619D01*
X119357142Y-92400000D01*
X119452380Y-92352380D01*
X120738095Y-93352380D02*
X120166666Y-93352380D01*
X120452380Y-93352380D02*
X120452380Y-92352380D01*
X120357142Y-92495238D01*
X120261904Y-92590476D01*
X120166666Y-92638095D01*
%TO.C,J101*%
X146709285Y-112047380D02*
X146709285Y-112761666D01*
X146661666Y-112904523D01*
X146566428Y-112999761D01*
X146423571Y-113047380D01*
X146328333Y-113047380D01*
X147709285Y-113047380D02*
X147137857Y-113047380D01*
X147423571Y-113047380D02*
X147423571Y-112047380D01*
X147328333Y-112190238D01*
X147233095Y-112285476D01*
X147137857Y-112333095D01*
X148328333Y-112047380D02*
X148423571Y-112047380D01*
X148518809Y-112095000D01*
X148566428Y-112142619D01*
X148614047Y-112237857D01*
X148661666Y-112428333D01*
X148661666Y-112666428D01*
X148614047Y-112856904D01*
X148566428Y-112952142D01*
X148518809Y-112999761D01*
X148423571Y-113047380D01*
X148328333Y-113047380D01*
X148233095Y-112999761D01*
X148185476Y-112952142D01*
X148137857Y-112856904D01*
X148090238Y-112666428D01*
X148090238Y-112428333D01*
X148137857Y-112237857D01*
X148185476Y-112142619D01*
X148233095Y-112095000D01*
X148328333Y-112047380D01*
X149614047Y-113047380D02*
X149042619Y-113047380D01*
X149328333Y-113047380D02*
X149328333Y-112047380D01*
X149233095Y-112190238D01*
X149137857Y-112285476D01*
X149042619Y-112333095D01*
%TO.C,R105*%
X117380952Y-87352380D02*
X117047619Y-86876190D01*
X116809523Y-87352380D02*
X116809523Y-86352380D01*
X117190476Y-86352380D01*
X117285714Y-86400000D01*
X117333333Y-86447619D01*
X117380952Y-86542857D01*
X117380952Y-86685714D01*
X117333333Y-86780952D01*
X117285714Y-86828571D01*
X117190476Y-86876190D01*
X116809523Y-86876190D01*
X118333333Y-87352380D02*
X117761904Y-87352380D01*
X118047619Y-87352380D02*
X118047619Y-86352380D01*
X117952380Y-86495238D01*
X117857142Y-86590476D01*
X117761904Y-86638095D01*
X118952380Y-86352380D02*
X119047619Y-86352380D01*
X119142857Y-86400000D01*
X119190476Y-86447619D01*
X119238095Y-86542857D01*
X119285714Y-86733333D01*
X119285714Y-86971428D01*
X119238095Y-87161904D01*
X119190476Y-87257142D01*
X119142857Y-87304761D01*
X119047619Y-87352380D01*
X118952380Y-87352380D01*
X118857142Y-87304761D01*
X118809523Y-87257142D01*
X118761904Y-87161904D01*
X118714285Y-86971428D01*
X118714285Y-86733333D01*
X118761904Y-86542857D01*
X118809523Y-86447619D01*
X118857142Y-86400000D01*
X118952380Y-86352380D01*
X120190476Y-86352380D02*
X119714285Y-86352380D01*
X119666666Y-86828571D01*
X119714285Y-86780952D01*
X119809523Y-86733333D01*
X120047619Y-86733333D01*
X120142857Y-86780952D01*
X120190476Y-86828571D01*
X120238095Y-86923809D01*
X120238095Y-87161904D01*
X120190476Y-87257142D01*
X120142857Y-87304761D01*
X120047619Y-87352380D01*
X119809523Y-87352380D01*
X119714285Y-87304761D01*
X119666666Y-87257142D01*
%TO.C,U202*%
X125285714Y-101752380D02*
X125285714Y-102561904D01*
X125333333Y-102657142D01*
X125380952Y-102704761D01*
X125476190Y-102752380D01*
X125666666Y-102752380D01*
X125761904Y-102704761D01*
X125809523Y-102657142D01*
X125857142Y-102561904D01*
X125857142Y-101752380D01*
X126285714Y-101847619D02*
X126333333Y-101800000D01*
X126428571Y-101752380D01*
X126666666Y-101752380D01*
X126761904Y-101800000D01*
X126809523Y-101847619D01*
X126857142Y-101942857D01*
X126857142Y-102038095D01*
X126809523Y-102180952D01*
X126238095Y-102752380D01*
X126857142Y-102752380D01*
X127476190Y-101752380D02*
X127571428Y-101752380D01*
X127666666Y-101800000D01*
X127714285Y-101847619D01*
X127761904Y-101942857D01*
X127809523Y-102133333D01*
X127809523Y-102371428D01*
X127761904Y-102561904D01*
X127714285Y-102657142D01*
X127666666Y-102704761D01*
X127571428Y-102752380D01*
X127476190Y-102752380D01*
X127380952Y-102704761D01*
X127333333Y-102657142D01*
X127285714Y-102561904D01*
X127238095Y-102371428D01*
X127238095Y-102133333D01*
X127285714Y-101942857D01*
X127333333Y-101847619D01*
X127380952Y-101800000D01*
X127476190Y-101752380D01*
X128190476Y-101847619D02*
X128238095Y-101800000D01*
X128333333Y-101752380D01*
X128571428Y-101752380D01*
X128666666Y-101800000D01*
X128714285Y-101847619D01*
X128761904Y-101942857D01*
X128761904Y-102038095D01*
X128714285Y-102180952D01*
X128142857Y-102752380D01*
X128761904Y-102752380D01*
%TO.C,R102*%
X118452380Y-69619047D02*
X117976190Y-69952380D01*
X118452380Y-70190476D02*
X117452380Y-70190476D01*
X117452380Y-69809523D01*
X117500000Y-69714285D01*
X117547619Y-69666666D01*
X117642857Y-69619047D01*
X117785714Y-69619047D01*
X117880952Y-69666666D01*
X117928571Y-69714285D01*
X117976190Y-69809523D01*
X117976190Y-70190476D01*
X118452380Y-68666666D02*
X118452380Y-69238095D01*
X118452380Y-68952380D02*
X117452380Y-68952380D01*
X117595238Y-69047619D01*
X117690476Y-69142857D01*
X117738095Y-69238095D01*
X117452380Y-68047619D02*
X117452380Y-67952380D01*
X117500000Y-67857142D01*
X117547619Y-67809523D01*
X117642857Y-67761904D01*
X117833333Y-67714285D01*
X118071428Y-67714285D01*
X118261904Y-67761904D01*
X118357142Y-67809523D01*
X118404761Y-67857142D01*
X118452380Y-67952380D01*
X118452380Y-68047619D01*
X118404761Y-68142857D01*
X118357142Y-68190476D01*
X118261904Y-68238095D01*
X118071428Y-68285714D01*
X117833333Y-68285714D01*
X117642857Y-68238095D01*
X117547619Y-68190476D01*
X117500000Y-68142857D01*
X117452380Y-68047619D01*
X117547619Y-67333333D02*
X117500000Y-67285714D01*
X117452380Y-67190476D01*
X117452380Y-66952380D01*
X117500000Y-66857142D01*
X117547619Y-66809523D01*
X117642857Y-66761904D01*
X117738095Y-66761904D01*
X117880952Y-66809523D01*
X118452380Y-67380952D01*
X118452380Y-66761904D01*
%TO.C,R107*%
X118952380Y-74719047D02*
X118476190Y-75052380D01*
X118952380Y-75290476D02*
X117952380Y-75290476D01*
X117952380Y-74909523D01*
X118000000Y-74814285D01*
X118047619Y-74766666D01*
X118142857Y-74719047D01*
X118285714Y-74719047D01*
X118380952Y-74766666D01*
X118428571Y-74814285D01*
X118476190Y-74909523D01*
X118476190Y-75290476D01*
X118952380Y-73766666D02*
X118952380Y-74338095D01*
X118952380Y-74052380D02*
X117952380Y-74052380D01*
X118095238Y-74147619D01*
X118190476Y-74242857D01*
X118238095Y-74338095D01*
X117952380Y-73147619D02*
X117952380Y-73052380D01*
X118000000Y-72957142D01*
X118047619Y-72909523D01*
X118142857Y-72861904D01*
X118333333Y-72814285D01*
X118571428Y-72814285D01*
X118761904Y-72861904D01*
X118857142Y-72909523D01*
X118904761Y-72957142D01*
X118952380Y-73052380D01*
X118952380Y-73147619D01*
X118904761Y-73242857D01*
X118857142Y-73290476D01*
X118761904Y-73338095D01*
X118571428Y-73385714D01*
X118333333Y-73385714D01*
X118142857Y-73338095D01*
X118047619Y-73290476D01*
X118000000Y-73242857D01*
X117952380Y-73147619D01*
X117952380Y-72480952D02*
X117952380Y-71814285D01*
X118952380Y-72242857D01*
%TO.C,U104*%
X120452380Y-73714285D02*
X121261904Y-73714285D01*
X121357142Y-73666666D01*
X121404761Y-73619047D01*
X121452380Y-73523809D01*
X121452380Y-73333333D01*
X121404761Y-73238095D01*
X121357142Y-73190476D01*
X121261904Y-73142857D01*
X120452380Y-73142857D01*
X121452380Y-72142857D02*
X121452380Y-72714285D01*
X121452380Y-72428571D02*
X120452380Y-72428571D01*
X120595238Y-72523809D01*
X120690476Y-72619047D01*
X120738095Y-72714285D01*
X120452380Y-71523809D02*
X120452380Y-71428571D01*
X120500000Y-71333333D01*
X120547619Y-71285714D01*
X120642857Y-71238095D01*
X120833333Y-71190476D01*
X121071428Y-71190476D01*
X121261904Y-71238095D01*
X121357142Y-71285714D01*
X121404761Y-71333333D01*
X121452380Y-71428571D01*
X121452380Y-71523809D01*
X121404761Y-71619047D01*
X121357142Y-71666666D01*
X121261904Y-71714285D01*
X121071428Y-71761904D01*
X120833333Y-71761904D01*
X120642857Y-71714285D01*
X120547619Y-71666666D01*
X120500000Y-71619047D01*
X120452380Y-71523809D01*
X120785714Y-70333333D02*
X121452380Y-70333333D01*
X120404761Y-70571428D02*
X121119047Y-70809523D01*
X121119047Y-70190476D01*
%TO.C,J102*%
X136964285Y-60702380D02*
X136964285Y-61416666D01*
X136916666Y-61559523D01*
X136821428Y-61654761D01*
X136678571Y-61702380D01*
X136583333Y-61702380D01*
X137964285Y-61702380D02*
X137392857Y-61702380D01*
X137678571Y-61702380D02*
X137678571Y-60702380D01*
X137583333Y-60845238D01*
X137488095Y-60940476D01*
X137392857Y-60988095D01*
X138583333Y-60702380D02*
X138678571Y-60702380D01*
X138773809Y-60750000D01*
X138821428Y-60797619D01*
X138869047Y-60892857D01*
X138916666Y-61083333D01*
X138916666Y-61321428D01*
X138869047Y-61511904D01*
X138821428Y-61607142D01*
X138773809Y-61654761D01*
X138678571Y-61702380D01*
X138583333Y-61702380D01*
X138488095Y-61654761D01*
X138440476Y-61607142D01*
X138392857Y-61511904D01*
X138345238Y-61321428D01*
X138345238Y-61083333D01*
X138392857Y-60892857D01*
X138440476Y-60797619D01*
X138488095Y-60750000D01*
X138583333Y-60702380D01*
X139297619Y-60797619D02*
X139345238Y-60750000D01*
X139440476Y-60702380D01*
X139678571Y-60702380D01*
X139773809Y-60750000D01*
X139821428Y-60797619D01*
X139869047Y-60892857D01*
X139869047Y-60988095D01*
X139821428Y-61130952D01*
X139250000Y-61702380D01*
X139869047Y-61702380D01*
%TO.C,C101*%
X104880952Y-92107142D02*
X104833333Y-92154761D01*
X104690476Y-92202380D01*
X104595238Y-92202380D01*
X104452380Y-92154761D01*
X104357142Y-92059523D01*
X104309523Y-91964285D01*
X104261904Y-91773809D01*
X104261904Y-91630952D01*
X104309523Y-91440476D01*
X104357142Y-91345238D01*
X104452380Y-91250000D01*
X104595238Y-91202380D01*
X104690476Y-91202380D01*
X104833333Y-91250000D01*
X104880952Y-91297619D01*
X105833333Y-92202380D02*
X105261904Y-92202380D01*
X105547619Y-92202380D02*
X105547619Y-91202380D01*
X105452380Y-91345238D01*
X105357142Y-91440476D01*
X105261904Y-91488095D01*
X106452380Y-91202380D02*
X106547619Y-91202380D01*
X106642857Y-91250000D01*
X106690476Y-91297619D01*
X106738095Y-91392857D01*
X106785714Y-91583333D01*
X106785714Y-91821428D01*
X106738095Y-92011904D01*
X106690476Y-92107142D01*
X106642857Y-92154761D01*
X106547619Y-92202380D01*
X106452380Y-92202380D01*
X106357142Y-92154761D01*
X106309523Y-92107142D01*
X106261904Y-92011904D01*
X106214285Y-91821428D01*
X106214285Y-91583333D01*
X106261904Y-91392857D01*
X106309523Y-91297619D01*
X106357142Y-91250000D01*
X106452380Y-91202380D01*
X107738095Y-92202380D02*
X107166666Y-92202380D01*
X107452380Y-92202380D02*
X107452380Y-91202380D01*
X107357142Y-91345238D01*
X107261904Y-91440476D01*
X107166666Y-91488095D01*
%TO.C,C207*%
X134157142Y-103719047D02*
X134204761Y-103766666D01*
X134252380Y-103909523D01*
X134252380Y-104004761D01*
X134204761Y-104147619D01*
X134109523Y-104242857D01*
X134014285Y-104290476D01*
X133823809Y-104338095D01*
X133680952Y-104338095D01*
X133490476Y-104290476D01*
X133395238Y-104242857D01*
X133300000Y-104147619D01*
X133252380Y-104004761D01*
X133252380Y-103909523D01*
X133300000Y-103766666D01*
X133347619Y-103719047D01*
X133347619Y-103338095D02*
X133300000Y-103290476D01*
X133252380Y-103195238D01*
X133252380Y-102957142D01*
X133300000Y-102861904D01*
X133347619Y-102814285D01*
X133442857Y-102766666D01*
X133538095Y-102766666D01*
X133680952Y-102814285D01*
X134252380Y-103385714D01*
X134252380Y-102766666D01*
X133252380Y-102147619D02*
X133252380Y-102052380D01*
X133300000Y-101957142D01*
X133347619Y-101909523D01*
X133442857Y-101861904D01*
X133633333Y-101814285D01*
X133871428Y-101814285D01*
X134061904Y-101861904D01*
X134157142Y-101909523D01*
X134204761Y-101957142D01*
X134252380Y-102052380D01*
X134252380Y-102147619D01*
X134204761Y-102242857D01*
X134157142Y-102290476D01*
X134061904Y-102338095D01*
X133871428Y-102385714D01*
X133633333Y-102385714D01*
X133442857Y-102338095D01*
X133347619Y-102290476D01*
X133300000Y-102242857D01*
X133252380Y-102147619D01*
X133252380Y-101480952D02*
X133252380Y-100814285D01*
X134252380Y-101242857D01*
%TO.C,U101*%
X120452380Y-80714285D02*
X121261904Y-80714285D01*
X121357142Y-80666666D01*
X121404761Y-80619047D01*
X121452380Y-80523809D01*
X121452380Y-80333333D01*
X121404761Y-80238095D01*
X121357142Y-80190476D01*
X121261904Y-80142857D01*
X120452380Y-80142857D01*
X121452380Y-79142857D02*
X121452380Y-79714285D01*
X121452380Y-79428571D02*
X120452380Y-79428571D01*
X120595238Y-79523809D01*
X120690476Y-79619047D01*
X120738095Y-79714285D01*
X120452380Y-78523809D02*
X120452380Y-78428571D01*
X120500000Y-78333333D01*
X120547619Y-78285714D01*
X120642857Y-78238095D01*
X120833333Y-78190476D01*
X121071428Y-78190476D01*
X121261904Y-78238095D01*
X121357142Y-78285714D01*
X121404761Y-78333333D01*
X121452380Y-78428571D01*
X121452380Y-78523809D01*
X121404761Y-78619047D01*
X121357142Y-78666666D01*
X121261904Y-78714285D01*
X121071428Y-78761904D01*
X120833333Y-78761904D01*
X120642857Y-78714285D01*
X120547619Y-78666666D01*
X120500000Y-78619047D01*
X120452380Y-78523809D01*
X121452380Y-77238095D02*
X121452380Y-77809523D01*
X121452380Y-77523809D02*
X120452380Y-77523809D01*
X120595238Y-77619047D01*
X120690476Y-77714285D01*
X120738095Y-77809523D01*
%TO.C,D201*%
X113309523Y-96852380D02*
X113309523Y-95852380D01*
X113547619Y-95852380D01*
X113690476Y-95900000D01*
X113785714Y-95995238D01*
X113833333Y-96090476D01*
X113880952Y-96280952D01*
X113880952Y-96423809D01*
X113833333Y-96614285D01*
X113785714Y-96709523D01*
X113690476Y-96804761D01*
X113547619Y-96852380D01*
X113309523Y-96852380D01*
X114261904Y-95947619D02*
X114309523Y-95900000D01*
X114404761Y-95852380D01*
X114642857Y-95852380D01*
X114738095Y-95900000D01*
X114785714Y-95947619D01*
X114833333Y-96042857D01*
X114833333Y-96138095D01*
X114785714Y-96280952D01*
X114214285Y-96852380D01*
X114833333Y-96852380D01*
X115452380Y-95852380D02*
X115547619Y-95852380D01*
X115642857Y-95900000D01*
X115690476Y-95947619D01*
X115738095Y-96042857D01*
X115785714Y-96233333D01*
X115785714Y-96471428D01*
X115738095Y-96661904D01*
X115690476Y-96757142D01*
X115642857Y-96804761D01*
X115547619Y-96852380D01*
X115452380Y-96852380D01*
X115357142Y-96804761D01*
X115309523Y-96757142D01*
X115261904Y-96661904D01*
X115214285Y-96471428D01*
X115214285Y-96233333D01*
X115261904Y-96042857D01*
X115309523Y-95947619D01*
X115357142Y-95900000D01*
X115452380Y-95852380D01*
X116738095Y-96852380D02*
X116166666Y-96852380D01*
X116452380Y-96852380D02*
X116452380Y-95852380D01*
X116357142Y-95995238D01*
X116261904Y-96090476D01*
X116166666Y-96138095D01*
%TO.C,R104*%
X117380952Y-83952380D02*
X117047619Y-83476190D01*
X116809523Y-83952380D02*
X116809523Y-82952380D01*
X117190476Y-82952380D01*
X117285714Y-83000000D01*
X117333333Y-83047619D01*
X117380952Y-83142857D01*
X117380952Y-83285714D01*
X117333333Y-83380952D01*
X117285714Y-83428571D01*
X117190476Y-83476190D01*
X116809523Y-83476190D01*
X118333333Y-83952380D02*
X117761904Y-83952380D01*
X118047619Y-83952380D02*
X118047619Y-82952380D01*
X117952380Y-83095238D01*
X117857142Y-83190476D01*
X117761904Y-83238095D01*
X118952380Y-82952380D02*
X119047619Y-82952380D01*
X119142857Y-83000000D01*
X119190476Y-83047619D01*
X119238095Y-83142857D01*
X119285714Y-83333333D01*
X119285714Y-83571428D01*
X119238095Y-83761904D01*
X119190476Y-83857142D01*
X119142857Y-83904761D01*
X119047619Y-83952380D01*
X118952380Y-83952380D01*
X118857142Y-83904761D01*
X118809523Y-83857142D01*
X118761904Y-83761904D01*
X118714285Y-83571428D01*
X118714285Y-83333333D01*
X118761904Y-83142857D01*
X118809523Y-83047619D01*
X118857142Y-83000000D01*
X118952380Y-82952380D01*
X120142857Y-83285714D02*
X120142857Y-83952380D01*
X119904761Y-82904761D02*
X119666666Y-83619047D01*
X120285714Y-83619047D01*
%TO.C,C206*%
X135080952Y-99157142D02*
X135033333Y-99204761D01*
X134890476Y-99252380D01*
X134795238Y-99252380D01*
X134652380Y-99204761D01*
X134557142Y-99109523D01*
X134509523Y-99014285D01*
X134461904Y-98823809D01*
X134461904Y-98680952D01*
X134509523Y-98490476D01*
X134557142Y-98395238D01*
X134652380Y-98300000D01*
X134795238Y-98252380D01*
X134890476Y-98252380D01*
X135033333Y-98300000D01*
X135080952Y-98347619D01*
X135461904Y-98347619D02*
X135509523Y-98300000D01*
X135604761Y-98252380D01*
X135842857Y-98252380D01*
X135938095Y-98300000D01*
X135985714Y-98347619D01*
X136033333Y-98442857D01*
X136033333Y-98538095D01*
X135985714Y-98680952D01*
X135414285Y-99252380D01*
X136033333Y-99252380D01*
X136652380Y-98252380D02*
X136747619Y-98252380D01*
X136842857Y-98300000D01*
X136890476Y-98347619D01*
X136938095Y-98442857D01*
X136985714Y-98633333D01*
X136985714Y-98871428D01*
X136938095Y-99061904D01*
X136890476Y-99157142D01*
X136842857Y-99204761D01*
X136747619Y-99252380D01*
X136652380Y-99252380D01*
X136557142Y-99204761D01*
X136509523Y-99157142D01*
X136461904Y-99061904D01*
X136414285Y-98871428D01*
X136414285Y-98633333D01*
X136461904Y-98442857D01*
X136509523Y-98347619D01*
X136557142Y-98300000D01*
X136652380Y-98252380D01*
X137842857Y-98252380D02*
X137652380Y-98252380D01*
X137557142Y-98300000D01*
X137509523Y-98347619D01*
X137414285Y-98490476D01*
X137366666Y-98680952D01*
X137366666Y-99061904D01*
X137414285Y-99157142D01*
X137461904Y-99204761D01*
X137557142Y-99252380D01*
X137747619Y-99252380D01*
X137842857Y-99204761D01*
X137890476Y-99157142D01*
X137938095Y-99061904D01*
X137938095Y-98823809D01*
X137890476Y-98728571D01*
X137842857Y-98680952D01*
X137747619Y-98633333D01*
X137557142Y-98633333D01*
X137461904Y-98680952D01*
X137414285Y-98728571D01*
X137366666Y-98823809D01*
%TO.C,R111*%
X135122380Y-73869047D02*
X134646190Y-74202380D01*
X135122380Y-74440476D02*
X134122380Y-74440476D01*
X134122380Y-74059523D01*
X134170000Y-73964285D01*
X134217619Y-73916666D01*
X134312857Y-73869047D01*
X134455714Y-73869047D01*
X134550952Y-73916666D01*
X134598571Y-73964285D01*
X134646190Y-74059523D01*
X134646190Y-74440476D01*
X135122380Y-72916666D02*
X135122380Y-73488095D01*
X135122380Y-73202380D02*
X134122380Y-73202380D01*
X134265238Y-73297619D01*
X134360476Y-73392857D01*
X134408095Y-73488095D01*
X135122380Y-71964285D02*
X135122380Y-72535714D01*
X135122380Y-72250000D02*
X134122380Y-72250000D01*
X134265238Y-72345238D01*
X134360476Y-72440476D01*
X134408095Y-72535714D01*
X135122380Y-71011904D02*
X135122380Y-71583333D01*
X135122380Y-71297619D02*
X134122380Y-71297619D01*
X134265238Y-71392857D01*
X134360476Y-71488095D01*
X134408095Y-71583333D01*
%TO.C,R106*%
X116952380Y-69619047D02*
X116476190Y-69952380D01*
X116952380Y-70190476D02*
X115952380Y-70190476D01*
X115952380Y-69809523D01*
X116000000Y-69714285D01*
X116047619Y-69666666D01*
X116142857Y-69619047D01*
X116285714Y-69619047D01*
X116380952Y-69666666D01*
X116428571Y-69714285D01*
X116476190Y-69809523D01*
X116476190Y-70190476D01*
X116952380Y-68666666D02*
X116952380Y-69238095D01*
X116952380Y-68952380D02*
X115952380Y-68952380D01*
X116095238Y-69047619D01*
X116190476Y-69142857D01*
X116238095Y-69238095D01*
X115952380Y-68047619D02*
X115952380Y-67952380D01*
X116000000Y-67857142D01*
X116047619Y-67809523D01*
X116142857Y-67761904D01*
X116333333Y-67714285D01*
X116571428Y-67714285D01*
X116761904Y-67761904D01*
X116857142Y-67809523D01*
X116904761Y-67857142D01*
X116952380Y-67952380D01*
X116952380Y-68047619D01*
X116904761Y-68142857D01*
X116857142Y-68190476D01*
X116761904Y-68238095D01*
X116571428Y-68285714D01*
X116333333Y-68285714D01*
X116142857Y-68238095D01*
X116047619Y-68190476D01*
X116000000Y-68142857D01*
X115952380Y-68047619D01*
X115952380Y-66857142D02*
X115952380Y-67047619D01*
X116000000Y-67142857D01*
X116047619Y-67190476D01*
X116190476Y-67285714D01*
X116380952Y-67333333D01*
X116761904Y-67333333D01*
X116857142Y-67285714D01*
X116904761Y-67238095D01*
X116952380Y-67142857D01*
X116952380Y-66952380D01*
X116904761Y-66857142D01*
X116857142Y-66809523D01*
X116761904Y-66761904D01*
X116523809Y-66761904D01*
X116428571Y-66809523D01*
X116380952Y-66857142D01*
X116333333Y-66952380D01*
X116333333Y-67142857D01*
X116380952Y-67238095D01*
X116428571Y-67285714D01*
X116523809Y-67333333D01*
%TO.C,U201*%
X141052380Y-106714285D02*
X141861904Y-106714285D01*
X141957142Y-106666666D01*
X142004761Y-106619047D01*
X142052380Y-106523809D01*
X142052380Y-106333333D01*
X142004761Y-106238095D01*
X141957142Y-106190476D01*
X141861904Y-106142857D01*
X141052380Y-106142857D01*
X141147619Y-105714285D02*
X141100000Y-105666666D01*
X141052380Y-105571428D01*
X141052380Y-105333333D01*
X141100000Y-105238095D01*
X141147619Y-105190476D01*
X141242857Y-105142857D01*
X141338095Y-105142857D01*
X141480952Y-105190476D01*
X142052380Y-105761904D01*
X142052380Y-105142857D01*
X141052380Y-104523809D02*
X141052380Y-104428571D01*
X141100000Y-104333333D01*
X141147619Y-104285714D01*
X141242857Y-104238095D01*
X141433333Y-104190476D01*
X141671428Y-104190476D01*
X141861904Y-104238095D01*
X141957142Y-104285714D01*
X142004761Y-104333333D01*
X142052380Y-104428571D01*
X142052380Y-104523809D01*
X142004761Y-104619047D01*
X141957142Y-104666666D01*
X141861904Y-104714285D01*
X141671428Y-104761904D01*
X141433333Y-104761904D01*
X141242857Y-104714285D01*
X141147619Y-104666666D01*
X141100000Y-104619047D01*
X141052380Y-104523809D01*
X142052380Y-103238095D02*
X142052380Y-103809523D01*
X142052380Y-103523809D02*
X141052380Y-103523809D01*
X141195238Y-103619047D01*
X141290476Y-103714285D01*
X141338095Y-103809523D01*
%TO.C,J301*%
X118047380Y-121290714D02*
X118761666Y-121290714D01*
X118904523Y-121338333D01*
X118999761Y-121433571D01*
X119047380Y-121576428D01*
X119047380Y-121671666D01*
X118047380Y-120909761D02*
X118047380Y-120290714D01*
X118428333Y-120624047D01*
X118428333Y-120481190D01*
X118475952Y-120385952D01*
X118523571Y-120338333D01*
X118618809Y-120290714D01*
X118856904Y-120290714D01*
X118952142Y-120338333D01*
X118999761Y-120385952D01*
X119047380Y-120481190D01*
X119047380Y-120766904D01*
X118999761Y-120862142D01*
X118952142Y-120909761D01*
X118047380Y-119671666D02*
X118047380Y-119576428D01*
X118095000Y-119481190D01*
X118142619Y-119433571D01*
X118237857Y-119385952D01*
X118428333Y-119338333D01*
X118666428Y-119338333D01*
X118856904Y-119385952D01*
X118952142Y-119433571D01*
X118999761Y-119481190D01*
X119047380Y-119576428D01*
X119047380Y-119671666D01*
X118999761Y-119766904D01*
X118952142Y-119814523D01*
X118856904Y-119862142D01*
X118666428Y-119909761D01*
X118428333Y-119909761D01*
X118237857Y-119862142D01*
X118142619Y-119814523D01*
X118095000Y-119766904D01*
X118047380Y-119671666D01*
X119047380Y-118385952D02*
X119047380Y-118957380D01*
X119047380Y-118671666D02*
X118047380Y-118671666D01*
X118190238Y-118766904D01*
X118285476Y-118862142D01*
X118333095Y-118957380D01*
%TO.C,U103*%
X120452380Y-66714285D02*
X121261904Y-66714285D01*
X121357142Y-66666666D01*
X121404761Y-66619047D01*
X121452380Y-66523809D01*
X121452380Y-66333333D01*
X121404761Y-66238095D01*
X121357142Y-66190476D01*
X121261904Y-66142857D01*
X120452380Y-66142857D01*
X121452380Y-65142857D02*
X121452380Y-65714285D01*
X121452380Y-65428571D02*
X120452380Y-65428571D01*
X120595238Y-65523809D01*
X120690476Y-65619047D01*
X120738095Y-65714285D01*
X120452380Y-64523809D02*
X120452380Y-64428571D01*
X120500000Y-64333333D01*
X120547619Y-64285714D01*
X120642857Y-64238095D01*
X120833333Y-64190476D01*
X121071428Y-64190476D01*
X121261904Y-64238095D01*
X121357142Y-64285714D01*
X121404761Y-64333333D01*
X121452380Y-64428571D01*
X121452380Y-64523809D01*
X121404761Y-64619047D01*
X121357142Y-64666666D01*
X121261904Y-64714285D01*
X121071428Y-64761904D01*
X120833333Y-64761904D01*
X120642857Y-64714285D01*
X120547619Y-64666666D01*
X120500000Y-64619047D01*
X120452380Y-64523809D01*
X120452380Y-63857142D02*
X120452380Y-63238095D01*
X120833333Y-63571428D01*
X120833333Y-63428571D01*
X120880952Y-63333333D01*
X120928571Y-63285714D01*
X121023809Y-63238095D01*
X121261904Y-63238095D01*
X121357142Y-63285714D01*
X121404761Y-63333333D01*
X121452380Y-63428571D01*
X121452380Y-63714285D01*
X121404761Y-63809523D01*
X121357142Y-63857142D01*
%TO.C,C203*%
X131680952Y-105757142D02*
X131633333Y-105804761D01*
X131490476Y-105852380D01*
X131395238Y-105852380D01*
X131252380Y-105804761D01*
X131157142Y-105709523D01*
X131109523Y-105614285D01*
X131061904Y-105423809D01*
X131061904Y-105280952D01*
X131109523Y-105090476D01*
X131157142Y-104995238D01*
X131252380Y-104900000D01*
X131395238Y-104852380D01*
X131490476Y-104852380D01*
X131633333Y-104900000D01*
X131680952Y-104947619D01*
X132061904Y-104947619D02*
X132109523Y-104900000D01*
X132204761Y-104852380D01*
X132442857Y-104852380D01*
X132538095Y-104900000D01*
X132585714Y-104947619D01*
X132633333Y-105042857D01*
X132633333Y-105138095D01*
X132585714Y-105280952D01*
X132014285Y-105852380D01*
X132633333Y-105852380D01*
X133252380Y-104852380D02*
X133347619Y-104852380D01*
X133442857Y-104900000D01*
X133490476Y-104947619D01*
X133538095Y-105042857D01*
X133585714Y-105233333D01*
X133585714Y-105471428D01*
X133538095Y-105661904D01*
X133490476Y-105757142D01*
X133442857Y-105804761D01*
X133347619Y-105852380D01*
X133252380Y-105852380D01*
X133157142Y-105804761D01*
X133109523Y-105757142D01*
X133061904Y-105661904D01*
X133014285Y-105471428D01*
X133014285Y-105233333D01*
X133061904Y-105042857D01*
X133109523Y-104947619D01*
X133157142Y-104900000D01*
X133252380Y-104852380D01*
X133919047Y-104852380D02*
X134538095Y-104852380D01*
X134204761Y-105233333D01*
X134347619Y-105233333D01*
X134442857Y-105280952D01*
X134490476Y-105328571D01*
X134538095Y-105423809D01*
X134538095Y-105661904D01*
X134490476Y-105757142D01*
X134442857Y-105804761D01*
X134347619Y-105852380D01*
X134061904Y-105852380D01*
X133966666Y-105804761D01*
X133919047Y-105757142D01*
%TO.C,J104*%
X136964285Y-79952380D02*
X136964285Y-80666666D01*
X136916666Y-80809523D01*
X136821428Y-80904761D01*
X136678571Y-80952380D01*
X136583333Y-80952380D01*
X137964285Y-80952380D02*
X137392857Y-80952380D01*
X137678571Y-80952380D02*
X137678571Y-79952380D01*
X137583333Y-80095238D01*
X137488095Y-80190476D01*
X137392857Y-80238095D01*
X138583333Y-79952380D02*
X138678571Y-79952380D01*
X138773809Y-80000000D01*
X138821428Y-80047619D01*
X138869047Y-80142857D01*
X138916666Y-80333333D01*
X138916666Y-80571428D01*
X138869047Y-80761904D01*
X138821428Y-80857142D01*
X138773809Y-80904761D01*
X138678571Y-80952380D01*
X138583333Y-80952380D01*
X138488095Y-80904761D01*
X138440476Y-80857142D01*
X138392857Y-80761904D01*
X138345238Y-80571428D01*
X138345238Y-80333333D01*
X138392857Y-80142857D01*
X138440476Y-80047619D01*
X138488095Y-80000000D01*
X138583333Y-79952380D01*
X139773809Y-80285714D02*
X139773809Y-80952380D01*
X139535714Y-79904761D02*
X139297619Y-80619047D01*
X139916666Y-80619047D01*
%TO.C,H101*%
X107285714Y-61452380D02*
X107285714Y-60452380D01*
X107285714Y-60928571D02*
X107857142Y-60928571D01*
X107857142Y-61452380D02*
X107857142Y-60452380D01*
X108857142Y-61452380D02*
X108285714Y-61452380D01*
X108571428Y-61452380D02*
X108571428Y-60452380D01*
X108476190Y-60595238D01*
X108380952Y-60690476D01*
X108285714Y-60738095D01*
X109476190Y-60452380D02*
X109571428Y-60452380D01*
X109666666Y-60500000D01*
X109714285Y-60547619D01*
X109761904Y-60642857D01*
X109809523Y-60833333D01*
X109809523Y-61071428D01*
X109761904Y-61261904D01*
X109714285Y-61357142D01*
X109666666Y-61404761D01*
X109571428Y-61452380D01*
X109476190Y-61452380D01*
X109380952Y-61404761D01*
X109333333Y-61357142D01*
X109285714Y-61261904D01*
X109238095Y-61071428D01*
X109238095Y-60833333D01*
X109285714Y-60642857D01*
X109333333Y-60547619D01*
X109380952Y-60500000D01*
X109476190Y-60452380D01*
X110761904Y-61452380D02*
X110190476Y-61452380D01*
X110476190Y-61452380D02*
X110476190Y-60452380D01*
X110380952Y-60595238D01*
X110285714Y-60690476D01*
X110190476Y-60738095D01*
%TO.C,FB301*%
X113214285Y-140378571D02*
X112880952Y-140378571D01*
X112880952Y-140902380D02*
X112880952Y-139902380D01*
X113357142Y-139902380D01*
X114071428Y-140378571D02*
X114214285Y-140426190D01*
X114261904Y-140473809D01*
X114309523Y-140569047D01*
X114309523Y-140711904D01*
X114261904Y-140807142D01*
X114214285Y-140854761D01*
X114119047Y-140902380D01*
X113738095Y-140902380D01*
X113738095Y-139902380D01*
X114071428Y-139902380D01*
X114166666Y-139950000D01*
X114214285Y-139997619D01*
X114261904Y-140092857D01*
X114261904Y-140188095D01*
X114214285Y-140283333D01*
X114166666Y-140330952D01*
X114071428Y-140378571D01*
X113738095Y-140378571D01*
X114642857Y-139902380D02*
X115261904Y-139902380D01*
X114928571Y-140283333D01*
X115071428Y-140283333D01*
X115166666Y-140330952D01*
X115214285Y-140378571D01*
X115261904Y-140473809D01*
X115261904Y-140711904D01*
X115214285Y-140807142D01*
X115166666Y-140854761D01*
X115071428Y-140902380D01*
X114785714Y-140902380D01*
X114690476Y-140854761D01*
X114642857Y-140807142D01*
X115880952Y-139902380D02*
X115976190Y-139902380D01*
X116071428Y-139950000D01*
X116119047Y-139997619D01*
X116166666Y-140092857D01*
X116214285Y-140283333D01*
X116214285Y-140521428D01*
X116166666Y-140711904D01*
X116119047Y-140807142D01*
X116071428Y-140854761D01*
X115976190Y-140902380D01*
X115880952Y-140902380D01*
X115785714Y-140854761D01*
X115738095Y-140807142D01*
X115690476Y-140711904D01*
X115642857Y-140521428D01*
X115642857Y-140283333D01*
X115690476Y-140092857D01*
X115738095Y-139997619D01*
X115785714Y-139950000D01*
X115880952Y-139902380D01*
X117166666Y-140902380D02*
X116595238Y-140902380D01*
X116880952Y-140902380D02*
X116880952Y-139902380D01*
X116785714Y-140045238D01*
X116690476Y-140140476D01*
X116595238Y-140188095D01*
%TO.C,R103*%
X135002380Y-86369047D02*
X134526190Y-86702380D01*
X135002380Y-86940476D02*
X134002380Y-86940476D01*
X134002380Y-86559523D01*
X134050000Y-86464285D01*
X134097619Y-86416666D01*
X134192857Y-86369047D01*
X134335714Y-86369047D01*
X134430952Y-86416666D01*
X134478571Y-86464285D01*
X134526190Y-86559523D01*
X134526190Y-86940476D01*
X135002380Y-85416666D02*
X135002380Y-85988095D01*
X135002380Y-85702380D02*
X134002380Y-85702380D01*
X134145238Y-85797619D01*
X134240476Y-85892857D01*
X134288095Y-85988095D01*
X134002380Y-84797619D02*
X134002380Y-84702380D01*
X134050000Y-84607142D01*
X134097619Y-84559523D01*
X134192857Y-84511904D01*
X134383333Y-84464285D01*
X134621428Y-84464285D01*
X134811904Y-84511904D01*
X134907142Y-84559523D01*
X134954761Y-84607142D01*
X135002380Y-84702380D01*
X135002380Y-84797619D01*
X134954761Y-84892857D01*
X134907142Y-84940476D01*
X134811904Y-84988095D01*
X134621428Y-85035714D01*
X134383333Y-85035714D01*
X134192857Y-84988095D01*
X134097619Y-84940476D01*
X134050000Y-84892857D01*
X134002380Y-84797619D01*
X134002380Y-84130952D02*
X134002380Y-83511904D01*
X134383333Y-83845238D01*
X134383333Y-83702380D01*
X134430952Y-83607142D01*
X134478571Y-83559523D01*
X134573809Y-83511904D01*
X134811904Y-83511904D01*
X134907142Y-83559523D01*
X134954761Y-83607142D01*
X135002380Y-83702380D01*
X135002380Y-83988095D01*
X134954761Y-84083333D01*
X134907142Y-84130952D01*
%TO.C,R110*%
X117380952Y-81202380D02*
X117047619Y-80726190D01*
X116809523Y-81202380D02*
X116809523Y-80202380D01*
X117190476Y-80202380D01*
X117285714Y-80250000D01*
X117333333Y-80297619D01*
X117380952Y-80392857D01*
X117380952Y-80535714D01*
X117333333Y-80630952D01*
X117285714Y-80678571D01*
X117190476Y-80726190D01*
X116809523Y-80726190D01*
X118333333Y-81202380D02*
X117761904Y-81202380D01*
X118047619Y-81202380D02*
X118047619Y-80202380D01*
X117952380Y-80345238D01*
X117857142Y-80440476D01*
X117761904Y-80488095D01*
X119285714Y-81202380D02*
X118714285Y-81202380D01*
X119000000Y-81202380D02*
X119000000Y-80202380D01*
X118904761Y-80345238D01*
X118809523Y-80440476D01*
X118714285Y-80488095D01*
X119904761Y-80202380D02*
X120000000Y-80202380D01*
X120095238Y-80250000D01*
X120142857Y-80297619D01*
X120190476Y-80392857D01*
X120238095Y-80583333D01*
X120238095Y-80821428D01*
X120190476Y-81011904D01*
X120142857Y-81107142D01*
X120095238Y-81154761D01*
X120000000Y-81202380D01*
X119904761Y-81202380D01*
X119809523Y-81154761D01*
X119761904Y-81107142D01*
X119714285Y-81011904D01*
X119666666Y-80821428D01*
X119666666Y-80583333D01*
X119714285Y-80392857D01*
X119761904Y-80297619D01*
X119809523Y-80250000D01*
X119904761Y-80202380D01*
%TO.C,C204*%
X141480952Y-109957142D02*
X141433333Y-110004761D01*
X141290476Y-110052380D01*
X141195238Y-110052380D01*
X141052380Y-110004761D01*
X140957142Y-109909523D01*
X140909523Y-109814285D01*
X140861904Y-109623809D01*
X140861904Y-109480952D01*
X140909523Y-109290476D01*
X140957142Y-109195238D01*
X141052380Y-109100000D01*
X141195238Y-109052380D01*
X141290476Y-109052380D01*
X141433333Y-109100000D01*
X141480952Y-109147619D01*
X141861904Y-109147619D02*
X141909523Y-109100000D01*
X142004761Y-109052380D01*
X142242857Y-109052380D01*
X142338095Y-109100000D01*
X142385714Y-109147619D01*
X142433333Y-109242857D01*
X142433333Y-109338095D01*
X142385714Y-109480952D01*
X141814285Y-110052380D01*
X142433333Y-110052380D01*
X143052380Y-109052380D02*
X143147619Y-109052380D01*
X143242857Y-109100000D01*
X143290476Y-109147619D01*
X143338095Y-109242857D01*
X143385714Y-109433333D01*
X143385714Y-109671428D01*
X143338095Y-109861904D01*
X143290476Y-109957142D01*
X143242857Y-110004761D01*
X143147619Y-110052380D01*
X143052380Y-110052380D01*
X142957142Y-110004761D01*
X142909523Y-109957142D01*
X142861904Y-109861904D01*
X142814285Y-109671428D01*
X142814285Y-109433333D01*
X142861904Y-109242857D01*
X142909523Y-109147619D01*
X142957142Y-109100000D01*
X143052380Y-109052380D01*
X144242857Y-109385714D02*
X144242857Y-110052380D01*
X144004761Y-109004761D02*
X143766666Y-109719047D01*
X144385714Y-109719047D01*
%TO.C,R109*%
X101130952Y-92952380D02*
X100797619Y-92476190D01*
X100559523Y-92952380D02*
X100559523Y-91952380D01*
X100940476Y-91952380D01*
X101035714Y-92000000D01*
X101083333Y-92047619D01*
X101130952Y-92142857D01*
X101130952Y-92285714D01*
X101083333Y-92380952D01*
X101035714Y-92428571D01*
X100940476Y-92476190D01*
X100559523Y-92476190D01*
X102083333Y-92952380D02*
X101511904Y-92952380D01*
X101797619Y-92952380D02*
X101797619Y-91952380D01*
X101702380Y-92095238D01*
X101607142Y-92190476D01*
X101511904Y-92238095D01*
X102702380Y-91952380D02*
X102797619Y-91952380D01*
X102892857Y-92000000D01*
X102940476Y-92047619D01*
X102988095Y-92142857D01*
X103035714Y-92333333D01*
X103035714Y-92571428D01*
X102988095Y-92761904D01*
X102940476Y-92857142D01*
X102892857Y-92904761D01*
X102797619Y-92952380D01*
X102702380Y-92952380D01*
X102607142Y-92904761D01*
X102559523Y-92857142D01*
X102511904Y-92761904D01*
X102464285Y-92571428D01*
X102464285Y-92333333D01*
X102511904Y-92142857D01*
X102559523Y-92047619D01*
X102607142Y-92000000D01*
X102702380Y-91952380D01*
X103511904Y-92952380D02*
X103702380Y-92952380D01*
X103797619Y-92904761D01*
X103845238Y-92857142D01*
X103940476Y-92714285D01*
X103988095Y-92523809D01*
X103988095Y-92142857D01*
X103940476Y-92047619D01*
X103892857Y-92000000D01*
X103797619Y-91952380D01*
X103607142Y-91952380D01*
X103511904Y-92000000D01*
X103464285Y-92047619D01*
X103416666Y-92142857D01*
X103416666Y-92380952D01*
X103464285Y-92476190D01*
X103511904Y-92523809D01*
X103607142Y-92571428D01*
X103797619Y-92571428D01*
X103892857Y-92523809D01*
X103940476Y-92476190D01*
X103988095Y-92380952D01*
%TO.C,J303*%
X102714285Y-113452380D02*
X102714285Y-114166666D01*
X102666666Y-114309523D01*
X102571428Y-114404761D01*
X102428571Y-114452380D01*
X102333333Y-114452380D01*
X103095238Y-113452380D02*
X103714285Y-113452380D01*
X103380952Y-113833333D01*
X103523809Y-113833333D01*
X103619047Y-113880952D01*
X103666666Y-113928571D01*
X103714285Y-114023809D01*
X103714285Y-114261904D01*
X103666666Y-114357142D01*
X103619047Y-114404761D01*
X103523809Y-114452380D01*
X103238095Y-114452380D01*
X103142857Y-114404761D01*
X103095238Y-114357142D01*
X104333333Y-113452380D02*
X104428571Y-113452380D01*
X104523809Y-113500000D01*
X104571428Y-113547619D01*
X104619047Y-113642857D01*
X104666666Y-113833333D01*
X104666666Y-114071428D01*
X104619047Y-114261904D01*
X104571428Y-114357142D01*
X104523809Y-114404761D01*
X104428571Y-114452380D01*
X104333333Y-114452380D01*
X104238095Y-114404761D01*
X104190476Y-114357142D01*
X104142857Y-114261904D01*
X104095238Y-114071428D01*
X104095238Y-113833333D01*
X104142857Y-113642857D01*
X104190476Y-113547619D01*
X104238095Y-113500000D01*
X104333333Y-113452380D01*
X105000000Y-113452380D02*
X105619047Y-113452380D01*
X105285714Y-113833333D01*
X105428571Y-113833333D01*
X105523809Y-113880952D01*
X105571428Y-113928571D01*
X105619047Y-114023809D01*
X105619047Y-114261904D01*
X105571428Y-114357142D01*
X105523809Y-114404761D01*
X105428571Y-114452380D01*
X105142857Y-114452380D01*
X105047619Y-114404761D01*
X105000000Y-114357142D01*
%TO.C,C205*%
X117780952Y-102057142D02*
X117733333Y-102104761D01*
X117590476Y-102152380D01*
X117495238Y-102152380D01*
X117352380Y-102104761D01*
X117257142Y-102009523D01*
X117209523Y-101914285D01*
X117161904Y-101723809D01*
X117161904Y-101580952D01*
X117209523Y-101390476D01*
X117257142Y-101295238D01*
X117352380Y-101200000D01*
X117495238Y-101152380D01*
X117590476Y-101152380D01*
X117733333Y-101200000D01*
X117780952Y-101247619D01*
X118161904Y-101247619D02*
X118209523Y-101200000D01*
X118304761Y-101152380D01*
X118542857Y-101152380D01*
X118638095Y-101200000D01*
X118685714Y-101247619D01*
X118733333Y-101342857D01*
X118733333Y-101438095D01*
X118685714Y-101580952D01*
X118114285Y-102152380D01*
X118733333Y-102152380D01*
X119352380Y-101152380D02*
X119447619Y-101152380D01*
X119542857Y-101200000D01*
X119590476Y-101247619D01*
X119638095Y-101342857D01*
X119685714Y-101533333D01*
X119685714Y-101771428D01*
X119638095Y-101961904D01*
X119590476Y-102057142D01*
X119542857Y-102104761D01*
X119447619Y-102152380D01*
X119352380Y-102152380D01*
X119257142Y-102104761D01*
X119209523Y-102057142D01*
X119161904Y-101961904D01*
X119114285Y-101771428D01*
X119114285Y-101533333D01*
X119161904Y-101342857D01*
X119209523Y-101247619D01*
X119257142Y-101200000D01*
X119352380Y-101152380D01*
X120590476Y-101152380D02*
X120114285Y-101152380D01*
X120066666Y-101628571D01*
X120114285Y-101580952D01*
X120209523Y-101533333D01*
X120447619Y-101533333D01*
X120542857Y-101580952D01*
X120590476Y-101628571D01*
X120638095Y-101723809D01*
X120638095Y-101961904D01*
X120590476Y-102057142D01*
X120542857Y-102104761D01*
X120447619Y-102152380D01*
X120209523Y-102152380D01*
X120114285Y-102104761D01*
X120066666Y-102057142D01*
%TO.C,U302*%
X118285714Y-103052380D02*
X118285714Y-103861904D01*
X118333333Y-103957142D01*
X118380952Y-104004761D01*
X118476190Y-104052380D01*
X118666666Y-104052380D01*
X118761904Y-104004761D01*
X118809523Y-103957142D01*
X118857142Y-103861904D01*
X118857142Y-103052380D01*
X119238095Y-103052380D02*
X119857142Y-103052380D01*
X119523809Y-103433333D01*
X119666666Y-103433333D01*
X119761904Y-103480952D01*
X119809523Y-103528571D01*
X119857142Y-103623809D01*
X119857142Y-103861904D01*
X119809523Y-103957142D01*
X119761904Y-104004761D01*
X119666666Y-104052380D01*
X119380952Y-104052380D01*
X119285714Y-104004761D01*
X119238095Y-103957142D01*
X120476190Y-103052380D02*
X120571428Y-103052380D01*
X120666666Y-103100000D01*
X120714285Y-103147619D01*
X120761904Y-103242857D01*
X120809523Y-103433333D01*
X120809523Y-103671428D01*
X120761904Y-103861904D01*
X120714285Y-103957142D01*
X120666666Y-104004761D01*
X120571428Y-104052380D01*
X120476190Y-104052380D01*
X120380952Y-104004761D01*
X120333333Y-103957142D01*
X120285714Y-103861904D01*
X120238095Y-103671428D01*
X120238095Y-103433333D01*
X120285714Y-103242857D01*
X120333333Y-103147619D01*
X120380952Y-103100000D01*
X120476190Y-103052380D01*
X121190476Y-103147619D02*
X121238095Y-103100000D01*
X121333333Y-103052380D01*
X121571428Y-103052380D01*
X121666666Y-103100000D01*
X121714285Y-103147619D01*
X121761904Y-103242857D01*
X121761904Y-103338095D01*
X121714285Y-103480952D01*
X121142857Y-104052380D01*
X121761904Y-104052380D01*
%TO.C,R108*%
X135122380Y-66869047D02*
X134646190Y-67202380D01*
X135122380Y-67440476D02*
X134122380Y-67440476D01*
X134122380Y-67059523D01*
X134170000Y-66964285D01*
X134217619Y-66916666D01*
X134312857Y-66869047D01*
X134455714Y-66869047D01*
X134550952Y-66916666D01*
X134598571Y-66964285D01*
X134646190Y-67059523D01*
X134646190Y-67440476D01*
X135122380Y-65916666D02*
X135122380Y-66488095D01*
X135122380Y-66202380D02*
X134122380Y-66202380D01*
X134265238Y-66297619D01*
X134360476Y-66392857D01*
X134408095Y-66488095D01*
X134122380Y-65297619D02*
X134122380Y-65202380D01*
X134170000Y-65107142D01*
X134217619Y-65059523D01*
X134312857Y-65011904D01*
X134503333Y-64964285D01*
X134741428Y-64964285D01*
X134931904Y-65011904D01*
X135027142Y-65059523D01*
X135074761Y-65107142D01*
X135122380Y-65202380D01*
X135122380Y-65297619D01*
X135074761Y-65392857D01*
X135027142Y-65440476D01*
X134931904Y-65488095D01*
X134741428Y-65535714D01*
X134503333Y-65535714D01*
X134312857Y-65488095D01*
X134217619Y-65440476D01*
X134170000Y-65392857D01*
X134122380Y-65297619D01*
X134550952Y-64392857D02*
X134503333Y-64488095D01*
X134455714Y-64535714D01*
X134360476Y-64583333D01*
X134312857Y-64583333D01*
X134217619Y-64535714D01*
X134170000Y-64488095D01*
X134122380Y-64392857D01*
X134122380Y-64202380D01*
X134170000Y-64107142D01*
X134217619Y-64059523D01*
X134312857Y-64011904D01*
X134360476Y-64011904D01*
X134455714Y-64059523D01*
X134503333Y-64107142D01*
X134550952Y-64202380D01*
X134550952Y-64392857D01*
X134598571Y-64488095D01*
X134646190Y-64535714D01*
X134741428Y-64583333D01*
X134931904Y-64583333D01*
X135027142Y-64535714D01*
X135074761Y-64488095D01*
X135122380Y-64392857D01*
X135122380Y-64202380D01*
X135074761Y-64107142D01*
X135027142Y-64059523D01*
X134931904Y-64011904D01*
X134741428Y-64011904D01*
X134646190Y-64059523D01*
X134598571Y-64107142D01*
X134550952Y-64202380D01*
%TO.C,R101*%
X135002380Y-80119047D02*
X134526190Y-80452380D01*
X135002380Y-80690476D02*
X134002380Y-80690476D01*
X134002380Y-80309523D01*
X134050000Y-80214285D01*
X134097619Y-80166666D01*
X134192857Y-80119047D01*
X134335714Y-80119047D01*
X134430952Y-80166666D01*
X134478571Y-80214285D01*
X134526190Y-80309523D01*
X134526190Y-80690476D01*
X135002380Y-79166666D02*
X135002380Y-79738095D01*
X135002380Y-79452380D02*
X134002380Y-79452380D01*
X134145238Y-79547619D01*
X134240476Y-79642857D01*
X134288095Y-79738095D01*
X134002380Y-78547619D02*
X134002380Y-78452380D01*
X134050000Y-78357142D01*
X134097619Y-78309523D01*
X134192857Y-78261904D01*
X134383333Y-78214285D01*
X134621428Y-78214285D01*
X134811904Y-78261904D01*
X134907142Y-78309523D01*
X134954761Y-78357142D01*
X135002380Y-78452380D01*
X135002380Y-78547619D01*
X134954761Y-78642857D01*
X134907142Y-78690476D01*
X134811904Y-78738095D01*
X134621428Y-78785714D01*
X134383333Y-78785714D01*
X134192857Y-78738095D01*
X134097619Y-78690476D01*
X134050000Y-78642857D01*
X134002380Y-78547619D01*
X135002380Y-77261904D02*
X135002380Y-77833333D01*
X135002380Y-77547619D02*
X134002380Y-77547619D01*
X134145238Y-77642857D01*
X134240476Y-77738095D01*
X134288095Y-77833333D01*
D11*
%TO.C,C202*%
X137872164Y-110640000D02*
X138087836Y-110640000D01*
X137872164Y-111360000D02*
X138087836Y-111360000D01*
%TO.C,FB302*%
X114600378Y-116560000D02*
X115399622Y-116560000D01*
X114600378Y-115440000D02*
X115399622Y-115440000D01*
%TO.C,J302*%
X100780000Y-124690000D02*
X100260000Y-124690000D01*
X100260000Y-124690000D02*
X100260000Y-139310000D01*
X100780000Y-125340000D02*
X108890000Y-125340000D01*
X115740000Y-125340000D02*
X112410000Y-125340000D01*
X115740000Y-138660000D02*
X112410000Y-138660000D01*
X115740000Y-125340000D02*
X115740000Y-138660000D01*
X115960000Y-127600000D02*
X115960000Y-129400000D01*
X100780000Y-139310000D02*
X100780000Y-138660000D01*
X100260000Y-139310000D02*
X100780000Y-139310000D01*
X108890000Y-138660000D02*
X100780000Y-138660000D01*
X100780000Y-125340000D02*
X100780000Y-124690000D01*
%TO.C,U301*%
X120000000Y-133560000D02*
X119200000Y-133560000D01*
X120000000Y-130440000D02*
X118200000Y-130440000D01*
X120000000Y-133560000D02*
X120800000Y-133560000D01*
X120000000Y-130440000D02*
X120800000Y-130440000D01*
%TO.C,C201*%
X136292164Y-109240000D02*
X136507836Y-109240000D01*
X136292164Y-109960000D02*
X136507836Y-109960000D01*
%TO.C,J103*%
X100115000Y-72635000D02*
X107725000Y-72635000D01*
X107025000Y-90060000D02*
X107525000Y-89560000D01*
X100115000Y-89365000D02*
X100115000Y-72635000D01*
X100115000Y-89365000D02*
X107725000Y-89365000D01*
X116085000Y-89365000D02*
X110525000Y-89365000D01*
X116085000Y-72635000D02*
X110525000Y-72635000D01*
X108025000Y-90060000D02*
X107025000Y-90060000D01*
X116085000Y-89365000D02*
X116085000Y-72635000D01*
X107525000Y-89560000D02*
X108025000Y-90060000D01*
%TO.C,U102*%
X126275000Y-83400000D02*
X124825000Y-83400000D01*
X124825000Y-88600000D02*
X129725000Y-88600000D01*
X129725000Y-88600000D02*
X129725000Y-83400000D01*
X124825000Y-83400000D02*
X124825000Y-88600000D01*
X129725000Y-83400000D02*
X128275000Y-83400000D01*
X126275000Y-83400000D02*
G75*
G03*
X128275000Y-83400000I1000000J0D01*
G01*
%TO.C,R201*%
X117590000Y-96727064D02*
X117590000Y-95272936D01*
X119410000Y-96727064D02*
X119410000Y-95272936D01*
%TO.C,J101*%
X146595000Y-113595000D02*
X146595000Y-126415000D01*
X141395000Y-126415000D02*
X146595000Y-126415000D01*
X143995000Y-116195000D02*
X143995000Y-113595000D01*
X141395000Y-116195000D02*
X143995000Y-116195000D01*
X141395000Y-113595000D02*
X142725000Y-113595000D01*
X141395000Y-114925000D02*
X141395000Y-113595000D01*
X141395000Y-116195000D02*
X141395000Y-126415000D01*
X143995000Y-113595000D02*
X146595000Y-113595000D01*
%TO.C,R105*%
X118930000Y-85303641D02*
X118930000Y-84996359D01*
X118170000Y-85303641D02*
X118170000Y-84996359D01*
%TO.C,U202*%
X130860000Y-100930000D02*
X132675000Y-100930000D01*
X127000000Y-90665000D02*
X123140000Y-90665000D01*
X127000000Y-101185000D02*
X130860000Y-101185000D01*
X123140000Y-101185000D02*
X123140000Y-100930000D01*
X130860000Y-90665000D02*
X130860000Y-90920000D01*
X127000000Y-90665000D02*
X130860000Y-90665000D01*
X130860000Y-101185000D02*
X130860000Y-100930000D01*
X127000000Y-101185000D02*
X123140000Y-101185000D01*
X123140000Y-90665000D02*
X123140000Y-90920000D01*
%TO.C,R102*%
X121380000Y-68346359D02*
X121380000Y-68653641D01*
X120620000Y-68346359D02*
X120620000Y-68653641D01*
%TO.C,R107*%
X116820000Y-73753641D02*
X116820000Y-73446359D01*
X117580000Y-73753641D02*
X117580000Y-73446359D01*
%TO.C,U104*%
X129725000Y-74600000D02*
X129725000Y-69400000D01*
X124825000Y-74600000D02*
X126275000Y-74600000D01*
X128275000Y-74600000D02*
X129725000Y-74600000D01*
X124825000Y-69400000D02*
X124825000Y-74600000D01*
X129725000Y-69400000D02*
X124825000Y-69400000D01*
X128275000Y-74600000D02*
G75*
G03*
X126275000Y-74600000I-1000000J0D01*
G01*
%TO.C,J102*%
X135670000Y-64000000D02*
X135670000Y-62670000D01*
X140870000Y-62670000D02*
X140870000Y-75490000D01*
X135670000Y-65270000D02*
X135670000Y-75490000D01*
X138270000Y-62670000D02*
X140870000Y-62670000D01*
X135670000Y-62670000D02*
X137000000Y-62670000D01*
X135670000Y-65270000D02*
X138270000Y-65270000D01*
X135670000Y-75490000D02*
X140870000Y-75490000D01*
X138270000Y-65270000D02*
X138270000Y-62670000D01*
%TO.C,C101*%
X105090000Y-94288748D02*
X105090000Y-95711252D01*
X106910000Y-94288748D02*
X106910000Y-95711252D01*
%TO.C,C207*%
X133240000Y-99707836D02*
X133240000Y-99492164D01*
X133960000Y-99707836D02*
X133960000Y-99492164D01*
%TO.C,U101*%
X124825000Y-76400000D02*
X124825000Y-81600000D01*
X126275000Y-76400000D02*
X124825000Y-76400000D01*
X129725000Y-76400000D02*
X128275000Y-76400000D01*
X129725000Y-81600000D02*
X129725000Y-76400000D01*
X124825000Y-81600000D02*
X129725000Y-81600000D01*
X126275000Y-76400000D02*
G75*
G03*
X128275000Y-76400000I1000000J0D01*
G01*
%TO.C,D201*%
X115000000Y-92440000D02*
X115650000Y-92440000D01*
X115000000Y-95560000D02*
X116675000Y-95560000D01*
X115000000Y-92440000D02*
X114350000Y-92440000D01*
X115000000Y-95560000D02*
X114350000Y-95560000D01*
%TO.C,R104*%
X120620000Y-82346359D02*
X120620000Y-82653641D01*
X121380000Y-82346359D02*
X121380000Y-82653641D01*
%TO.C,C206*%
X135892164Y-100560000D02*
X136107836Y-100560000D01*
X135892164Y-99840000D02*
X136107836Y-99840000D01*
%TO.C,R111*%
X133880000Y-72596359D02*
X133880000Y-72903641D01*
X133120000Y-72596359D02*
X133120000Y-72903641D01*
%TO.C,R106*%
X119120000Y-68346359D02*
X119120000Y-68653641D01*
X119880000Y-68346359D02*
X119880000Y-68653641D01*
%TO.C,U201*%
X135265000Y-105000000D02*
X135265000Y-108600000D01*
X140735000Y-105000000D02*
X140735000Y-107200000D01*
X140735000Y-105000000D02*
X140735000Y-102800000D01*
X135265000Y-105000000D02*
X135265000Y-102800000D01*
%TO.C,J301*%
X122195000Y-122605000D02*
X132415000Y-122605000D01*
X119595000Y-122605000D02*
X119595000Y-121275000D01*
X122195000Y-122605000D02*
X122195000Y-120005000D01*
X122195000Y-120005000D02*
X119595000Y-120005000D01*
X132415000Y-122605000D02*
X132415000Y-117405000D01*
X119595000Y-117405000D02*
X132415000Y-117405000D01*
X119595000Y-120005000D02*
X119595000Y-117405000D01*
X120925000Y-122605000D02*
X119595000Y-122605000D01*
%TO.C,U103*%
X124825000Y-62400000D02*
X124825000Y-67600000D01*
X128275000Y-67600000D02*
X129725000Y-67600000D01*
X129725000Y-67600000D02*
X129725000Y-62400000D01*
X124825000Y-67600000D02*
X126275000Y-67600000D01*
X129725000Y-62400000D02*
X124825000Y-62400000D01*
X128275000Y-67600000D02*
G75*
G03*
X126275000Y-67600000I-1000000J0D01*
G01*
%TO.C,C203*%
X133907836Y-106960000D02*
X133692164Y-106960000D01*
X133907836Y-106240000D02*
X133692164Y-106240000D01*
%TO.C,J104*%
X140870000Y-81670000D02*
X140870000Y-94490000D01*
X135670000Y-83000000D02*
X135670000Y-81670000D01*
X135670000Y-81670000D02*
X137000000Y-81670000D01*
X138270000Y-84270000D02*
X138270000Y-81670000D01*
X135670000Y-84270000D02*
X138270000Y-84270000D01*
X135670000Y-94490000D02*
X140870000Y-94490000D01*
X138270000Y-81670000D02*
X140870000Y-81670000D01*
X135670000Y-84270000D02*
X135670000Y-94490000D01*
%TO.C,FB301*%
X114600378Y-142560000D02*
X115399622Y-142560000D01*
X114600378Y-141440000D02*
X115399622Y-141440000D01*
%TO.C,R103*%
X132920000Y-85096359D02*
X132920000Y-85403641D01*
X133680000Y-85096359D02*
X133680000Y-85403641D01*
%TO.C,R110*%
X119153641Y-82380000D02*
X118846359Y-82380000D01*
X119153641Y-81620000D02*
X118846359Y-81620000D01*
%TO.C,C204*%
X139492164Y-109240000D02*
X139707836Y-109240000D01*
X139492164Y-109960000D02*
X139707836Y-109960000D01*
%TO.C,R109*%
X102985000Y-94772936D02*
X102985000Y-95227064D01*
X101515000Y-94772936D02*
X101515000Y-95227064D01*
%TO.C,J303*%
X115960000Y-101600000D02*
X115960000Y-103400000D01*
X100780000Y-99340000D02*
X108890000Y-99340000D01*
X100260000Y-98690000D02*
X100260000Y-113310000D01*
X100780000Y-99340000D02*
X100780000Y-98690000D01*
X100780000Y-98690000D02*
X100260000Y-98690000D01*
X115740000Y-112660000D02*
X112410000Y-112660000D01*
X100780000Y-113310000D02*
X100780000Y-112660000D01*
X108890000Y-112660000D02*
X100780000Y-112660000D01*
X115740000Y-99340000D02*
X112410000Y-99340000D01*
X115740000Y-99340000D02*
X115740000Y-112660000D01*
X100260000Y-113310000D02*
X100780000Y-113310000D01*
%TO.C,C205*%
X120040000Y-99907836D02*
X120040000Y-99692164D01*
X120760000Y-99907836D02*
X120760000Y-99692164D01*
%TO.C,U302*%
X120000000Y-104440000D02*
X120800000Y-104440000D01*
X120000000Y-107560000D02*
X119200000Y-107560000D01*
X120000000Y-107560000D02*
X120800000Y-107560000D01*
X120000000Y-104440000D02*
X118200000Y-104440000D01*
%TO.C,R108*%
X133880000Y-65596359D02*
X133880000Y-65903641D01*
X133120000Y-65596359D02*
X133120000Y-65903641D01*
%TO.C,R101*%
X132920000Y-78846359D02*
X132920000Y-79153641D01*
X133680000Y-78846359D02*
X133680000Y-79153641D01*
%TD*%
M02*
