%TF.GenerationSoftware,KiCad,Pcbnew,7.0.9-7.0.9~ubuntu23.04.1*%
%TF.CreationDate,2024-01-20T22:40:50+00:00*%
%TF.ProjectId,nascontrol-remote,6e617363-6f6e-4747-926f-6c2d72656d6f,rev?*%
%TF.SameCoordinates,Original*%
%TF.FileFunction,Legend,Top*%
%TF.FilePolarity,Positive*%
%FSLAX46Y46*%
G04 Gerber Fmt 4.6, Leading zero omitted, Abs format (unit mm)*
G04 Created by KiCad (PCBNEW 7.0.9-7.0.9~ubuntu23.04.1) date 2024-01-20 22:40:50*
%MOMM*%
%LPD*%
G01*
G04 APERTURE LIST*
%ADD10C,0.150000*%
%ADD11C,0.120000*%
G04 APERTURE END LIST*
D10*
X107285714Y-149454819D02*
X107285714Y-148454819D01*
X107285714Y-148931009D02*
X107857142Y-148931009D01*
X107857142Y-149454819D02*
X107857142Y-148454819D01*
X108857142Y-149454819D02*
X108285714Y-149454819D01*
X108571428Y-149454819D02*
X108571428Y-148454819D01*
X108571428Y-148454819D02*
X108476190Y-148597676D01*
X108476190Y-148597676D02*
X108380952Y-148692914D01*
X108380952Y-148692914D02*
X108285714Y-148740533D01*
X109476190Y-148454819D02*
X109571428Y-148454819D01*
X109571428Y-148454819D02*
X109666666Y-148502438D01*
X109666666Y-148502438D02*
X109714285Y-148550057D01*
X109714285Y-148550057D02*
X109761904Y-148645295D01*
X109761904Y-148645295D02*
X109809523Y-148835771D01*
X109809523Y-148835771D02*
X109809523Y-149073866D01*
X109809523Y-149073866D02*
X109761904Y-149264342D01*
X109761904Y-149264342D02*
X109714285Y-149359580D01*
X109714285Y-149359580D02*
X109666666Y-149407200D01*
X109666666Y-149407200D02*
X109571428Y-149454819D01*
X109571428Y-149454819D02*
X109476190Y-149454819D01*
X109476190Y-149454819D02*
X109380952Y-149407200D01*
X109380952Y-149407200D02*
X109333333Y-149359580D01*
X109333333Y-149359580D02*
X109285714Y-149264342D01*
X109285714Y-149264342D02*
X109238095Y-149073866D01*
X109238095Y-149073866D02*
X109238095Y-148835771D01*
X109238095Y-148835771D02*
X109285714Y-148645295D01*
X109285714Y-148645295D02*
X109333333Y-148550057D01*
X109333333Y-148550057D02*
X109380952Y-148502438D01*
X109380952Y-148502438D02*
X109476190Y-148454819D01*
X110190476Y-148550057D02*
X110238095Y-148502438D01*
X110238095Y-148502438D02*
X110333333Y-148454819D01*
X110333333Y-148454819D02*
X110571428Y-148454819D01*
X110571428Y-148454819D02*
X110666666Y-148502438D01*
X110666666Y-148502438D02*
X110714285Y-148550057D01*
X110714285Y-148550057D02*
X110761904Y-148645295D01*
X110761904Y-148645295D02*
X110761904Y-148740533D01*
X110761904Y-148740533D02*
X110714285Y-148883390D01*
X110714285Y-148883390D02*
X110142857Y-149454819D01*
X110142857Y-149454819D02*
X110761904Y-149454819D01*
X136860952Y-112559580D02*
X136813333Y-112607200D01*
X136813333Y-112607200D02*
X136670476Y-112654819D01*
X136670476Y-112654819D02*
X136575238Y-112654819D01*
X136575238Y-112654819D02*
X136432381Y-112607200D01*
X136432381Y-112607200D02*
X136337143Y-112511961D01*
X136337143Y-112511961D02*
X136289524Y-112416723D01*
X136289524Y-112416723D02*
X136241905Y-112226247D01*
X136241905Y-112226247D02*
X136241905Y-112083390D01*
X136241905Y-112083390D02*
X136289524Y-111892914D01*
X136289524Y-111892914D02*
X136337143Y-111797676D01*
X136337143Y-111797676D02*
X136432381Y-111702438D01*
X136432381Y-111702438D02*
X136575238Y-111654819D01*
X136575238Y-111654819D02*
X136670476Y-111654819D01*
X136670476Y-111654819D02*
X136813333Y-111702438D01*
X136813333Y-111702438D02*
X136860952Y-111750057D01*
X137241905Y-111750057D02*
X137289524Y-111702438D01*
X137289524Y-111702438D02*
X137384762Y-111654819D01*
X137384762Y-111654819D02*
X137622857Y-111654819D01*
X137622857Y-111654819D02*
X137718095Y-111702438D01*
X137718095Y-111702438D02*
X137765714Y-111750057D01*
X137765714Y-111750057D02*
X137813333Y-111845295D01*
X137813333Y-111845295D02*
X137813333Y-111940533D01*
X137813333Y-111940533D02*
X137765714Y-112083390D01*
X137765714Y-112083390D02*
X137194286Y-112654819D01*
X137194286Y-112654819D02*
X137813333Y-112654819D01*
X138432381Y-111654819D02*
X138527619Y-111654819D01*
X138527619Y-111654819D02*
X138622857Y-111702438D01*
X138622857Y-111702438D02*
X138670476Y-111750057D01*
X138670476Y-111750057D02*
X138718095Y-111845295D01*
X138718095Y-111845295D02*
X138765714Y-112035771D01*
X138765714Y-112035771D02*
X138765714Y-112273866D01*
X138765714Y-112273866D02*
X138718095Y-112464342D01*
X138718095Y-112464342D02*
X138670476Y-112559580D01*
X138670476Y-112559580D02*
X138622857Y-112607200D01*
X138622857Y-112607200D02*
X138527619Y-112654819D01*
X138527619Y-112654819D02*
X138432381Y-112654819D01*
X138432381Y-112654819D02*
X138337143Y-112607200D01*
X138337143Y-112607200D02*
X138289524Y-112559580D01*
X138289524Y-112559580D02*
X138241905Y-112464342D01*
X138241905Y-112464342D02*
X138194286Y-112273866D01*
X138194286Y-112273866D02*
X138194286Y-112035771D01*
X138194286Y-112035771D02*
X138241905Y-111845295D01*
X138241905Y-111845295D02*
X138289524Y-111750057D01*
X138289524Y-111750057D02*
X138337143Y-111702438D01*
X138337143Y-111702438D02*
X138432381Y-111654819D01*
X139146667Y-111750057D02*
X139194286Y-111702438D01*
X139194286Y-111702438D02*
X139289524Y-111654819D01*
X139289524Y-111654819D02*
X139527619Y-111654819D01*
X139527619Y-111654819D02*
X139622857Y-111702438D01*
X139622857Y-111702438D02*
X139670476Y-111750057D01*
X139670476Y-111750057D02*
X139718095Y-111845295D01*
X139718095Y-111845295D02*
X139718095Y-111940533D01*
X139718095Y-111940533D02*
X139670476Y-112083390D01*
X139670476Y-112083390D02*
X139099048Y-112654819D01*
X139099048Y-112654819D02*
X139718095Y-112654819D01*
X113214285Y-114381009D02*
X112880952Y-114381009D01*
X112880952Y-114904819D02*
X112880952Y-113904819D01*
X112880952Y-113904819D02*
X113357142Y-113904819D01*
X114071428Y-114381009D02*
X114214285Y-114428628D01*
X114214285Y-114428628D02*
X114261904Y-114476247D01*
X114261904Y-114476247D02*
X114309523Y-114571485D01*
X114309523Y-114571485D02*
X114309523Y-114714342D01*
X114309523Y-114714342D02*
X114261904Y-114809580D01*
X114261904Y-114809580D02*
X114214285Y-114857200D01*
X114214285Y-114857200D02*
X114119047Y-114904819D01*
X114119047Y-114904819D02*
X113738095Y-114904819D01*
X113738095Y-114904819D02*
X113738095Y-113904819D01*
X113738095Y-113904819D02*
X114071428Y-113904819D01*
X114071428Y-113904819D02*
X114166666Y-113952438D01*
X114166666Y-113952438D02*
X114214285Y-114000057D01*
X114214285Y-114000057D02*
X114261904Y-114095295D01*
X114261904Y-114095295D02*
X114261904Y-114190533D01*
X114261904Y-114190533D02*
X114214285Y-114285771D01*
X114214285Y-114285771D02*
X114166666Y-114333390D01*
X114166666Y-114333390D02*
X114071428Y-114381009D01*
X114071428Y-114381009D02*
X113738095Y-114381009D01*
X114642857Y-113904819D02*
X115261904Y-113904819D01*
X115261904Y-113904819D02*
X114928571Y-114285771D01*
X114928571Y-114285771D02*
X115071428Y-114285771D01*
X115071428Y-114285771D02*
X115166666Y-114333390D01*
X115166666Y-114333390D02*
X115214285Y-114381009D01*
X115214285Y-114381009D02*
X115261904Y-114476247D01*
X115261904Y-114476247D02*
X115261904Y-114714342D01*
X115261904Y-114714342D02*
X115214285Y-114809580D01*
X115214285Y-114809580D02*
X115166666Y-114857200D01*
X115166666Y-114857200D02*
X115071428Y-114904819D01*
X115071428Y-114904819D02*
X114785714Y-114904819D01*
X114785714Y-114904819D02*
X114690476Y-114857200D01*
X114690476Y-114857200D02*
X114642857Y-114809580D01*
X115880952Y-113904819D02*
X115976190Y-113904819D01*
X115976190Y-113904819D02*
X116071428Y-113952438D01*
X116071428Y-113952438D02*
X116119047Y-114000057D01*
X116119047Y-114000057D02*
X116166666Y-114095295D01*
X116166666Y-114095295D02*
X116214285Y-114285771D01*
X116214285Y-114285771D02*
X116214285Y-114523866D01*
X116214285Y-114523866D02*
X116166666Y-114714342D01*
X116166666Y-114714342D02*
X116119047Y-114809580D01*
X116119047Y-114809580D02*
X116071428Y-114857200D01*
X116071428Y-114857200D02*
X115976190Y-114904819D01*
X115976190Y-114904819D02*
X115880952Y-114904819D01*
X115880952Y-114904819D02*
X115785714Y-114857200D01*
X115785714Y-114857200D02*
X115738095Y-114809580D01*
X115738095Y-114809580D02*
X115690476Y-114714342D01*
X115690476Y-114714342D02*
X115642857Y-114523866D01*
X115642857Y-114523866D02*
X115642857Y-114285771D01*
X115642857Y-114285771D02*
X115690476Y-114095295D01*
X115690476Y-114095295D02*
X115738095Y-114000057D01*
X115738095Y-114000057D02*
X115785714Y-113952438D01*
X115785714Y-113952438D02*
X115880952Y-113904819D01*
X116595238Y-114000057D02*
X116642857Y-113952438D01*
X116642857Y-113952438D02*
X116738095Y-113904819D01*
X116738095Y-113904819D02*
X116976190Y-113904819D01*
X116976190Y-113904819D02*
X117071428Y-113952438D01*
X117071428Y-113952438D02*
X117119047Y-114000057D01*
X117119047Y-114000057D02*
X117166666Y-114095295D01*
X117166666Y-114095295D02*
X117166666Y-114190533D01*
X117166666Y-114190533D02*
X117119047Y-114333390D01*
X117119047Y-114333390D02*
X116547619Y-114904819D01*
X116547619Y-114904819D02*
X117166666Y-114904819D01*
X102714285Y-123454819D02*
X102714285Y-124169104D01*
X102714285Y-124169104D02*
X102666666Y-124311961D01*
X102666666Y-124311961D02*
X102571428Y-124407200D01*
X102571428Y-124407200D02*
X102428571Y-124454819D01*
X102428571Y-124454819D02*
X102333333Y-124454819D01*
X103095238Y-123454819D02*
X103714285Y-123454819D01*
X103714285Y-123454819D02*
X103380952Y-123835771D01*
X103380952Y-123835771D02*
X103523809Y-123835771D01*
X103523809Y-123835771D02*
X103619047Y-123883390D01*
X103619047Y-123883390D02*
X103666666Y-123931009D01*
X103666666Y-123931009D02*
X103714285Y-124026247D01*
X103714285Y-124026247D02*
X103714285Y-124264342D01*
X103714285Y-124264342D02*
X103666666Y-124359580D01*
X103666666Y-124359580D02*
X103619047Y-124407200D01*
X103619047Y-124407200D02*
X103523809Y-124454819D01*
X103523809Y-124454819D02*
X103238095Y-124454819D01*
X103238095Y-124454819D02*
X103142857Y-124407200D01*
X103142857Y-124407200D02*
X103095238Y-124359580D01*
X104333333Y-123454819D02*
X104428571Y-123454819D01*
X104428571Y-123454819D02*
X104523809Y-123502438D01*
X104523809Y-123502438D02*
X104571428Y-123550057D01*
X104571428Y-123550057D02*
X104619047Y-123645295D01*
X104619047Y-123645295D02*
X104666666Y-123835771D01*
X104666666Y-123835771D02*
X104666666Y-124073866D01*
X104666666Y-124073866D02*
X104619047Y-124264342D01*
X104619047Y-124264342D02*
X104571428Y-124359580D01*
X104571428Y-124359580D02*
X104523809Y-124407200D01*
X104523809Y-124407200D02*
X104428571Y-124454819D01*
X104428571Y-124454819D02*
X104333333Y-124454819D01*
X104333333Y-124454819D02*
X104238095Y-124407200D01*
X104238095Y-124407200D02*
X104190476Y-124359580D01*
X104190476Y-124359580D02*
X104142857Y-124264342D01*
X104142857Y-124264342D02*
X104095238Y-124073866D01*
X104095238Y-124073866D02*
X104095238Y-123835771D01*
X104095238Y-123835771D02*
X104142857Y-123645295D01*
X104142857Y-123645295D02*
X104190476Y-123550057D01*
X104190476Y-123550057D02*
X104238095Y-123502438D01*
X104238095Y-123502438D02*
X104333333Y-123454819D01*
X105047619Y-123550057D02*
X105095238Y-123502438D01*
X105095238Y-123502438D02*
X105190476Y-123454819D01*
X105190476Y-123454819D02*
X105428571Y-123454819D01*
X105428571Y-123454819D02*
X105523809Y-123502438D01*
X105523809Y-123502438D02*
X105571428Y-123550057D01*
X105571428Y-123550057D02*
X105619047Y-123645295D01*
X105619047Y-123645295D02*
X105619047Y-123740533D01*
X105619047Y-123740533D02*
X105571428Y-123883390D01*
X105571428Y-123883390D02*
X105000000Y-124454819D01*
X105000000Y-124454819D02*
X105619047Y-124454819D01*
X118285714Y-129054819D02*
X118285714Y-129864342D01*
X118285714Y-129864342D02*
X118333333Y-129959580D01*
X118333333Y-129959580D02*
X118380952Y-130007200D01*
X118380952Y-130007200D02*
X118476190Y-130054819D01*
X118476190Y-130054819D02*
X118666666Y-130054819D01*
X118666666Y-130054819D02*
X118761904Y-130007200D01*
X118761904Y-130007200D02*
X118809523Y-129959580D01*
X118809523Y-129959580D02*
X118857142Y-129864342D01*
X118857142Y-129864342D02*
X118857142Y-129054819D01*
X119238095Y-129054819D02*
X119857142Y-129054819D01*
X119857142Y-129054819D02*
X119523809Y-129435771D01*
X119523809Y-129435771D02*
X119666666Y-129435771D01*
X119666666Y-129435771D02*
X119761904Y-129483390D01*
X119761904Y-129483390D02*
X119809523Y-129531009D01*
X119809523Y-129531009D02*
X119857142Y-129626247D01*
X119857142Y-129626247D02*
X119857142Y-129864342D01*
X119857142Y-129864342D02*
X119809523Y-129959580D01*
X119809523Y-129959580D02*
X119761904Y-130007200D01*
X119761904Y-130007200D02*
X119666666Y-130054819D01*
X119666666Y-130054819D02*
X119380952Y-130054819D01*
X119380952Y-130054819D02*
X119285714Y-130007200D01*
X119285714Y-130007200D02*
X119238095Y-129959580D01*
X120476190Y-129054819D02*
X120571428Y-129054819D01*
X120571428Y-129054819D02*
X120666666Y-129102438D01*
X120666666Y-129102438D02*
X120714285Y-129150057D01*
X120714285Y-129150057D02*
X120761904Y-129245295D01*
X120761904Y-129245295D02*
X120809523Y-129435771D01*
X120809523Y-129435771D02*
X120809523Y-129673866D01*
X120809523Y-129673866D02*
X120761904Y-129864342D01*
X120761904Y-129864342D02*
X120714285Y-129959580D01*
X120714285Y-129959580D02*
X120666666Y-130007200D01*
X120666666Y-130007200D02*
X120571428Y-130054819D01*
X120571428Y-130054819D02*
X120476190Y-130054819D01*
X120476190Y-130054819D02*
X120380952Y-130007200D01*
X120380952Y-130007200D02*
X120333333Y-129959580D01*
X120333333Y-129959580D02*
X120285714Y-129864342D01*
X120285714Y-129864342D02*
X120238095Y-129673866D01*
X120238095Y-129673866D02*
X120238095Y-129435771D01*
X120238095Y-129435771D02*
X120285714Y-129245295D01*
X120285714Y-129245295D02*
X120333333Y-129150057D01*
X120333333Y-129150057D02*
X120380952Y-129102438D01*
X120380952Y-129102438D02*
X120476190Y-129054819D01*
X121761904Y-130054819D02*
X121190476Y-130054819D01*
X121476190Y-130054819D02*
X121476190Y-129054819D01*
X121476190Y-129054819D02*
X121380952Y-129197676D01*
X121380952Y-129197676D02*
X121285714Y-129292914D01*
X121285714Y-129292914D02*
X121190476Y-129340533D01*
X132280952Y-109959580D02*
X132233333Y-110007200D01*
X132233333Y-110007200D02*
X132090476Y-110054819D01*
X132090476Y-110054819D02*
X131995238Y-110054819D01*
X131995238Y-110054819D02*
X131852381Y-110007200D01*
X131852381Y-110007200D02*
X131757143Y-109911961D01*
X131757143Y-109911961D02*
X131709524Y-109816723D01*
X131709524Y-109816723D02*
X131661905Y-109626247D01*
X131661905Y-109626247D02*
X131661905Y-109483390D01*
X131661905Y-109483390D02*
X131709524Y-109292914D01*
X131709524Y-109292914D02*
X131757143Y-109197676D01*
X131757143Y-109197676D02*
X131852381Y-109102438D01*
X131852381Y-109102438D02*
X131995238Y-109054819D01*
X131995238Y-109054819D02*
X132090476Y-109054819D01*
X132090476Y-109054819D02*
X132233333Y-109102438D01*
X132233333Y-109102438D02*
X132280952Y-109150057D01*
X132661905Y-109150057D02*
X132709524Y-109102438D01*
X132709524Y-109102438D02*
X132804762Y-109054819D01*
X132804762Y-109054819D02*
X133042857Y-109054819D01*
X133042857Y-109054819D02*
X133138095Y-109102438D01*
X133138095Y-109102438D02*
X133185714Y-109150057D01*
X133185714Y-109150057D02*
X133233333Y-109245295D01*
X133233333Y-109245295D02*
X133233333Y-109340533D01*
X133233333Y-109340533D02*
X133185714Y-109483390D01*
X133185714Y-109483390D02*
X132614286Y-110054819D01*
X132614286Y-110054819D02*
X133233333Y-110054819D01*
X133852381Y-109054819D02*
X133947619Y-109054819D01*
X133947619Y-109054819D02*
X134042857Y-109102438D01*
X134042857Y-109102438D02*
X134090476Y-109150057D01*
X134090476Y-109150057D02*
X134138095Y-109245295D01*
X134138095Y-109245295D02*
X134185714Y-109435771D01*
X134185714Y-109435771D02*
X134185714Y-109673866D01*
X134185714Y-109673866D02*
X134138095Y-109864342D01*
X134138095Y-109864342D02*
X134090476Y-109959580D01*
X134090476Y-109959580D02*
X134042857Y-110007200D01*
X134042857Y-110007200D02*
X133947619Y-110054819D01*
X133947619Y-110054819D02*
X133852381Y-110054819D01*
X133852381Y-110054819D02*
X133757143Y-110007200D01*
X133757143Y-110007200D02*
X133709524Y-109959580D01*
X133709524Y-109959580D02*
X133661905Y-109864342D01*
X133661905Y-109864342D02*
X133614286Y-109673866D01*
X133614286Y-109673866D02*
X133614286Y-109435771D01*
X133614286Y-109435771D02*
X133661905Y-109245295D01*
X133661905Y-109245295D02*
X133709524Y-109150057D01*
X133709524Y-109150057D02*
X133757143Y-109102438D01*
X133757143Y-109102438D02*
X133852381Y-109054819D01*
X135138095Y-110054819D02*
X134566667Y-110054819D01*
X134852381Y-110054819D02*
X134852381Y-109054819D01*
X134852381Y-109054819D02*
X134757143Y-109197676D01*
X134757143Y-109197676D02*
X134661905Y-109292914D01*
X134661905Y-109292914D02*
X134566667Y-109340533D01*
X100454819Y-82285714D02*
X101169104Y-82285714D01*
X101169104Y-82285714D02*
X101311961Y-82333333D01*
X101311961Y-82333333D02*
X101407200Y-82428571D01*
X101407200Y-82428571D02*
X101454819Y-82571428D01*
X101454819Y-82571428D02*
X101454819Y-82666666D01*
X101454819Y-81285714D02*
X101454819Y-81857142D01*
X101454819Y-81571428D02*
X100454819Y-81571428D01*
X100454819Y-81571428D02*
X100597676Y-81666666D01*
X100597676Y-81666666D02*
X100692914Y-81761904D01*
X100692914Y-81761904D02*
X100740533Y-81857142D01*
X100454819Y-80666666D02*
X100454819Y-80571428D01*
X100454819Y-80571428D02*
X100502438Y-80476190D01*
X100502438Y-80476190D02*
X100550057Y-80428571D01*
X100550057Y-80428571D02*
X100645295Y-80380952D01*
X100645295Y-80380952D02*
X100835771Y-80333333D01*
X100835771Y-80333333D02*
X101073866Y-80333333D01*
X101073866Y-80333333D02*
X101264342Y-80380952D01*
X101264342Y-80380952D02*
X101359580Y-80428571D01*
X101359580Y-80428571D02*
X101407200Y-80476190D01*
X101407200Y-80476190D02*
X101454819Y-80571428D01*
X101454819Y-80571428D02*
X101454819Y-80666666D01*
X101454819Y-80666666D02*
X101407200Y-80761904D01*
X101407200Y-80761904D02*
X101359580Y-80809523D01*
X101359580Y-80809523D02*
X101264342Y-80857142D01*
X101264342Y-80857142D02*
X101073866Y-80904761D01*
X101073866Y-80904761D02*
X100835771Y-80904761D01*
X100835771Y-80904761D02*
X100645295Y-80857142D01*
X100645295Y-80857142D02*
X100550057Y-80809523D01*
X100550057Y-80809523D02*
X100502438Y-80761904D01*
X100502438Y-80761904D02*
X100454819Y-80666666D01*
X100454819Y-79999999D02*
X100454819Y-79380952D01*
X100454819Y-79380952D02*
X100835771Y-79714285D01*
X100835771Y-79714285D02*
X100835771Y-79571428D01*
X100835771Y-79571428D02*
X100883390Y-79476190D01*
X100883390Y-79476190D02*
X100931009Y-79428571D01*
X100931009Y-79428571D02*
X101026247Y-79380952D01*
X101026247Y-79380952D02*
X101264342Y-79380952D01*
X101264342Y-79380952D02*
X101359580Y-79428571D01*
X101359580Y-79428571D02*
X101407200Y-79476190D01*
X101407200Y-79476190D02*
X101454819Y-79571428D01*
X101454819Y-79571428D02*
X101454819Y-79857142D01*
X101454819Y-79857142D02*
X101407200Y-79952380D01*
X101407200Y-79952380D02*
X101359580Y-79999999D01*
X120454819Y-87714285D02*
X121264342Y-87714285D01*
X121264342Y-87714285D02*
X121359580Y-87666666D01*
X121359580Y-87666666D02*
X121407200Y-87619047D01*
X121407200Y-87619047D02*
X121454819Y-87523809D01*
X121454819Y-87523809D02*
X121454819Y-87333333D01*
X121454819Y-87333333D02*
X121407200Y-87238095D01*
X121407200Y-87238095D02*
X121359580Y-87190476D01*
X121359580Y-87190476D02*
X121264342Y-87142857D01*
X121264342Y-87142857D02*
X120454819Y-87142857D01*
X121454819Y-86142857D02*
X121454819Y-86714285D01*
X121454819Y-86428571D02*
X120454819Y-86428571D01*
X120454819Y-86428571D02*
X120597676Y-86523809D01*
X120597676Y-86523809D02*
X120692914Y-86619047D01*
X120692914Y-86619047D02*
X120740533Y-86714285D01*
X120454819Y-85523809D02*
X120454819Y-85428571D01*
X120454819Y-85428571D02*
X120502438Y-85333333D01*
X120502438Y-85333333D02*
X120550057Y-85285714D01*
X120550057Y-85285714D02*
X120645295Y-85238095D01*
X120645295Y-85238095D02*
X120835771Y-85190476D01*
X120835771Y-85190476D02*
X121073866Y-85190476D01*
X121073866Y-85190476D02*
X121264342Y-85238095D01*
X121264342Y-85238095D02*
X121359580Y-85285714D01*
X121359580Y-85285714D02*
X121407200Y-85333333D01*
X121407200Y-85333333D02*
X121454819Y-85428571D01*
X121454819Y-85428571D02*
X121454819Y-85523809D01*
X121454819Y-85523809D02*
X121407200Y-85619047D01*
X121407200Y-85619047D02*
X121359580Y-85666666D01*
X121359580Y-85666666D02*
X121264342Y-85714285D01*
X121264342Y-85714285D02*
X121073866Y-85761904D01*
X121073866Y-85761904D02*
X120835771Y-85761904D01*
X120835771Y-85761904D02*
X120645295Y-85714285D01*
X120645295Y-85714285D02*
X120550057Y-85666666D01*
X120550057Y-85666666D02*
X120502438Y-85619047D01*
X120502438Y-85619047D02*
X120454819Y-85523809D01*
X120550057Y-84809523D02*
X120502438Y-84761904D01*
X120502438Y-84761904D02*
X120454819Y-84666666D01*
X120454819Y-84666666D02*
X120454819Y-84428571D01*
X120454819Y-84428571D02*
X120502438Y-84333333D01*
X120502438Y-84333333D02*
X120550057Y-84285714D01*
X120550057Y-84285714D02*
X120645295Y-84238095D01*
X120645295Y-84238095D02*
X120740533Y-84238095D01*
X120740533Y-84238095D02*
X120883390Y-84285714D01*
X120883390Y-84285714D02*
X121454819Y-84857142D01*
X121454819Y-84857142D02*
X121454819Y-84238095D01*
X117880952Y-93354819D02*
X117547619Y-92878628D01*
X117309524Y-93354819D02*
X117309524Y-92354819D01*
X117309524Y-92354819D02*
X117690476Y-92354819D01*
X117690476Y-92354819D02*
X117785714Y-92402438D01*
X117785714Y-92402438D02*
X117833333Y-92450057D01*
X117833333Y-92450057D02*
X117880952Y-92545295D01*
X117880952Y-92545295D02*
X117880952Y-92688152D01*
X117880952Y-92688152D02*
X117833333Y-92783390D01*
X117833333Y-92783390D02*
X117785714Y-92831009D01*
X117785714Y-92831009D02*
X117690476Y-92878628D01*
X117690476Y-92878628D02*
X117309524Y-92878628D01*
X118261905Y-92450057D02*
X118309524Y-92402438D01*
X118309524Y-92402438D02*
X118404762Y-92354819D01*
X118404762Y-92354819D02*
X118642857Y-92354819D01*
X118642857Y-92354819D02*
X118738095Y-92402438D01*
X118738095Y-92402438D02*
X118785714Y-92450057D01*
X118785714Y-92450057D02*
X118833333Y-92545295D01*
X118833333Y-92545295D02*
X118833333Y-92640533D01*
X118833333Y-92640533D02*
X118785714Y-92783390D01*
X118785714Y-92783390D02*
X118214286Y-93354819D01*
X118214286Y-93354819D02*
X118833333Y-93354819D01*
X119452381Y-92354819D02*
X119547619Y-92354819D01*
X119547619Y-92354819D02*
X119642857Y-92402438D01*
X119642857Y-92402438D02*
X119690476Y-92450057D01*
X119690476Y-92450057D02*
X119738095Y-92545295D01*
X119738095Y-92545295D02*
X119785714Y-92735771D01*
X119785714Y-92735771D02*
X119785714Y-92973866D01*
X119785714Y-92973866D02*
X119738095Y-93164342D01*
X119738095Y-93164342D02*
X119690476Y-93259580D01*
X119690476Y-93259580D02*
X119642857Y-93307200D01*
X119642857Y-93307200D02*
X119547619Y-93354819D01*
X119547619Y-93354819D02*
X119452381Y-93354819D01*
X119452381Y-93354819D02*
X119357143Y-93307200D01*
X119357143Y-93307200D02*
X119309524Y-93259580D01*
X119309524Y-93259580D02*
X119261905Y-93164342D01*
X119261905Y-93164342D02*
X119214286Y-92973866D01*
X119214286Y-92973866D02*
X119214286Y-92735771D01*
X119214286Y-92735771D02*
X119261905Y-92545295D01*
X119261905Y-92545295D02*
X119309524Y-92450057D01*
X119309524Y-92450057D02*
X119357143Y-92402438D01*
X119357143Y-92402438D02*
X119452381Y-92354819D01*
X120738095Y-93354819D02*
X120166667Y-93354819D01*
X120452381Y-93354819D02*
X120452381Y-92354819D01*
X120452381Y-92354819D02*
X120357143Y-92497676D01*
X120357143Y-92497676D02*
X120261905Y-92592914D01*
X120261905Y-92592914D02*
X120166667Y-92640533D01*
X146709285Y-112049819D02*
X146709285Y-112764104D01*
X146709285Y-112764104D02*
X146661666Y-112906961D01*
X146661666Y-112906961D02*
X146566428Y-113002200D01*
X146566428Y-113002200D02*
X146423571Y-113049819D01*
X146423571Y-113049819D02*
X146328333Y-113049819D01*
X147709285Y-113049819D02*
X147137857Y-113049819D01*
X147423571Y-113049819D02*
X147423571Y-112049819D01*
X147423571Y-112049819D02*
X147328333Y-112192676D01*
X147328333Y-112192676D02*
X147233095Y-112287914D01*
X147233095Y-112287914D02*
X147137857Y-112335533D01*
X148328333Y-112049819D02*
X148423571Y-112049819D01*
X148423571Y-112049819D02*
X148518809Y-112097438D01*
X148518809Y-112097438D02*
X148566428Y-112145057D01*
X148566428Y-112145057D02*
X148614047Y-112240295D01*
X148614047Y-112240295D02*
X148661666Y-112430771D01*
X148661666Y-112430771D02*
X148661666Y-112668866D01*
X148661666Y-112668866D02*
X148614047Y-112859342D01*
X148614047Y-112859342D02*
X148566428Y-112954580D01*
X148566428Y-112954580D02*
X148518809Y-113002200D01*
X148518809Y-113002200D02*
X148423571Y-113049819D01*
X148423571Y-113049819D02*
X148328333Y-113049819D01*
X148328333Y-113049819D02*
X148233095Y-113002200D01*
X148233095Y-113002200D02*
X148185476Y-112954580D01*
X148185476Y-112954580D02*
X148137857Y-112859342D01*
X148137857Y-112859342D02*
X148090238Y-112668866D01*
X148090238Y-112668866D02*
X148090238Y-112430771D01*
X148090238Y-112430771D02*
X148137857Y-112240295D01*
X148137857Y-112240295D02*
X148185476Y-112145057D01*
X148185476Y-112145057D02*
X148233095Y-112097438D01*
X148233095Y-112097438D02*
X148328333Y-112049819D01*
X149614047Y-113049819D02*
X149042619Y-113049819D01*
X149328333Y-113049819D02*
X149328333Y-112049819D01*
X149328333Y-112049819D02*
X149233095Y-112192676D01*
X149233095Y-112192676D02*
X149137857Y-112287914D01*
X149137857Y-112287914D02*
X149042619Y-112335533D01*
X117380952Y-87354819D02*
X117047619Y-86878628D01*
X116809524Y-87354819D02*
X116809524Y-86354819D01*
X116809524Y-86354819D02*
X117190476Y-86354819D01*
X117190476Y-86354819D02*
X117285714Y-86402438D01*
X117285714Y-86402438D02*
X117333333Y-86450057D01*
X117333333Y-86450057D02*
X117380952Y-86545295D01*
X117380952Y-86545295D02*
X117380952Y-86688152D01*
X117380952Y-86688152D02*
X117333333Y-86783390D01*
X117333333Y-86783390D02*
X117285714Y-86831009D01*
X117285714Y-86831009D02*
X117190476Y-86878628D01*
X117190476Y-86878628D02*
X116809524Y-86878628D01*
X118333333Y-87354819D02*
X117761905Y-87354819D01*
X118047619Y-87354819D02*
X118047619Y-86354819D01*
X118047619Y-86354819D02*
X117952381Y-86497676D01*
X117952381Y-86497676D02*
X117857143Y-86592914D01*
X117857143Y-86592914D02*
X117761905Y-86640533D01*
X118952381Y-86354819D02*
X119047619Y-86354819D01*
X119047619Y-86354819D02*
X119142857Y-86402438D01*
X119142857Y-86402438D02*
X119190476Y-86450057D01*
X119190476Y-86450057D02*
X119238095Y-86545295D01*
X119238095Y-86545295D02*
X119285714Y-86735771D01*
X119285714Y-86735771D02*
X119285714Y-86973866D01*
X119285714Y-86973866D02*
X119238095Y-87164342D01*
X119238095Y-87164342D02*
X119190476Y-87259580D01*
X119190476Y-87259580D02*
X119142857Y-87307200D01*
X119142857Y-87307200D02*
X119047619Y-87354819D01*
X119047619Y-87354819D02*
X118952381Y-87354819D01*
X118952381Y-87354819D02*
X118857143Y-87307200D01*
X118857143Y-87307200D02*
X118809524Y-87259580D01*
X118809524Y-87259580D02*
X118761905Y-87164342D01*
X118761905Y-87164342D02*
X118714286Y-86973866D01*
X118714286Y-86973866D02*
X118714286Y-86735771D01*
X118714286Y-86735771D02*
X118761905Y-86545295D01*
X118761905Y-86545295D02*
X118809524Y-86450057D01*
X118809524Y-86450057D02*
X118857143Y-86402438D01*
X118857143Y-86402438D02*
X118952381Y-86354819D01*
X120190476Y-86354819D02*
X119714286Y-86354819D01*
X119714286Y-86354819D02*
X119666667Y-86831009D01*
X119666667Y-86831009D02*
X119714286Y-86783390D01*
X119714286Y-86783390D02*
X119809524Y-86735771D01*
X119809524Y-86735771D02*
X120047619Y-86735771D01*
X120047619Y-86735771D02*
X120142857Y-86783390D01*
X120142857Y-86783390D02*
X120190476Y-86831009D01*
X120190476Y-86831009D02*
X120238095Y-86926247D01*
X120238095Y-86926247D02*
X120238095Y-87164342D01*
X120238095Y-87164342D02*
X120190476Y-87259580D01*
X120190476Y-87259580D02*
X120142857Y-87307200D01*
X120142857Y-87307200D02*
X120047619Y-87354819D01*
X120047619Y-87354819D02*
X119809524Y-87354819D01*
X119809524Y-87354819D02*
X119714286Y-87307200D01*
X119714286Y-87307200D02*
X119666667Y-87259580D01*
X125285714Y-101754819D02*
X125285714Y-102564342D01*
X125285714Y-102564342D02*
X125333333Y-102659580D01*
X125333333Y-102659580D02*
X125380952Y-102707200D01*
X125380952Y-102707200D02*
X125476190Y-102754819D01*
X125476190Y-102754819D02*
X125666666Y-102754819D01*
X125666666Y-102754819D02*
X125761904Y-102707200D01*
X125761904Y-102707200D02*
X125809523Y-102659580D01*
X125809523Y-102659580D02*
X125857142Y-102564342D01*
X125857142Y-102564342D02*
X125857142Y-101754819D01*
X126285714Y-101850057D02*
X126333333Y-101802438D01*
X126333333Y-101802438D02*
X126428571Y-101754819D01*
X126428571Y-101754819D02*
X126666666Y-101754819D01*
X126666666Y-101754819D02*
X126761904Y-101802438D01*
X126761904Y-101802438D02*
X126809523Y-101850057D01*
X126809523Y-101850057D02*
X126857142Y-101945295D01*
X126857142Y-101945295D02*
X126857142Y-102040533D01*
X126857142Y-102040533D02*
X126809523Y-102183390D01*
X126809523Y-102183390D02*
X126238095Y-102754819D01*
X126238095Y-102754819D02*
X126857142Y-102754819D01*
X127476190Y-101754819D02*
X127571428Y-101754819D01*
X127571428Y-101754819D02*
X127666666Y-101802438D01*
X127666666Y-101802438D02*
X127714285Y-101850057D01*
X127714285Y-101850057D02*
X127761904Y-101945295D01*
X127761904Y-101945295D02*
X127809523Y-102135771D01*
X127809523Y-102135771D02*
X127809523Y-102373866D01*
X127809523Y-102373866D02*
X127761904Y-102564342D01*
X127761904Y-102564342D02*
X127714285Y-102659580D01*
X127714285Y-102659580D02*
X127666666Y-102707200D01*
X127666666Y-102707200D02*
X127571428Y-102754819D01*
X127571428Y-102754819D02*
X127476190Y-102754819D01*
X127476190Y-102754819D02*
X127380952Y-102707200D01*
X127380952Y-102707200D02*
X127333333Y-102659580D01*
X127333333Y-102659580D02*
X127285714Y-102564342D01*
X127285714Y-102564342D02*
X127238095Y-102373866D01*
X127238095Y-102373866D02*
X127238095Y-102135771D01*
X127238095Y-102135771D02*
X127285714Y-101945295D01*
X127285714Y-101945295D02*
X127333333Y-101850057D01*
X127333333Y-101850057D02*
X127380952Y-101802438D01*
X127380952Y-101802438D02*
X127476190Y-101754819D01*
X128190476Y-101850057D02*
X128238095Y-101802438D01*
X128238095Y-101802438D02*
X128333333Y-101754819D01*
X128333333Y-101754819D02*
X128571428Y-101754819D01*
X128571428Y-101754819D02*
X128666666Y-101802438D01*
X128666666Y-101802438D02*
X128714285Y-101850057D01*
X128714285Y-101850057D02*
X128761904Y-101945295D01*
X128761904Y-101945295D02*
X128761904Y-102040533D01*
X128761904Y-102040533D02*
X128714285Y-102183390D01*
X128714285Y-102183390D02*
X128142857Y-102754819D01*
X128142857Y-102754819D02*
X128761904Y-102754819D01*
X118454819Y-69619047D02*
X117978628Y-69952380D01*
X118454819Y-70190475D02*
X117454819Y-70190475D01*
X117454819Y-70190475D02*
X117454819Y-69809523D01*
X117454819Y-69809523D02*
X117502438Y-69714285D01*
X117502438Y-69714285D02*
X117550057Y-69666666D01*
X117550057Y-69666666D02*
X117645295Y-69619047D01*
X117645295Y-69619047D02*
X117788152Y-69619047D01*
X117788152Y-69619047D02*
X117883390Y-69666666D01*
X117883390Y-69666666D02*
X117931009Y-69714285D01*
X117931009Y-69714285D02*
X117978628Y-69809523D01*
X117978628Y-69809523D02*
X117978628Y-70190475D01*
X118454819Y-68666666D02*
X118454819Y-69238094D01*
X118454819Y-68952380D02*
X117454819Y-68952380D01*
X117454819Y-68952380D02*
X117597676Y-69047618D01*
X117597676Y-69047618D02*
X117692914Y-69142856D01*
X117692914Y-69142856D02*
X117740533Y-69238094D01*
X117454819Y-68047618D02*
X117454819Y-67952380D01*
X117454819Y-67952380D02*
X117502438Y-67857142D01*
X117502438Y-67857142D02*
X117550057Y-67809523D01*
X117550057Y-67809523D02*
X117645295Y-67761904D01*
X117645295Y-67761904D02*
X117835771Y-67714285D01*
X117835771Y-67714285D02*
X118073866Y-67714285D01*
X118073866Y-67714285D02*
X118264342Y-67761904D01*
X118264342Y-67761904D02*
X118359580Y-67809523D01*
X118359580Y-67809523D02*
X118407200Y-67857142D01*
X118407200Y-67857142D02*
X118454819Y-67952380D01*
X118454819Y-67952380D02*
X118454819Y-68047618D01*
X118454819Y-68047618D02*
X118407200Y-68142856D01*
X118407200Y-68142856D02*
X118359580Y-68190475D01*
X118359580Y-68190475D02*
X118264342Y-68238094D01*
X118264342Y-68238094D02*
X118073866Y-68285713D01*
X118073866Y-68285713D02*
X117835771Y-68285713D01*
X117835771Y-68285713D02*
X117645295Y-68238094D01*
X117645295Y-68238094D02*
X117550057Y-68190475D01*
X117550057Y-68190475D02*
X117502438Y-68142856D01*
X117502438Y-68142856D02*
X117454819Y-68047618D01*
X117550057Y-67333332D02*
X117502438Y-67285713D01*
X117502438Y-67285713D02*
X117454819Y-67190475D01*
X117454819Y-67190475D02*
X117454819Y-66952380D01*
X117454819Y-66952380D02*
X117502438Y-66857142D01*
X117502438Y-66857142D02*
X117550057Y-66809523D01*
X117550057Y-66809523D02*
X117645295Y-66761904D01*
X117645295Y-66761904D02*
X117740533Y-66761904D01*
X117740533Y-66761904D02*
X117883390Y-66809523D01*
X117883390Y-66809523D02*
X118454819Y-67380951D01*
X118454819Y-67380951D02*
X118454819Y-66761904D01*
X118954819Y-74719047D02*
X118478628Y-75052380D01*
X118954819Y-75290475D02*
X117954819Y-75290475D01*
X117954819Y-75290475D02*
X117954819Y-74909523D01*
X117954819Y-74909523D02*
X118002438Y-74814285D01*
X118002438Y-74814285D02*
X118050057Y-74766666D01*
X118050057Y-74766666D02*
X118145295Y-74719047D01*
X118145295Y-74719047D02*
X118288152Y-74719047D01*
X118288152Y-74719047D02*
X118383390Y-74766666D01*
X118383390Y-74766666D02*
X118431009Y-74814285D01*
X118431009Y-74814285D02*
X118478628Y-74909523D01*
X118478628Y-74909523D02*
X118478628Y-75290475D01*
X118954819Y-73766666D02*
X118954819Y-74338094D01*
X118954819Y-74052380D02*
X117954819Y-74052380D01*
X117954819Y-74052380D02*
X118097676Y-74147618D01*
X118097676Y-74147618D02*
X118192914Y-74242856D01*
X118192914Y-74242856D02*
X118240533Y-74338094D01*
X117954819Y-73147618D02*
X117954819Y-73052380D01*
X117954819Y-73052380D02*
X118002438Y-72957142D01*
X118002438Y-72957142D02*
X118050057Y-72909523D01*
X118050057Y-72909523D02*
X118145295Y-72861904D01*
X118145295Y-72861904D02*
X118335771Y-72814285D01*
X118335771Y-72814285D02*
X118573866Y-72814285D01*
X118573866Y-72814285D02*
X118764342Y-72861904D01*
X118764342Y-72861904D02*
X118859580Y-72909523D01*
X118859580Y-72909523D02*
X118907200Y-72957142D01*
X118907200Y-72957142D02*
X118954819Y-73052380D01*
X118954819Y-73052380D02*
X118954819Y-73147618D01*
X118954819Y-73147618D02*
X118907200Y-73242856D01*
X118907200Y-73242856D02*
X118859580Y-73290475D01*
X118859580Y-73290475D02*
X118764342Y-73338094D01*
X118764342Y-73338094D02*
X118573866Y-73385713D01*
X118573866Y-73385713D02*
X118335771Y-73385713D01*
X118335771Y-73385713D02*
X118145295Y-73338094D01*
X118145295Y-73338094D02*
X118050057Y-73290475D01*
X118050057Y-73290475D02*
X118002438Y-73242856D01*
X118002438Y-73242856D02*
X117954819Y-73147618D01*
X117954819Y-72480951D02*
X117954819Y-71814285D01*
X117954819Y-71814285D02*
X118954819Y-72242856D01*
X120454819Y-73714285D02*
X121264342Y-73714285D01*
X121264342Y-73714285D02*
X121359580Y-73666666D01*
X121359580Y-73666666D02*
X121407200Y-73619047D01*
X121407200Y-73619047D02*
X121454819Y-73523809D01*
X121454819Y-73523809D02*
X121454819Y-73333333D01*
X121454819Y-73333333D02*
X121407200Y-73238095D01*
X121407200Y-73238095D02*
X121359580Y-73190476D01*
X121359580Y-73190476D02*
X121264342Y-73142857D01*
X121264342Y-73142857D02*
X120454819Y-73142857D01*
X121454819Y-72142857D02*
X121454819Y-72714285D01*
X121454819Y-72428571D02*
X120454819Y-72428571D01*
X120454819Y-72428571D02*
X120597676Y-72523809D01*
X120597676Y-72523809D02*
X120692914Y-72619047D01*
X120692914Y-72619047D02*
X120740533Y-72714285D01*
X120454819Y-71523809D02*
X120454819Y-71428571D01*
X120454819Y-71428571D02*
X120502438Y-71333333D01*
X120502438Y-71333333D02*
X120550057Y-71285714D01*
X120550057Y-71285714D02*
X120645295Y-71238095D01*
X120645295Y-71238095D02*
X120835771Y-71190476D01*
X120835771Y-71190476D02*
X121073866Y-71190476D01*
X121073866Y-71190476D02*
X121264342Y-71238095D01*
X121264342Y-71238095D02*
X121359580Y-71285714D01*
X121359580Y-71285714D02*
X121407200Y-71333333D01*
X121407200Y-71333333D02*
X121454819Y-71428571D01*
X121454819Y-71428571D02*
X121454819Y-71523809D01*
X121454819Y-71523809D02*
X121407200Y-71619047D01*
X121407200Y-71619047D02*
X121359580Y-71666666D01*
X121359580Y-71666666D02*
X121264342Y-71714285D01*
X121264342Y-71714285D02*
X121073866Y-71761904D01*
X121073866Y-71761904D02*
X120835771Y-71761904D01*
X120835771Y-71761904D02*
X120645295Y-71714285D01*
X120645295Y-71714285D02*
X120550057Y-71666666D01*
X120550057Y-71666666D02*
X120502438Y-71619047D01*
X120502438Y-71619047D02*
X120454819Y-71523809D01*
X120788152Y-70333333D02*
X121454819Y-70333333D01*
X120407200Y-70571428D02*
X121121485Y-70809523D01*
X121121485Y-70809523D02*
X121121485Y-70190476D01*
X136964285Y-60704819D02*
X136964285Y-61419104D01*
X136964285Y-61419104D02*
X136916666Y-61561961D01*
X136916666Y-61561961D02*
X136821428Y-61657200D01*
X136821428Y-61657200D02*
X136678571Y-61704819D01*
X136678571Y-61704819D02*
X136583333Y-61704819D01*
X137964285Y-61704819D02*
X137392857Y-61704819D01*
X137678571Y-61704819D02*
X137678571Y-60704819D01*
X137678571Y-60704819D02*
X137583333Y-60847676D01*
X137583333Y-60847676D02*
X137488095Y-60942914D01*
X137488095Y-60942914D02*
X137392857Y-60990533D01*
X138583333Y-60704819D02*
X138678571Y-60704819D01*
X138678571Y-60704819D02*
X138773809Y-60752438D01*
X138773809Y-60752438D02*
X138821428Y-60800057D01*
X138821428Y-60800057D02*
X138869047Y-60895295D01*
X138869047Y-60895295D02*
X138916666Y-61085771D01*
X138916666Y-61085771D02*
X138916666Y-61323866D01*
X138916666Y-61323866D02*
X138869047Y-61514342D01*
X138869047Y-61514342D02*
X138821428Y-61609580D01*
X138821428Y-61609580D02*
X138773809Y-61657200D01*
X138773809Y-61657200D02*
X138678571Y-61704819D01*
X138678571Y-61704819D02*
X138583333Y-61704819D01*
X138583333Y-61704819D02*
X138488095Y-61657200D01*
X138488095Y-61657200D02*
X138440476Y-61609580D01*
X138440476Y-61609580D02*
X138392857Y-61514342D01*
X138392857Y-61514342D02*
X138345238Y-61323866D01*
X138345238Y-61323866D02*
X138345238Y-61085771D01*
X138345238Y-61085771D02*
X138392857Y-60895295D01*
X138392857Y-60895295D02*
X138440476Y-60800057D01*
X138440476Y-60800057D02*
X138488095Y-60752438D01*
X138488095Y-60752438D02*
X138583333Y-60704819D01*
X139297619Y-60800057D02*
X139345238Y-60752438D01*
X139345238Y-60752438D02*
X139440476Y-60704819D01*
X139440476Y-60704819D02*
X139678571Y-60704819D01*
X139678571Y-60704819D02*
X139773809Y-60752438D01*
X139773809Y-60752438D02*
X139821428Y-60800057D01*
X139821428Y-60800057D02*
X139869047Y-60895295D01*
X139869047Y-60895295D02*
X139869047Y-60990533D01*
X139869047Y-60990533D02*
X139821428Y-61133390D01*
X139821428Y-61133390D02*
X139250000Y-61704819D01*
X139250000Y-61704819D02*
X139869047Y-61704819D01*
X104880952Y-92609580D02*
X104833333Y-92657200D01*
X104833333Y-92657200D02*
X104690476Y-92704819D01*
X104690476Y-92704819D02*
X104595238Y-92704819D01*
X104595238Y-92704819D02*
X104452381Y-92657200D01*
X104452381Y-92657200D02*
X104357143Y-92561961D01*
X104357143Y-92561961D02*
X104309524Y-92466723D01*
X104309524Y-92466723D02*
X104261905Y-92276247D01*
X104261905Y-92276247D02*
X104261905Y-92133390D01*
X104261905Y-92133390D02*
X104309524Y-91942914D01*
X104309524Y-91942914D02*
X104357143Y-91847676D01*
X104357143Y-91847676D02*
X104452381Y-91752438D01*
X104452381Y-91752438D02*
X104595238Y-91704819D01*
X104595238Y-91704819D02*
X104690476Y-91704819D01*
X104690476Y-91704819D02*
X104833333Y-91752438D01*
X104833333Y-91752438D02*
X104880952Y-91800057D01*
X105833333Y-92704819D02*
X105261905Y-92704819D01*
X105547619Y-92704819D02*
X105547619Y-91704819D01*
X105547619Y-91704819D02*
X105452381Y-91847676D01*
X105452381Y-91847676D02*
X105357143Y-91942914D01*
X105357143Y-91942914D02*
X105261905Y-91990533D01*
X106452381Y-91704819D02*
X106547619Y-91704819D01*
X106547619Y-91704819D02*
X106642857Y-91752438D01*
X106642857Y-91752438D02*
X106690476Y-91800057D01*
X106690476Y-91800057D02*
X106738095Y-91895295D01*
X106738095Y-91895295D02*
X106785714Y-92085771D01*
X106785714Y-92085771D02*
X106785714Y-92323866D01*
X106785714Y-92323866D02*
X106738095Y-92514342D01*
X106738095Y-92514342D02*
X106690476Y-92609580D01*
X106690476Y-92609580D02*
X106642857Y-92657200D01*
X106642857Y-92657200D02*
X106547619Y-92704819D01*
X106547619Y-92704819D02*
X106452381Y-92704819D01*
X106452381Y-92704819D02*
X106357143Y-92657200D01*
X106357143Y-92657200D02*
X106309524Y-92609580D01*
X106309524Y-92609580D02*
X106261905Y-92514342D01*
X106261905Y-92514342D02*
X106214286Y-92323866D01*
X106214286Y-92323866D02*
X106214286Y-92085771D01*
X106214286Y-92085771D02*
X106261905Y-91895295D01*
X106261905Y-91895295D02*
X106309524Y-91800057D01*
X106309524Y-91800057D02*
X106357143Y-91752438D01*
X106357143Y-91752438D02*
X106452381Y-91704819D01*
X107738095Y-92704819D02*
X107166667Y-92704819D01*
X107452381Y-92704819D02*
X107452381Y-91704819D01*
X107452381Y-91704819D02*
X107357143Y-91847676D01*
X107357143Y-91847676D02*
X107261905Y-91942914D01*
X107261905Y-91942914D02*
X107166667Y-91990533D01*
X134159580Y-103719047D02*
X134207200Y-103766666D01*
X134207200Y-103766666D02*
X134254819Y-103909523D01*
X134254819Y-103909523D02*
X134254819Y-104004761D01*
X134254819Y-104004761D02*
X134207200Y-104147618D01*
X134207200Y-104147618D02*
X134111961Y-104242856D01*
X134111961Y-104242856D02*
X134016723Y-104290475D01*
X134016723Y-104290475D02*
X133826247Y-104338094D01*
X133826247Y-104338094D02*
X133683390Y-104338094D01*
X133683390Y-104338094D02*
X133492914Y-104290475D01*
X133492914Y-104290475D02*
X133397676Y-104242856D01*
X133397676Y-104242856D02*
X133302438Y-104147618D01*
X133302438Y-104147618D02*
X133254819Y-104004761D01*
X133254819Y-104004761D02*
X133254819Y-103909523D01*
X133254819Y-103909523D02*
X133302438Y-103766666D01*
X133302438Y-103766666D02*
X133350057Y-103719047D01*
X133350057Y-103338094D02*
X133302438Y-103290475D01*
X133302438Y-103290475D02*
X133254819Y-103195237D01*
X133254819Y-103195237D02*
X133254819Y-102957142D01*
X133254819Y-102957142D02*
X133302438Y-102861904D01*
X133302438Y-102861904D02*
X133350057Y-102814285D01*
X133350057Y-102814285D02*
X133445295Y-102766666D01*
X133445295Y-102766666D02*
X133540533Y-102766666D01*
X133540533Y-102766666D02*
X133683390Y-102814285D01*
X133683390Y-102814285D02*
X134254819Y-103385713D01*
X134254819Y-103385713D02*
X134254819Y-102766666D01*
X133254819Y-102147618D02*
X133254819Y-102052380D01*
X133254819Y-102052380D02*
X133302438Y-101957142D01*
X133302438Y-101957142D02*
X133350057Y-101909523D01*
X133350057Y-101909523D02*
X133445295Y-101861904D01*
X133445295Y-101861904D02*
X133635771Y-101814285D01*
X133635771Y-101814285D02*
X133873866Y-101814285D01*
X133873866Y-101814285D02*
X134064342Y-101861904D01*
X134064342Y-101861904D02*
X134159580Y-101909523D01*
X134159580Y-101909523D02*
X134207200Y-101957142D01*
X134207200Y-101957142D02*
X134254819Y-102052380D01*
X134254819Y-102052380D02*
X134254819Y-102147618D01*
X134254819Y-102147618D02*
X134207200Y-102242856D01*
X134207200Y-102242856D02*
X134159580Y-102290475D01*
X134159580Y-102290475D02*
X134064342Y-102338094D01*
X134064342Y-102338094D02*
X133873866Y-102385713D01*
X133873866Y-102385713D02*
X133635771Y-102385713D01*
X133635771Y-102385713D02*
X133445295Y-102338094D01*
X133445295Y-102338094D02*
X133350057Y-102290475D01*
X133350057Y-102290475D02*
X133302438Y-102242856D01*
X133302438Y-102242856D02*
X133254819Y-102147618D01*
X133254819Y-101480951D02*
X133254819Y-100814285D01*
X133254819Y-100814285D02*
X134254819Y-101242856D01*
X120454819Y-80714285D02*
X121264342Y-80714285D01*
X121264342Y-80714285D02*
X121359580Y-80666666D01*
X121359580Y-80666666D02*
X121407200Y-80619047D01*
X121407200Y-80619047D02*
X121454819Y-80523809D01*
X121454819Y-80523809D02*
X121454819Y-80333333D01*
X121454819Y-80333333D02*
X121407200Y-80238095D01*
X121407200Y-80238095D02*
X121359580Y-80190476D01*
X121359580Y-80190476D02*
X121264342Y-80142857D01*
X121264342Y-80142857D02*
X120454819Y-80142857D01*
X121454819Y-79142857D02*
X121454819Y-79714285D01*
X121454819Y-79428571D02*
X120454819Y-79428571D01*
X120454819Y-79428571D02*
X120597676Y-79523809D01*
X120597676Y-79523809D02*
X120692914Y-79619047D01*
X120692914Y-79619047D02*
X120740533Y-79714285D01*
X120454819Y-78523809D02*
X120454819Y-78428571D01*
X120454819Y-78428571D02*
X120502438Y-78333333D01*
X120502438Y-78333333D02*
X120550057Y-78285714D01*
X120550057Y-78285714D02*
X120645295Y-78238095D01*
X120645295Y-78238095D02*
X120835771Y-78190476D01*
X120835771Y-78190476D02*
X121073866Y-78190476D01*
X121073866Y-78190476D02*
X121264342Y-78238095D01*
X121264342Y-78238095D02*
X121359580Y-78285714D01*
X121359580Y-78285714D02*
X121407200Y-78333333D01*
X121407200Y-78333333D02*
X121454819Y-78428571D01*
X121454819Y-78428571D02*
X121454819Y-78523809D01*
X121454819Y-78523809D02*
X121407200Y-78619047D01*
X121407200Y-78619047D02*
X121359580Y-78666666D01*
X121359580Y-78666666D02*
X121264342Y-78714285D01*
X121264342Y-78714285D02*
X121073866Y-78761904D01*
X121073866Y-78761904D02*
X120835771Y-78761904D01*
X120835771Y-78761904D02*
X120645295Y-78714285D01*
X120645295Y-78714285D02*
X120550057Y-78666666D01*
X120550057Y-78666666D02*
X120502438Y-78619047D01*
X120502438Y-78619047D02*
X120454819Y-78523809D01*
X121454819Y-77238095D02*
X121454819Y-77809523D01*
X121454819Y-77523809D02*
X120454819Y-77523809D01*
X120454819Y-77523809D02*
X120597676Y-77619047D01*
X120597676Y-77619047D02*
X120692914Y-77714285D01*
X120692914Y-77714285D02*
X120740533Y-77809523D01*
X113309524Y-96854819D02*
X113309524Y-95854819D01*
X113309524Y-95854819D02*
X113547619Y-95854819D01*
X113547619Y-95854819D02*
X113690476Y-95902438D01*
X113690476Y-95902438D02*
X113785714Y-95997676D01*
X113785714Y-95997676D02*
X113833333Y-96092914D01*
X113833333Y-96092914D02*
X113880952Y-96283390D01*
X113880952Y-96283390D02*
X113880952Y-96426247D01*
X113880952Y-96426247D02*
X113833333Y-96616723D01*
X113833333Y-96616723D02*
X113785714Y-96711961D01*
X113785714Y-96711961D02*
X113690476Y-96807200D01*
X113690476Y-96807200D02*
X113547619Y-96854819D01*
X113547619Y-96854819D02*
X113309524Y-96854819D01*
X114261905Y-95950057D02*
X114309524Y-95902438D01*
X114309524Y-95902438D02*
X114404762Y-95854819D01*
X114404762Y-95854819D02*
X114642857Y-95854819D01*
X114642857Y-95854819D02*
X114738095Y-95902438D01*
X114738095Y-95902438D02*
X114785714Y-95950057D01*
X114785714Y-95950057D02*
X114833333Y-96045295D01*
X114833333Y-96045295D02*
X114833333Y-96140533D01*
X114833333Y-96140533D02*
X114785714Y-96283390D01*
X114785714Y-96283390D02*
X114214286Y-96854819D01*
X114214286Y-96854819D02*
X114833333Y-96854819D01*
X115452381Y-95854819D02*
X115547619Y-95854819D01*
X115547619Y-95854819D02*
X115642857Y-95902438D01*
X115642857Y-95902438D02*
X115690476Y-95950057D01*
X115690476Y-95950057D02*
X115738095Y-96045295D01*
X115738095Y-96045295D02*
X115785714Y-96235771D01*
X115785714Y-96235771D02*
X115785714Y-96473866D01*
X115785714Y-96473866D02*
X115738095Y-96664342D01*
X115738095Y-96664342D02*
X115690476Y-96759580D01*
X115690476Y-96759580D02*
X115642857Y-96807200D01*
X115642857Y-96807200D02*
X115547619Y-96854819D01*
X115547619Y-96854819D02*
X115452381Y-96854819D01*
X115452381Y-96854819D02*
X115357143Y-96807200D01*
X115357143Y-96807200D02*
X115309524Y-96759580D01*
X115309524Y-96759580D02*
X115261905Y-96664342D01*
X115261905Y-96664342D02*
X115214286Y-96473866D01*
X115214286Y-96473866D02*
X115214286Y-96235771D01*
X115214286Y-96235771D02*
X115261905Y-96045295D01*
X115261905Y-96045295D02*
X115309524Y-95950057D01*
X115309524Y-95950057D02*
X115357143Y-95902438D01*
X115357143Y-95902438D02*
X115452381Y-95854819D01*
X116738095Y-96854819D02*
X116166667Y-96854819D01*
X116452381Y-96854819D02*
X116452381Y-95854819D01*
X116452381Y-95854819D02*
X116357143Y-95997676D01*
X116357143Y-95997676D02*
X116261905Y-96092914D01*
X116261905Y-96092914D02*
X116166667Y-96140533D01*
X117380952Y-83954819D02*
X117047619Y-83478628D01*
X116809524Y-83954819D02*
X116809524Y-82954819D01*
X116809524Y-82954819D02*
X117190476Y-82954819D01*
X117190476Y-82954819D02*
X117285714Y-83002438D01*
X117285714Y-83002438D02*
X117333333Y-83050057D01*
X117333333Y-83050057D02*
X117380952Y-83145295D01*
X117380952Y-83145295D02*
X117380952Y-83288152D01*
X117380952Y-83288152D02*
X117333333Y-83383390D01*
X117333333Y-83383390D02*
X117285714Y-83431009D01*
X117285714Y-83431009D02*
X117190476Y-83478628D01*
X117190476Y-83478628D02*
X116809524Y-83478628D01*
X118333333Y-83954819D02*
X117761905Y-83954819D01*
X118047619Y-83954819D02*
X118047619Y-82954819D01*
X118047619Y-82954819D02*
X117952381Y-83097676D01*
X117952381Y-83097676D02*
X117857143Y-83192914D01*
X117857143Y-83192914D02*
X117761905Y-83240533D01*
X118952381Y-82954819D02*
X119047619Y-82954819D01*
X119047619Y-82954819D02*
X119142857Y-83002438D01*
X119142857Y-83002438D02*
X119190476Y-83050057D01*
X119190476Y-83050057D02*
X119238095Y-83145295D01*
X119238095Y-83145295D02*
X119285714Y-83335771D01*
X119285714Y-83335771D02*
X119285714Y-83573866D01*
X119285714Y-83573866D02*
X119238095Y-83764342D01*
X119238095Y-83764342D02*
X119190476Y-83859580D01*
X119190476Y-83859580D02*
X119142857Y-83907200D01*
X119142857Y-83907200D02*
X119047619Y-83954819D01*
X119047619Y-83954819D02*
X118952381Y-83954819D01*
X118952381Y-83954819D02*
X118857143Y-83907200D01*
X118857143Y-83907200D02*
X118809524Y-83859580D01*
X118809524Y-83859580D02*
X118761905Y-83764342D01*
X118761905Y-83764342D02*
X118714286Y-83573866D01*
X118714286Y-83573866D02*
X118714286Y-83335771D01*
X118714286Y-83335771D02*
X118761905Y-83145295D01*
X118761905Y-83145295D02*
X118809524Y-83050057D01*
X118809524Y-83050057D02*
X118857143Y-83002438D01*
X118857143Y-83002438D02*
X118952381Y-82954819D01*
X120142857Y-83288152D02*
X120142857Y-83954819D01*
X119904762Y-82907200D02*
X119666667Y-83621485D01*
X119666667Y-83621485D02*
X120285714Y-83621485D01*
X135080952Y-99159580D02*
X135033333Y-99207200D01*
X135033333Y-99207200D02*
X134890476Y-99254819D01*
X134890476Y-99254819D02*
X134795238Y-99254819D01*
X134795238Y-99254819D02*
X134652381Y-99207200D01*
X134652381Y-99207200D02*
X134557143Y-99111961D01*
X134557143Y-99111961D02*
X134509524Y-99016723D01*
X134509524Y-99016723D02*
X134461905Y-98826247D01*
X134461905Y-98826247D02*
X134461905Y-98683390D01*
X134461905Y-98683390D02*
X134509524Y-98492914D01*
X134509524Y-98492914D02*
X134557143Y-98397676D01*
X134557143Y-98397676D02*
X134652381Y-98302438D01*
X134652381Y-98302438D02*
X134795238Y-98254819D01*
X134795238Y-98254819D02*
X134890476Y-98254819D01*
X134890476Y-98254819D02*
X135033333Y-98302438D01*
X135033333Y-98302438D02*
X135080952Y-98350057D01*
X135461905Y-98350057D02*
X135509524Y-98302438D01*
X135509524Y-98302438D02*
X135604762Y-98254819D01*
X135604762Y-98254819D02*
X135842857Y-98254819D01*
X135842857Y-98254819D02*
X135938095Y-98302438D01*
X135938095Y-98302438D02*
X135985714Y-98350057D01*
X135985714Y-98350057D02*
X136033333Y-98445295D01*
X136033333Y-98445295D02*
X136033333Y-98540533D01*
X136033333Y-98540533D02*
X135985714Y-98683390D01*
X135985714Y-98683390D02*
X135414286Y-99254819D01*
X135414286Y-99254819D02*
X136033333Y-99254819D01*
X136652381Y-98254819D02*
X136747619Y-98254819D01*
X136747619Y-98254819D02*
X136842857Y-98302438D01*
X136842857Y-98302438D02*
X136890476Y-98350057D01*
X136890476Y-98350057D02*
X136938095Y-98445295D01*
X136938095Y-98445295D02*
X136985714Y-98635771D01*
X136985714Y-98635771D02*
X136985714Y-98873866D01*
X136985714Y-98873866D02*
X136938095Y-99064342D01*
X136938095Y-99064342D02*
X136890476Y-99159580D01*
X136890476Y-99159580D02*
X136842857Y-99207200D01*
X136842857Y-99207200D02*
X136747619Y-99254819D01*
X136747619Y-99254819D02*
X136652381Y-99254819D01*
X136652381Y-99254819D02*
X136557143Y-99207200D01*
X136557143Y-99207200D02*
X136509524Y-99159580D01*
X136509524Y-99159580D02*
X136461905Y-99064342D01*
X136461905Y-99064342D02*
X136414286Y-98873866D01*
X136414286Y-98873866D02*
X136414286Y-98635771D01*
X136414286Y-98635771D02*
X136461905Y-98445295D01*
X136461905Y-98445295D02*
X136509524Y-98350057D01*
X136509524Y-98350057D02*
X136557143Y-98302438D01*
X136557143Y-98302438D02*
X136652381Y-98254819D01*
X137842857Y-98254819D02*
X137652381Y-98254819D01*
X137652381Y-98254819D02*
X137557143Y-98302438D01*
X137557143Y-98302438D02*
X137509524Y-98350057D01*
X137509524Y-98350057D02*
X137414286Y-98492914D01*
X137414286Y-98492914D02*
X137366667Y-98683390D01*
X137366667Y-98683390D02*
X137366667Y-99064342D01*
X137366667Y-99064342D02*
X137414286Y-99159580D01*
X137414286Y-99159580D02*
X137461905Y-99207200D01*
X137461905Y-99207200D02*
X137557143Y-99254819D01*
X137557143Y-99254819D02*
X137747619Y-99254819D01*
X137747619Y-99254819D02*
X137842857Y-99207200D01*
X137842857Y-99207200D02*
X137890476Y-99159580D01*
X137890476Y-99159580D02*
X137938095Y-99064342D01*
X137938095Y-99064342D02*
X137938095Y-98826247D01*
X137938095Y-98826247D02*
X137890476Y-98731009D01*
X137890476Y-98731009D02*
X137842857Y-98683390D01*
X137842857Y-98683390D02*
X137747619Y-98635771D01*
X137747619Y-98635771D02*
X137557143Y-98635771D01*
X137557143Y-98635771D02*
X137461905Y-98683390D01*
X137461905Y-98683390D02*
X137414286Y-98731009D01*
X137414286Y-98731009D02*
X137366667Y-98826247D01*
X135124819Y-73869047D02*
X134648628Y-74202380D01*
X135124819Y-74440475D02*
X134124819Y-74440475D01*
X134124819Y-74440475D02*
X134124819Y-74059523D01*
X134124819Y-74059523D02*
X134172438Y-73964285D01*
X134172438Y-73964285D02*
X134220057Y-73916666D01*
X134220057Y-73916666D02*
X134315295Y-73869047D01*
X134315295Y-73869047D02*
X134458152Y-73869047D01*
X134458152Y-73869047D02*
X134553390Y-73916666D01*
X134553390Y-73916666D02*
X134601009Y-73964285D01*
X134601009Y-73964285D02*
X134648628Y-74059523D01*
X134648628Y-74059523D02*
X134648628Y-74440475D01*
X135124819Y-72916666D02*
X135124819Y-73488094D01*
X135124819Y-73202380D02*
X134124819Y-73202380D01*
X134124819Y-73202380D02*
X134267676Y-73297618D01*
X134267676Y-73297618D02*
X134362914Y-73392856D01*
X134362914Y-73392856D02*
X134410533Y-73488094D01*
X135124819Y-71964285D02*
X135124819Y-72535713D01*
X135124819Y-72249999D02*
X134124819Y-72249999D01*
X134124819Y-72249999D02*
X134267676Y-72345237D01*
X134267676Y-72345237D02*
X134362914Y-72440475D01*
X134362914Y-72440475D02*
X134410533Y-72535713D01*
X135124819Y-71011904D02*
X135124819Y-71583332D01*
X135124819Y-71297618D02*
X134124819Y-71297618D01*
X134124819Y-71297618D02*
X134267676Y-71392856D01*
X134267676Y-71392856D02*
X134362914Y-71488094D01*
X134362914Y-71488094D02*
X134410533Y-71583332D01*
X116954819Y-69619047D02*
X116478628Y-69952380D01*
X116954819Y-70190475D02*
X115954819Y-70190475D01*
X115954819Y-70190475D02*
X115954819Y-69809523D01*
X115954819Y-69809523D02*
X116002438Y-69714285D01*
X116002438Y-69714285D02*
X116050057Y-69666666D01*
X116050057Y-69666666D02*
X116145295Y-69619047D01*
X116145295Y-69619047D02*
X116288152Y-69619047D01*
X116288152Y-69619047D02*
X116383390Y-69666666D01*
X116383390Y-69666666D02*
X116431009Y-69714285D01*
X116431009Y-69714285D02*
X116478628Y-69809523D01*
X116478628Y-69809523D02*
X116478628Y-70190475D01*
X116954819Y-68666666D02*
X116954819Y-69238094D01*
X116954819Y-68952380D02*
X115954819Y-68952380D01*
X115954819Y-68952380D02*
X116097676Y-69047618D01*
X116097676Y-69047618D02*
X116192914Y-69142856D01*
X116192914Y-69142856D02*
X116240533Y-69238094D01*
X115954819Y-68047618D02*
X115954819Y-67952380D01*
X115954819Y-67952380D02*
X116002438Y-67857142D01*
X116002438Y-67857142D02*
X116050057Y-67809523D01*
X116050057Y-67809523D02*
X116145295Y-67761904D01*
X116145295Y-67761904D02*
X116335771Y-67714285D01*
X116335771Y-67714285D02*
X116573866Y-67714285D01*
X116573866Y-67714285D02*
X116764342Y-67761904D01*
X116764342Y-67761904D02*
X116859580Y-67809523D01*
X116859580Y-67809523D02*
X116907200Y-67857142D01*
X116907200Y-67857142D02*
X116954819Y-67952380D01*
X116954819Y-67952380D02*
X116954819Y-68047618D01*
X116954819Y-68047618D02*
X116907200Y-68142856D01*
X116907200Y-68142856D02*
X116859580Y-68190475D01*
X116859580Y-68190475D02*
X116764342Y-68238094D01*
X116764342Y-68238094D02*
X116573866Y-68285713D01*
X116573866Y-68285713D02*
X116335771Y-68285713D01*
X116335771Y-68285713D02*
X116145295Y-68238094D01*
X116145295Y-68238094D02*
X116050057Y-68190475D01*
X116050057Y-68190475D02*
X116002438Y-68142856D01*
X116002438Y-68142856D02*
X115954819Y-68047618D01*
X115954819Y-66857142D02*
X115954819Y-67047618D01*
X115954819Y-67047618D02*
X116002438Y-67142856D01*
X116002438Y-67142856D02*
X116050057Y-67190475D01*
X116050057Y-67190475D02*
X116192914Y-67285713D01*
X116192914Y-67285713D02*
X116383390Y-67333332D01*
X116383390Y-67333332D02*
X116764342Y-67333332D01*
X116764342Y-67333332D02*
X116859580Y-67285713D01*
X116859580Y-67285713D02*
X116907200Y-67238094D01*
X116907200Y-67238094D02*
X116954819Y-67142856D01*
X116954819Y-67142856D02*
X116954819Y-66952380D01*
X116954819Y-66952380D02*
X116907200Y-66857142D01*
X116907200Y-66857142D02*
X116859580Y-66809523D01*
X116859580Y-66809523D02*
X116764342Y-66761904D01*
X116764342Y-66761904D02*
X116526247Y-66761904D01*
X116526247Y-66761904D02*
X116431009Y-66809523D01*
X116431009Y-66809523D02*
X116383390Y-66857142D01*
X116383390Y-66857142D02*
X116335771Y-66952380D01*
X116335771Y-66952380D02*
X116335771Y-67142856D01*
X116335771Y-67142856D02*
X116383390Y-67238094D01*
X116383390Y-67238094D02*
X116431009Y-67285713D01*
X116431009Y-67285713D02*
X116526247Y-67333332D01*
X141054819Y-106714285D02*
X141864342Y-106714285D01*
X141864342Y-106714285D02*
X141959580Y-106666666D01*
X141959580Y-106666666D02*
X142007200Y-106619047D01*
X142007200Y-106619047D02*
X142054819Y-106523809D01*
X142054819Y-106523809D02*
X142054819Y-106333333D01*
X142054819Y-106333333D02*
X142007200Y-106238095D01*
X142007200Y-106238095D02*
X141959580Y-106190476D01*
X141959580Y-106190476D02*
X141864342Y-106142857D01*
X141864342Y-106142857D02*
X141054819Y-106142857D01*
X141150057Y-105714285D02*
X141102438Y-105666666D01*
X141102438Y-105666666D02*
X141054819Y-105571428D01*
X141054819Y-105571428D02*
X141054819Y-105333333D01*
X141054819Y-105333333D02*
X141102438Y-105238095D01*
X141102438Y-105238095D02*
X141150057Y-105190476D01*
X141150057Y-105190476D02*
X141245295Y-105142857D01*
X141245295Y-105142857D02*
X141340533Y-105142857D01*
X141340533Y-105142857D02*
X141483390Y-105190476D01*
X141483390Y-105190476D02*
X142054819Y-105761904D01*
X142054819Y-105761904D02*
X142054819Y-105142857D01*
X141054819Y-104523809D02*
X141054819Y-104428571D01*
X141054819Y-104428571D02*
X141102438Y-104333333D01*
X141102438Y-104333333D02*
X141150057Y-104285714D01*
X141150057Y-104285714D02*
X141245295Y-104238095D01*
X141245295Y-104238095D02*
X141435771Y-104190476D01*
X141435771Y-104190476D02*
X141673866Y-104190476D01*
X141673866Y-104190476D02*
X141864342Y-104238095D01*
X141864342Y-104238095D02*
X141959580Y-104285714D01*
X141959580Y-104285714D02*
X142007200Y-104333333D01*
X142007200Y-104333333D02*
X142054819Y-104428571D01*
X142054819Y-104428571D02*
X142054819Y-104523809D01*
X142054819Y-104523809D02*
X142007200Y-104619047D01*
X142007200Y-104619047D02*
X141959580Y-104666666D01*
X141959580Y-104666666D02*
X141864342Y-104714285D01*
X141864342Y-104714285D02*
X141673866Y-104761904D01*
X141673866Y-104761904D02*
X141435771Y-104761904D01*
X141435771Y-104761904D02*
X141245295Y-104714285D01*
X141245295Y-104714285D02*
X141150057Y-104666666D01*
X141150057Y-104666666D02*
X141102438Y-104619047D01*
X141102438Y-104619047D02*
X141054819Y-104523809D01*
X142054819Y-103238095D02*
X142054819Y-103809523D01*
X142054819Y-103523809D02*
X141054819Y-103523809D01*
X141054819Y-103523809D02*
X141197676Y-103619047D01*
X141197676Y-103619047D02*
X141292914Y-103714285D01*
X141292914Y-103714285D02*
X141340533Y-103809523D01*
X118049819Y-121290714D02*
X118764104Y-121290714D01*
X118764104Y-121290714D02*
X118906961Y-121338333D01*
X118906961Y-121338333D02*
X119002200Y-121433571D01*
X119002200Y-121433571D02*
X119049819Y-121576428D01*
X119049819Y-121576428D02*
X119049819Y-121671666D01*
X118049819Y-120909761D02*
X118049819Y-120290714D01*
X118049819Y-120290714D02*
X118430771Y-120624047D01*
X118430771Y-120624047D02*
X118430771Y-120481190D01*
X118430771Y-120481190D02*
X118478390Y-120385952D01*
X118478390Y-120385952D02*
X118526009Y-120338333D01*
X118526009Y-120338333D02*
X118621247Y-120290714D01*
X118621247Y-120290714D02*
X118859342Y-120290714D01*
X118859342Y-120290714D02*
X118954580Y-120338333D01*
X118954580Y-120338333D02*
X119002200Y-120385952D01*
X119002200Y-120385952D02*
X119049819Y-120481190D01*
X119049819Y-120481190D02*
X119049819Y-120766904D01*
X119049819Y-120766904D02*
X119002200Y-120862142D01*
X119002200Y-120862142D02*
X118954580Y-120909761D01*
X118049819Y-119671666D02*
X118049819Y-119576428D01*
X118049819Y-119576428D02*
X118097438Y-119481190D01*
X118097438Y-119481190D02*
X118145057Y-119433571D01*
X118145057Y-119433571D02*
X118240295Y-119385952D01*
X118240295Y-119385952D02*
X118430771Y-119338333D01*
X118430771Y-119338333D02*
X118668866Y-119338333D01*
X118668866Y-119338333D02*
X118859342Y-119385952D01*
X118859342Y-119385952D02*
X118954580Y-119433571D01*
X118954580Y-119433571D02*
X119002200Y-119481190D01*
X119002200Y-119481190D02*
X119049819Y-119576428D01*
X119049819Y-119576428D02*
X119049819Y-119671666D01*
X119049819Y-119671666D02*
X119002200Y-119766904D01*
X119002200Y-119766904D02*
X118954580Y-119814523D01*
X118954580Y-119814523D02*
X118859342Y-119862142D01*
X118859342Y-119862142D02*
X118668866Y-119909761D01*
X118668866Y-119909761D02*
X118430771Y-119909761D01*
X118430771Y-119909761D02*
X118240295Y-119862142D01*
X118240295Y-119862142D02*
X118145057Y-119814523D01*
X118145057Y-119814523D02*
X118097438Y-119766904D01*
X118097438Y-119766904D02*
X118049819Y-119671666D01*
X119049819Y-118385952D02*
X119049819Y-118957380D01*
X119049819Y-118671666D02*
X118049819Y-118671666D01*
X118049819Y-118671666D02*
X118192676Y-118766904D01*
X118192676Y-118766904D02*
X118287914Y-118862142D01*
X118287914Y-118862142D02*
X118335533Y-118957380D01*
X120454819Y-66714285D02*
X121264342Y-66714285D01*
X121264342Y-66714285D02*
X121359580Y-66666666D01*
X121359580Y-66666666D02*
X121407200Y-66619047D01*
X121407200Y-66619047D02*
X121454819Y-66523809D01*
X121454819Y-66523809D02*
X121454819Y-66333333D01*
X121454819Y-66333333D02*
X121407200Y-66238095D01*
X121407200Y-66238095D02*
X121359580Y-66190476D01*
X121359580Y-66190476D02*
X121264342Y-66142857D01*
X121264342Y-66142857D02*
X120454819Y-66142857D01*
X121454819Y-65142857D02*
X121454819Y-65714285D01*
X121454819Y-65428571D02*
X120454819Y-65428571D01*
X120454819Y-65428571D02*
X120597676Y-65523809D01*
X120597676Y-65523809D02*
X120692914Y-65619047D01*
X120692914Y-65619047D02*
X120740533Y-65714285D01*
X120454819Y-64523809D02*
X120454819Y-64428571D01*
X120454819Y-64428571D02*
X120502438Y-64333333D01*
X120502438Y-64333333D02*
X120550057Y-64285714D01*
X120550057Y-64285714D02*
X120645295Y-64238095D01*
X120645295Y-64238095D02*
X120835771Y-64190476D01*
X120835771Y-64190476D02*
X121073866Y-64190476D01*
X121073866Y-64190476D02*
X121264342Y-64238095D01*
X121264342Y-64238095D02*
X121359580Y-64285714D01*
X121359580Y-64285714D02*
X121407200Y-64333333D01*
X121407200Y-64333333D02*
X121454819Y-64428571D01*
X121454819Y-64428571D02*
X121454819Y-64523809D01*
X121454819Y-64523809D02*
X121407200Y-64619047D01*
X121407200Y-64619047D02*
X121359580Y-64666666D01*
X121359580Y-64666666D02*
X121264342Y-64714285D01*
X121264342Y-64714285D02*
X121073866Y-64761904D01*
X121073866Y-64761904D02*
X120835771Y-64761904D01*
X120835771Y-64761904D02*
X120645295Y-64714285D01*
X120645295Y-64714285D02*
X120550057Y-64666666D01*
X120550057Y-64666666D02*
X120502438Y-64619047D01*
X120502438Y-64619047D02*
X120454819Y-64523809D01*
X120454819Y-63857142D02*
X120454819Y-63238095D01*
X120454819Y-63238095D02*
X120835771Y-63571428D01*
X120835771Y-63571428D02*
X120835771Y-63428571D01*
X120835771Y-63428571D02*
X120883390Y-63333333D01*
X120883390Y-63333333D02*
X120931009Y-63285714D01*
X120931009Y-63285714D02*
X121026247Y-63238095D01*
X121026247Y-63238095D02*
X121264342Y-63238095D01*
X121264342Y-63238095D02*
X121359580Y-63285714D01*
X121359580Y-63285714D02*
X121407200Y-63333333D01*
X121407200Y-63333333D02*
X121454819Y-63428571D01*
X121454819Y-63428571D02*
X121454819Y-63714285D01*
X121454819Y-63714285D02*
X121407200Y-63809523D01*
X121407200Y-63809523D02*
X121359580Y-63857142D01*
X131680952Y-105759580D02*
X131633333Y-105807200D01*
X131633333Y-105807200D02*
X131490476Y-105854819D01*
X131490476Y-105854819D02*
X131395238Y-105854819D01*
X131395238Y-105854819D02*
X131252381Y-105807200D01*
X131252381Y-105807200D02*
X131157143Y-105711961D01*
X131157143Y-105711961D02*
X131109524Y-105616723D01*
X131109524Y-105616723D02*
X131061905Y-105426247D01*
X131061905Y-105426247D02*
X131061905Y-105283390D01*
X131061905Y-105283390D02*
X131109524Y-105092914D01*
X131109524Y-105092914D02*
X131157143Y-104997676D01*
X131157143Y-104997676D02*
X131252381Y-104902438D01*
X131252381Y-104902438D02*
X131395238Y-104854819D01*
X131395238Y-104854819D02*
X131490476Y-104854819D01*
X131490476Y-104854819D02*
X131633333Y-104902438D01*
X131633333Y-104902438D02*
X131680952Y-104950057D01*
X132061905Y-104950057D02*
X132109524Y-104902438D01*
X132109524Y-104902438D02*
X132204762Y-104854819D01*
X132204762Y-104854819D02*
X132442857Y-104854819D01*
X132442857Y-104854819D02*
X132538095Y-104902438D01*
X132538095Y-104902438D02*
X132585714Y-104950057D01*
X132585714Y-104950057D02*
X132633333Y-105045295D01*
X132633333Y-105045295D02*
X132633333Y-105140533D01*
X132633333Y-105140533D02*
X132585714Y-105283390D01*
X132585714Y-105283390D02*
X132014286Y-105854819D01*
X132014286Y-105854819D02*
X132633333Y-105854819D01*
X133252381Y-104854819D02*
X133347619Y-104854819D01*
X133347619Y-104854819D02*
X133442857Y-104902438D01*
X133442857Y-104902438D02*
X133490476Y-104950057D01*
X133490476Y-104950057D02*
X133538095Y-105045295D01*
X133538095Y-105045295D02*
X133585714Y-105235771D01*
X133585714Y-105235771D02*
X133585714Y-105473866D01*
X133585714Y-105473866D02*
X133538095Y-105664342D01*
X133538095Y-105664342D02*
X133490476Y-105759580D01*
X133490476Y-105759580D02*
X133442857Y-105807200D01*
X133442857Y-105807200D02*
X133347619Y-105854819D01*
X133347619Y-105854819D02*
X133252381Y-105854819D01*
X133252381Y-105854819D02*
X133157143Y-105807200D01*
X133157143Y-105807200D02*
X133109524Y-105759580D01*
X133109524Y-105759580D02*
X133061905Y-105664342D01*
X133061905Y-105664342D02*
X133014286Y-105473866D01*
X133014286Y-105473866D02*
X133014286Y-105235771D01*
X133014286Y-105235771D02*
X133061905Y-105045295D01*
X133061905Y-105045295D02*
X133109524Y-104950057D01*
X133109524Y-104950057D02*
X133157143Y-104902438D01*
X133157143Y-104902438D02*
X133252381Y-104854819D01*
X133919048Y-104854819D02*
X134538095Y-104854819D01*
X134538095Y-104854819D02*
X134204762Y-105235771D01*
X134204762Y-105235771D02*
X134347619Y-105235771D01*
X134347619Y-105235771D02*
X134442857Y-105283390D01*
X134442857Y-105283390D02*
X134490476Y-105331009D01*
X134490476Y-105331009D02*
X134538095Y-105426247D01*
X134538095Y-105426247D02*
X134538095Y-105664342D01*
X134538095Y-105664342D02*
X134490476Y-105759580D01*
X134490476Y-105759580D02*
X134442857Y-105807200D01*
X134442857Y-105807200D02*
X134347619Y-105854819D01*
X134347619Y-105854819D02*
X134061905Y-105854819D01*
X134061905Y-105854819D02*
X133966667Y-105807200D01*
X133966667Y-105807200D02*
X133919048Y-105759580D01*
X108954819Y-65714285D02*
X107954819Y-65714285D01*
X108431009Y-65714285D02*
X108431009Y-65142857D01*
X108954819Y-65142857D02*
X107954819Y-65142857D01*
X108954819Y-64142857D02*
X108954819Y-64714285D01*
X108954819Y-64428571D02*
X107954819Y-64428571D01*
X107954819Y-64428571D02*
X108097676Y-64523809D01*
X108097676Y-64523809D02*
X108192914Y-64619047D01*
X108192914Y-64619047D02*
X108240533Y-64714285D01*
X107954819Y-63523809D02*
X107954819Y-63428571D01*
X107954819Y-63428571D02*
X108002438Y-63333333D01*
X108002438Y-63333333D02*
X108050057Y-63285714D01*
X108050057Y-63285714D02*
X108145295Y-63238095D01*
X108145295Y-63238095D02*
X108335771Y-63190476D01*
X108335771Y-63190476D02*
X108573866Y-63190476D01*
X108573866Y-63190476D02*
X108764342Y-63238095D01*
X108764342Y-63238095D02*
X108859580Y-63285714D01*
X108859580Y-63285714D02*
X108907200Y-63333333D01*
X108907200Y-63333333D02*
X108954819Y-63428571D01*
X108954819Y-63428571D02*
X108954819Y-63523809D01*
X108954819Y-63523809D02*
X108907200Y-63619047D01*
X108907200Y-63619047D02*
X108859580Y-63666666D01*
X108859580Y-63666666D02*
X108764342Y-63714285D01*
X108764342Y-63714285D02*
X108573866Y-63761904D01*
X108573866Y-63761904D02*
X108335771Y-63761904D01*
X108335771Y-63761904D02*
X108145295Y-63714285D01*
X108145295Y-63714285D02*
X108050057Y-63666666D01*
X108050057Y-63666666D02*
X108002438Y-63619047D01*
X108002438Y-63619047D02*
X107954819Y-63523809D01*
X108954819Y-62238095D02*
X108954819Y-62809523D01*
X108954819Y-62523809D02*
X107954819Y-62523809D01*
X107954819Y-62523809D02*
X108097676Y-62619047D01*
X108097676Y-62619047D02*
X108192914Y-62714285D01*
X108192914Y-62714285D02*
X108240533Y-62809523D01*
X136964285Y-79954819D02*
X136964285Y-80669104D01*
X136964285Y-80669104D02*
X136916666Y-80811961D01*
X136916666Y-80811961D02*
X136821428Y-80907200D01*
X136821428Y-80907200D02*
X136678571Y-80954819D01*
X136678571Y-80954819D02*
X136583333Y-80954819D01*
X137964285Y-80954819D02*
X137392857Y-80954819D01*
X137678571Y-80954819D02*
X137678571Y-79954819D01*
X137678571Y-79954819D02*
X137583333Y-80097676D01*
X137583333Y-80097676D02*
X137488095Y-80192914D01*
X137488095Y-80192914D02*
X137392857Y-80240533D01*
X138583333Y-79954819D02*
X138678571Y-79954819D01*
X138678571Y-79954819D02*
X138773809Y-80002438D01*
X138773809Y-80002438D02*
X138821428Y-80050057D01*
X138821428Y-80050057D02*
X138869047Y-80145295D01*
X138869047Y-80145295D02*
X138916666Y-80335771D01*
X138916666Y-80335771D02*
X138916666Y-80573866D01*
X138916666Y-80573866D02*
X138869047Y-80764342D01*
X138869047Y-80764342D02*
X138821428Y-80859580D01*
X138821428Y-80859580D02*
X138773809Y-80907200D01*
X138773809Y-80907200D02*
X138678571Y-80954819D01*
X138678571Y-80954819D02*
X138583333Y-80954819D01*
X138583333Y-80954819D02*
X138488095Y-80907200D01*
X138488095Y-80907200D02*
X138440476Y-80859580D01*
X138440476Y-80859580D02*
X138392857Y-80764342D01*
X138392857Y-80764342D02*
X138345238Y-80573866D01*
X138345238Y-80573866D02*
X138345238Y-80335771D01*
X138345238Y-80335771D02*
X138392857Y-80145295D01*
X138392857Y-80145295D02*
X138440476Y-80050057D01*
X138440476Y-80050057D02*
X138488095Y-80002438D01*
X138488095Y-80002438D02*
X138583333Y-79954819D01*
X139773809Y-80288152D02*
X139773809Y-80954819D01*
X139535714Y-79907200D02*
X139297619Y-80621485D01*
X139297619Y-80621485D02*
X139916666Y-80621485D01*
X113214285Y-140381009D02*
X112880952Y-140381009D01*
X112880952Y-140904819D02*
X112880952Y-139904819D01*
X112880952Y-139904819D02*
X113357142Y-139904819D01*
X114071428Y-140381009D02*
X114214285Y-140428628D01*
X114214285Y-140428628D02*
X114261904Y-140476247D01*
X114261904Y-140476247D02*
X114309523Y-140571485D01*
X114309523Y-140571485D02*
X114309523Y-140714342D01*
X114309523Y-140714342D02*
X114261904Y-140809580D01*
X114261904Y-140809580D02*
X114214285Y-140857200D01*
X114214285Y-140857200D02*
X114119047Y-140904819D01*
X114119047Y-140904819D02*
X113738095Y-140904819D01*
X113738095Y-140904819D02*
X113738095Y-139904819D01*
X113738095Y-139904819D02*
X114071428Y-139904819D01*
X114071428Y-139904819D02*
X114166666Y-139952438D01*
X114166666Y-139952438D02*
X114214285Y-140000057D01*
X114214285Y-140000057D02*
X114261904Y-140095295D01*
X114261904Y-140095295D02*
X114261904Y-140190533D01*
X114261904Y-140190533D02*
X114214285Y-140285771D01*
X114214285Y-140285771D02*
X114166666Y-140333390D01*
X114166666Y-140333390D02*
X114071428Y-140381009D01*
X114071428Y-140381009D02*
X113738095Y-140381009D01*
X114642857Y-139904819D02*
X115261904Y-139904819D01*
X115261904Y-139904819D02*
X114928571Y-140285771D01*
X114928571Y-140285771D02*
X115071428Y-140285771D01*
X115071428Y-140285771D02*
X115166666Y-140333390D01*
X115166666Y-140333390D02*
X115214285Y-140381009D01*
X115214285Y-140381009D02*
X115261904Y-140476247D01*
X115261904Y-140476247D02*
X115261904Y-140714342D01*
X115261904Y-140714342D02*
X115214285Y-140809580D01*
X115214285Y-140809580D02*
X115166666Y-140857200D01*
X115166666Y-140857200D02*
X115071428Y-140904819D01*
X115071428Y-140904819D02*
X114785714Y-140904819D01*
X114785714Y-140904819D02*
X114690476Y-140857200D01*
X114690476Y-140857200D02*
X114642857Y-140809580D01*
X115880952Y-139904819D02*
X115976190Y-139904819D01*
X115976190Y-139904819D02*
X116071428Y-139952438D01*
X116071428Y-139952438D02*
X116119047Y-140000057D01*
X116119047Y-140000057D02*
X116166666Y-140095295D01*
X116166666Y-140095295D02*
X116214285Y-140285771D01*
X116214285Y-140285771D02*
X116214285Y-140523866D01*
X116214285Y-140523866D02*
X116166666Y-140714342D01*
X116166666Y-140714342D02*
X116119047Y-140809580D01*
X116119047Y-140809580D02*
X116071428Y-140857200D01*
X116071428Y-140857200D02*
X115976190Y-140904819D01*
X115976190Y-140904819D02*
X115880952Y-140904819D01*
X115880952Y-140904819D02*
X115785714Y-140857200D01*
X115785714Y-140857200D02*
X115738095Y-140809580D01*
X115738095Y-140809580D02*
X115690476Y-140714342D01*
X115690476Y-140714342D02*
X115642857Y-140523866D01*
X115642857Y-140523866D02*
X115642857Y-140285771D01*
X115642857Y-140285771D02*
X115690476Y-140095295D01*
X115690476Y-140095295D02*
X115738095Y-140000057D01*
X115738095Y-140000057D02*
X115785714Y-139952438D01*
X115785714Y-139952438D02*
X115880952Y-139904819D01*
X117166666Y-140904819D02*
X116595238Y-140904819D01*
X116880952Y-140904819D02*
X116880952Y-139904819D01*
X116880952Y-139904819D02*
X116785714Y-140047676D01*
X116785714Y-140047676D02*
X116690476Y-140142914D01*
X116690476Y-140142914D02*
X116595238Y-140190533D01*
X135004819Y-86369047D02*
X134528628Y-86702380D01*
X135004819Y-86940475D02*
X134004819Y-86940475D01*
X134004819Y-86940475D02*
X134004819Y-86559523D01*
X134004819Y-86559523D02*
X134052438Y-86464285D01*
X134052438Y-86464285D02*
X134100057Y-86416666D01*
X134100057Y-86416666D02*
X134195295Y-86369047D01*
X134195295Y-86369047D02*
X134338152Y-86369047D01*
X134338152Y-86369047D02*
X134433390Y-86416666D01*
X134433390Y-86416666D02*
X134481009Y-86464285D01*
X134481009Y-86464285D02*
X134528628Y-86559523D01*
X134528628Y-86559523D02*
X134528628Y-86940475D01*
X135004819Y-85416666D02*
X135004819Y-85988094D01*
X135004819Y-85702380D02*
X134004819Y-85702380D01*
X134004819Y-85702380D02*
X134147676Y-85797618D01*
X134147676Y-85797618D02*
X134242914Y-85892856D01*
X134242914Y-85892856D02*
X134290533Y-85988094D01*
X134004819Y-84797618D02*
X134004819Y-84702380D01*
X134004819Y-84702380D02*
X134052438Y-84607142D01*
X134052438Y-84607142D02*
X134100057Y-84559523D01*
X134100057Y-84559523D02*
X134195295Y-84511904D01*
X134195295Y-84511904D02*
X134385771Y-84464285D01*
X134385771Y-84464285D02*
X134623866Y-84464285D01*
X134623866Y-84464285D02*
X134814342Y-84511904D01*
X134814342Y-84511904D02*
X134909580Y-84559523D01*
X134909580Y-84559523D02*
X134957200Y-84607142D01*
X134957200Y-84607142D02*
X135004819Y-84702380D01*
X135004819Y-84702380D02*
X135004819Y-84797618D01*
X135004819Y-84797618D02*
X134957200Y-84892856D01*
X134957200Y-84892856D02*
X134909580Y-84940475D01*
X134909580Y-84940475D02*
X134814342Y-84988094D01*
X134814342Y-84988094D02*
X134623866Y-85035713D01*
X134623866Y-85035713D02*
X134385771Y-85035713D01*
X134385771Y-85035713D02*
X134195295Y-84988094D01*
X134195295Y-84988094D02*
X134100057Y-84940475D01*
X134100057Y-84940475D02*
X134052438Y-84892856D01*
X134052438Y-84892856D02*
X134004819Y-84797618D01*
X134004819Y-84130951D02*
X134004819Y-83511904D01*
X134004819Y-83511904D02*
X134385771Y-83845237D01*
X134385771Y-83845237D02*
X134385771Y-83702380D01*
X134385771Y-83702380D02*
X134433390Y-83607142D01*
X134433390Y-83607142D02*
X134481009Y-83559523D01*
X134481009Y-83559523D02*
X134576247Y-83511904D01*
X134576247Y-83511904D02*
X134814342Y-83511904D01*
X134814342Y-83511904D02*
X134909580Y-83559523D01*
X134909580Y-83559523D02*
X134957200Y-83607142D01*
X134957200Y-83607142D02*
X135004819Y-83702380D01*
X135004819Y-83702380D02*
X135004819Y-83988094D01*
X135004819Y-83988094D02*
X134957200Y-84083332D01*
X134957200Y-84083332D02*
X134909580Y-84130951D01*
X117380952Y-81204819D02*
X117047619Y-80728628D01*
X116809524Y-81204819D02*
X116809524Y-80204819D01*
X116809524Y-80204819D02*
X117190476Y-80204819D01*
X117190476Y-80204819D02*
X117285714Y-80252438D01*
X117285714Y-80252438D02*
X117333333Y-80300057D01*
X117333333Y-80300057D02*
X117380952Y-80395295D01*
X117380952Y-80395295D02*
X117380952Y-80538152D01*
X117380952Y-80538152D02*
X117333333Y-80633390D01*
X117333333Y-80633390D02*
X117285714Y-80681009D01*
X117285714Y-80681009D02*
X117190476Y-80728628D01*
X117190476Y-80728628D02*
X116809524Y-80728628D01*
X118333333Y-81204819D02*
X117761905Y-81204819D01*
X118047619Y-81204819D02*
X118047619Y-80204819D01*
X118047619Y-80204819D02*
X117952381Y-80347676D01*
X117952381Y-80347676D02*
X117857143Y-80442914D01*
X117857143Y-80442914D02*
X117761905Y-80490533D01*
X119285714Y-81204819D02*
X118714286Y-81204819D01*
X119000000Y-81204819D02*
X119000000Y-80204819D01*
X119000000Y-80204819D02*
X118904762Y-80347676D01*
X118904762Y-80347676D02*
X118809524Y-80442914D01*
X118809524Y-80442914D02*
X118714286Y-80490533D01*
X119904762Y-80204819D02*
X120000000Y-80204819D01*
X120000000Y-80204819D02*
X120095238Y-80252438D01*
X120095238Y-80252438D02*
X120142857Y-80300057D01*
X120142857Y-80300057D02*
X120190476Y-80395295D01*
X120190476Y-80395295D02*
X120238095Y-80585771D01*
X120238095Y-80585771D02*
X120238095Y-80823866D01*
X120238095Y-80823866D02*
X120190476Y-81014342D01*
X120190476Y-81014342D02*
X120142857Y-81109580D01*
X120142857Y-81109580D02*
X120095238Y-81157200D01*
X120095238Y-81157200D02*
X120000000Y-81204819D01*
X120000000Y-81204819D02*
X119904762Y-81204819D01*
X119904762Y-81204819D02*
X119809524Y-81157200D01*
X119809524Y-81157200D02*
X119761905Y-81109580D01*
X119761905Y-81109580D02*
X119714286Y-81014342D01*
X119714286Y-81014342D02*
X119666667Y-80823866D01*
X119666667Y-80823866D02*
X119666667Y-80585771D01*
X119666667Y-80585771D02*
X119714286Y-80395295D01*
X119714286Y-80395295D02*
X119761905Y-80300057D01*
X119761905Y-80300057D02*
X119809524Y-80252438D01*
X119809524Y-80252438D02*
X119904762Y-80204819D01*
X141480952Y-109959580D02*
X141433333Y-110007200D01*
X141433333Y-110007200D02*
X141290476Y-110054819D01*
X141290476Y-110054819D02*
X141195238Y-110054819D01*
X141195238Y-110054819D02*
X141052381Y-110007200D01*
X141052381Y-110007200D02*
X140957143Y-109911961D01*
X140957143Y-109911961D02*
X140909524Y-109816723D01*
X140909524Y-109816723D02*
X140861905Y-109626247D01*
X140861905Y-109626247D02*
X140861905Y-109483390D01*
X140861905Y-109483390D02*
X140909524Y-109292914D01*
X140909524Y-109292914D02*
X140957143Y-109197676D01*
X140957143Y-109197676D02*
X141052381Y-109102438D01*
X141052381Y-109102438D02*
X141195238Y-109054819D01*
X141195238Y-109054819D02*
X141290476Y-109054819D01*
X141290476Y-109054819D02*
X141433333Y-109102438D01*
X141433333Y-109102438D02*
X141480952Y-109150057D01*
X141861905Y-109150057D02*
X141909524Y-109102438D01*
X141909524Y-109102438D02*
X142004762Y-109054819D01*
X142004762Y-109054819D02*
X142242857Y-109054819D01*
X142242857Y-109054819D02*
X142338095Y-109102438D01*
X142338095Y-109102438D02*
X142385714Y-109150057D01*
X142385714Y-109150057D02*
X142433333Y-109245295D01*
X142433333Y-109245295D02*
X142433333Y-109340533D01*
X142433333Y-109340533D02*
X142385714Y-109483390D01*
X142385714Y-109483390D02*
X141814286Y-110054819D01*
X141814286Y-110054819D02*
X142433333Y-110054819D01*
X143052381Y-109054819D02*
X143147619Y-109054819D01*
X143147619Y-109054819D02*
X143242857Y-109102438D01*
X143242857Y-109102438D02*
X143290476Y-109150057D01*
X143290476Y-109150057D02*
X143338095Y-109245295D01*
X143338095Y-109245295D02*
X143385714Y-109435771D01*
X143385714Y-109435771D02*
X143385714Y-109673866D01*
X143385714Y-109673866D02*
X143338095Y-109864342D01*
X143338095Y-109864342D02*
X143290476Y-109959580D01*
X143290476Y-109959580D02*
X143242857Y-110007200D01*
X143242857Y-110007200D02*
X143147619Y-110054819D01*
X143147619Y-110054819D02*
X143052381Y-110054819D01*
X143052381Y-110054819D02*
X142957143Y-110007200D01*
X142957143Y-110007200D02*
X142909524Y-109959580D01*
X142909524Y-109959580D02*
X142861905Y-109864342D01*
X142861905Y-109864342D02*
X142814286Y-109673866D01*
X142814286Y-109673866D02*
X142814286Y-109435771D01*
X142814286Y-109435771D02*
X142861905Y-109245295D01*
X142861905Y-109245295D02*
X142909524Y-109150057D01*
X142909524Y-109150057D02*
X142957143Y-109102438D01*
X142957143Y-109102438D02*
X143052381Y-109054819D01*
X144242857Y-109388152D02*
X144242857Y-110054819D01*
X144004762Y-109007200D02*
X143766667Y-109721485D01*
X143766667Y-109721485D02*
X144385714Y-109721485D01*
X101130952Y-93454819D02*
X100797619Y-92978628D01*
X100559524Y-93454819D02*
X100559524Y-92454819D01*
X100559524Y-92454819D02*
X100940476Y-92454819D01*
X100940476Y-92454819D02*
X101035714Y-92502438D01*
X101035714Y-92502438D02*
X101083333Y-92550057D01*
X101083333Y-92550057D02*
X101130952Y-92645295D01*
X101130952Y-92645295D02*
X101130952Y-92788152D01*
X101130952Y-92788152D02*
X101083333Y-92883390D01*
X101083333Y-92883390D02*
X101035714Y-92931009D01*
X101035714Y-92931009D02*
X100940476Y-92978628D01*
X100940476Y-92978628D02*
X100559524Y-92978628D01*
X102083333Y-93454819D02*
X101511905Y-93454819D01*
X101797619Y-93454819D02*
X101797619Y-92454819D01*
X101797619Y-92454819D02*
X101702381Y-92597676D01*
X101702381Y-92597676D02*
X101607143Y-92692914D01*
X101607143Y-92692914D02*
X101511905Y-92740533D01*
X102702381Y-92454819D02*
X102797619Y-92454819D01*
X102797619Y-92454819D02*
X102892857Y-92502438D01*
X102892857Y-92502438D02*
X102940476Y-92550057D01*
X102940476Y-92550057D02*
X102988095Y-92645295D01*
X102988095Y-92645295D02*
X103035714Y-92835771D01*
X103035714Y-92835771D02*
X103035714Y-93073866D01*
X103035714Y-93073866D02*
X102988095Y-93264342D01*
X102988095Y-93264342D02*
X102940476Y-93359580D01*
X102940476Y-93359580D02*
X102892857Y-93407200D01*
X102892857Y-93407200D02*
X102797619Y-93454819D01*
X102797619Y-93454819D02*
X102702381Y-93454819D01*
X102702381Y-93454819D02*
X102607143Y-93407200D01*
X102607143Y-93407200D02*
X102559524Y-93359580D01*
X102559524Y-93359580D02*
X102511905Y-93264342D01*
X102511905Y-93264342D02*
X102464286Y-93073866D01*
X102464286Y-93073866D02*
X102464286Y-92835771D01*
X102464286Y-92835771D02*
X102511905Y-92645295D01*
X102511905Y-92645295D02*
X102559524Y-92550057D01*
X102559524Y-92550057D02*
X102607143Y-92502438D01*
X102607143Y-92502438D02*
X102702381Y-92454819D01*
X103511905Y-93454819D02*
X103702381Y-93454819D01*
X103702381Y-93454819D02*
X103797619Y-93407200D01*
X103797619Y-93407200D02*
X103845238Y-93359580D01*
X103845238Y-93359580D02*
X103940476Y-93216723D01*
X103940476Y-93216723D02*
X103988095Y-93026247D01*
X103988095Y-93026247D02*
X103988095Y-92645295D01*
X103988095Y-92645295D02*
X103940476Y-92550057D01*
X103940476Y-92550057D02*
X103892857Y-92502438D01*
X103892857Y-92502438D02*
X103797619Y-92454819D01*
X103797619Y-92454819D02*
X103607143Y-92454819D01*
X103607143Y-92454819D02*
X103511905Y-92502438D01*
X103511905Y-92502438D02*
X103464286Y-92550057D01*
X103464286Y-92550057D02*
X103416667Y-92645295D01*
X103416667Y-92645295D02*
X103416667Y-92883390D01*
X103416667Y-92883390D02*
X103464286Y-92978628D01*
X103464286Y-92978628D02*
X103511905Y-93026247D01*
X103511905Y-93026247D02*
X103607143Y-93073866D01*
X103607143Y-93073866D02*
X103797619Y-93073866D01*
X103797619Y-93073866D02*
X103892857Y-93026247D01*
X103892857Y-93026247D02*
X103940476Y-92978628D01*
X103940476Y-92978628D02*
X103988095Y-92883390D01*
X102714285Y-113454819D02*
X102714285Y-114169104D01*
X102714285Y-114169104D02*
X102666666Y-114311961D01*
X102666666Y-114311961D02*
X102571428Y-114407200D01*
X102571428Y-114407200D02*
X102428571Y-114454819D01*
X102428571Y-114454819D02*
X102333333Y-114454819D01*
X103095238Y-113454819D02*
X103714285Y-113454819D01*
X103714285Y-113454819D02*
X103380952Y-113835771D01*
X103380952Y-113835771D02*
X103523809Y-113835771D01*
X103523809Y-113835771D02*
X103619047Y-113883390D01*
X103619047Y-113883390D02*
X103666666Y-113931009D01*
X103666666Y-113931009D02*
X103714285Y-114026247D01*
X103714285Y-114026247D02*
X103714285Y-114264342D01*
X103714285Y-114264342D02*
X103666666Y-114359580D01*
X103666666Y-114359580D02*
X103619047Y-114407200D01*
X103619047Y-114407200D02*
X103523809Y-114454819D01*
X103523809Y-114454819D02*
X103238095Y-114454819D01*
X103238095Y-114454819D02*
X103142857Y-114407200D01*
X103142857Y-114407200D02*
X103095238Y-114359580D01*
X104333333Y-113454819D02*
X104428571Y-113454819D01*
X104428571Y-113454819D02*
X104523809Y-113502438D01*
X104523809Y-113502438D02*
X104571428Y-113550057D01*
X104571428Y-113550057D02*
X104619047Y-113645295D01*
X104619047Y-113645295D02*
X104666666Y-113835771D01*
X104666666Y-113835771D02*
X104666666Y-114073866D01*
X104666666Y-114073866D02*
X104619047Y-114264342D01*
X104619047Y-114264342D02*
X104571428Y-114359580D01*
X104571428Y-114359580D02*
X104523809Y-114407200D01*
X104523809Y-114407200D02*
X104428571Y-114454819D01*
X104428571Y-114454819D02*
X104333333Y-114454819D01*
X104333333Y-114454819D02*
X104238095Y-114407200D01*
X104238095Y-114407200D02*
X104190476Y-114359580D01*
X104190476Y-114359580D02*
X104142857Y-114264342D01*
X104142857Y-114264342D02*
X104095238Y-114073866D01*
X104095238Y-114073866D02*
X104095238Y-113835771D01*
X104095238Y-113835771D02*
X104142857Y-113645295D01*
X104142857Y-113645295D02*
X104190476Y-113550057D01*
X104190476Y-113550057D02*
X104238095Y-113502438D01*
X104238095Y-113502438D02*
X104333333Y-113454819D01*
X105000000Y-113454819D02*
X105619047Y-113454819D01*
X105619047Y-113454819D02*
X105285714Y-113835771D01*
X105285714Y-113835771D02*
X105428571Y-113835771D01*
X105428571Y-113835771D02*
X105523809Y-113883390D01*
X105523809Y-113883390D02*
X105571428Y-113931009D01*
X105571428Y-113931009D02*
X105619047Y-114026247D01*
X105619047Y-114026247D02*
X105619047Y-114264342D01*
X105619047Y-114264342D02*
X105571428Y-114359580D01*
X105571428Y-114359580D02*
X105523809Y-114407200D01*
X105523809Y-114407200D02*
X105428571Y-114454819D01*
X105428571Y-114454819D02*
X105142857Y-114454819D01*
X105142857Y-114454819D02*
X105047619Y-114407200D01*
X105047619Y-114407200D02*
X105000000Y-114359580D01*
X117780952Y-102059580D02*
X117733333Y-102107200D01*
X117733333Y-102107200D02*
X117590476Y-102154819D01*
X117590476Y-102154819D02*
X117495238Y-102154819D01*
X117495238Y-102154819D02*
X117352381Y-102107200D01*
X117352381Y-102107200D02*
X117257143Y-102011961D01*
X117257143Y-102011961D02*
X117209524Y-101916723D01*
X117209524Y-101916723D02*
X117161905Y-101726247D01*
X117161905Y-101726247D02*
X117161905Y-101583390D01*
X117161905Y-101583390D02*
X117209524Y-101392914D01*
X117209524Y-101392914D02*
X117257143Y-101297676D01*
X117257143Y-101297676D02*
X117352381Y-101202438D01*
X117352381Y-101202438D02*
X117495238Y-101154819D01*
X117495238Y-101154819D02*
X117590476Y-101154819D01*
X117590476Y-101154819D02*
X117733333Y-101202438D01*
X117733333Y-101202438D02*
X117780952Y-101250057D01*
X118161905Y-101250057D02*
X118209524Y-101202438D01*
X118209524Y-101202438D02*
X118304762Y-101154819D01*
X118304762Y-101154819D02*
X118542857Y-101154819D01*
X118542857Y-101154819D02*
X118638095Y-101202438D01*
X118638095Y-101202438D02*
X118685714Y-101250057D01*
X118685714Y-101250057D02*
X118733333Y-101345295D01*
X118733333Y-101345295D02*
X118733333Y-101440533D01*
X118733333Y-101440533D02*
X118685714Y-101583390D01*
X118685714Y-101583390D02*
X118114286Y-102154819D01*
X118114286Y-102154819D02*
X118733333Y-102154819D01*
X119352381Y-101154819D02*
X119447619Y-101154819D01*
X119447619Y-101154819D02*
X119542857Y-101202438D01*
X119542857Y-101202438D02*
X119590476Y-101250057D01*
X119590476Y-101250057D02*
X119638095Y-101345295D01*
X119638095Y-101345295D02*
X119685714Y-101535771D01*
X119685714Y-101535771D02*
X119685714Y-101773866D01*
X119685714Y-101773866D02*
X119638095Y-101964342D01*
X119638095Y-101964342D02*
X119590476Y-102059580D01*
X119590476Y-102059580D02*
X119542857Y-102107200D01*
X119542857Y-102107200D02*
X119447619Y-102154819D01*
X119447619Y-102154819D02*
X119352381Y-102154819D01*
X119352381Y-102154819D02*
X119257143Y-102107200D01*
X119257143Y-102107200D02*
X119209524Y-102059580D01*
X119209524Y-102059580D02*
X119161905Y-101964342D01*
X119161905Y-101964342D02*
X119114286Y-101773866D01*
X119114286Y-101773866D02*
X119114286Y-101535771D01*
X119114286Y-101535771D02*
X119161905Y-101345295D01*
X119161905Y-101345295D02*
X119209524Y-101250057D01*
X119209524Y-101250057D02*
X119257143Y-101202438D01*
X119257143Y-101202438D02*
X119352381Y-101154819D01*
X120590476Y-101154819D02*
X120114286Y-101154819D01*
X120114286Y-101154819D02*
X120066667Y-101631009D01*
X120066667Y-101631009D02*
X120114286Y-101583390D01*
X120114286Y-101583390D02*
X120209524Y-101535771D01*
X120209524Y-101535771D02*
X120447619Y-101535771D01*
X120447619Y-101535771D02*
X120542857Y-101583390D01*
X120542857Y-101583390D02*
X120590476Y-101631009D01*
X120590476Y-101631009D02*
X120638095Y-101726247D01*
X120638095Y-101726247D02*
X120638095Y-101964342D01*
X120638095Y-101964342D02*
X120590476Y-102059580D01*
X120590476Y-102059580D02*
X120542857Y-102107200D01*
X120542857Y-102107200D02*
X120447619Y-102154819D01*
X120447619Y-102154819D02*
X120209524Y-102154819D01*
X120209524Y-102154819D02*
X120114286Y-102107200D01*
X120114286Y-102107200D02*
X120066667Y-102059580D01*
X118285714Y-103054819D02*
X118285714Y-103864342D01*
X118285714Y-103864342D02*
X118333333Y-103959580D01*
X118333333Y-103959580D02*
X118380952Y-104007200D01*
X118380952Y-104007200D02*
X118476190Y-104054819D01*
X118476190Y-104054819D02*
X118666666Y-104054819D01*
X118666666Y-104054819D02*
X118761904Y-104007200D01*
X118761904Y-104007200D02*
X118809523Y-103959580D01*
X118809523Y-103959580D02*
X118857142Y-103864342D01*
X118857142Y-103864342D02*
X118857142Y-103054819D01*
X119238095Y-103054819D02*
X119857142Y-103054819D01*
X119857142Y-103054819D02*
X119523809Y-103435771D01*
X119523809Y-103435771D02*
X119666666Y-103435771D01*
X119666666Y-103435771D02*
X119761904Y-103483390D01*
X119761904Y-103483390D02*
X119809523Y-103531009D01*
X119809523Y-103531009D02*
X119857142Y-103626247D01*
X119857142Y-103626247D02*
X119857142Y-103864342D01*
X119857142Y-103864342D02*
X119809523Y-103959580D01*
X119809523Y-103959580D02*
X119761904Y-104007200D01*
X119761904Y-104007200D02*
X119666666Y-104054819D01*
X119666666Y-104054819D02*
X119380952Y-104054819D01*
X119380952Y-104054819D02*
X119285714Y-104007200D01*
X119285714Y-104007200D02*
X119238095Y-103959580D01*
X120476190Y-103054819D02*
X120571428Y-103054819D01*
X120571428Y-103054819D02*
X120666666Y-103102438D01*
X120666666Y-103102438D02*
X120714285Y-103150057D01*
X120714285Y-103150057D02*
X120761904Y-103245295D01*
X120761904Y-103245295D02*
X120809523Y-103435771D01*
X120809523Y-103435771D02*
X120809523Y-103673866D01*
X120809523Y-103673866D02*
X120761904Y-103864342D01*
X120761904Y-103864342D02*
X120714285Y-103959580D01*
X120714285Y-103959580D02*
X120666666Y-104007200D01*
X120666666Y-104007200D02*
X120571428Y-104054819D01*
X120571428Y-104054819D02*
X120476190Y-104054819D01*
X120476190Y-104054819D02*
X120380952Y-104007200D01*
X120380952Y-104007200D02*
X120333333Y-103959580D01*
X120333333Y-103959580D02*
X120285714Y-103864342D01*
X120285714Y-103864342D02*
X120238095Y-103673866D01*
X120238095Y-103673866D02*
X120238095Y-103435771D01*
X120238095Y-103435771D02*
X120285714Y-103245295D01*
X120285714Y-103245295D02*
X120333333Y-103150057D01*
X120333333Y-103150057D02*
X120380952Y-103102438D01*
X120380952Y-103102438D02*
X120476190Y-103054819D01*
X121190476Y-103150057D02*
X121238095Y-103102438D01*
X121238095Y-103102438D02*
X121333333Y-103054819D01*
X121333333Y-103054819D02*
X121571428Y-103054819D01*
X121571428Y-103054819D02*
X121666666Y-103102438D01*
X121666666Y-103102438D02*
X121714285Y-103150057D01*
X121714285Y-103150057D02*
X121761904Y-103245295D01*
X121761904Y-103245295D02*
X121761904Y-103340533D01*
X121761904Y-103340533D02*
X121714285Y-103483390D01*
X121714285Y-103483390D02*
X121142857Y-104054819D01*
X121142857Y-104054819D02*
X121761904Y-104054819D01*
X135124819Y-66869047D02*
X134648628Y-67202380D01*
X135124819Y-67440475D02*
X134124819Y-67440475D01*
X134124819Y-67440475D02*
X134124819Y-67059523D01*
X134124819Y-67059523D02*
X134172438Y-66964285D01*
X134172438Y-66964285D02*
X134220057Y-66916666D01*
X134220057Y-66916666D02*
X134315295Y-66869047D01*
X134315295Y-66869047D02*
X134458152Y-66869047D01*
X134458152Y-66869047D02*
X134553390Y-66916666D01*
X134553390Y-66916666D02*
X134601009Y-66964285D01*
X134601009Y-66964285D02*
X134648628Y-67059523D01*
X134648628Y-67059523D02*
X134648628Y-67440475D01*
X135124819Y-65916666D02*
X135124819Y-66488094D01*
X135124819Y-66202380D02*
X134124819Y-66202380D01*
X134124819Y-66202380D02*
X134267676Y-66297618D01*
X134267676Y-66297618D02*
X134362914Y-66392856D01*
X134362914Y-66392856D02*
X134410533Y-66488094D01*
X134124819Y-65297618D02*
X134124819Y-65202380D01*
X134124819Y-65202380D02*
X134172438Y-65107142D01*
X134172438Y-65107142D02*
X134220057Y-65059523D01*
X134220057Y-65059523D02*
X134315295Y-65011904D01*
X134315295Y-65011904D02*
X134505771Y-64964285D01*
X134505771Y-64964285D02*
X134743866Y-64964285D01*
X134743866Y-64964285D02*
X134934342Y-65011904D01*
X134934342Y-65011904D02*
X135029580Y-65059523D01*
X135029580Y-65059523D02*
X135077200Y-65107142D01*
X135077200Y-65107142D02*
X135124819Y-65202380D01*
X135124819Y-65202380D02*
X135124819Y-65297618D01*
X135124819Y-65297618D02*
X135077200Y-65392856D01*
X135077200Y-65392856D02*
X135029580Y-65440475D01*
X135029580Y-65440475D02*
X134934342Y-65488094D01*
X134934342Y-65488094D02*
X134743866Y-65535713D01*
X134743866Y-65535713D02*
X134505771Y-65535713D01*
X134505771Y-65535713D02*
X134315295Y-65488094D01*
X134315295Y-65488094D02*
X134220057Y-65440475D01*
X134220057Y-65440475D02*
X134172438Y-65392856D01*
X134172438Y-65392856D02*
X134124819Y-65297618D01*
X134553390Y-64392856D02*
X134505771Y-64488094D01*
X134505771Y-64488094D02*
X134458152Y-64535713D01*
X134458152Y-64535713D02*
X134362914Y-64583332D01*
X134362914Y-64583332D02*
X134315295Y-64583332D01*
X134315295Y-64583332D02*
X134220057Y-64535713D01*
X134220057Y-64535713D02*
X134172438Y-64488094D01*
X134172438Y-64488094D02*
X134124819Y-64392856D01*
X134124819Y-64392856D02*
X134124819Y-64202380D01*
X134124819Y-64202380D02*
X134172438Y-64107142D01*
X134172438Y-64107142D02*
X134220057Y-64059523D01*
X134220057Y-64059523D02*
X134315295Y-64011904D01*
X134315295Y-64011904D02*
X134362914Y-64011904D01*
X134362914Y-64011904D02*
X134458152Y-64059523D01*
X134458152Y-64059523D02*
X134505771Y-64107142D01*
X134505771Y-64107142D02*
X134553390Y-64202380D01*
X134553390Y-64202380D02*
X134553390Y-64392856D01*
X134553390Y-64392856D02*
X134601009Y-64488094D01*
X134601009Y-64488094D02*
X134648628Y-64535713D01*
X134648628Y-64535713D02*
X134743866Y-64583332D01*
X134743866Y-64583332D02*
X134934342Y-64583332D01*
X134934342Y-64583332D02*
X135029580Y-64535713D01*
X135029580Y-64535713D02*
X135077200Y-64488094D01*
X135077200Y-64488094D02*
X135124819Y-64392856D01*
X135124819Y-64392856D02*
X135124819Y-64202380D01*
X135124819Y-64202380D02*
X135077200Y-64107142D01*
X135077200Y-64107142D02*
X135029580Y-64059523D01*
X135029580Y-64059523D02*
X134934342Y-64011904D01*
X134934342Y-64011904D02*
X134743866Y-64011904D01*
X134743866Y-64011904D02*
X134648628Y-64059523D01*
X134648628Y-64059523D02*
X134601009Y-64107142D01*
X134601009Y-64107142D02*
X134553390Y-64202380D01*
X135004819Y-79379047D02*
X134528628Y-79712380D01*
X135004819Y-79950475D02*
X134004819Y-79950475D01*
X134004819Y-79950475D02*
X134004819Y-79569523D01*
X134004819Y-79569523D02*
X134052438Y-79474285D01*
X134052438Y-79474285D02*
X134100057Y-79426666D01*
X134100057Y-79426666D02*
X134195295Y-79379047D01*
X134195295Y-79379047D02*
X134338152Y-79379047D01*
X134338152Y-79379047D02*
X134433390Y-79426666D01*
X134433390Y-79426666D02*
X134481009Y-79474285D01*
X134481009Y-79474285D02*
X134528628Y-79569523D01*
X134528628Y-79569523D02*
X134528628Y-79950475D01*
X135004819Y-78426666D02*
X135004819Y-78998094D01*
X135004819Y-78712380D02*
X134004819Y-78712380D01*
X134004819Y-78712380D02*
X134147676Y-78807618D01*
X134147676Y-78807618D02*
X134242914Y-78902856D01*
X134242914Y-78902856D02*
X134290533Y-78998094D01*
X134004819Y-77807618D02*
X134004819Y-77712380D01*
X134004819Y-77712380D02*
X134052438Y-77617142D01*
X134052438Y-77617142D02*
X134100057Y-77569523D01*
X134100057Y-77569523D02*
X134195295Y-77521904D01*
X134195295Y-77521904D02*
X134385771Y-77474285D01*
X134385771Y-77474285D02*
X134623866Y-77474285D01*
X134623866Y-77474285D02*
X134814342Y-77521904D01*
X134814342Y-77521904D02*
X134909580Y-77569523D01*
X134909580Y-77569523D02*
X134957200Y-77617142D01*
X134957200Y-77617142D02*
X135004819Y-77712380D01*
X135004819Y-77712380D02*
X135004819Y-77807618D01*
X135004819Y-77807618D02*
X134957200Y-77902856D01*
X134957200Y-77902856D02*
X134909580Y-77950475D01*
X134909580Y-77950475D02*
X134814342Y-77998094D01*
X134814342Y-77998094D02*
X134623866Y-78045713D01*
X134623866Y-78045713D02*
X134385771Y-78045713D01*
X134385771Y-78045713D02*
X134195295Y-77998094D01*
X134195295Y-77998094D02*
X134100057Y-77950475D01*
X134100057Y-77950475D02*
X134052438Y-77902856D01*
X134052438Y-77902856D02*
X134004819Y-77807618D01*
X135004819Y-76521904D02*
X135004819Y-77093332D01*
X135004819Y-76807618D02*
X134004819Y-76807618D01*
X134004819Y-76807618D02*
X134147676Y-76902856D01*
X134147676Y-76902856D02*
X134242914Y-76998094D01*
X134242914Y-76998094D02*
X134290533Y-77093332D01*
D11*
%TO.C,C202*%
X137872164Y-110640000D02*
X138087836Y-110640000D01*
X137872164Y-111360000D02*
X138087836Y-111360000D01*
%TO.C,FB302*%
X114600378Y-115440000D02*
X115399622Y-115440000D01*
X114600378Y-116560000D02*
X115399622Y-116560000D01*
%TO.C,J302*%
X100780000Y-124690000D02*
X100260000Y-124690000D01*
X100260000Y-124690000D02*
X100260000Y-139310000D01*
X115740000Y-125340000D02*
X112410000Y-125340000D01*
X115740000Y-125340000D02*
X115740000Y-138660000D01*
X100780000Y-125340000D02*
X100780000Y-124690000D01*
X100780000Y-125340000D02*
X108890000Y-125340000D01*
X115960000Y-127600000D02*
X115960000Y-129400000D01*
X115740000Y-138660000D02*
X112410000Y-138660000D01*
X108890000Y-138660000D02*
X100780000Y-138660000D01*
X100780000Y-139310000D02*
X100780000Y-138660000D01*
X100260000Y-139310000D02*
X100780000Y-139310000D01*
%TO.C,U301*%
X120000000Y-130440000D02*
X118200000Y-130440000D01*
X120000000Y-130440000D02*
X120800000Y-130440000D01*
X120000000Y-133560000D02*
X119200000Y-133560000D01*
X120000000Y-133560000D02*
X120800000Y-133560000D01*
%TO.C,C201*%
X136292164Y-109240000D02*
X136507836Y-109240000D01*
X136292164Y-109960000D02*
X136507836Y-109960000D01*
%TO.C,J103*%
X107025000Y-90060000D02*
X107525000Y-89560000D01*
X108025000Y-90060000D02*
X107025000Y-90060000D01*
X107525000Y-89560000D02*
X108025000Y-90060000D01*
X100115000Y-89365000D02*
X107725000Y-89365000D01*
X100115000Y-89365000D02*
X100115000Y-72635000D01*
X116085000Y-89365000D02*
X110525000Y-89365000D01*
X116085000Y-89365000D02*
X116085000Y-72635000D01*
X100115000Y-72635000D02*
X107725000Y-72635000D01*
X116085000Y-72635000D02*
X110525000Y-72635000D01*
%TO.C,U102*%
X124825000Y-83400000D02*
X124825000Y-88600000D01*
X124825000Y-88600000D02*
X129725000Y-88600000D01*
X126275000Y-83400000D02*
X124825000Y-83400000D01*
X129725000Y-83400000D02*
X128275000Y-83400000D01*
X129725000Y-88600000D02*
X129725000Y-83400000D01*
X126275000Y-83400000D02*
G75*
G03*
X128275000Y-83400000I1000000J0D01*
G01*
%TO.C,R201*%
X117590000Y-96727064D02*
X117590000Y-95272936D01*
X119410000Y-96727064D02*
X119410000Y-95272936D01*
%TO.C,J101*%
X141395000Y-113595000D02*
X142725000Y-113595000D01*
X141395000Y-114925000D02*
X141395000Y-113595000D01*
X141395000Y-116195000D02*
X141395000Y-126415000D01*
X141395000Y-116195000D02*
X143995000Y-116195000D01*
X141395000Y-126415000D02*
X146595000Y-126415000D01*
X143995000Y-113595000D02*
X146595000Y-113595000D01*
X143995000Y-116195000D02*
X143995000Y-113595000D01*
X146595000Y-113595000D02*
X146595000Y-126415000D01*
%TO.C,R105*%
X118170000Y-85303641D02*
X118170000Y-84996359D01*
X118930000Y-85303641D02*
X118930000Y-84996359D01*
%TO.C,U202*%
X130860000Y-101185000D02*
X130860000Y-100930000D01*
X130860000Y-100930000D02*
X132675000Y-100930000D01*
X130860000Y-90665000D02*
X130860000Y-90920000D01*
X127000000Y-101185000D02*
X130860000Y-101185000D01*
X127000000Y-101185000D02*
X123140000Y-101185000D01*
X127000000Y-90665000D02*
X130860000Y-90665000D01*
X127000000Y-90665000D02*
X123140000Y-90665000D01*
X123140000Y-101185000D02*
X123140000Y-100930000D01*
X123140000Y-90665000D02*
X123140000Y-90920000D01*
%TO.C,R102*%
X121380000Y-68346359D02*
X121380000Y-68653641D01*
X120620000Y-68346359D02*
X120620000Y-68653641D01*
%TO.C,R107*%
X116820000Y-73753641D02*
X116820000Y-73446359D01*
X117580000Y-73753641D02*
X117580000Y-73446359D01*
%TO.C,U104*%
X129725000Y-74600000D02*
X129725000Y-69400000D01*
X129725000Y-69400000D02*
X124825000Y-69400000D01*
X128275000Y-74600000D02*
X129725000Y-74600000D01*
X124825000Y-74600000D02*
X126275000Y-74600000D01*
X124825000Y-69400000D02*
X124825000Y-74600000D01*
X128275000Y-74600000D02*
G75*
G03*
X126275000Y-74600000I-1000000J0D01*
G01*
%TO.C,J102*%
X135670000Y-62670000D02*
X137000000Y-62670000D01*
X135670000Y-64000000D02*
X135670000Y-62670000D01*
X135670000Y-65270000D02*
X135670000Y-75490000D01*
X135670000Y-65270000D02*
X138270000Y-65270000D01*
X135670000Y-75490000D02*
X140870000Y-75490000D01*
X138270000Y-62670000D02*
X140870000Y-62670000D01*
X138270000Y-65270000D02*
X138270000Y-62670000D01*
X140870000Y-62670000D02*
X140870000Y-75490000D01*
%TO.C,C101*%
X106910000Y-94788748D02*
X106910000Y-96211252D01*
X105090000Y-94788748D02*
X105090000Y-96211252D01*
%TO.C,C207*%
X133240000Y-99707836D02*
X133240000Y-99492164D01*
X133960000Y-99707836D02*
X133960000Y-99492164D01*
%TO.C,U101*%
X124825000Y-76400000D02*
X124825000Y-81600000D01*
X124825000Y-81600000D02*
X129725000Y-81600000D01*
X126275000Y-76400000D02*
X124825000Y-76400000D01*
X129725000Y-76400000D02*
X128275000Y-76400000D01*
X129725000Y-81600000D02*
X129725000Y-76400000D01*
X126275000Y-76400000D02*
G75*
G03*
X128275000Y-76400000I1000000J0D01*
G01*
%TO.C,D201*%
X115000000Y-95560000D02*
X116675000Y-95560000D01*
X115000000Y-95560000D02*
X114350000Y-95560000D01*
X115000000Y-92440000D02*
X115650000Y-92440000D01*
X115000000Y-92440000D02*
X114350000Y-92440000D01*
%TO.C,R104*%
X121380000Y-82346359D02*
X121380000Y-82653641D01*
X120620000Y-82346359D02*
X120620000Y-82653641D01*
%TO.C,C206*%
X135892164Y-99840000D02*
X136107836Y-99840000D01*
X135892164Y-100560000D02*
X136107836Y-100560000D01*
%TO.C,R111*%
X133880000Y-72596359D02*
X133880000Y-72903641D01*
X133120000Y-72596359D02*
X133120000Y-72903641D01*
%TO.C,R106*%
X119880000Y-68346359D02*
X119880000Y-68653641D01*
X119120000Y-68346359D02*
X119120000Y-68653641D01*
%TO.C,U201*%
X135265000Y-105000000D02*
X135265000Y-108600000D01*
X135265000Y-105000000D02*
X135265000Y-102800000D01*
X140735000Y-105000000D02*
X140735000Y-107200000D01*
X140735000Y-105000000D02*
X140735000Y-102800000D01*
%TO.C,J301*%
X119595000Y-122605000D02*
X119595000Y-121275000D01*
X120925000Y-122605000D02*
X119595000Y-122605000D01*
X122195000Y-122605000D02*
X132415000Y-122605000D01*
X122195000Y-122605000D02*
X122195000Y-120005000D01*
X132415000Y-122605000D02*
X132415000Y-117405000D01*
X119595000Y-120005000D02*
X119595000Y-117405000D01*
X122195000Y-120005000D02*
X119595000Y-120005000D01*
X119595000Y-117405000D02*
X132415000Y-117405000D01*
%TO.C,U103*%
X129725000Y-67600000D02*
X129725000Y-62400000D01*
X129725000Y-62400000D02*
X124825000Y-62400000D01*
X128275000Y-67600000D02*
X129725000Y-67600000D01*
X124825000Y-67600000D02*
X126275000Y-67600000D01*
X124825000Y-62400000D02*
X124825000Y-67600000D01*
X128275000Y-67600000D02*
G75*
G03*
X126275000Y-67600000I-1000000J0D01*
G01*
%TO.C,C203*%
X133907836Y-106960000D02*
X133692164Y-106960000D01*
X133907836Y-106240000D02*
X133692164Y-106240000D01*
%TO.C,J104*%
X135670000Y-81670000D02*
X137000000Y-81670000D01*
X135670000Y-83000000D02*
X135670000Y-81670000D01*
X135670000Y-84270000D02*
X135670000Y-94490000D01*
X135670000Y-84270000D02*
X138270000Y-84270000D01*
X135670000Y-94490000D02*
X140870000Y-94490000D01*
X138270000Y-81670000D02*
X140870000Y-81670000D01*
X138270000Y-84270000D02*
X138270000Y-81670000D01*
X140870000Y-81670000D02*
X140870000Y-94490000D01*
%TO.C,FB301*%
X114600378Y-141440000D02*
X115399622Y-141440000D01*
X114600378Y-142560000D02*
X115399622Y-142560000D01*
%TO.C,R103*%
X133680000Y-85096359D02*
X133680000Y-85403641D01*
X132920000Y-85096359D02*
X132920000Y-85403641D01*
%TO.C,R110*%
X119153641Y-82380000D02*
X118846359Y-82380000D01*
X119153641Y-81620000D02*
X118846359Y-81620000D01*
%TO.C,C204*%
X139492164Y-109240000D02*
X139707836Y-109240000D01*
X139492164Y-109960000D02*
X139707836Y-109960000D01*
%TO.C,R109*%
X102985000Y-95272936D02*
X102985000Y-95727064D01*
X101515000Y-95272936D02*
X101515000Y-95727064D01*
%TO.C,J303*%
X100780000Y-98690000D02*
X100260000Y-98690000D01*
X100260000Y-98690000D02*
X100260000Y-113310000D01*
X115740000Y-99340000D02*
X112410000Y-99340000D01*
X115740000Y-99340000D02*
X115740000Y-112660000D01*
X100780000Y-99340000D02*
X100780000Y-98690000D01*
X100780000Y-99340000D02*
X108890000Y-99340000D01*
X115960000Y-101600000D02*
X115960000Y-103400000D01*
X115740000Y-112660000D02*
X112410000Y-112660000D01*
X108890000Y-112660000D02*
X100780000Y-112660000D01*
X100780000Y-113310000D02*
X100780000Y-112660000D01*
X100260000Y-113310000D02*
X100780000Y-113310000D01*
%TO.C,C205*%
X120040000Y-99907836D02*
X120040000Y-99692164D01*
X120760000Y-99907836D02*
X120760000Y-99692164D01*
%TO.C,U302*%
X120000000Y-104440000D02*
X118200000Y-104440000D01*
X120000000Y-104440000D02*
X120800000Y-104440000D01*
X120000000Y-107560000D02*
X119200000Y-107560000D01*
X120000000Y-107560000D02*
X120800000Y-107560000D01*
%TO.C,R108*%
X133880000Y-65596359D02*
X133880000Y-65903641D01*
X133120000Y-65596359D02*
X133120000Y-65903641D01*
%TO.C,R101*%
X133680000Y-78106359D02*
X133680000Y-78413641D01*
X132920000Y-78106359D02*
X132920000Y-78413641D01*
%TD*%
M02*
