%TF.GenerationSoftware,KiCad,Pcbnew,7.0.9-7.0.9~ubuntu23.04.1*%
%TF.CreationDate,2024-01-20T22:21:22+00:00*%
%TF.ProjectId,nascontrol-remote,6e617363-6f6e-4747-926f-6c2d72656d6f,rev?*%
%TF.SameCoordinates,Original*%
%TF.FileFunction,Paste,Top*%
%TF.FilePolarity,Positive*%
%FSLAX46Y46*%
G04 Gerber Fmt 4.6, Leading zero omitted, Abs format (unit mm)*
G04 Created by KiCad (PCBNEW 7.0.9-7.0.9~ubuntu23.04.1) date 2024-01-20 22:21:22*
%MOMM*%
%LPD*%
G01*
G04 APERTURE LIST*
G04 Aperture macros list*
%AMRoundRect*
0 Rectangle with rounded corners*
0 $1 Rounding radius*
0 $2 $3 $4 $5 $6 $7 $8 $9 X,Y pos of 4 corners*
0 Add a 4 corners polygon primitive as box body*
4,1,4,$2,$3,$4,$5,$6,$7,$8,$9,$2,$3,0*
0 Add four circle primitives for the rounded corners*
1,1,$1+$1,$2,$3*
1,1,$1+$1,$4,$5*
1,1,$1+$1,$6,$7*
1,1,$1+$1,$8,$9*
0 Add four rect primitives between the rounded corners*
20,1,$1+$1,$2,$3,$4,$5,0*
20,1,$1+$1,$4,$5,$6,$7,0*
20,1,$1+$1,$6,$7,$8,$9,0*
20,1,$1+$1,$8,$9,$2,$3,0*%
G04 Aperture macros list end*
%ADD10RoundRect,0.140000X-0.140000X-0.170000X0.140000X-0.170000X0.140000X0.170000X-0.140000X0.170000X0*%
%ADD11RoundRect,0.218750X-0.218750X-0.381250X0.218750X-0.381250X0.218750X0.381250X-0.218750X0.381250X0*%
%ADD12RoundRect,0.150000X-0.512500X-0.150000X0.512500X-0.150000X0.512500X0.150000X-0.512500X0.150000X0*%
%ADD13R,2.000000X1.780000*%
%ADD14RoundRect,0.250000X0.625000X-0.312500X0.625000X0.312500X-0.625000X0.312500X-0.625000X-0.312500X0*%
%ADD15RoundRect,0.135000X0.185000X-0.135000X0.185000X0.135000X-0.185000X0.135000X-0.185000X-0.135000X0*%
%ADD16RoundRect,0.150000X0.875000X0.150000X-0.875000X0.150000X-0.875000X-0.150000X0.875000X-0.150000X0*%
%ADD17RoundRect,0.135000X-0.185000X0.135000X-0.185000X-0.135000X0.185000X-0.135000X0.185000X0.135000X0*%
%ADD18RoundRect,0.250000X-0.650000X0.325000X-0.650000X-0.325000X0.650000X-0.325000X0.650000X0.325000X0*%
%ADD19RoundRect,0.140000X0.170000X-0.140000X0.170000X0.140000X-0.170000X0.140000X-0.170000X-0.140000X0*%
%ADD20RoundRect,0.150000X0.587500X0.150000X-0.587500X0.150000X-0.587500X-0.150000X0.587500X-0.150000X0*%
%ADD21RoundRect,0.100000X0.100000X-0.637500X0.100000X0.637500X-0.100000X0.637500X-0.100000X-0.637500X0*%
%ADD22RoundRect,0.140000X0.140000X0.170000X-0.140000X0.170000X-0.140000X-0.170000X0.140000X-0.170000X0*%
%ADD23RoundRect,0.135000X0.135000X0.185000X-0.135000X0.185000X-0.135000X-0.185000X0.135000X-0.185000X0*%
%ADD24RoundRect,0.250000X-0.450000X0.262500X-0.450000X-0.262500X0.450000X-0.262500X0.450000X0.262500X0*%
G04 APERTURE END LIST*
D10*
%TO.C,C202*%
X137500000Y-111000000D03*
X138460000Y-111000000D03*
%TD*%
D11*
%TO.C,FB302*%
X113937500Y-116000000D03*
X116062500Y-116000000D03*
%TD*%
D12*
%TO.C,U301*%
X118862500Y-131050000D03*
X118862500Y-132000000D03*
X118862500Y-132950000D03*
X121137500Y-132950000D03*
X121137500Y-132000000D03*
X121137500Y-131050000D03*
%TD*%
D10*
%TO.C,C201*%
X135920000Y-109600000D03*
X136880000Y-109600000D03*
%TD*%
D13*
%TO.C,U102*%
X123465000Y-84730000D03*
X123465000Y-87270000D03*
X131085000Y-87270000D03*
X131085000Y-84730000D03*
%TD*%
D14*
%TO.C,R201*%
X118500000Y-97462500D03*
X118500000Y-94537500D03*
%TD*%
D15*
%TO.C,R105*%
X118550000Y-85660000D03*
X118550000Y-84640000D03*
%TD*%
D16*
%TO.C,U202*%
X131650000Y-100370000D03*
X131650000Y-99100000D03*
X131650000Y-97830000D03*
X131650000Y-96560000D03*
X131650000Y-95290000D03*
X131650000Y-94020000D03*
X131650000Y-92750000D03*
X131650000Y-91480000D03*
X122350000Y-91480000D03*
X122350000Y-92750000D03*
X122350000Y-94020000D03*
X122350000Y-95290000D03*
X122350000Y-96560000D03*
X122350000Y-97830000D03*
X122350000Y-99100000D03*
X122350000Y-100370000D03*
%TD*%
D17*
%TO.C,R102*%
X121000000Y-67990000D03*
X121000000Y-69010000D03*
%TD*%
D15*
%TO.C,R107*%
X117200000Y-74110000D03*
X117200000Y-73090000D03*
%TD*%
D13*
%TO.C,U104*%
X131085000Y-73270000D03*
X131085000Y-70730000D03*
X123465000Y-70730000D03*
X123465000Y-73270000D03*
%TD*%
D18*
%TO.C,C101*%
X106000000Y-94025000D03*
X106000000Y-96975000D03*
%TD*%
D19*
%TO.C,C207*%
X133600000Y-100080000D03*
X133600000Y-99120000D03*
%TD*%
D13*
%TO.C,U101*%
X123465000Y-77730000D03*
X123465000Y-80270000D03*
X131085000Y-80270000D03*
X131085000Y-77730000D03*
%TD*%
D20*
%TO.C,D201*%
X115937500Y-94950000D03*
X115937500Y-93050000D03*
X114062500Y-94000000D03*
%TD*%
D17*
%TO.C,R104*%
X121000000Y-81990000D03*
X121000000Y-83010000D03*
%TD*%
D10*
%TO.C,C206*%
X135520000Y-100200000D03*
X136480000Y-100200000D03*
%TD*%
D17*
%TO.C,R111*%
X133500000Y-72240000D03*
X133500000Y-73260000D03*
%TD*%
%TO.C,R106*%
X119500000Y-67990000D03*
X119500000Y-69010000D03*
%TD*%
D21*
%TO.C,U201*%
X135725000Y-107862500D03*
X136375000Y-107862500D03*
X137025000Y-107862500D03*
X137675000Y-107862500D03*
X138325000Y-107862500D03*
X138975000Y-107862500D03*
X139625000Y-107862500D03*
X140275000Y-107862500D03*
X140275000Y-102137500D03*
X139625000Y-102137500D03*
X138975000Y-102137500D03*
X138325000Y-102137500D03*
X137675000Y-102137500D03*
X137025000Y-102137500D03*
X136375000Y-102137500D03*
X135725000Y-102137500D03*
%TD*%
D13*
%TO.C,U103*%
X131085000Y-66270000D03*
X131085000Y-63730000D03*
X123465000Y-63730000D03*
X123465000Y-66270000D03*
%TD*%
D22*
%TO.C,C203*%
X134280000Y-106600000D03*
X133320000Y-106600000D03*
%TD*%
D11*
%TO.C,FB301*%
X113937500Y-142000000D03*
X116062500Y-142000000D03*
%TD*%
D17*
%TO.C,R103*%
X133300000Y-84740000D03*
X133300000Y-85760000D03*
%TD*%
D23*
%TO.C,R110*%
X119510000Y-82000000D03*
X118490000Y-82000000D03*
%TD*%
D10*
%TO.C,C204*%
X139120000Y-109600000D03*
X140080000Y-109600000D03*
%TD*%
D24*
%TO.C,R109*%
X102250000Y-94587500D03*
X102250000Y-96412500D03*
%TD*%
D19*
%TO.C,C205*%
X120400000Y-100280000D03*
X120400000Y-99320000D03*
%TD*%
D12*
%TO.C,U302*%
X118862500Y-105050000D03*
X118862500Y-106000000D03*
X118862500Y-106950000D03*
X121137500Y-106950000D03*
X121137500Y-106000000D03*
X121137500Y-105050000D03*
%TD*%
D17*
%TO.C,R108*%
X133500000Y-65240000D03*
X133500000Y-66260000D03*
%TD*%
%TO.C,R101*%
X133300000Y-77750000D03*
X133300000Y-78770000D03*
%TD*%
M02*
